0
SECTION
2
HEADER
9
$INSUNITS
70
4
9
$ACADVER
1
AC1014
9
$HANDSEED
5
FFFF
0
ENDSEC
0
SECTION
2
TABLES
0
TABLE
2
VPORT
5
8
100
AcDbSymbolTable
0
ENDTAB
0
TABLE
2
LTYPE
5
5
100
AcDbSymbolTable
0
LTYPE
5
14
100
AcDbSymbolTableRecord
100
AcDbLinetypeTableRecord
2
BYBLOCK
70
0
0
LTYPE
5
15
100
AcDbSymbolTableRecord
100
AcDbLinetypeTableRecord
2
BYLAYER
70
0
0
ENDTAB
0
TABLE
2
LAYER
5
2
100
AcDbSymbolTable
70
2
0
LAYER
5
50
100
AcDbSymbolTableRecord
100
AcDbLayerTableRecord
2
0
70
0
6
CONTINUOUS
0
ENDTAB
0
TABLE
2
STYLE
5
3
100
AcDbSymbolTable
70
1
0
STYLE
5
11
100
AcDbSymbolTableRecord
100
AcDbTextStyleTableRecord
2
STANDARD
70
0
0
ENDTAB
0
TABLE
2
VIEW
5
6
100
AcDbSymbolTable
70
0
0
ENDTAB
0
TABLE
2
UCS
5
7
100
AcDbSymbolTable
70
0
0
ENDTAB
0
TABLE
2
APPID
5
9
100
AcDbSymbolTable
70
2
0
APPID
5
12
100
AcDbSymbolTableRecord
100
AcDbRegAppTableRecord
2
ACAD
70
0
0
ENDTAB
0
TABLE
2
DIMSTYLE
5
A
100
AcDbSymbolTable
70
1
0
ENDTAB
0
TABLE
2
BLOCK_RECORD
5
1
100
AcDbSymbolTable
70
1
0
BLOCK_RECORD
5
1F
100
AcDbSymbolTableRecord
100
AcDbBlockTableRecord
2
*MODEL_SPACE
0
BLOCK_RECORD
5
1B
100
AcDbSymbolTableRecord
100
AcDbBlockTableRecord
2
*PAPER_SPACE
0
ENDTAB
0
ENDSEC
0
SECTION
2
BLOCKS
0
BLOCK
5
20
100
AcDbEntity
100
AcDbBlockBegin
2
*MODEL_SPACE
0
ENDBLK
5
21
100
AcDbEntity
100
AcDbBlockEnd
0
BLOCK
5
1C
100
AcDbEntity
100
AcDbBlockBegin
2
*PAPER_SPACE
0
ENDBLK
5
1D
100
AcDbEntity
100
AcDbBlockEnd
0
ENDSEC
0
SECTION
2
ENTITIES
0
LWPOLYLINE
5
100
100
AcDbEntity
8
0
100
AcDbPolyline
90
79
70
1
43
0.0
10
13.52576853702352
20
-33.626051106705226
42
-0.32491969623290445
10
12.721630952088374
20
-35.83540096344931
10
8.4986545867503196
20
-38.683834488294103
42
-0.32491969623290423
10
6.1489458291575136
20
-38.601780850397468
10
1.1722756963344623
20
-34.713580007757557
42
0.45748393402073206
10
0.87535947739935449
20
-34.772191513444355
10
0
20
-36.30893677584919
10
-0.87535947739935438
20
-34.772191513444355
42
0.45748393402073589
10
-1.1722756963344605
20
-34.71358000775755
10
-6.1489458291575154
20
-38.601780850397475
42
-0.32491969623290645
10
-8.4986545867503249
20
-38.68383448829411
10
-12.721630952088372
20
-35.83540096344931
42
-0.32491969623290773
10
-13.52576853702352
20
-33.626051106705226
10
-12.121718735719504
20
-28.729547549765677
42
-0.32491969623290423
10
-10.26899433724787
20
-27.282040607361481
10
-4.7577854364188807
20
-27.089584951714766
42
0.49018387852032791
10
-4.0184646874802876
20
-26.063484004858299
10
-4.1194206274785454
20
-25.721641661672212
42
0.30258271937642439
10
-4.8001647156433602
20
-25.152919694666828
10
-7.2371779042511495
20
-24.887875303189819
42
0.099197977026145481
10
-11.150734696463305
20
-25.238749127514545
10
-48.359604958825877
20
-36.227605682260318
42
-0.5326746522600514
10
-49.382211320107899
20
-35.380645685833287
10
-48.883254629106681
20
-30.398454412181263
42
-0.18549716056537519
10
-47.269715740782019
20
-27.195375482521303
10
-42.618829414648623
20
-22.971403906662044
42
-0.098397410742228006
10
-39.277691821977847
20
-20.963318610260554
10
-25.549849113137036
20
-16.029836726189266
42
-0.1145730310655334
10
-21.057157024493641
20
-15.502447586744335
10
-9.6558820086980202
20
-16.776649873245809
42
0.44937472904054171
10
-8.7670484620087592
20
-15.975806729071511
10
-8.7684551636396293
20
-15.78154655305462
42
0.39317949924648005
10
-9.5163879688088837
20
-14.989034264403291
10
-44.700532798545147
20
-12.695172497101666
42
-0.57972281639884826
10
-45.310640664949211
20
-11.447921906420028
10
-43.644822098149312
20
-8.990989296348129
42
-0.17288655393399771
10
-38.229395174749911
20
-5.0209580956221043
10
-22.144337395131121
20
-0.21735689098757949
42
-0.17406223914212909
10
-15.396612442165782
20
-0.58523516166974432
10
-7.2612399721561793
20
-4.0165349321806563
42
0.31345004401232857
10
-6.3676873424919966
20
-3.8276085644942115
10
-6.1300907483788603
20
-3.575074912166575
42
0.19100626897955128
10
-4.5
20
0.53635952517959495
10
-4.5000000000000018
20
29.943386552137852
42
-0.19100626897955136
10
-1.7831820860352285
20
36.795777281048139
10
-0.58265456688281547
20
38.071778733270293
42
-0.43217500728492458
10
0.58265456688281814
20
38.071778733270293
10
1.783182086035219
20
36.795777281048146
42
-0.19100626897955136
10
4.5
20
29.943386552137863
10
4.5
20
0.53635952517959584
42
0.19100626897955128
10
6.1300907483788638
20
-3.5750749121665724
10
6.3676873424919975
20
-3.8276085644942088
42
0.31345004401232879
10
7.2612399721561811
20
-4.0165349321806536
10
15.396612442165791
20
-0.5852351616697391
42
-0.17406223914212909
10
22.144337395131124
20
-0.21735689098757893
10
38.229395174749918
20
-5.0209580956221025
42
-0.17288655393399691
10
43.644822098149312
20
-8.9909892963481237
10
45.310640664949211
20
-11.447921906420017
42
-0.57972281639885337
10
44.70053279854514
20
-12.695172497101668
10
9.5163879688088926
20
-14.989034264403291
42
0.39317949924648282
10
8.7684551636396293
20
-15.781546553054618
10
8.7670484620087592
20
-15.975806729071511
42
0.44937472904054171
10
9.6558820086980202
20
-16.776649873245809
10
21.057157024493641
20
-15.502447586744328
42
-0.11457303106553408
10
25.549849113137057
20
-16.029836726189266
10
39.277691821977847
20
-20.963318610260547
42
-0.098397410742229352
10
42.618829414648623
20
-22.971403906662037
10
47.269715740782019
20
-27.195375482521271
42
-0.18549716056537746
10
48.883254629106681
20
-30.398454412181245
10
49.382211320107892
20
-35.380645685833287
42
-0.5326746522600504
10
48.359604958825891
20
-36.227605682260304
10
11.15073469646331
20
-25.238749127514552
42
0.099197977026145412
10
7.2371779042511584
20
-24.887875303189816
10
4.8001647156433611
20
-25.152919694666828
42
0.30258271937642439
10
4.1194206274785463
20
-25.721641661672212
10
4.0184646874802858
20
-26.063484004858303
42
0.49018387852032785
10
4.7577854364188816
20
-27.089584951714766
10
10.268994337247868
20
-27.282040607361481
42
-0.32491969623290484
10
12.121718735719504
20
-28.72954754976567
0
ENDSEC
0
SECTION
2
OBJECTS
0
DICTIONARY
5
C
100
AcDbDictionary
3
ACAD_GROUP
350
D
3
ACAD_MLINESTYLE
350
17
0
DICTIONARY
5
D
100
AcDbDictionary
0
DICTIONARY
5
1A
330
C
100
AcDbDictionary
0
DICTIONARY
5
17
100
AcDbDictionary
0
ENDSEC
0
EOF
