999
dxfrw 0.6.3
  0
SECTION
  2
HEADER
  9
$ACADVER
  1
AC1009
  9
$DWGCODEPAGE
  3
ANSI_1252
  9
$INSBASE
 10
0
 20
0
 30
0
  9
$EXTMIN
 10
-58.78678657158122
 20
-33.59802382321136
 30
0
  9
$EXTMAX
 10
58.78678657158125
 20
43.78647010503393
 30
0
  9
$LIMMIN
 10
0
 20
0
  9
$LIMMAX
 10
420
 20
297
  9
$ORTHOMODE
 70
    0
  9
$REGENMODE
 70
    1
  9
$FILLMODE
 70
    1
  9
$QTEXTMODE
 70
    0
  9
$MIRRTEXT
 70
    0
  9
$DRAGMODE
 70
    2
  9
$LTSCALE
 40
1
  9
$OSMODE
 70
    0
  9
$ATTMODE
 70
    0
  9
$TEXTSIZE
 40
2.5
  9
$TRACEWID
 40
15.68
  9
$TEXTSTYLE
  7
STANDARD
  9
$CLAYER
  8
0
  9
$CELTYPE
  6
BYLAYER
  9
$CECOLOR
 62
  256
  9
$DIMSCALE
 40
2.5
  9
$DIMASZ
 40
2.5
  9
$DIMEXO
 40
0.625
  9
$DIMDLI
 40
3.75
  9
$DIMRND
 40
0
  9
$DIMDLE
 40
0
  9
$DIMEXE
 40
1.25
  9
$DIMTP
 40
0
  9
$DIMTM
 40
0
  9
$DIMTXT
 40
2.5
  9
$DIMCEN
 40
2.5
  9
$DIMTSZ
 40
0
  9
$DIMTOL
 70
    0
  9
$DIMLIM
 70
    0
  9
$DIMTIH
 70
    0
  9
$DIMTOH
 70
    0
  9
$DIMSE1
 70
    0
  9
$DIMSE2
 70
    0
  9
$DIMTAD
 70
    1
  9
$DIMZIN
 70
    8
  9
$DIMBLK
  1

  9
$DIMASO
 70
    1
  9
$DIMSHO
 70
    1
  9
$DIMPOST
  1

  9
$DIMAPOST
  1

  9
$DIMALT
 70
    0
  9
$DIMALTD
 70
    3
  9
$DIMALTF
 40
0.03937
  9
$DIMLFAC
 40
1
  9
$DIMTOFL
 70
    1
  9
$DIMTVP
 40
0
  9
$DIMTIX
 70
    0
  9
$DIMSOXD
 70
    0
  9
$DIMSAH
 70
    0
  9
$DIMBLK1
  1

  9
$DIMBLK2
  1

  9
$DIMSTYLE
  2
STANDARD
  9
$DIMCLRD
 70
    0
  9
$DIMCLRE
 70
    0
  9
$DIMCLRT
 70
    0
  9
$DIMTFAC
 40
1
  9
$DIMGAP
 40
0.625
  9
$LUNITS
 70
    2
  9
$LUPREC
 70
    4
  9
$SKETCHINC
 40
1
  9
$FILLETRAD
 40
0
  9
$AUNITS
 70
    0
  9
$AUPREC
 70
    2
  9
$MENU
  1
.
  9
$ELEVATION
 40
0
  9
$PELEVATION
 40
0
  9
$THICKNESS
 40
0
  9
$LIMCHECK
 70
    0
  9
$BLIPMODE
 70
    0
  9
$CHAMFERA
 40
0
  9
$CHAMFERB
 40
0
  9
$SKPOLY
 70
    0
  9
$USRTIMER
 70
    1
  9
$ANGBASE
 50
0
  9
$ANGDIR
 70
    0
  9
$PDMODE
 70
   34
  9
$PDSIZE
 40
0
  9
$PLINEWID
 40
0
  9
$COORDS
 70
    2
  9
$SPLFRAME
 70
    0
  9
$SPLINETYPE
 70
    2
  9
$SPLINESEGS
 70
    8
  9
$ATTDIA
 70
    1
  9
$ATTREQ
 70
    1
  9
$HANDLING
 70
    1
  9
$HANDSEED
  5
20000
  9
$SURFTAB1
 70
    6
  9
$SURFTAB2
 70
    6
  9
$SURFTYPE
 70
    6
  9
$SURFU
 70
    6
  9
$SURFV
 70
    6
  9
$UCSNAME
  2

  9
$UCSORG
 10
0
 20
0
 30
0
  9
$UCSXDIR
 10
1
 20
0
 30
0
  9
$UCSYDIR
 10
0
 20
1
 30
0
  9
$PUCSNAME
  2

  9
$PUCSORG
 10
0
 20
0
 30
0
  9
$PUCSXDIR
 10
1
 20
0
 30
0
  9
$PUCSYDIR
 10
0
 20
1
 30
0
  9
$USERI1
 70
    0
  9
$USERI2
 70
    0
  9
$USERI3
 70
    0
  9
$USERI4
 70
    0
  9
$USERI5
 70
    0
  9
$USERR1
 40
0
  9
$USERR2
 40
0
  9
$USERR3
 40
0
  9
$USERR4
 40
0
  9
$USERR5
 40
0
  9
$WORLDVIEW
 70
    1
  9
$SHADEDGE
 70
    3
  9
$SHADEDIF
 70
   70
  9
$TILEMODE
 70
    1
  9
$MAXACTVP
 70
   64
  9
$PLIMCHECK
 70
    0
  9
$PEXTMIN
 10
0
 20
0
 30
0
  9
$PEXTMAX
 10
0
 20
0
 30
0
  9
$SNAPSTYLE
 70
    0
  9
$PLIMMIN
 10
0
 20
0
  9
$PLIMMAX
 10
210
 20
297
  9
$UNITMODE
 70
    0
  9
$VISRETAIN
 70
    1
  9
$PLINEGEN
 70
    0
  9
$PSLTSCALE
 70
    1
  0
ENDSEC
  0
SECTION
  2
TABLES
  0
TABLE
  2
VPORT
 70
    1
  0
VPORT
  2
*ACTIVE
 70
    0
 10
0
 20
0
 11
1
 21
1
 12
24.81525564107918
 22
21.98672473956957
 13
0
 23
0
 14
10
 24
10
 15
10
 25
10
 16
0
 26
0
 36
1
 17
0
 27
0
 37
0
 40
79.37382591658934
 41
1.249081557678178
 42
50
 43
0
 44
0
 50
0
 51
0
 71
    0
 72
  100
 73
    1
 74
    3
 75
    0
 76
    1
 77
    0
 78
    0
  0
ENDTAB
  0
TABLE
  2
LTYPE
 70
    4
  0
LTYPE
  2
BYBLOCK
 70
    0
  3

 72
   65
 73
    0
 40
0
  0
LTYPE
  2
BYLAYER
 70
    0
  3

 72
   65
 73
    0
 40
0
  0
LTYPE
  2
CONTINUOUS
 70
    0
  3
Solid line
 72
   65
 73
    0
 40
0
  0
LTYPE
  2
DOT
 70
    0
  3
Dot . . . . . . . . . . . . . . . . . . . . . .
 72
   65
 73
    2
 40
6.35
 49
0
 49
-6.35
  0
LTYPE
  2
DOTTINY
 70
    0
  3
Dot (.15x) .....................................
 72
   65
 73
    2
 40
0.9525
 49
0
 49
-0.9525
  0
LTYPE
  2
DOT2
 70
    0
  3
Dot (.5x) .....................................
 72
   65
 73
    2
 40
3.175
 49
0
 49
-3.175
  0
LTYPE
  2
DOTX2
 70
    0
  3
Dot (2x) .  .  .  .  .  .  .  .  .  .  .  .  .
 72
   65
 73
    2
 40
12.7
 49
0
 49
-12.7
  0
LTYPE
  2
DASHED
 70
    0
  3
Dashed _ _ _ _ _ _ _ _ _ _ _ _ _ _ _ _ _
 72
   65
 73
    2
 40
19.05
 49
12.7
 49
-6.35
  0
LTYPE
  2
DASHEDTINY
 70
    0
  3
Dashed (.15x) _ _ _ _ _ _ _ _ _ _ _ _ _ _ _ _ _
 72
   65
 73
    2
 40
2.8575
 49
1.905
 49
-0.9525
  0
LTYPE
  2
DASHED2
 70
    0
  3
Dashed (.5x) _ _ _ _ _ _ _ _ _ _ _ _ _ _ _ _ _
 72
   65
 73
    2
 40
9.524999999999999
 49
6.35
 49
-3.175
  0
LTYPE
  2
DASHEDX2
 70
    0
  3
Dashed (2x) ____  ____  ____  ____  ____  ___
 72
   65
 73
    2
 40
38.09999999999999
 49
25.4
 49
-12.7
  0
LTYPE
  2
DASHDOT
 70
    0
  3
Dash dot __ . __ . __ . __ . __ . __ . __ . __
 72
   65
 73
    4
 40
25.4
 49
12.7
 49
-6.35
 49
0
 49
-6.35
  0
LTYPE
  2
DASHDOTTINY
 70
    0
  3
Dash dot (.15x) _._._._._._._._._._._._._._._.
 72
   65
 73
    4
 40
3.81
 49
1.905
 49
-0.9525
 49
0
 49
-0.9525
  0
LTYPE
  2
DASHDOT2
 70
    0
  3
Dash dot (.5x) _._._._._._._._._._._._._._._.
 72
   65
 73
    4
 40
12.7
 49
6.35
 49
-3.175
 49
0
 49
-3.175
  0
LTYPE
  2
DASHDOTX2
 70
    0
  3
Dash dot (2x) ____  .  ____  .  ____  .  ___
 72
   65
 73
    4
 40
50.8
 49
25.4
 49
-12.7
 49
0
 49
-12.7
  0
LTYPE
  2
DIVIDE
 70
    0
  3
Divide ____ . . ____ . . ____ . . ____ . . ____
 72
   65
 73
    6
 40
31.75
 49
12.7
 49
-6.35
 49
0
 49
-6.35
 49
0
 49
-6.35
  0
LTYPE
  2
DIVIDETINY
 70
    0
  3
Divide (.15x) __..__..__..__..__..__..__..__.._
 72
   65
 73
    6
 40
4.7625
 49
1.905
 49
-0.9525
 49
0
 49
-0.9525
 49
0
 49
-0.9525
  0
LTYPE
  2
DIVIDE2
 70
    0
  3
Divide (.5x) __..__..__..__..__..__..__..__.._
 72
   65
 73
    6
 40
15.875
 49
6.35
 49
-3.175
 49
0
 49
-3.175
 49
0
 49
-3.175
  0
LTYPE
  2
DIVIDEX2
 70
    0
  3
Divide (2x) ________  .  .  ________  .  .  _
 72
   65
 73
    6
 40
63.5
 49
25.4
 49
-12.7
 49
0
 49
-12.7
 49
0
 49
-12.7
  0
LTYPE
  2
BORDER
 70
    0
  3
Border __ __ . __ __ . __ __ . __ __ . __ __ .
 72
   65
 73
    6
 40
44.45
 49
12.7
 49
-6.35
 49
12.7
 49
-6.35
 49
0
 49
-6.35
  0
LTYPE
  2
BORDERTINY
 70
    0
  3
Border (.15x) __.__.__.__.__.__.__.__.__.__.__.
 72
   65
 73
    6
 40
6.6675
 49
1.905
 49
-0.9525
 49
1.905
 49
-0.9525
 49
0
 49
-0.9525
  0
LTYPE
  2
BORDER2
 70
    0
  3
Border (.5x) __.__.__.__.__.__.__.__.__.__.__.
 72
   65
 73
    6
 40
22.225
 49
6.35
 49
-3.175
 49
6.35
 49
-3.175
 49
0
 49
-3.175
  0
LTYPE
  2
BORDERX2
 70
    0
  3
Border (2x) ____  ____  .  ____  ____  .  ___
 72
   65
 73
    6
 40
88.89999999999999
 49
25.4
 49
-12.7
 49
25.4
 49
-12.7
 49
0
 49
-12.7
  0
LTYPE
  2
CENTER
 70
    0
  3
Center ____ _ ____ _ ____ _ ____ _ ____ _ ____
 72
   65
 73
    4
 40
50.8
 49
31.75
 49
-6.35
 49
6.35
 49
-6.35
  0
LTYPE
  2
CENTERTINY
 70
    0
  3
Center (.15x) ___ _ ___ _ ___ _ ___ _ ___ _ ___
 72
   65
 73
    4
 40
7.619999999999999
 49
4.7625
 49
-0.9525
 49
0.9525
 49
-0.9525
  0
LTYPE
  2
CENTER2
 70
    0
  3
Center (.5x) ___ _ ___ _ ___ _ ___ _ ___ _ ___
 72
   65
 73
    4
 40
28.575
 49
19.05
 49
-3.175
 49
3.175
 49
-3.175
  0
LTYPE
  2
CENTERX2
 70
    0
  3
Center (2x) ________  __  ________  __  _____
 72
   65
 73
    4
 40
101.6
 49
63.5
 49
-12.7
 49
12.7
 49
-12.7
  0
ENDTAB
  0
TABLE
  2
LAYER
 70
    1
  0
LAYER
  2
0
 70
    0
 62
    7
  6
CONTINUOUS
  0
ENDTAB
  0
TABLE
  2
STYLE
 70
    3
  0
STYLE
  2
STANDARD
 70
    0
 40
0
 41
1
 50
0
 71
    0
 42
1
  3
TXT
  4

  0
ENDTAB
  0
TABLE
  2
VIEW
 70
    0
  0
ENDTAB
  0
TABLE
  2
UCS
 70
    0
  0
ENDTAB
  0
TABLE
  2
APPID
 70
    1
  0
APPID
  2
ACAD
 70
    0
  0
APPID
  2
LIBRECAD
 70
    0
  0
ENDTAB
  0
TABLE
  2
DIMSTYLE
 70
    1
  0
DIMSTYLE
  2
STANDARD
 70
    0
  3

  4

  5

  6

  7

 40
1
 41
2.5
 42
0.625
 43
0.38
 44
1.25
 45
0
 46
0
 47
0
 48
0
 49
1
140
2.5
141
0.09
142
2.5
143
25.4
144
1
145
0
146
1
147
0.625
 71
    0
 72
    0
 73
    0
 74
    1
 75
    0
 76
    0
 77
    0
 78
    1
170
    0
171
    2
172
    0
173
    0
174
    0
175
    0
176
    0
177
    0
178
    0
  0
ENDTAB
  0
ENDSEC
  0
SECTION
  2
BLOCKS
  0
BLOCK
  8
0
  2
$MODEL_SPACE
 70
    0
 10
0
 20
0
 30
0
  3
$MODEL_SPACE
  1

  0
ENDBLK
  8
0
  0
BLOCK
  8
0
  2
$PAPER_SPACE
 70
    0
 10
0
 20
0
 30
0
  3
$PAPER_SPACE
  1

  0
ENDBLK
  8
0
  0
ENDSEC
  0
SECTION
  2
ENTITIES
  0
ARC
  5
31
  8
0
  6
BYLAYER
 62
  256
 10
5.271053704555264e-15
 20
42.03246420457776
 40
0.4800000000000003
 50
19.19884728385221
 51
160.8011527161478
  0
LINE
  5
32
  8
0
  6
BYLAYER
 62
  256
 10
0.4533038334783277
 20
42.19031107516397
 11
1.622925569797963
 21
38.83139737086143
  0
LINE
  5
33
  8
0
  6
BYLAYER
 62
  256
 10
1.622925569797963
 20
38.83139737086143
 11
6.148924696756456
 21
43.12721418411562
  0
ARC
  5
34
  8
0
  6
BYLAYER
 62
  256
 10
7.801138378803063
 20
41.38647010503395
 40
2.399999999999981
 50
61.50535496967162
 51
133.5053549696723
  0
LINE
  5
35
  8
0
  6
BYLAYER
 62
  256
 10
8.946122272324711
 20
43.49573819695018
 11
12.89782452039486
 21
41.35061712705193
  0
ARC
  5
36
  8
0
  6
BYLAYER
 62
  256
 10
11.75284062687321
 20
39.24134903513567
 40
2.400000000000007
 50
349.5053549696722
 51
61.50535496967188
  0
LINE
  5
37
  8
0
  6
BYLAYER
 62
  256
 10
14.11269327168739
 20
38.80420432824386
 11
13.293705051282
 21
34.38303328916822
  0
ARC
  5
38
  8
0
  6
BYLAYER
 62
  256
 10
10.93385240646781
 20
34.82017799606005
 40
2.400000000000015
 50
277.5053549696723
 51
349.5053549696717
  0
LINE
  5
39
  8
0
  6
BYLAYER
 62
  256
 10
11.24733765588267
 20
32.44073961728252
 11
6.437052825528631
 21
31.80699622924205
  0
ARC
  5
3A
  8
0
  6
BYLAYER
 62
  256
 10
6.593795450236056
 20
30.61727703985329
 40
1.2
 50
97.50535496967193
 51
195.8246948324883
  0
LINE
  5
3B
  8
0
  6
BYLAYER
 62
  256
 10
5.439274790593497
 20
30.29004310753803
 11
5.440420873990328
 21
30.28599958750955
  0
ARC
  5
3C
  8
0
  6
BYLAYER
 62
  256
 10
6.594941533632889
 20
30.61323351982481
 40
1.200000000000002
 50
195.8246948324882
 51
261.6106587692429
  0
LINE
  5
3D
  8
0
  6
BYLAYER
 62
  256
 10
6.419862744321623
 20
29.42607412971188
 11
9.609447046023496
 21
28.95568358013702
  0
ARC
  5
3E
  8
0
  6
BYLAYER
 62
  256
 10
10.48484099257984
 20
34.89148053070168
 40
6.000000000000012
 50
261.6106587692427
 51
285.8246948324881
  0
LINE
  5
3F
  8
0
  6
BYLAYER
 62
  256
 10
12.12101065415614
 20
29.11887723248886
 11
57.25955263926598
 21
41.91281250718387
  0
ARC
  5
40
  8
0
  6
BYLAYER
 62
  256
 10
57.58678657158125
 20
40.75829184754132
 40
1.199999999999994
 50
353.6475229814479
 51
105.8246948324884
  0
LINE
  5
41
  8
0
  6
BYLAYER
 62
  256
 10
58.77941861150443
 20
40.62551829087941
 11
58.60956746064982
 21
39.09983855750557
  0
ARC
  5
42
  8
0
  6
BYLAYER
 62
  256
 10
52.64640726103386
 20
39.76370634081511
 40
6.000000000000012
 50
313.4308391444362
 51
353.647522981448
  0
LINE
  5
43
  8
0
  6
BYLAYER
 62
  256
 10
56.77127817798213
 20
35.40647787325519
 11
48.70725334589644
 21
27.77248260514702
  0
ARC
  5
44
  8
0
  6
BYLAYER
 62
  256
 10
44.58238242894819
 20
32.12971107270691
 40
5.999999999999974
 50
291.4783179904802
 51
313.4308391444362
  0
LINE
  5
45
  8
0
  6
BYLAYER
 62
  256
 10
46.77927708649246
 20
26.54637391078904
 11
29.30912316124567
 21
19.67233304386295
  0
ARC
  5
46
  8
0
  6
BYLAYER
 62
  256
 10
27.11222850370141
 20
25.25567020578083
 40
5.999999999999979
 50
263.6475229814479
 51
291.4783179904802
  0
LINE
  5
47
  8
0
  6
BYLAYER
 62
  256
 10
26.44836072039187
 20
19.29251000616491
 11
8.85525152891433
 21
21.25111886614841
  0
ARC
  5
48
  8
0
  6
BYLAYER
 62
  256
 10
8.722477972252424
 20
20.05848682622522
 40
1.200000000000001
 50
83.64752298144799
 51
193.7784641993786
  0
LINE
  5
49
  8
0
  6
BYLAYER
 62
  256
 10
7.557009329419193
 20
19.77268472236231
 11
7.805276597335527
 21
18.76027889368743
  0
ARC
  5
4A
  8
0
  6
BYLAYER
 62
  256
 10
8.97074524016876
 20
19.04608099755034
 40
1.200000000000002
 50
193.7784641993784
 51
267.6154551765401
  0
LINE
  5
4B
  8
0
  6
BYLAYER
 62
  256
 10
8.920817866045203
 20
17.84712009021719
 11
51.11550792704067
 21
16.09004021895723
  0
ARC
  5
4C
  8
0
  6
BYLAYER
 62
  256
 10
51.06558055291713
 20
14.89107931162408
 40
1.200000000000004
 50
327.0791272867871
 51
87.61545517654075
  0
LINE
  5
4D
  8
0
  6
BYLAYER
 62
  256
 10
52.07288687094849
 20
14.23890296917205
 11
50.41945163087767
 21
11.6851216444508
  0
ARC
  5
4E
  8
0
  6
BYLAYER
 62
  256
 10
45.38292004072085
 20
14.94600335671102
 40
6.000000000000056
 50
283.7784641993787
 51
327.0791272867864
  0
LINE
  5
4F
  8
0
  6
BYLAYER
 62
  256
 10
46.81193056003546
 20
9.118660142544815
 11
22.60797463006879
 21
3.183243888210174
  0
ARC
  5
50
  8
0
  6
BYLAYER
 62
  256
 10
21.17896411075423
 20
9.010587102376334
 40
6.000000000000006
 50
241.729737688628
 51
283.7784641993784
  0
LINE
  5
51
  8
0
  6
BYLAYER
 62
  256
 10
18.33717715467363
 20
3.726247323723737
 11
5.898139106908017
 21
10.4156536736205
  0
ARC
  5
52
  8
0
  6
BYLAYER
 62
  256
 10
5.613960411299956
 20
9.887219695755238
 40
0.5999999999999991
 50
61.72973768862798
 51
151.8999382093753
  0
LINE
  5
53
  8
0
  6
BYLAYER
 62
  256
 10
5.084684596467279
 20
10.16982739528447
 11
4.361011451673217
 21
8.814511549249687
  0
ARC
  5
54
  8
0
  6
BYLAYER
 62
  256
 10
9.653769599999999
 20
5.988434553957375
 40
5.999999999999997
 50
151.8999382093755
 51
180
  0
LINE
  5
55
  8
0
  6
BYLAYER
 62
  256
 10
3.653769600000002
 20
5.988434553957377
 11
3.653769599999992
 21
-26.60130633821815
  0
ARC
  5
56
  8
0
  6
BYLAYER
 62
  256
 10
-2.346230400000037
 20
-26.60130633821815
 40
6.000000000000029
 50
331.8999382093756
 51
359.9999999999999
  0
LINE
  5
57
  8
0
  6
BYLAYER
 62
  256
 10
2.946527748326782
 20
-29.42738333351046
 11
1.058551629665354
 21
-32.96323922226981
  0
ARC
  5
58
  8
0
  6
BYLAYER
 62
  256
 10
-4.258052656495984e-15
 20
-32.39802382321136
 40
1.199999999999997
 50
208.1000617906243
 51
331.8999382093759
  0
LINE
  5
59
  8
0
  6
BYLAYER
 62
  256
 10
-1.058551629665361
 20
-32.96323922226982
 11
-2.94652774832679
 21
-29.42738333351046
  0
ARC
  5
5A
  8
0
  6
BYLAYER
 62
  256
 10
2.346230399999944
 20
-26.60130633821817
 40
5.999999999999947
 50
179.9999999999999
 51
208.1000617906247
  0
LINE
  5
5B
  8
0
  6
BYLAYER
 62
  256
 10
-3.653769600000003
 20
-26.60130633821815
 11
-3.6537696
 21
5.988434553957378
  0
ARC
  5
5C
  8
0
  6
BYLAYER
 62
  256
 10
-9.653769599999999
 20
5.988434553957376
 40
5.999999999999999
 50
360
 51
28.10006179062457
  0
LINE
  5
5D
  8
0
  6
BYLAYER
 62
  256
 10
-4.361011451673213
 20
8.814511549249685
 11
-5.084684596467278
 21
10.16982739528447
  0
ARC
  5
5E
  8
0
  6
BYLAYER
 62
  256
 10
-5.613960411299957
 20
9.887219695755233
 40
0.6000000000000014
 50
28.10006179062462
 51
118.270262311372
  0
LINE
  5
5F
  8
0
  6
BYLAYER
 62
  256
 10
-5.898139106908019
 20
10.4156536736205
 11
-18.33717715467362
 21
3.726247323723734
  0
ARC
  5
60
  8
0
  6
BYLAYER
 62
  256
 10
-21.17896411075423
 20
9.010587102376338
 40
6.000000000000011
 50
256.2215358006216
 51
298.2702623113719
  0
LINE
  5
61
  8
0
  6
BYLAYER
 62
  256
 10
-22.60797463006879
 20
3.183243888210174
 11
-46.81193056003546
 21
9.118660142544819
  0
ARC
  5
62
  8
0
  6
BYLAYER
 62
  256
 10
-45.38292004072093
 20
14.94600335671092
 40
5.999999999999941
 50
212.920872713213
 51
256.2215358006217
  0
LINE
  5
63
  8
0
  6
BYLAYER
 62
  256
 10
-50.41945163087767
 20
11.68512164445081
 11
-52.0728868709485
 21
14.23890296917207
  0
ARC
  5
64
  8
0
  6
BYLAYER
 62
  256
 10
-51.06558055291714
 20
14.89107931162409
 40
1.200000000000003
 50
92.38454482345844
 51
212.920872713213
  0
LINE
  5
65
  8
0
  6
BYLAYER
 62
  256
 10
-51.11550792704067
 20
16.09004021895725
 11
-8.920817866045194
 21
17.8471200902172
  0
ARC
  5
66
  8
0
  6
BYLAYER
 62
  256
 10
-8.97074524016875
 20
19.04608099755034
 40
1.2
 50
272.3845448234598
 51
346.2215358006217
  0
LINE
  5
67
  8
0
  6
BYLAYER
 62
  256
 10
-7.805276597335517
 20
18.76027889368743
 11
-7.55700932941919
 21
19.77268472236231
  0
ARC
  5
68
  8
0
  6
BYLAYER
 62
  256
 10
-8.722477972252419
 20
20.05848682622522
 40
1.199999999999999
 50
346.2215358006216
 51
96.35247701855205
  0
LINE
  5
69
  8
0
  6
BYLAYER
 62
  256
 10
-8.855251528914327
 20
21.25111886614841
 11
-26.44836072039185
 21
19.2925100061649
  0
ARC
  5
6A
  8
0
  6
BYLAYER
 62
  256
 10
-27.11222850370137
 20
25.25567020578083
 40
5.999999999999986
 50
248.5216820095197
 51
276.352477018552
  0
LINE
  5
6B
  8
0
  6
BYLAYER
 62
  256
 10
-29.30912316124565
 20
19.67233304386295
 11
-46.77927708649247
 21
26.54637391078903
  0
ARC
  5
6C
  8
0
  6
BYLAYER
 62
  256
 10
-44.58238242894819
 20
32.12971107270694
 40
6.000000000000012
 50
226.569160855564
 51
248.5216820095197
  0
LINE
  5
6D
  8
0
  6
BYLAYER
 62
  256
 10
-48.70725334589644
 20
27.77248260514702
 11
-56.77127817798211
 21
35.4064778732552
  0
ARC
  5
6E
  8
0
  6
BYLAYER
 62
  256
 10
-52.64640726103375
 20
39.76370634081518
 40
6.00000000000012
 50
186.3524770185524
 51
226.5691608555636
  0
LINE
  5
6F
  8
0
  6
BYLAYER
 62
  256
 10
-58.60956746064981
 20
39.09983855750558
 11
-58.77941861150441
 21
40.62551829087941
  0
ARC
  5
70
  8
0
  6
BYLAYER
 62
  256
 10
-57.58678657158122
 20
40.75829184754132
 40
1.200000000000002
 50
74.17530516751168
 51
186.3524770185525
  0
LINE
  5
71
  8
0
  6
BYLAYER
 62
  256
 10
-57.25955263926596
 20
41.91281250718388
 11
-12.12101065415614
 21
29.11887723248886
  0
ARC
  5
72
  8
0
  6
BYLAYER
 62
  256
 10
-10.48484099257982
 20
34.89148053070167
 40
6.00000000000001
 50
254.1753051675117
 51
278.3893412307571
  0
LINE
  5
73
  8
0
  6
BYLAYER
 62
  256
 10
-9.609447046023504
 20
28.95568358013701
 11
-6.419862744321621
 21
29.42607412971187
  0
ARC
  5
74
  8
0
  6
BYLAYER
 62
  256
 10
-6.594941533632885
 20
30.6132335198248
 40
1.200000000000002
 50
278.3893412307571
 51
344.1753051675118
  0
LINE
  5
75
  8
0
  6
BYLAYER
 62
  256
 10
-5.440420873990324
 20
30.28599958750954
 11
-5.439274790593488
 21
30.29004310753803
  0
ARC
  5
76
  8
0
  6
BYLAYER
 62
  256
 10
-6.593795450236045
 20
30.61727703985329
 40
1.2
 50
344.1753051675117
 51
82.49464503032807
  0
LINE
  5
77
  8
0
  6
BYLAYER
 62
  256
 10
-6.43705282552862
 20
31.80699622924205
 11
-11.24733765588266
 21
32.44073961728253
  0
ARC
  5
78
  8
0
  6
BYLAYER
 62
  256
 10
-10.93385240646782
 20
34.82017799606002
 40
2.399999999999987
 50
190.494645030328
 51
262.4946450303283
  0
LINE
  5
79
  8
0
  6
BYLAYER
 62
  256
 10
-13.29370505128199
 20
34.38303328916821
 11
-14.11269327168738
 21
38.80420432824386
  0
ARC
  5
7A
  8
0
  6
BYLAYER
 62
  256
 10
-11.7528406268732
 20
39.24134903513568
 40
2.4
 50
118.4946450303283
 51
190.494645030328
  0
LINE
  5
7B
  8
0
  6
BYLAYER
 62
  256
 10
-12.89782452039485
 20
41.35061712705193
 11
-8.946122272324697
 21
43.49573819695018
  0
ARC
  5
7C
  8
0
  6
BYLAYER
 62
  256
 10
-7.801138378803055
 20
41.38647010503394
 40
2.399999999999998
 50
46.49464503032787
 51
118.4946450303281
  0
LINE
  5
7D
  8
0
  6
BYLAYER
 62
  256
 10
-6.14892469675644
 20
43.12721418411562
 11
-1.622925569797953
 21
38.83139737086143
  0
LINE
  5
7E
  8
0
  6
BYLAYER
 62
  256
 10
-1.622925569797953
 20
38.83139737086143
 11
-0.4533038334783177
 21
42.19031107516397
  0
ENDSEC
  0
EOF
