999
dxfrw 0.6.3
  0
SECTION
  2
HEADER
  9
$ACADVER
  1
AC1009
  9
$DWGCODEPAGE
  3
ANSI_1252
  9
$INSBASE
 10
0
 20
0
 30
0
  9
$EXTMIN
 10
-49.38619324406709
 20
-39.02575934318403
 30
0
  9
$EXTMAX
 10
49.38619324406709
 20
39.02575934318403
 30
0
  9
$LIMMIN
 10
0
 20
0
  9
$LIMMAX
 10
420
 20
297
  9
$ORTHOMODE
 70
    0
  9
$REGENMODE
 70
    1
  9
$FILLMODE
 70
    1
  9
$QTEXTMODE
 70
    0
  9
$MIRRTEXT
 70
    0
  9
$DRAGMODE
 70
    2
  9
$LTSCALE
 40
1
  9
$OSMODE
 70
    0
  9
$ATTMODE
 70
    0
  9
$TEXTSIZE
 40
2.5
  9
$TRACEWID
 40
15.68
  9
$TEXTSTYLE
  7
STANDARD
  9
$CLAYER
  8
0
  9
$CELTYPE
  6
BYLAYER
  9
$CECOLOR
 62
  256
  9
$DIMSCALE
 40
2.5
  9
$DIMASZ
 40
2.5
  9
$DIMEXO
 40
0.625
  9
$DIMDLI
 40
3.75
  9
$DIMRND
 40
0
  9
$DIMDLE
 40
0
  9
$DIMEXE
 40
1.25
  9
$DIMTP
 40
0
  9
$DIMTM
 40
0
  9
$DIMTXT
 40
2.5
  9
$DIMCEN
 40
2.5
  9
$DIMTSZ
 40
0
  9
$DIMTOL
 70
    0
  9
$DIMLIM
 70
    0
  9
$DIMTIH
 70
    0
  9
$DIMTOH
 70
    0
  9
$DIMSE1
 70
    0
  9
$DIMSE2
 70
    0
  9
$DIMTAD
 70
    1
  9
$DIMZIN
 70
    8
  9
$DIMBLK
  1

  9
$DIMASO
 70
    1
  9
$DIMSHO
 70
    1
  9
$DIMPOST
  1

  9
$DIMAPOST
  1

  9
$DIMALT
 70
    0
  9
$DIMALTD
 70
    3
  9
$DIMALTF
 40
0.03937
  9
$DIMLFAC
 40
1
  9
$DIMTOFL
 70
    1
  9
$DIMTVP
 40
0
  9
$DIMTIX
 70
    0
  9
$DIMSOXD
 70
    0
  9
$DIMSAH
 70
    0
  9
$DIMBLK1
  1

  9
$DIMBLK2
  1

  9
$DIMSTYLE
  2
STANDARD
  9
$DIMCLRD
 70
    0
  9
$DIMCLRE
 70
    0
  9
$DIMCLRT
 70
    0
  9
$DIMTFAC
 40
1
  9
$DIMGAP
 40
0.625
  9
$LUNITS
 70
    2
  9
$LUPREC
 70
    4
  9
$SKETCHINC
 40
1
  9
$FILLETRAD
 40
0
  9
$AUNITS
 70
    0
  9
$AUPREC
 70
    2
  9
$MENU
  1
.
  9
$ELEVATION
 40
0
  9
$PELEVATION
 40
0
  9
$THICKNESS
 40
0
  9
$LIMCHECK
 70
    0
  9
$BLIPMODE
 70
    0
  9
$CHAMFERA
 40
0
  9
$CHAMFERB
 40
0
  9
$SKPOLY
 70
    0
  9
$USRTIMER
 70
    1
  9
$ANGBASE
 50
0
  9
$ANGDIR
 70
    0
  9
$PDMODE
 70
   34
  9
$PDSIZE
 40
0
  9
$PLINEWID
 40
0
  9
$COORDS
 70
    2
  9
$SPLFRAME
 70
    0
  9
$SPLINETYPE
 70
    2
  9
$SPLINESEGS
 70
    8
  9
$ATTDIA
 70
    1
  9
$ATTREQ
 70
    1
  9
$HANDLING
 70
    1
  9
$HANDSEED
  5
20000
  9
$SURFTAB1
 70
    6
  9
$SURFTAB2
 70
    6
  9
$SURFTYPE
 70
    6
  9
$SURFU
 70
    6
  9
$SURFV
 70
    6
  9
$UCSNAME
  2

  9
$UCSORG
 10
0
 20
0
 30
0
  9
$UCSXDIR
 10
1
 20
0
 30
0
  9
$UCSYDIR
 10
0
 20
1
 30
0
  9
$PUCSNAME
  2

  9
$PUCSORG
 10
0
 20
0
 30
0
  9
$PUCSXDIR
 10
1
 20
0
 30
0
  9
$PUCSYDIR
 10
0
 20
1
 30
0
  9
$USERI1
 70
    0
  9
$USERI2
 70
    0
  9
$USERI3
 70
    0
  9
$USERI4
 70
    0
  9
$USERI5
 70
    0
  9
$USERR1
 40
0
  9
$USERR2
 40
0
  9
$USERR3
 40
0
  9
$USERR4
 40
0
  9
$USERR5
 40
0
  9
$WORLDVIEW
 70
    1
  9
$SHADEDGE
 70
    3
  9
$SHADEDIF
 70
   70
  9
$TILEMODE
 70
    1
  9
$MAXACTVP
 70
   64
  9
$PLIMCHECK
 70
    0
  9
$PEXTMIN
 10
0
 20
0
 30
0
  9
$PEXTMAX
 10
0
 20
0
 30
0
  9
$SNAPSTYLE
 70
    0
  9
$PLIMMIN
 10
0
 20
0
  9
$PLIMMAX
 10
210
 20
297
  9
$UNITMODE
 70
    0
  9
$VISRETAIN
 70
    1
  9
$PLINEGEN
 70
    0
  9
$PSLTSCALE
 70
    1
  0
ENDSEC
  0
SECTION
  2
TABLES
  0
TABLE
  2
VPORT
 70
    1
  0
VPORT
  2
*ACTIVE
 70
    0
 10
0
 20
0
 11
1
 21
1
 12
24.98706205801014
 22
19.84266692841981
 13
0
 23
0
 14
10
 24
10
 15
10
 25
10
 16
0
 26
0
 36
1
 17
0
 27
0
 37
0
 40
80.01739167282776
 41
1.249081557678178
 42
50
 43
0
 44
0
 50
0
 51
0
 71
    0
 72
  100
 73
    1
 74
    3
 75
    0
 76
    1
 77
    0
 78
    0
  0
ENDTAB
  0
TABLE
  2
LTYPE
 70
    4
  0
LTYPE
  2
BYBLOCK
 70
    0
  3

 72
   65
 73
    0
 40
0
  0
LTYPE
  2
BYLAYER
 70
    0
  3

 72
   65
 73
    0
 40
0
  0
LTYPE
  2
CONTINUOUS
 70
    0
  3
Solid line
 72
   65
 73
    0
 40
0
  0
LTYPE
  2
DOT
 70
    0
  3
Dot . . . . . . . . . . . . . . . . . . . . . .
 72
   65
 73
    2
 40
6.35
 49
0
 49
-6.35
  0
LTYPE
  2
DOTTINY
 70
    0
  3
Dot (.15x) .....................................
 72
   65
 73
    2
 40
0.9525
 49
0
 49
-0.9525
  0
LTYPE
  2
DOT2
 70
    0
  3
Dot (.5x) .....................................
 72
   65
 73
    2
 40
3.175
 49
0
 49
-3.175
  0
LTYPE
  2
DOTX2
 70
    0
  3
Dot (2x) .  .  .  .  .  .  .  .  .  .  .  .  .
 72
   65
 73
    2
 40
12.7
 49
0
 49
-12.7
  0
LTYPE
  2
DASHED
 70
    0
  3
Dashed _ _ _ _ _ _ _ _ _ _ _ _ _ _ _ _ _
 72
   65
 73
    2
 40
19.05
 49
12.7
 49
-6.35
  0
LTYPE
  2
DASHEDTINY
 70
    0
  3
Dashed (.15x) _ _ _ _ _ _ _ _ _ _ _ _ _ _ _ _ _
 72
   65
 73
    2
 40
2.8575
 49
1.905
 49
-0.9525
  0
LTYPE
  2
DASHED2
 70
    0
  3
Dashed (.5x) _ _ _ _ _ _ _ _ _ _ _ _ _ _ _ _ _
 72
   65
 73
    2
 40
9.524999999999999
 49
6.35
 49
-3.175
  0
LTYPE
  2
DASHEDX2
 70
    0
  3
Dashed (2x) ____  ____  ____  ____  ____  ___
 72
   65
 73
    2
 40
38.09999999999999
 49
25.4
 49
-12.7
  0
LTYPE
  2
DASHDOT
 70
    0
  3
Dash dot __ . __ . __ . __ . __ . __ . __ . __
 72
   65
 73
    4
 40
25.4
 49
12.7
 49
-6.35
 49
0
 49
-6.35
  0
LTYPE
  2
DASHDOTTINY
 70
    0
  3
Dash dot (.15x) _._._._._._._._._._._._._._._.
 72
   65
 73
    4
 40
3.81
 49
1.905
 49
-0.9525
 49
0
 49
-0.9525
  0
LTYPE
  2
DASHDOT2
 70
    0
  3
Dash dot (.5x) _._._._._._._._._._._._._._._.
 72
   65
 73
    4
 40
12.7
 49
6.35
 49
-3.175
 49
0
 49
-3.175
  0
LTYPE
  2
DASHDOTX2
 70
    0
  3
Dash dot (2x) ____  .  ____  .  ____  .  ___
 72
   65
 73
    4
 40
50.8
 49
25.4
 49
-12.7
 49
0
 49
-12.7
  0
LTYPE
  2
DIVIDE
 70
    0
  3
Divide ____ . . ____ . . ____ . . ____ . . ____
 72
   65
 73
    6
 40
31.75
 49
12.7
 49
-6.35
 49
0
 49
-6.35
 49
0
 49
-6.35
  0
LTYPE
  2
DIVIDETINY
 70
    0
  3
Divide (.15x) __..__..__..__..__..__..__..__.._
 72
   65
 73
    6
 40
4.7625
 49
1.905
 49
-0.9525
 49
0
 49
-0.9525
 49
0
 49
-0.9525
  0
LTYPE
  2
DIVIDE2
 70
    0
  3
Divide (.5x) __..__..__..__..__..__..__..__.._
 72
   65
 73
    6
 40
15.875
 49
6.35
 49
-3.175
 49
0
 49
-3.175
 49
0
 49
-3.175
  0
LTYPE
  2
DIVIDEX2
 70
    0
  3
Divide (2x) ________  .  .  ________  .  .  _
 72
   65
 73
    6
 40
63.5
 49
25.4
 49
-12.7
 49
0
 49
-12.7
 49
0
 49
-12.7
  0
LTYPE
  2
BORDER
 70
    0
  3
Border __ __ . __ __ . __ __ . __ __ . __ __ .
 72
   65
 73
    6
 40
44.45
 49
12.7
 49
-6.35
 49
12.7
 49
-6.35
 49
0
 49
-6.35
  0
LTYPE
  2
BORDERTINY
 70
    0
  3
Border (.15x) __.__.__.__.__.__.__.__.__.__.__.
 72
   65
 73
    6
 40
6.6675
 49
1.905
 49
-0.9525
 49
1.905
 49
-0.9525
 49
0
 49
-0.9525
  0
LTYPE
  2
BORDER2
 70
    0
  3
Border (.5x) __.__.__.__.__.__.__.__.__.__.__.
 72
   65
 73
    6
 40
22.225
 49
6.35
 49
-3.175
 49
6.35
 49
-3.175
 49
0
 49
-3.175
  0
LTYPE
  2
BORDERX2
 70
    0
  3
Border (2x) ____  ____  .  ____  ____  .  ___
 72
   65
 73
    6
 40
88.89999999999999
 49
25.4
 49
-12.7
 49
25.4
 49
-12.7
 49
0
 49
-12.7
  0
LTYPE
  2
CENTER
 70
    0
  3
Center ____ _ ____ _ ____ _ ____ _ ____ _ ____
 72
   65
 73
    4
 40
50.8
 49
31.75
 49
-6.35
 49
6.35
 49
-6.35
  0
LTYPE
  2
CENTERTINY
 70
    0
  3
Center (.15x) ___ _ ___ _ ___ _ ___ _ ___ _ ___
 72
   65
 73
    4
 40
7.619999999999999
 49
4.7625
 49
-0.9525
 49
0.9525
 49
-0.9525
  0
LTYPE
  2
CENTER2
 70
    0
  3
Center (.5x) ___ _ ___ _ ___ _ ___ _ ___ _ ___
 72
   65
 73
    4
 40
28.575
 49
19.05
 49
-3.175
 49
3.175
 49
-3.175
  0
LTYPE
  2
CENTERX2
 70
    0
  3
Center (2x) ________  __  ________  __  _____
 72
   65
 73
    4
 40
101.6
 49
63.5
 49
-12.7
 49
12.7
 49
-12.7
  0
ENDTAB
  0
TABLE
  2
LAYER
 70
    1
  0
LAYER
  2
0
 70
    0
 62
    7
  6
CONTINUOUS
  0
ENDTAB
  0
TABLE
  2
STYLE
 70
    3
  0
STYLE
  2
STANDARD
 70
    0
 40
0
 41
1
 50
0
 71
    0
 42
1
  3
TXT
  4

  0
ENDTAB
  0
TABLE
  2
VIEW
 70
    0
  0
ENDTAB
  0
TABLE
  2
UCS
 70
    0
  0
ENDTAB
  0
TABLE
  2
APPID
 70
    1
  0
APPID
  2
ACAD
 70
    0
  0
APPID
  2
LIBRECAD
 70
    0
  0
ENDTAB
  0
TABLE
  2
DIMSTYLE
 70
    1
  0
DIMSTYLE
  2
STANDARD
 70
    0
  3

  4

  5

  6

  7

 40
1
 41
2.5
 42
0.625
 43
0.38
 44
1.25
 45
0
 46
0
 47
0
 48
0
 49
1
140
2.5
141
0.09
142
2.5
143
25.4
144
1
145
0
146
1
147
0.625
 71
    0
 72
    0
 73
    0
 74
    1
 75
    0
 76
    0
 77
    0
 78
    1
170
    0
171
    2
172
    0
173
    0
174
    0
175
    0
176
    0
177
    0
178
    0
  0
ENDTAB
  0
ENDSEC
  0
SECTION
  2
BLOCKS
  0
BLOCK
  8
0
  2
$MODEL_SPACE
 70
    0
 10
0
 20
0
 30
0
  3
$MODEL_SPACE
  1

  0
ENDBLK
  8
0
  0
BLOCK
  8
0
  2
$PAPER_SPACE
 70
    0
 10
0
 20
0
 30
0
  3
$PAPER_SPACE
  1

  0
ENDBLK
  8
0
  0
ENDSEC
  0
SECTION
  2
ENTITIES
  0
ARC
  5
31
  8
0
  6
BYLAYER
 62
  256
 10
-11.60324514514686
 20
34.17732581833922
 40
2.000000000000011
 50
124.0000000000002
 51
195.9999999999998
  0
LINE
  5
32
  8
0
  6
BYLAYER
 62
  256
 10
-12.72163095208837
 20
35.83540096344931
 11
-8.498654586750314
 21
38.6838344882941
  0
ARC
  5
33
  8
0
  6
BYLAYER
 62
  256
 10
-7.380268779808821
 20
37.02575934318401
 40
2.000000000000007
 50
52.00000000000028
 51
123.9999999999999
  0
LINE
  5
34
  8
0
  6
BYLAYER
 62
  256
 10
-6.148945829157507
 20
38.60178085039747
 11
-1.172275696334458
 21
34.71358000775756
  0
ARC
  5
35
  8
0
  6
BYLAYER
 62
  256
 10
-1.049143401269324
 20
34.8711821584789
 40
0.2000000000000012
 50
231.9999999999997
 51
330.333333999999
  0
LINE
  5
36
  8
0
  6
BYLAYER
 62
  256
 10
-0.8753594773993507
 20
34.77219151344435
 11
4.446562320298733e-15
 21
36.30893677584919
  0
LINE
  5
37
  8
0
  6
BYLAYER
 62
  256
 10
4.446562320298733e-15
 20
36.30893677584919
 11
0.8753594773993586
 21
34.77219151344435
  0
ARC
  5
38
  8
0
  6
BYLAYER
 62
  256
 10
1.049143401269335
 20
34.8711821584789
 40
0.1999999999999999
 50
209.6666660000008
 51
307.9999999999981
  0
LINE
  5
39
  8
0
  6
BYLAYER
 62
  256
 10
1.172275696334461
 20
34.71358000775756
 11
6.14894582915752
 21
38.60178085039747
  0
ARC
  5
3A
  8
0
  6
BYLAYER
 62
  256
 10
7.380268779808833
 20
37.02575934318403
 40
1.999999999999999
 50
55.99999999999987
 51
127.9999999999999
  0
LINE
  5
3B
  8
0
  6
BYLAYER
 62
  256
 10
8.49865458675033
 20
38.68383448829411
 11
12.72163095208838
 21
35.83540096344931
  0
ARC
  5
3C
  8
0
  6
BYLAYER
 62
  256
 10
11.60324514514689
 20
34.17732581833923
 40
1.999999999999996
 50
343.9999999999999
 51
56.00000000000018
  0
LINE
  5
3D
  8
0
  6
BYLAYER
 62
  256
 10
13.52576853702352
 20
33.62605110670523
 11
12.12171873571951
 21
28.72954754976568
  0
ARC
  5
3E
  8
0
  6
BYLAYER
 62
  256
 10
10.19919534384286
 20
29.28082226139968
 40
2.000000000000012
 50
272.0000000000003
 51
343.9999999999998
  0
LINE
  5
3F
  8
0
  6
BYLAYER
 62
  256
 10
10.26899433724787
 20
27.28204060736148
 11
4.757785436418884
 21
27.08958495171477
  0
ARC
  5
40
  8
0
  6
BYLAYER
 62
  256
 10
4.785705033780885
 20
26.29007229009949
 40
0.7999999999999994
 50
91.99999999999997
 51
196.4533961917837
  0
LINE
  5
41
  8
0
  6
BYLAYER
 62
  256
 10
4.018464687480291
 20
26.0634840048583
 11
4.119420627478549
 21
25.72164166167221
  0
ARC
  5
42
  8
0
  6
BYLAYER
 62
  256
 10
4.886660973779144
 20
25.9482299469134
 40
0.7999999999999996
 50
196.4533961917837
 51
263.7930282798512
  0
LINE
  5
43
  8
0
  6
BYLAYER
 62
  256
 10
4.800164715643363
 20
25.15291969466683
 11
7.237177904251152
 21
24.88787530318982
  0
ARC
  5
44
  8
0
  6
BYLAYER
 62
  256
 10
8.31838113094844
 20
34.829253456272
 40
10.00000000000001
 50
263.793028279851
 51
286.4533961917834
  0
LINE
  5
45
  8
0
  6
BYLAYER
 62
  256
 10
11.15073469646331
 20
25.23874912751455
 11
48.35960495882588
 21
36.22760568226031
  0
ARC
  5
46
  8
0
  6
BYLAYER
 62
  256
 10
48.58619324406708
 20
35.46036533595971
 40
0.80000000000001
 50
354.2810088988634
 51
106.4533961917839
  0
LINE
  5
47
  8
0
  6
BYLAYER
 62
  256
 10
49.38221132010791
 20
35.38064568583328
 11
48.88325462910669
 21
30.39845441218126
  0
ARC
  5
48
  8
0
  6
BYLAYER
 62
  256
 10
43.90814165385159
 20
30.89670222547143
 40
5.000000000000001
 50
312.2459758951621
 51
354.2810088988633
  0
LINE
  5
49
  8
0
  6
BYLAYER
 62
  256
 10
47.26971574078202
 20
27.1953754825213
 11
42.61882941464862
 21
22.97140390666204
  0
ARC
  5
4A
  8
0
  6
BYLAYER
 62
  256
 10
35.89568124078773
 20
30.37405739256235
 40
10.00000000000006
 50
289.7673106541351
 51
312.2459758951621
  0
LINE
  5
4B
  8
0
  6
BYLAYER
 62
  256
 10
39.27769182197785
 20
20.96331861026055
 11
25.54984911313704
 21
16.02983672618926
  0
ARC
  5
4C
  8
0
  6
BYLAYER
 62
  256
 10
22.16783853194697
 20
25.44057550849105
 40
10.00000000000003
 50
263.623106569489
 51
289.7673106541349
  0
LINE
  5
4D
  8
0
  6
BYLAYER
 62
  256
 10
21.05715702449364
 20
15.50244758674433
 11
9.655882008698022
 21
16.77664987324581
  0
ARC
  5
4E
  8
0
  6
BYLAYER
 62
  256
 10
9.567027488101758
 20
15.98159963950607
 40
0.8000000000000008
 50
83.62310656948917
 51
180.4148902745327
  0
LINE
  5
4F
  8
0
  6
BYLAYER
 62
  256
 10
8.767048462008761
 20
15.97580672907151
 11
8.768455163639631
 21
15.78154655305462
  0
ARC
  5
50
  8
0
  6
BYLAYER
 62
  256
 10
9.568434189732629
 20
15.78733946348918
 40
0.8000000000000015
 50
180.4148902745324
 51
266.2698295061315
  0
LINE
  5
51
  8
0
  6
BYLAYER
 62
  256
 10
9.516387968808885
 20
14.98903426440329
 11
44.70053279854515
 21
12.69517249710166
  0
ARC
  5
52
  8
0
  6
BYLAYER
 62
  256
 10
44.6484865776214
 20
11.89686729801578
 40
0.7999999999999974
 50
325.8624376415244
 51
86.26982950613107
  0
LINE
  5
53
  8
0
  6
BYLAYER
 62
  256
 10
45.31064066494921
 20
11.44792190642002
 11
43.64482209814931
 21
8.990989296348124
  0
ARC
  5
54
  8
0
  6
BYLAYER
 62
  256
 10
35.36789600655162
 20
14.60280669129509
 40
9.999999999999995
 50
286.6275969010369
 51
325.8624376415244
  0
LINE
  5
55
  8
0
  6
BYLAYER
 62
  256
 10
38.22939517474991
 20
5.020958095622102
 11
22.14433739513112
 21
0.2173568909875768
  0
ARC
  5
56
  8
0
  6
BYLAYER
 62
  256
 10
19.28283822693285
 20
9.799205486660615
 40
10.00000000000004
 50
247.1311806722822
 51
286.6275969010367
  0
LINE
  5
57
  8
0
  6
BYLAYER
 62
  256
 10
15.39661244216578
 20
0.5852351616697432
 11
7.26123997215618
 21
4.016534932180655
  0
ARC
  5
58
  8
0
  6
BYLAYER
 62
  256
 10
6.950341909374815
 20
3.279417306181388
 40
0.8
 50
67.13118067228217
 51
136.7455882225177
  0
LINE
  5
59
  8
0
  6
BYLAYER
 62
  256
 10
6.367687342491998
 20
3.827608564494211
 11
6.13009074837886
 21
3.575074912166574
  0
ARC
  5
5A
  8
0
  6
BYLAYER
 62
  256
 10
10.5
 20
-0.5363595251795914
 40
6.000000000000001
 50
136.7455882225177
 51
180.0000000000001
  0
LINE
  5
5B
  8
0
  6
BYLAYER
 62
  256
 10
4.499999999999999
 20
-0.536359525179596
 11
4.499999999999998
 21
-29.94338655213785
  0
ARC
  5
5C
  8
0
  6
BYLAYER
 62
  256
 10
-5.500000000000008
 20
-29.94338655213785
 40
10.00000000000001
 50
316.7455882225177
 51
360
  0
LINE
  5
5D
  8
0
  6
BYLAYER
 62
  256
 10
1.783182086035222
 20
-36.79577728104814
 11
0.5826545668828108
 21
-38.07177873327029
  0
ARC
  5
5E
  8
0
  6
BYLAYER
 62
  256
 10
-5.961148792414093e-15
 20
-37.52358747495747
 40
0.8000000000000006
 50
223.2544117774826
 51
316.7455882225174
  0
LINE
  5
5F
  8
0
  6
BYLAYER
 62
  256
 10
-0.5826545668828219
 20
-38.07177873327029
 11
-1.783182086035223
 21
-36.79577728104815
  0
ARC
  5
60
  8
0
  6
BYLAYER
 62
  256
 10
5.500000000000004
 20
-29.94338655213786
 40
10.00000000000001
 50
180
 51
223.2544117774824
  0
LINE
  5
61
  8
0
  6
BYLAYER
 62
  256
 10
-4.500000000000002
 20
-29.94338655213786
 11
-4.5
 21
-0.5363595251795953
  0
ARC
  5
62
  8
0
  6
BYLAYER
 62
  256
 10
-10.5
 20
-0.5363595251795932
 40
6.000000000000001
 50
360
 51
43.25441177748234
  0
LINE
  5
63
  8
0
  6
BYLAYER
 62
  256
 10
-6.130090748378862
 20
3.575074912166574
 11
-6.367687342491997
 21
3.82760856449421
  0
ARC
  5
64
  8
0
  6
BYLAYER
 62
  256
 10
-6.950341909374816
 20
3.279417306181387
 40
0.8000000000000004
 50
43.25441177748234
 51
112.8688193277178
  0
LINE
  5
65
  8
0
  6
BYLAYER
 62
  256
 10
-7.261239972156179
 20
4.016534932180654
 11
-15.39661244216579
 21
0.585235161669741
  0
ARC
  5
66
  8
0
  6
BYLAYER
 62
  256
 10
-19.28283822693285
 20
9.799205486660606
 40
10.00000000000003
 50
253.3724030989633
 51
292.8688193277178
  0
LINE
  5
67
  8
0
  6
BYLAYER
 62
  256
 10
-22.14433739513112
 20
0.2173568909875821
 11
-38.22939517474992
 21
5.020958095622107
  0
ARC
  5
68
  8
0
  6
BYLAYER
 62
  256
 10
-35.3678960065516
 20
14.60280669129512
 40
10.00000000000003
 50
214.1375623584757
 51
253.372403098963
  0
LINE
  5
69
  8
0
  6
BYLAYER
 62
  256
 10
-43.64482209814931
 20
8.990989296348131
 11
-45.31064066494921
 21
11.44792190642002
  0
ARC
  5
6A
  8
0
  6
BYLAYER
 62
  256
 10
-44.64848657762139
 20
11.89686729801578
 40
0.800000000000002
 50
93.73017049386888
 51
214.1375623584757
  0
LINE
  5
6B
  8
0
  6
BYLAYER
 62
  256
 10
-44.70053279854514
 20
12.69517249710167
 11
-9.516387968808891
 21
14.98903426440329
  0
ARC
  5
6C
  8
0
  6
BYLAYER
 62
  256
 10
-9.568434189732624
 20
15.78733946348918
 40
0.8000000000000009
 50
273.7301704938678
 51
359.5851097254674
  0
LINE
  5
6D
  8
0
  6
BYLAYER
 62
  256
 10
-8.768455163639628
 20
15.78154655305462
 11
-8.767048462008757
 21
15.97580672907151
  0
ARC
  5
6E
  8
0
  6
BYLAYER
 62
  256
 10
-9.567027488101754
 20
15.98159963950608
 40
0.8000000000000008
 50
359.5851097254672
 51
96.37689343051083
  0
LINE
  5
6F
  8
0
  6
BYLAYER
 62
  256
 10
-9.655882008698018
 20
16.77664987324581
 11
-21.05715702449364
 21
15.50244758674433
  0
ARC
  5
70
  8
0
  6
BYLAYER
 62
  256
 10
-22.16783853194696
 20
25.44057550849105
 40
10.00000000000002
 50
250.232689345865
 51
276.376893430511
  0
LINE
  5
71
  8
0
  6
BYLAYER
 62
  256
 10
-25.54984911313705
 20
16.02983672618927
 11
-39.27769182197785
 21
20.96331861026055
  0
ARC
  5
72
  8
0
  6
BYLAYER
 62
  256
 10
-35.89568124078779
 20
30.37405739256224
 40
9.999999999999925
 50
227.7540241048377
 51
250.2326893458651
  0
LINE
  5
73
  8
0
  6
BYLAYER
 62
  256
 10
-42.61882941464862
 20
22.97140390666204
 11
-47.26971574078202
 21
27.19537548252128
  0
ARC
  5
74
  8
0
  6
BYLAYER
 62
  256
 10
-43.90814165385162
 20
30.89670222547139
 40
4.999999999999962
 50
185.7189911011363
 51
227.754024104838
  0
LINE
  5
75
  8
0
  6
BYLAYER
 62
  256
 10
-48.88325462910667
 20
30.39845441218125
 11
-49.38221132010788
 21
35.38064568583329
  0
ARC
  5
76
  8
0
  6
BYLAYER
 62
  256
 10
-48.58619324406708
 20
35.46036533595972
 40
0.7999999999999956
 50
73.54660380821623
 51
185.7189911011367
  0
LINE
  5
77
  8
0
  6
BYLAYER
 62
  256
 10
-48.35960495882588
 20
36.22760568226031
 11
-11.15073469646331
 21
25.23874912751455
  0
ARC
  5
78
  8
0
  6
BYLAYER
 62
  256
 10
-8.31838113094841
 20
34.829253456272
 40
10.00000000000001
 50
253.5466038082164
 51
276.2069717201488
  0
LINE
  5
79
  8
0
  6
BYLAYER
 62
  256
 10
-7.237177904251155
 20
24.88787530318982
 11
-4.800164715643358
 21
25.15291969466683
  0
ARC
  5
7A
  8
0
  6
BYLAYER
 62
  256
 10
-4.886660973779137
 20
25.9482299469134
 40
0.7999999999999996
 50
276.2069717201488
 51
343.5466038082163
  0
LINE
  5
7B
  8
0
  6
BYLAYER
 62
  256
 10
-4.119420627478543
 20
25.72164166167221
 11
-4.018464687480282
 21
26.0634840048583
  0
ARC
  5
7C
  8
0
  6
BYLAYER
 62
  256
 10
-4.785705033780877
 20
26.29007229009949
 40
0.7999999999999986
 50
343.5466038082168
 51
88.00000000000013
  0
LINE
  5
7D
  8
0
  6
BYLAYER
 62
  256
 10
-4.757785436418878
 20
27.08958495171476
 11
-10.26899433724786
 21
27.28204060736148
  0
ARC
  5
7E
  8
0
  6
BYLAYER
 62
  256
 10
-10.19919534384286
 20
29.28082226139968
 40
2.000000000000006
 50
196.0000000000002
 51
267.9999999999999
  0
LINE
  5
7F
  8
0
  6
BYLAYER
 62
  256
 10
-12.1217187357195
 20
28.72954754976567
 11
-13.52576853702352
 21
33.62605110670523
  0
ENDSEC
  0
EOF
