G04 #@! TF.FileFunction,Soldermask,Top*
%FSLAX46Y46*%
G04 Gerber Fmt 4.6, Leading zero omitted, Abs format (unit mm)*
G04 Created by KiCad (PCBNEW 4.0.6) date 05/08/17 21:21:00*
%MOMM*%
%LPD*%
G01*
G04 APERTURE LIST*
%ADD10C,0.100000*%
%ADD11C,1.900000*%
%ADD12R,2.000000X2.600000*%
%ADD13R,1.600000X2.600000*%
%ADD14C,5.900000*%
%ADD15R,2.600000X2.000000*%
%ADD16R,2.600000X1.600000*%
%ADD17R,2.200860X1.997660*%
%ADD18R,2.300000X2.400000*%
%ADD19C,2.300000*%
%ADD20R,1.100000X1.700000*%
%ADD21R,1.650000X1.400000*%
%ADD22R,1.000000X1.600000*%
%ADD23R,1.600000X1.000000*%
%ADD24R,1.400000X1.650000*%
%ADD25C,2.127200*%
%ADD26C,2.432000*%
%ADD27C,2.400000*%
%ADD28O,1.900000X2.900000*%
G04 APERTURE END LIST*
D10*
D11*
X140800000Y-105200000D03*
X136800000Y-105200000D03*
D12*
X140537349Y-97247593D03*
D13*
X138837349Y-97247593D03*
D12*
X137137349Y-97247593D03*
X137137349Y-101247593D03*
D13*
X138837349Y-101247593D03*
D12*
X140537349Y-101247593D03*
X140537349Y-86247593D03*
D13*
X138837349Y-86247593D03*
D12*
X137137349Y-86247593D03*
X137137349Y-90247593D03*
D13*
X138837349Y-90247593D03*
D12*
X140537349Y-90247593D03*
D10*
G36*
X113606188Y-64170356D02*
X115156681Y-64734689D01*
X114677852Y-66050258D01*
X113127359Y-65485925D01*
X113606188Y-64170356D01*
X113606188Y-64170356D01*
G37*
G36*
X112922148Y-66049742D02*
X114472641Y-66614075D01*
X113993812Y-67929644D01*
X112443319Y-67365311D01*
X112922148Y-66049742D01*
X112922148Y-66049742D01*
G37*
G36*
X115027499Y-74870210D02*
X113333968Y-75018374D01*
X113238097Y-73922560D01*
X114931628Y-73774396D01*
X115027499Y-74870210D01*
X115027499Y-74870210D01*
G37*
G36*
X114861903Y-72977440D02*
X113168372Y-73125604D01*
X113072501Y-72029790D01*
X114766032Y-71881626D01*
X114861903Y-72977440D01*
X114861903Y-72977440D01*
G37*
G36*
X107278606Y-78306117D02*
X104688500Y-78532722D01*
X104514188Y-76540333D01*
X107104294Y-76313728D01*
X107278606Y-78306117D01*
X107278606Y-78306117D01*
G37*
G36*
X107113011Y-76413347D02*
X104522904Y-76639952D01*
X104383455Y-75046041D01*
X106973562Y-74819436D01*
X107113011Y-76413347D01*
X107113011Y-76413347D01*
G37*
G36*
X106982277Y-74919055D02*
X104392171Y-75145660D01*
X104217859Y-73153271D01*
X106807965Y-72926666D01*
X106982277Y-74919055D01*
X106982277Y-74919055D01*
G37*
G36*
X102997498Y-75267678D02*
X100407392Y-75494283D01*
X100233080Y-73501894D01*
X102823186Y-73275289D01*
X102997498Y-75267678D01*
X102997498Y-75267678D01*
G37*
G36*
X103128232Y-76761970D02*
X100538125Y-76988575D01*
X100398676Y-75394664D01*
X102988783Y-75168059D01*
X103128232Y-76761970D01*
X103128232Y-76761970D01*
G37*
G36*
X103293828Y-78654740D02*
X100703722Y-78881345D01*
X100529410Y-76888956D01*
X103119516Y-76662351D01*
X103293828Y-78654740D01*
X103293828Y-78654740D01*
G37*
D14*
X93420000Y-53500000D03*
D10*
G36*
X101590828Y-61055408D02*
X99234428Y-59956600D01*
X100079664Y-58143984D01*
X102436064Y-59242792D01*
X101590828Y-61055408D01*
X101590828Y-61055408D01*
G37*
G36*
X102393803Y-59333423D02*
X100037402Y-58234615D01*
X100713591Y-56784523D01*
X103069992Y-57883331D01*
X102393803Y-59333423D01*
X102393803Y-59333423D01*
G37*
G36*
X103027730Y-57973961D02*
X100671330Y-56875153D01*
X101516566Y-55062537D01*
X103872966Y-56161345D01*
X103027730Y-57973961D01*
X103027730Y-57973961D01*
G37*
G36*
X99402499Y-56283488D02*
X97046099Y-55184680D01*
X97891335Y-53372064D01*
X100247735Y-54470872D01*
X99402499Y-56283488D01*
X99402499Y-56283488D01*
G37*
G36*
X98768572Y-57642949D02*
X96412171Y-56544141D01*
X97088360Y-55094049D01*
X99444761Y-56192857D01*
X98768572Y-57642949D01*
X98768572Y-57642949D01*
G37*
G36*
X97965597Y-59364935D02*
X95609197Y-58266127D01*
X96454433Y-56453511D01*
X98810833Y-57552319D01*
X97965597Y-59364935D01*
X97965597Y-59364935D01*
G37*
D15*
X129300000Y-50950000D03*
D16*
X129300000Y-52650000D03*
D15*
X129300000Y-54350000D03*
X133300000Y-54350000D03*
D16*
X133300000Y-52650000D03*
D15*
X133300000Y-50950000D03*
D17*
X140400000Y-57639720D03*
X140400000Y-54800000D03*
X137200000Y-54800000D03*
X137200000Y-57639720D03*
D15*
X144300000Y-50950000D03*
D16*
X144300000Y-52650000D03*
D15*
X144300000Y-54350000D03*
X148300000Y-54350000D03*
D16*
X148300000Y-52650000D03*
D15*
X148300000Y-50950000D03*
D18*
X137510000Y-52400000D03*
D19*
X140050000Y-52400000D03*
D11*
X127800000Y-64800000D03*
D10*
G36*
X119520026Y-74821628D02*
X117876304Y-74965435D01*
X117754286Y-73570762D01*
X119398008Y-73426955D01*
X119520026Y-74821628D01*
X119520026Y-74821628D01*
G37*
G36*
X119345714Y-72829238D02*
X117701992Y-72973045D01*
X117579974Y-71578372D01*
X119223696Y-71434565D01*
X119345714Y-72829238D01*
X119345714Y-72829238D01*
G37*
G36*
X117270026Y-75071628D02*
X115626304Y-75215435D01*
X115504286Y-73820762D01*
X117148008Y-73676955D01*
X117270026Y-75071628D01*
X117270026Y-75071628D01*
G37*
G36*
X117095714Y-73079238D02*
X115451992Y-73223045D01*
X115329974Y-71828372D01*
X116973696Y-71684565D01*
X117095714Y-73079238D01*
X117095714Y-73079238D01*
G37*
G36*
X121590828Y-67055408D02*
X119234428Y-65956600D01*
X120079664Y-64143984D01*
X122436064Y-65242792D01*
X121590828Y-67055408D01*
X121590828Y-67055408D01*
G37*
G36*
X122393803Y-65333423D02*
X120037402Y-64234615D01*
X120713591Y-62784523D01*
X123069992Y-63883331D01*
X122393803Y-65333423D01*
X122393803Y-65333423D01*
G37*
G36*
X123027730Y-63973961D02*
X120671330Y-62875153D01*
X121516566Y-61062537D01*
X123872966Y-62161345D01*
X123027730Y-63973961D01*
X123027730Y-63973961D01*
G37*
G36*
X119402499Y-62283488D02*
X117046099Y-61184680D01*
X117891335Y-59372064D01*
X120247735Y-60470872D01*
X119402499Y-62283488D01*
X119402499Y-62283488D01*
G37*
G36*
X118768572Y-63642949D02*
X116412171Y-62544141D01*
X117088360Y-61094049D01*
X119444761Y-62192857D01*
X118768572Y-63642949D01*
X118768572Y-63642949D01*
G37*
G36*
X117965597Y-65364935D02*
X115609197Y-64266127D01*
X116454433Y-62453511D01*
X118810833Y-63552319D01*
X117965597Y-65364935D01*
X117965597Y-65364935D01*
G37*
G36*
X120276479Y-80984465D02*
X120023727Y-78095501D01*
X122912691Y-77842749D01*
X123165443Y-80731713D01*
X120276479Y-80984465D01*
X120276479Y-80984465D01*
G37*
G36*
X123763161Y-80679419D02*
X123510409Y-77790455D01*
X126399373Y-77537703D01*
X126652125Y-80426667D01*
X123763161Y-80679419D01*
X123763161Y-80679419D01*
G37*
D11*
X126050000Y-66700000D03*
D10*
G36*
X124948003Y-75274972D02*
X125039517Y-76320977D01*
X123585073Y-76448224D01*
X123493559Y-75402219D01*
X124948003Y-75274972D01*
X124948003Y-75274972D01*
G37*
G36*
X124865205Y-74328587D02*
X124956719Y-75374592D01*
X123502275Y-75501839D01*
X123410761Y-74455834D01*
X124865205Y-74328587D01*
X124865205Y-74328587D01*
G37*
G36*
X124782407Y-73382202D02*
X124873921Y-74428207D01*
X123419477Y-74555454D01*
X123327963Y-73509449D01*
X124782407Y-73382202D01*
X124782407Y-73382202D01*
G37*
G36*
X122590779Y-73573944D02*
X122682293Y-74619949D01*
X121227849Y-74747196D01*
X121136335Y-73701191D01*
X122590779Y-73573944D01*
X122590779Y-73573944D01*
G37*
G36*
X122756375Y-75466714D02*
X122847889Y-76512719D01*
X121393445Y-76639966D01*
X121301931Y-75593961D01*
X122756375Y-75466714D01*
X122756375Y-75466714D01*
G37*
G36*
X122673577Y-74520329D02*
X122765091Y-75566334D01*
X121310647Y-75693581D01*
X121219133Y-74647576D01*
X122673577Y-74520329D01*
X122673577Y-74520329D01*
G37*
D20*
X131350000Y-62950000D03*
X133250000Y-62950000D03*
D21*
X139050000Y-62450000D03*
X139050000Y-60450000D03*
X141050000Y-62450000D03*
X141050000Y-60450000D03*
D22*
X136000000Y-73450000D03*
X136800000Y-73450000D03*
X137600000Y-73450000D03*
X138400000Y-73450000D03*
X139200000Y-73450000D03*
X140000000Y-73450000D03*
X140800000Y-73450000D03*
X141600000Y-73450000D03*
D23*
X143050000Y-72000000D03*
X143050000Y-71200000D03*
X143050000Y-70400000D03*
X143050000Y-69600000D03*
X143050000Y-68800000D03*
X143050000Y-68000000D03*
X143050000Y-67200000D03*
X143050000Y-66400000D03*
D22*
X141600000Y-64950000D03*
X140800000Y-64950000D03*
X140000000Y-64950000D03*
X139200000Y-64950000D03*
X138400000Y-64950000D03*
X137600000Y-64950000D03*
X136800000Y-64950000D03*
X136000000Y-64950000D03*
D23*
X134550000Y-66400000D03*
X134550000Y-67200000D03*
X134550000Y-68000000D03*
X134550000Y-68800000D03*
X134550000Y-69600000D03*
X134550000Y-70400000D03*
X134550000Y-71200000D03*
X134550000Y-72000000D03*
D20*
X159450000Y-81800000D03*
X161350000Y-81800000D03*
D10*
G36*
X160433926Y-74176722D02*
X160573278Y-72583926D01*
X162166074Y-72723278D01*
X162026722Y-74316074D01*
X160433926Y-74176722D01*
X160433926Y-74176722D01*
G37*
G36*
X162523982Y-74359578D02*
X162663334Y-72766782D01*
X164256130Y-72906134D01*
X164116778Y-74498930D01*
X162523982Y-74359578D01*
X162523982Y-74359578D01*
G37*
G36*
X153695465Y-62093646D02*
X156051865Y-60994838D01*
X156897101Y-62807454D01*
X154540701Y-63906262D01*
X153695465Y-62093646D01*
X153695465Y-62093646D01*
G37*
G36*
X154498439Y-63815631D02*
X156854840Y-62716823D01*
X157531029Y-64166915D01*
X155174628Y-65265723D01*
X154498439Y-63815631D01*
X154498439Y-63815631D01*
G37*
G36*
X155132367Y-65175092D02*
X157488767Y-64076284D01*
X158334003Y-65888900D01*
X155977603Y-66987708D01*
X155132367Y-65175092D01*
X155132367Y-65175092D01*
G37*
G36*
X158757598Y-63484619D02*
X161113998Y-62385811D01*
X161959234Y-64198427D01*
X159602834Y-65297235D01*
X158757598Y-63484619D01*
X158757598Y-63484619D01*
G37*
G36*
X158123670Y-62125158D02*
X160480071Y-61026350D01*
X161156260Y-62476442D01*
X158799859Y-63575250D01*
X158123670Y-62125158D01*
X158123670Y-62125158D01*
G37*
G36*
X157320696Y-60403173D02*
X159677096Y-59304365D01*
X160522332Y-61116981D01*
X158165932Y-62215789D01*
X157320696Y-60403173D01*
X157320696Y-60403173D01*
G37*
G36*
X158814759Y-72316766D02*
X158666595Y-74010297D01*
X157570781Y-73914426D01*
X157718945Y-72220895D01*
X158814759Y-72316766D01*
X158814759Y-72316766D01*
G37*
G36*
X156921989Y-72151170D02*
X156773825Y-73844701D01*
X155678011Y-73748830D01*
X155826175Y-72055299D01*
X156921989Y-72151170D01*
X156921989Y-72151170D01*
G37*
G36*
X161943319Y-64984689D02*
X163493812Y-64420356D01*
X163972641Y-65735925D01*
X162422148Y-66300258D01*
X161943319Y-64984689D01*
X161943319Y-64984689D01*
G37*
G36*
X162627359Y-66864075D02*
X164177852Y-66299742D01*
X164656681Y-67615311D01*
X163106188Y-68179644D01*
X162627359Y-66864075D01*
X162627359Y-66864075D01*
G37*
G36*
X171607937Y-63666155D02*
X170910616Y-62170747D01*
X172179447Y-61579081D01*
X172876768Y-63074489D01*
X171607937Y-63666155D01*
X171607937Y-63666155D01*
G37*
G36*
X173420553Y-62820919D02*
X172723232Y-61325511D01*
X173992063Y-60733845D01*
X174689384Y-62229253D01*
X173420553Y-62820919D01*
X173420553Y-62820919D01*
G37*
G36*
X176801455Y-78873049D02*
X174211349Y-78646444D01*
X174385661Y-76654055D01*
X176975767Y-76880660D01*
X176801455Y-78873049D01*
X176801455Y-78873049D01*
G37*
G36*
X176967051Y-76980279D02*
X174376944Y-76753674D01*
X174516393Y-75159763D01*
X177106500Y-75386368D01*
X176967051Y-76980279D01*
X176967051Y-76980279D01*
G37*
G36*
X177097784Y-75485987D02*
X174507678Y-75259382D01*
X174681990Y-73266993D01*
X177272096Y-73493598D01*
X177097784Y-75485987D01*
X177097784Y-75485987D01*
G37*
G36*
X173113005Y-75137364D02*
X170522899Y-74910759D01*
X170697211Y-72918370D01*
X173287317Y-73144975D01*
X173113005Y-75137364D01*
X173113005Y-75137364D01*
G37*
G36*
X172982273Y-76631656D02*
X170392166Y-76405051D01*
X170531615Y-74811140D01*
X173121722Y-75037745D01*
X172982273Y-76631656D01*
X172982273Y-76631656D01*
G37*
G36*
X172816676Y-78524426D02*
X170226570Y-78297821D01*
X170400882Y-76305432D01*
X172990988Y-76532037D01*
X172816676Y-78524426D01*
X172816676Y-78524426D01*
G37*
G36*
X173695465Y-56093646D02*
X176051865Y-54994838D01*
X176897101Y-56807454D01*
X174540701Y-57906262D01*
X173695465Y-56093646D01*
X173695465Y-56093646D01*
G37*
G36*
X174498439Y-57815631D02*
X176854840Y-56716823D01*
X177531029Y-58166915D01*
X175174628Y-59265723D01*
X174498439Y-57815631D01*
X174498439Y-57815631D01*
G37*
G36*
X175132367Y-59175092D02*
X177488767Y-58076284D01*
X178334003Y-59888900D01*
X175977603Y-60987708D01*
X175132367Y-59175092D01*
X175132367Y-59175092D01*
G37*
G36*
X178757598Y-57484619D02*
X181113998Y-56385811D01*
X181959234Y-58198427D01*
X179602834Y-59297235D01*
X178757598Y-57484619D01*
X178757598Y-57484619D01*
G37*
G36*
X178123670Y-56125158D02*
X180480071Y-55026350D01*
X181156260Y-56476442D01*
X178799859Y-57575250D01*
X178123670Y-56125158D01*
X178123670Y-56125158D01*
G37*
G36*
X177320696Y-54403173D02*
X179677096Y-53304365D01*
X180522332Y-55116981D01*
X178165932Y-56215789D01*
X177320696Y-54403173D01*
X177320696Y-54403173D01*
G37*
D14*
X184215200Y-53500000D03*
D24*
X137800000Y-82200000D03*
X139800000Y-82200000D03*
D10*
G36*
X154799496Y-77947990D02*
X155391162Y-76679159D01*
X158653870Y-78200584D01*
X158062204Y-79469415D01*
X154799496Y-77947990D01*
X154799496Y-77947990D01*
G37*
G36*
X148636603Y-75074185D02*
X149228269Y-73805354D01*
X152490977Y-75326779D01*
X151899311Y-76595610D01*
X148636603Y-75074185D01*
X148636603Y-75074185D01*
G37*
G36*
X146946130Y-78699416D02*
X147537796Y-77430585D01*
X150800504Y-78952010D01*
X150208838Y-80220841D01*
X146946130Y-78699416D01*
X146946130Y-78699416D01*
G37*
G36*
X153109023Y-81573221D02*
X153700689Y-80304390D01*
X156963397Y-81825815D01*
X156371731Y-83094646D01*
X153109023Y-81573221D01*
X153109023Y-81573221D01*
G37*
D21*
X134550000Y-76200000D03*
X134550000Y-78200000D03*
X137800000Y-76200000D03*
X137800000Y-78200000D03*
X141050000Y-76200000D03*
X141050000Y-78200000D03*
D10*
G36*
X105424830Y-63237013D02*
X106152375Y-61238098D01*
X108437708Y-62069891D01*
X107710163Y-64068806D01*
X105424830Y-63237013D01*
X105424830Y-63237013D01*
G37*
D25*
X107656791Y-60214509D02*
X107943209Y-60318757D01*
X108525522Y-57827689D02*
X108811940Y-57931937D01*
D10*
G36*
X110241437Y-63926770D02*
X111073230Y-61641437D01*
X113358563Y-62473230D01*
X112526770Y-64758563D01*
X110241437Y-63926770D01*
X110241437Y-63926770D01*
G37*
D26*
X112668731Y-60813181D02*
X112668731Y-60813181D01*
D27*
X161300000Y-77200000D03*
X116300000Y-77200000D03*
X165050000Y-77200000D03*
X112550000Y-77200000D03*
D10*
G36*
X167147427Y-66217853D02*
X166248433Y-64289955D01*
X168452573Y-63262147D01*
X169351567Y-65190045D01*
X167147427Y-66217853D01*
X167147427Y-66217853D01*
G37*
D25*
X166588429Y-62502385D02*
X166864671Y-62373571D01*
X165514978Y-60200363D02*
X165791220Y-60071549D01*
X164441528Y-57898342D02*
X164717770Y-57769528D01*
D28*
X138800000Y-109500000D03*
X141340000Y-109500000D03*
X136260000Y-109500000D03*
M02*
