G04 #@! TF.FileFunction,Copper,L1,Top,Signal*
%FSLAX46Y46*%
G04 Gerber Fmt 4.6, Leading zero omitted, Abs format (unit mm)*
G04 Created by KiCad (PCBNEW 4.0.6) date 05/08/17 21:21:00*
%MOMM*%
%LPD*%
G01*
G04 APERTURE LIST*
%ADD10C,0.100000*%
%ADD11C,0.300000*%
%ADD12C,1.500000*%
%ADD13R,1.600000X2.200000*%
%ADD14R,1.200000X2.200000*%
%ADD15C,5.500000*%
%ADD16R,2.200000X1.600000*%
%ADD17R,2.200000X1.200000*%
%ADD18R,1.800860X1.597660*%
%ADD19R,1.900000X2.000000*%
%ADD20C,1.900000*%
%ADD21R,0.700000X1.300000*%
%ADD22R,1.250000X1.000000*%
%ADD23R,0.600000X1.200000*%
%ADD24R,1.200000X0.600000*%
%ADD25R,1.000000X1.250000*%
%ADD26C,1.727200*%
%ADD27C,2.032000*%
%ADD28C,2.000000*%
%ADD29O,1.500000X2.500000*%
%ADD30C,0.685800*%
%ADD31C,0.304800*%
%ADD32C,1.016000*%
%ADD33C,0.152400*%
%ADD34C,0.400000*%
%ADD35C,0.793750*%
%ADD36C,0.254000*%
G04 APERTURE END LIST*
D10*
D11*
X136771429Y-107664286D02*
X136709524Y-107726190D01*
X136523810Y-107788095D01*
X136400000Y-107788095D01*
X136214286Y-107726190D01*
X136090477Y-107602381D01*
X136028572Y-107478571D01*
X135966667Y-107230952D01*
X135966667Y-107045238D01*
X136028572Y-106797619D01*
X136090477Y-106673810D01*
X136214286Y-106550000D01*
X136400000Y-106488095D01*
X136523810Y-106488095D01*
X136709524Y-106550000D01*
X136771429Y-106611905D01*
X137576191Y-106488095D02*
X137823810Y-106488095D01*
X137947619Y-106550000D01*
X138071429Y-106673810D01*
X138133334Y-106921429D01*
X138133334Y-107354762D01*
X138071429Y-107602381D01*
X137947619Y-107726190D01*
X137823810Y-107788095D01*
X137576191Y-107788095D01*
X137452381Y-107726190D01*
X137328572Y-107602381D01*
X137266667Y-107354762D01*
X137266667Y-106921429D01*
X137328572Y-106673810D01*
X137452381Y-106550000D01*
X137576191Y-106488095D01*
X139528572Y-107788095D02*
X139528572Y-106488095D01*
X139838096Y-106488095D01*
X140023810Y-106550000D01*
X140147619Y-106673810D01*
X140209524Y-106797619D01*
X140271429Y-107045238D01*
X140271429Y-107230952D01*
X140209524Y-107478571D01*
X140147619Y-107602381D01*
X140023810Y-107726190D01*
X139838096Y-107788095D01*
X139528572Y-107788095D01*
X141076191Y-106488095D02*
X141323810Y-106488095D01*
X141447619Y-106550000D01*
X141571429Y-106673810D01*
X141633334Y-106921429D01*
X141633334Y-107354762D01*
X141571429Y-107602381D01*
X141447619Y-107726190D01*
X141323810Y-107788095D01*
X141076191Y-107788095D01*
X140952381Y-107726190D01*
X140828572Y-107602381D01*
X140766667Y-107354762D01*
X140766667Y-106921429D01*
X140828572Y-106673810D01*
X140952381Y-106550000D01*
X141076191Y-106488095D01*
D10*
X126357143Y-64235714D02*
X126319048Y-64273810D01*
X126204762Y-64311905D01*
X126128572Y-64311905D01*
X126014286Y-64273810D01*
X125938095Y-64197619D01*
X125900000Y-64121429D01*
X125861905Y-63969048D01*
X125861905Y-63854762D01*
X125900000Y-63702381D01*
X125938095Y-63626190D01*
X126014286Y-63550000D01*
X126128572Y-63511905D01*
X126204762Y-63511905D01*
X126319048Y-63550000D01*
X126357143Y-63588095D01*
X126700000Y-64311905D02*
X126700000Y-63511905D01*
X127150000Y-67811905D02*
X127150000Y-67011905D01*
X127340476Y-67011905D01*
X127454762Y-67050000D01*
X127530953Y-67126190D01*
X127569048Y-67202381D01*
X127607143Y-67354762D01*
X127607143Y-67469048D01*
X127569048Y-67621429D01*
X127530953Y-67697619D01*
X127454762Y-67773810D01*
X127340476Y-67811905D01*
X127150000Y-67811905D01*
X127950000Y-67811905D02*
X127950000Y-67011905D01*
D12*
X140800000Y-105200000D03*
X136800000Y-105200000D03*
D13*
X140537349Y-97247593D03*
D14*
X138837349Y-97247593D03*
D13*
X137137349Y-97247593D03*
X137137349Y-101247593D03*
D14*
X138837349Y-101247593D03*
D13*
X140537349Y-101247593D03*
X140537349Y-86247593D03*
D14*
X138837349Y-86247593D03*
D13*
X137137349Y-86247593D03*
X137137349Y-90247593D03*
D14*
X138837349Y-90247593D03*
D13*
X140537349Y-90247593D03*
D10*
G36*
X113725722Y-64426698D02*
X114900338Y-64854223D01*
X114558318Y-65793916D01*
X113383702Y-65366391D01*
X113725722Y-64426698D01*
X113725722Y-64426698D01*
G37*
G36*
X113041682Y-66306084D02*
X114216298Y-66733609D01*
X113874278Y-67673302D01*
X112699662Y-67245777D01*
X113041682Y-66306084D01*
X113041682Y-66306084D01*
G37*
G36*
X114810829Y-74688402D02*
X113515776Y-74801704D01*
X113454767Y-74104368D01*
X114749820Y-73991066D01*
X114810829Y-74688402D01*
X114810829Y-74688402D01*
G37*
G36*
X114645233Y-72795632D02*
X113350180Y-72908934D01*
X113289171Y-72211598D01*
X114584224Y-72098296D01*
X114645233Y-72795632D01*
X114645233Y-72795632D01*
G37*
G36*
X107061936Y-78124309D02*
X104870307Y-78316052D01*
X104730858Y-76722141D01*
X106922487Y-76530398D01*
X107061936Y-78124309D01*
X107061936Y-78124309D01*
G37*
G36*
X106896341Y-76231540D02*
X104704712Y-76423282D01*
X104600125Y-75227848D01*
X106791754Y-75036106D01*
X106896341Y-76231540D01*
X106896341Y-76231540D01*
G37*
G36*
X106765607Y-74737247D02*
X104573978Y-74928990D01*
X104434529Y-73335079D01*
X106626158Y-73143336D01*
X106765607Y-74737247D01*
X106765607Y-74737247D01*
G37*
G36*
X102780828Y-75085870D02*
X100589199Y-75277613D01*
X100449750Y-73683702D01*
X102641379Y-73491959D01*
X102780828Y-75085870D01*
X102780828Y-75085870D01*
G37*
G36*
X102911562Y-76580163D02*
X100719933Y-76771905D01*
X100615346Y-75576471D01*
X102806975Y-75384729D01*
X102911562Y-76580163D01*
X102911562Y-76580163D01*
G37*
G36*
X103077158Y-78472932D02*
X100885529Y-78664675D01*
X100746080Y-77070764D01*
X102937709Y-76879021D01*
X103077158Y-78472932D01*
X103077158Y-78472932D01*
G37*
D15*
X93420000Y-53500000D03*
D10*
G36*
X101494090Y-60789622D02*
X99500213Y-59859862D01*
X100176402Y-58409770D01*
X102170279Y-59339530D01*
X101494090Y-60789622D01*
X101494090Y-60789622D01*
G37*
G36*
X102297065Y-59067638D02*
X100303187Y-58137878D01*
X100810329Y-57050308D01*
X102804207Y-57980068D01*
X102297065Y-59067638D01*
X102297065Y-59067638D01*
G37*
G36*
X102930992Y-57708175D02*
X100937115Y-56778415D01*
X101613304Y-55328323D01*
X103607181Y-56258083D01*
X102930992Y-57708175D01*
X102930992Y-57708175D01*
G37*
G36*
X99305761Y-56017702D02*
X97311884Y-55087942D01*
X97988073Y-53637850D01*
X99981950Y-54567610D01*
X99305761Y-56017702D01*
X99305761Y-56017702D01*
G37*
G36*
X98671834Y-57377164D02*
X96677956Y-56447404D01*
X97185098Y-55359834D01*
X99178976Y-56289594D01*
X98671834Y-57377164D01*
X98671834Y-57377164D01*
G37*
G36*
X97868859Y-59099149D02*
X95874982Y-58169389D01*
X96551171Y-56719297D01*
X98545048Y-57649057D01*
X97868859Y-59099149D01*
X97868859Y-59099149D01*
G37*
D16*
X129300000Y-50950000D03*
D17*
X129300000Y-52650000D03*
D16*
X129300000Y-54350000D03*
X133300000Y-54350000D03*
D17*
X133300000Y-52650000D03*
D16*
X133300000Y-50950000D03*
D18*
X140400000Y-57639720D03*
X140400000Y-54800000D03*
X137200000Y-54800000D03*
X137200000Y-57639720D03*
D16*
X144300000Y-50950000D03*
D17*
X144300000Y-52650000D03*
D16*
X144300000Y-54350000D03*
X148300000Y-54350000D03*
D17*
X148300000Y-52650000D03*
D16*
X148300000Y-50950000D03*
D19*
X137510000Y-52400000D03*
D20*
X140050000Y-52400000D03*
D12*
X127800000Y-64800000D03*
D10*
G36*
X119303356Y-74639820D02*
X118058112Y-74748765D01*
X117970956Y-73752570D01*
X119216200Y-73643625D01*
X119303356Y-74639820D01*
X119303356Y-74639820D01*
G37*
G36*
X119129044Y-72647430D02*
X117883800Y-72756375D01*
X117796644Y-71760180D01*
X119041888Y-71651235D01*
X119129044Y-72647430D01*
X119129044Y-72647430D01*
G37*
G36*
X117053356Y-74889820D02*
X115808112Y-74998765D01*
X115720956Y-74002570D01*
X116966200Y-73893625D01*
X117053356Y-74889820D01*
X117053356Y-74889820D01*
G37*
G36*
X116879044Y-72897430D02*
X115633800Y-73006375D01*
X115546644Y-72010180D01*
X116791888Y-71901235D01*
X116879044Y-72897430D01*
X116879044Y-72897430D01*
G37*
G36*
X121494090Y-66789622D02*
X119500213Y-65859862D01*
X120176402Y-64409770D01*
X122170279Y-65339530D01*
X121494090Y-66789622D01*
X121494090Y-66789622D01*
G37*
G36*
X122297065Y-65067638D02*
X120303187Y-64137878D01*
X120810329Y-63050308D01*
X122804207Y-63980068D01*
X122297065Y-65067638D01*
X122297065Y-65067638D01*
G37*
G36*
X122930992Y-63708175D02*
X120937115Y-62778415D01*
X121613304Y-61328323D01*
X123607181Y-62258083D01*
X122930992Y-63708175D01*
X122930992Y-63708175D01*
G37*
G36*
X119305761Y-62017702D02*
X117311884Y-61087942D01*
X117988073Y-59637850D01*
X119981950Y-60567610D01*
X119305761Y-62017702D01*
X119305761Y-62017702D01*
G37*
G36*
X118671834Y-63377164D02*
X116677956Y-62447404D01*
X117185098Y-61359834D01*
X119178976Y-62289594D01*
X118671834Y-63377164D01*
X118671834Y-63377164D01*
G37*
G36*
X117868859Y-65099149D02*
X115874982Y-64169389D01*
X116551171Y-62719297D01*
X118545048Y-63649057D01*
X117868859Y-65099149D01*
X117868859Y-65099149D01*
G37*
G36*
X120458286Y-80767795D02*
X120240397Y-78277308D01*
X122730884Y-78059419D01*
X122948773Y-80549906D01*
X120458286Y-80767795D01*
X120458286Y-80767795D01*
G37*
G36*
X123944968Y-80462749D02*
X123727079Y-77972262D01*
X126217566Y-77754373D01*
X126435455Y-80244860D01*
X123944968Y-80462749D01*
X123944968Y-80462749D01*
G37*
D12*
X126050000Y-66700000D03*
D10*
G36*
X124766196Y-75491642D02*
X124822847Y-76139169D01*
X123766880Y-76231554D01*
X123710229Y-75584027D01*
X124766196Y-75491642D01*
X124766196Y-75491642D01*
G37*
G36*
X124683398Y-74545257D02*
X124740049Y-75192784D01*
X123684082Y-75285169D01*
X123627431Y-74637642D01*
X124683398Y-74545257D01*
X124683398Y-74545257D01*
G37*
G36*
X124600600Y-73598872D02*
X124657251Y-74246399D01*
X123601284Y-74338784D01*
X123544633Y-73691257D01*
X124600600Y-73598872D01*
X124600600Y-73598872D01*
G37*
G36*
X122408972Y-73790614D02*
X122465623Y-74438141D01*
X121409656Y-74530526D01*
X121353005Y-73882999D01*
X122408972Y-73790614D01*
X122408972Y-73790614D01*
G37*
G36*
X122574568Y-75683384D02*
X122631219Y-76330911D01*
X121575252Y-76423296D01*
X121518601Y-75775769D01*
X122574568Y-75683384D01*
X122574568Y-75683384D01*
G37*
G36*
X122491770Y-74736999D02*
X122548421Y-75384526D01*
X121492454Y-75476911D01*
X121435803Y-74829384D01*
X122491770Y-74736999D01*
X122491770Y-74736999D01*
G37*
D21*
X131350000Y-62950000D03*
X133250000Y-62950000D03*
D22*
X139050000Y-62450000D03*
X139050000Y-60450000D03*
X141050000Y-62450000D03*
X141050000Y-60450000D03*
D23*
X136000000Y-73450000D03*
X136800000Y-73450000D03*
X137600000Y-73450000D03*
X138400000Y-73450000D03*
X139200000Y-73450000D03*
X140000000Y-73450000D03*
X140800000Y-73450000D03*
X141600000Y-73450000D03*
D24*
X143050000Y-72000000D03*
X143050000Y-71200000D03*
X143050000Y-70400000D03*
X143050000Y-69600000D03*
X143050000Y-68800000D03*
X143050000Y-68000000D03*
X143050000Y-67200000D03*
X143050000Y-66400000D03*
D23*
X141600000Y-64950000D03*
X140800000Y-64950000D03*
X140000000Y-64950000D03*
X139200000Y-64950000D03*
X138400000Y-64950000D03*
X137600000Y-64950000D03*
X136800000Y-64950000D03*
X136000000Y-64950000D03*
D24*
X134550000Y-66400000D03*
X134550000Y-67200000D03*
X134550000Y-68000000D03*
X134550000Y-68800000D03*
X134550000Y-69600000D03*
X134550000Y-70400000D03*
X134550000Y-71200000D03*
X134550000Y-72000000D03*
D21*
X159450000Y-81800000D03*
X161350000Y-81800000D03*
D10*
G36*
X160650596Y-73994914D02*
X160755086Y-72800596D01*
X161949404Y-72905086D01*
X161844914Y-74099404D01*
X160650596Y-73994914D01*
X160650596Y-73994914D01*
G37*
G36*
X162740652Y-74177770D02*
X162845142Y-72983452D01*
X164039460Y-73087942D01*
X163934970Y-74282260D01*
X162740652Y-74177770D01*
X162740652Y-74177770D01*
G37*
G36*
X153961250Y-62190384D02*
X155955127Y-61260624D01*
X156631316Y-62710716D01*
X154637439Y-63640476D01*
X153961250Y-62190384D01*
X153961250Y-62190384D01*
G37*
G36*
X154764224Y-63912368D02*
X156758102Y-62982608D01*
X157265244Y-64070178D01*
X155271366Y-64999938D01*
X154764224Y-63912368D01*
X154764224Y-63912368D01*
G37*
G36*
X155398152Y-65271830D02*
X157392029Y-64342070D01*
X158068218Y-65792162D01*
X156074341Y-66721922D01*
X155398152Y-65271830D01*
X155398152Y-65271830D01*
G37*
G36*
X159023383Y-63581357D02*
X161017260Y-62651597D01*
X161693449Y-64101689D01*
X159699572Y-65031449D01*
X159023383Y-63581357D01*
X159023383Y-63581357D01*
G37*
G36*
X158389455Y-62221895D02*
X160383333Y-61292135D01*
X160890475Y-62379705D01*
X158896597Y-63309465D01*
X158389455Y-62221895D01*
X158389455Y-62221895D01*
G37*
G36*
X157586481Y-60499911D02*
X159580358Y-59570151D01*
X160256547Y-61020243D01*
X158262670Y-61950003D01*
X157586481Y-60499911D01*
X157586481Y-60499911D01*
G37*
G36*
X158598089Y-72498574D02*
X158484787Y-73793627D01*
X157787451Y-73732618D01*
X157900753Y-72437565D01*
X158598089Y-72498574D01*
X158598089Y-72498574D01*
G37*
G36*
X156705319Y-72332978D02*
X156592017Y-73628031D01*
X155894681Y-73567022D01*
X156007983Y-72271969D01*
X156705319Y-72332978D01*
X156705319Y-72332978D01*
G37*
G36*
X162199662Y-65104223D02*
X163374278Y-64676698D01*
X163716298Y-65616391D01*
X162541682Y-66043916D01*
X162199662Y-65104223D01*
X162199662Y-65104223D01*
G37*
G36*
X162883702Y-66983609D02*
X164058318Y-66556084D01*
X164400338Y-67495777D01*
X163225722Y-67923302D01*
X162883702Y-66983609D01*
X162883702Y-66983609D01*
G37*
G36*
X171704675Y-63400369D02*
X171176402Y-62267485D01*
X172082709Y-61844867D01*
X172610982Y-62977751D01*
X171704675Y-63400369D01*
X171704675Y-63400369D01*
G37*
G36*
X173517291Y-62555133D02*
X172989018Y-61422249D01*
X173895325Y-60999631D01*
X174423598Y-62132515D01*
X173517291Y-62555133D01*
X173517291Y-62555133D01*
G37*
G36*
X176619648Y-78656379D02*
X174428019Y-78464636D01*
X174567468Y-76870725D01*
X176759097Y-77062468D01*
X176619648Y-78656379D01*
X176619648Y-78656379D01*
G37*
G36*
X176785243Y-76763609D02*
X174593614Y-76571867D01*
X174698201Y-75376433D01*
X176889830Y-75568175D01*
X176785243Y-76763609D01*
X176785243Y-76763609D01*
G37*
G36*
X176915977Y-75269317D02*
X174724348Y-75077574D01*
X174863797Y-73483663D01*
X177055426Y-73675406D01*
X176915977Y-75269317D01*
X176915977Y-75269317D01*
G37*
G36*
X172931198Y-74920694D02*
X170739569Y-74728951D01*
X170879018Y-73135040D01*
X173070647Y-73326783D01*
X172931198Y-74920694D01*
X172931198Y-74920694D01*
G37*
G36*
X172800465Y-76414986D02*
X170608836Y-76223244D01*
X170713423Y-75027810D01*
X172905052Y-75219552D01*
X172800465Y-76414986D01*
X172800465Y-76414986D01*
G37*
G36*
X172634869Y-78307756D02*
X170443240Y-78116013D01*
X170582689Y-76522102D01*
X172774318Y-76713845D01*
X172634869Y-78307756D01*
X172634869Y-78307756D01*
G37*
G36*
X173961250Y-56190384D02*
X175955127Y-55260624D01*
X176631316Y-56710716D01*
X174637439Y-57640476D01*
X173961250Y-56190384D01*
X173961250Y-56190384D01*
G37*
G36*
X174764224Y-57912368D02*
X176758102Y-56982608D01*
X177265244Y-58070178D01*
X175271366Y-58999938D01*
X174764224Y-57912368D01*
X174764224Y-57912368D01*
G37*
G36*
X175398152Y-59271830D02*
X177392029Y-58342070D01*
X178068218Y-59792162D01*
X176074341Y-60721922D01*
X175398152Y-59271830D01*
X175398152Y-59271830D01*
G37*
G36*
X179023383Y-57581357D02*
X181017260Y-56651597D01*
X181693449Y-58101689D01*
X179699572Y-59031449D01*
X179023383Y-57581357D01*
X179023383Y-57581357D01*
G37*
G36*
X178389455Y-56221895D02*
X180383333Y-55292135D01*
X180890475Y-56379705D01*
X178896597Y-57309465D01*
X178389455Y-56221895D01*
X178389455Y-56221895D01*
G37*
G36*
X177586481Y-54499911D02*
X179580358Y-53570151D01*
X180256547Y-55020243D01*
X178262670Y-55950003D01*
X177586481Y-54499911D01*
X177586481Y-54499911D01*
G37*
D15*
X184215200Y-53500000D03*
D25*
X137800000Y-82200000D03*
X139800000Y-82200000D03*
D10*
G36*
X155065281Y-77851252D02*
X155487900Y-76944944D01*
X158388085Y-78297322D01*
X157965466Y-79203630D01*
X155065281Y-77851252D01*
X155065281Y-77851252D01*
G37*
G36*
X148902388Y-74977447D02*
X149325007Y-74071139D01*
X152225192Y-75423517D01*
X151802573Y-76329825D01*
X148902388Y-74977447D01*
X148902388Y-74977447D01*
G37*
G36*
X147211915Y-78602678D02*
X147634534Y-77696370D01*
X150534719Y-79048748D01*
X150112100Y-79955056D01*
X147211915Y-78602678D01*
X147211915Y-78602678D01*
G37*
G36*
X153374808Y-81476483D02*
X153797427Y-80570175D01*
X156697612Y-81922553D01*
X156274993Y-82828861D01*
X153374808Y-81476483D01*
X153374808Y-81476483D01*
G37*
D22*
X134550000Y-76200000D03*
X134550000Y-78200000D03*
X137800000Y-76200000D03*
X137800000Y-78200000D03*
X141050000Y-76200000D03*
X141050000Y-78200000D03*
D10*
G36*
X105681173Y-63117478D02*
X106271910Y-61494441D01*
X108181365Y-62189426D01*
X107590628Y-63812463D01*
X105681173Y-63117478D01*
X105681173Y-63117478D01*
G37*
D26*
X107656791Y-60214509D02*
X107943209Y-60318757D01*
X108525522Y-57827689D02*
X108811940Y-57931937D01*
D10*
G36*
X110497780Y-63807235D02*
X111192765Y-61897780D01*
X113102220Y-62592765D01*
X112407235Y-64502220D01*
X110497780Y-63807235D01*
X110497780Y-63807235D01*
G37*
D27*
X112668731Y-60813181D02*
X112668731Y-60813181D01*
D28*
X161300000Y-77200000D03*
X116300000Y-77200000D03*
X165050000Y-77200000D03*
X112550000Y-77200000D03*
D10*
G36*
X167244164Y-65952068D02*
X166514218Y-64386693D01*
X168355836Y-63527932D01*
X169085782Y-65093307D01*
X167244164Y-65952068D01*
X167244164Y-65952068D01*
G37*
D26*
X166588429Y-62502385D02*
X166864671Y-62373571D01*
X165514978Y-60200363D02*
X165791220Y-60071549D01*
X164441528Y-57898342D02*
X164717770Y-57769528D01*
D29*
X138800000Y-109500000D03*
X141340000Y-109500000D03*
X136260000Y-109500000D03*
D30*
X137200000Y-94800000D03*
X108000000Y-73800000D03*
X115100000Y-67700000D03*
X137100000Y-84000000D03*
X139800000Y-84000000D03*
X117300000Y-72203805D03*
X120550000Y-61700000D03*
X131350000Y-64350000D03*
X135950000Y-72000000D03*
X104300000Y-57450000D03*
X140029143Y-59088588D03*
X144300000Y-56100000D03*
X141800000Y-56200000D03*
X139400000Y-78200000D03*
X136200000Y-78200000D03*
X161800000Y-68000000D03*
X161350000Y-80200000D03*
X165100000Y-73800000D03*
X175000000Y-61200000D03*
X177900000Y-74600000D03*
X177600000Y-61400000D03*
X158500000Y-64700000D03*
X141600000Y-66400000D03*
X141200000Y-69600000D03*
X145500000Y-67000000D03*
X135962532Y-71126678D03*
X140022817Y-72058738D03*
X101347480Y-72604955D03*
X135200000Y-54400000D03*
X120300000Y-74485165D03*
X119550000Y-75450000D03*
X120550000Y-75500000D03*
X132950000Y-65050000D03*
X132900000Y-76200000D03*
X99800000Y-53000000D03*
X116500000Y-59800000D03*
X137050000Y-62450000D03*
X161900000Y-59700000D03*
X178700000Y-58600000D03*
X152600000Y-59900000D03*
X150800000Y-62200000D03*
X150600000Y-53600000D03*
X138907866Y-59088588D03*
X142800000Y-63700000D03*
X135950000Y-61000000D03*
X136000000Y-66400000D03*
X153300000Y-63300000D03*
X145100000Y-63700000D03*
X136800000Y-67000000D03*
X153500000Y-64300000D03*
X145100000Y-64700000D03*
X123306000Y-66121020D03*
X131800000Y-66700000D03*
X136300000Y-68200000D03*
X125287200Y-64501895D03*
X131850000Y-65750000D03*
X135900000Y-67250000D03*
X131800000Y-69700000D03*
X141550000Y-70700000D03*
X138837349Y-103162651D03*
X140537349Y-103124000D03*
X103697200Y-59141600D03*
X115584400Y-61376800D03*
X102551150Y-61315600D03*
X116151705Y-66157748D03*
X173242400Y-59141600D03*
X162777600Y-58684400D03*
X181218000Y-59802000D03*
X178054000Y-75834500D03*
X176290400Y-53147200D03*
X160136000Y-58786000D03*
X177872210Y-77012800D03*
X180506800Y-53858400D03*
X168097200Y-75662606D03*
X109100000Y-74500000D03*
X130500000Y-73450000D03*
X146200000Y-72150000D03*
X168656000Y-79341697D03*
X107253200Y-79969600D03*
X129700000Y-74400000D03*
X146250000Y-73050000D03*
X95874000Y-55992000D03*
X128900000Y-56800000D03*
X131100000Y-52650000D03*
X129148000Y-48880000D03*
X95162800Y-57160400D03*
X131400000Y-54100000D03*
X129900000Y-56600000D03*
X136006000Y-80630000D03*
X103700000Y-75900000D03*
X137500000Y-88300000D03*
X103900000Y-77500000D03*
X135338000Y-51562000D03*
X142087600Y-51687600D03*
X143778400Y-48270400D03*
X133872400Y-48626000D03*
X138837349Y-92202000D03*
X138837349Y-94742000D03*
X140537349Y-92964000D03*
X140537349Y-95504000D03*
X154344800Y-60462400D03*
X150839600Y-51166000D03*
X152312800Y-62392800D03*
X148299600Y-48321200D03*
D31*
X134550000Y-78200000D02*
X136200000Y-78200000D01*
D32*
X137137349Y-97247593D02*
X137137349Y-94862651D01*
X137137349Y-94862651D02*
X137200000Y-94800000D01*
D31*
X139800000Y-82200000D02*
X139800000Y-84000000D01*
D33*
X173706308Y-61777382D02*
X175000000Y-61200000D01*
D32*
X176733185Y-59531996D02*
X177600000Y-61400000D01*
X175889887Y-74376490D02*
X177900000Y-74600000D01*
X163642020Y-67239693D02*
X161800000Y-68000000D01*
D33*
X161350000Y-77550000D02*
X161700000Y-77200000D01*
X161350000Y-81800000D02*
X161350000Y-80200000D01*
D34*
X163390056Y-73632856D02*
X165100000Y-73800000D01*
D32*
X144300000Y-56100000D02*
X144300000Y-54350000D01*
D34*
X143050000Y-66400000D02*
X141600000Y-66400000D01*
D32*
X156733185Y-65531996D02*
X158500000Y-64700000D01*
X137137349Y-86247593D02*
X137100000Y-84000000D01*
D34*
X131350000Y-62950000D02*
X131350000Y-64350000D01*
X131350000Y-62950000D02*
X131350000Y-63950000D01*
D32*
X122272148Y-62518249D02*
X120550000Y-61700000D01*
D34*
X134550000Y-72000000D02*
X135950000Y-72000000D01*
D31*
X137800000Y-78200000D02*
X139400000Y-78200000D01*
X141050000Y-78200000D02*
X139400000Y-78200000D01*
X136200000Y-78200000D02*
X137800000Y-78200000D01*
D34*
X140050000Y-60450000D02*
X140050000Y-59109445D01*
X140050000Y-59109445D02*
X140029143Y-59088588D01*
X140050000Y-60450000D02*
X141050000Y-60450000D01*
X139050000Y-60450000D02*
X140050000Y-60450000D01*
D35*
X136770000Y-56225000D02*
X141800000Y-56225000D01*
X135100000Y-56000000D02*
X136100000Y-56225000D01*
X136100000Y-56225000D02*
X136770000Y-56225000D01*
D34*
X117550000Y-72203805D02*
X117300000Y-72203805D01*
X117550000Y-72203805D02*
X116462844Y-72203805D01*
X118462844Y-72203805D02*
X117550000Y-72203805D01*
X116462844Y-72203805D02*
X116212844Y-72453805D01*
X123551716Y-74915213D02*
X122900000Y-74263497D01*
X124183740Y-74915213D02*
X123551716Y-74915213D01*
X122900000Y-74263497D02*
X122900000Y-73783257D01*
X122900000Y-73783257D02*
X121320548Y-72203805D01*
X121320548Y-72203805D02*
X118462844Y-72203805D01*
D32*
X102272148Y-56518249D02*
X104300000Y-57450000D01*
X113457980Y-66989693D02*
X115100000Y-67700000D01*
X105600068Y-74036163D02*
X108000000Y-73800000D01*
D35*
X129300000Y-54350000D02*
X130950000Y-56000000D01*
X130950000Y-56000000D02*
X135100000Y-56000000D01*
D34*
X116387156Y-74446195D02*
X116387156Y-76207844D01*
X114132798Y-74396385D02*
X116337346Y-74396385D01*
X116387156Y-76207844D02*
X115395000Y-77200000D01*
X116337346Y-74396385D02*
X116387156Y-74446195D01*
D33*
X167800000Y-64740000D02*
X171893692Y-62622618D01*
X160500000Y-67200000D02*
X155200000Y-67200000D01*
X155200000Y-67200000D02*
X150800000Y-65800000D01*
X146500000Y-65800000D02*
X145500000Y-67000000D01*
X167800000Y-64740000D02*
X160500000Y-67200000D01*
X150800000Y-65800000D02*
X146500000Y-65800000D01*
X138400000Y-73450000D02*
X138400000Y-72400000D01*
X138400000Y-72400000D02*
X141200000Y-69600000D01*
X142300000Y-75200000D02*
X140997600Y-75200000D01*
X148873317Y-78825713D02*
X142300000Y-75200000D01*
X155036210Y-81699518D02*
X159450000Y-81800000D01*
X148873317Y-78825713D02*
X155036210Y-81699518D01*
X140000000Y-73450000D02*
X140000000Y-72081555D01*
X135962532Y-71126678D02*
X135889210Y-71200000D01*
X140000000Y-74202400D02*
X140000000Y-73450000D01*
X140000000Y-72081555D02*
X140022817Y-72058738D01*
X135889210Y-71200000D02*
X134550000Y-71200000D01*
X140997600Y-75200000D02*
X140000000Y-74202400D01*
D31*
X137137349Y-102652393D02*
X137137349Y-101247593D01*
D32*
X137137349Y-90247593D02*
X137137349Y-89697593D01*
X137137349Y-89947593D02*
X137137349Y-90247593D01*
X137137349Y-89697593D02*
X135571349Y-88131593D01*
X135571349Y-88131593D02*
X135571349Y-99131593D01*
D31*
X136260000Y-108645520D02*
X135234070Y-107619590D01*
X136260000Y-110200000D02*
X136260000Y-108645520D01*
D32*
X137137349Y-100697593D02*
X135571349Y-99131593D01*
X137137349Y-100947593D02*
X137137349Y-101247593D01*
D31*
X135234070Y-107619590D02*
X135234070Y-104555672D01*
D32*
X137137349Y-101247593D02*
X137137349Y-100697593D01*
D31*
X135234070Y-104555672D02*
X137137349Y-102652393D01*
D32*
X136000000Y-82200000D02*
X137800000Y-82200000D01*
X135571349Y-83200000D02*
X135571349Y-82600000D01*
X136000000Y-82200000D02*
X135721349Y-82200000D01*
X135571349Y-83200000D02*
X135571349Y-81771349D01*
X135000000Y-81200000D02*
X136000000Y-82200000D01*
X135571349Y-81771349D02*
X135321349Y-81521349D01*
X135321349Y-81521349D02*
X135000000Y-81200000D01*
X132900000Y-79100000D02*
X135000000Y-81200000D01*
X141050000Y-76200000D02*
X147300000Y-79900000D01*
X180358416Y-57841523D02*
X178700000Y-58600000D01*
X180358416Y-57841523D02*
X179958477Y-57841523D01*
X171905108Y-74027867D02*
X173700000Y-74200000D01*
X164400000Y-82400000D02*
X173400000Y-79300000D01*
X173700000Y-74200000D02*
X173800000Y-74800000D01*
X173400000Y-79300000D02*
X173800000Y-74800000D01*
X156700000Y-84100000D02*
X159300000Y-84100000D01*
D33*
X156726683Y-78074287D02*
X160300000Y-80400000D01*
D32*
X147300000Y-79900000D02*
X156700000Y-84100000D01*
D33*
X160300000Y-80400000D02*
X160200000Y-83800000D01*
D32*
X160200000Y-83800000D02*
X164400000Y-82400000D01*
X159300000Y-84100000D02*
X160200000Y-83800000D01*
X160358416Y-63841523D02*
X162300000Y-63000000D01*
X162300000Y-63000000D02*
X161900000Y-59700000D01*
X149850000Y-54350000D02*
X150600000Y-53600000D01*
X148300000Y-54350000D02*
X149850000Y-54350000D01*
X137050000Y-62450000D02*
X150550000Y-62450000D01*
X150550000Y-62450000D02*
X150800000Y-62200000D01*
X160358416Y-63841523D02*
X162957980Y-65360307D01*
X135571349Y-84078651D02*
X135571349Y-88131593D01*
X135571349Y-84078651D02*
X135571349Y-83200000D01*
X118646917Y-60827776D02*
X116500000Y-59800000D01*
X132900000Y-76200000D02*
X132950000Y-65050000D01*
D34*
X136000000Y-73450000D02*
X136000000Y-76200000D01*
D32*
X134550000Y-76200000D02*
X136000000Y-76200000D01*
X132900000Y-76200000D02*
X141050000Y-76200000D01*
D35*
X134550000Y-76200000D02*
X132900000Y-76200000D01*
D32*
X132900000Y-76200000D02*
X132900000Y-79100000D01*
X139200000Y-76200000D02*
X141050000Y-76200000D01*
X136000000Y-76200000D02*
X137800000Y-76200000D01*
X137800000Y-76200000D02*
X139200000Y-76200000D01*
D34*
X139200000Y-73450000D02*
X139200000Y-76200000D01*
D32*
X139050000Y-62450000D02*
X141050000Y-62450000D01*
D34*
X141600000Y-64950000D02*
X141600000Y-63000000D01*
X141600000Y-63000000D02*
X141050000Y-62450000D01*
D32*
X139050000Y-62450000D02*
X137050000Y-62450000D01*
X120550000Y-75106955D02*
X120436857Y-75106955D01*
D35*
X120550000Y-75106955D02*
X121992112Y-75106955D01*
D32*
X118637156Y-74196195D02*
X120300000Y-74485165D01*
X120300000Y-74485165D02*
X120300000Y-74700000D01*
X118637156Y-74196195D02*
X119550000Y-75450000D01*
X120300000Y-74700000D02*
X119550000Y-75450000D01*
D35*
X119382096Y-75106955D02*
X120550000Y-75106955D01*
D32*
X120436857Y-75106955D02*
X120300000Y-74970098D01*
D35*
X118887156Y-74696195D02*
X118971336Y-74696195D01*
X118971336Y-74696195D02*
X119382096Y-75106955D01*
D32*
X99800000Y-53000000D02*
X98646917Y-54827776D01*
X101347480Y-72604955D02*
X101615289Y-74384786D01*
X114142020Y-65110307D02*
X111800000Y-63200000D01*
X135150000Y-54350000D02*
X135200000Y-54400000D01*
X133300000Y-54350000D02*
X135150000Y-54350000D01*
D34*
X158192770Y-73115596D02*
X161300000Y-73450000D01*
X140300000Y-54780140D02*
X137300000Y-54780140D01*
X144050000Y-68800000D02*
X144600000Y-68250000D01*
X143050000Y-68800000D02*
X144050000Y-68800000D01*
X144600000Y-65200000D02*
X144600000Y-68250000D01*
D33*
X142500000Y-56400000D02*
X141700000Y-57231408D01*
X142500000Y-54100000D02*
X140800000Y-52400000D01*
X142500000Y-56400000D02*
X142500000Y-54100000D01*
D34*
X144600000Y-65200000D02*
X142800000Y-63700000D01*
D33*
X140400000Y-57639720D02*
X141700000Y-57231408D01*
D34*
X138907866Y-59088588D02*
X140300000Y-57619860D01*
D33*
X140800000Y-52400000D02*
X140050000Y-52400000D01*
D34*
X137300000Y-59650000D02*
X135950000Y-61000000D01*
X137300000Y-59650000D02*
X137300000Y-57619860D01*
X134000000Y-62950000D02*
X133250000Y-62950000D01*
X135950000Y-61000000D02*
X134000000Y-62950000D01*
D33*
X145100000Y-63700000D02*
X153300000Y-63300000D01*
X136000000Y-64950000D02*
X136000000Y-66400000D01*
X153500000Y-64300000D02*
X145100000Y-64700000D01*
X136800000Y-64950000D02*
X136800000Y-67000000D01*
D34*
X143050000Y-70400000D02*
X144400000Y-70400000D01*
X144400000Y-70400000D02*
X156300000Y-72950000D01*
D33*
X126050000Y-66700000D02*
X131800000Y-66700000D01*
X120835246Y-65599696D02*
X123306000Y-66121020D01*
X123306000Y-66121020D02*
X126050000Y-66700000D01*
X135700000Y-68800000D02*
X136300000Y-68200000D01*
X134550000Y-68800000D02*
X135700000Y-68800000D01*
X131850000Y-65750000D02*
X127800000Y-64800000D01*
X125287200Y-64501895D02*
X127800000Y-64800000D01*
X121553697Y-64058973D02*
X125287200Y-64501895D01*
X134550000Y-67200000D02*
X135900000Y-67250000D01*
D34*
X120857529Y-73108785D02*
X114500000Y-73482372D01*
X114129907Y-73200000D02*
X113967202Y-72503615D01*
X114500000Y-73482372D02*
X114129907Y-73200000D01*
X121909314Y-74160570D02*
X120857529Y-73108785D01*
D33*
X134800000Y-110250000D02*
X134800000Y-82700000D01*
X140750000Y-111250000D02*
X135800000Y-111250000D01*
X135800000Y-111250000D02*
X134800000Y-110250000D01*
X141340000Y-110660000D02*
X140750000Y-111250000D01*
X141340000Y-109500000D02*
X141340000Y-110660000D01*
X141550000Y-70200000D02*
X142150000Y-69600000D01*
X142150000Y-69600000D02*
X143050000Y-69600000D01*
X134800000Y-82700000D02*
X132050000Y-79950000D01*
X132050000Y-69950000D02*
X131800000Y-69700000D01*
X141550000Y-70700000D02*
X141550000Y-70200000D01*
X132050000Y-79950000D02*
X132050000Y-69950000D01*
X138837349Y-101247593D02*
X138837349Y-103162651D01*
X138837349Y-103162651D02*
X136800000Y-105200000D01*
X140537349Y-101247593D02*
X140537349Y-103124000D01*
X140537349Y-103124000D02*
X140537349Y-104937349D01*
X140537349Y-104937349D02*
X140800000Y-105200000D01*
X111700000Y-58700000D02*
X116500000Y-57900000D01*
X116500000Y-57900000D02*
X124000000Y-60100000D01*
X124000000Y-60100000D02*
X129300000Y-61680702D01*
X139200000Y-64250000D02*
X139200000Y-64950000D01*
X138900000Y-63950000D02*
X139200000Y-64250000D01*
X135400000Y-63950000D02*
X138900000Y-63950000D01*
X106931269Y-62653452D02*
X109100000Y-61800000D01*
X109100000Y-61800000D02*
X111700000Y-58700000D01*
X135050000Y-64300000D02*
X135400000Y-63950000D01*
X132450000Y-64300000D02*
X135050000Y-64300000D01*
X132000000Y-61800000D02*
X132000000Y-63800000D01*
X129300000Y-61680702D02*
X131880702Y-61680702D01*
X132000000Y-63800000D02*
X132450000Y-64300000D01*
X131880702Y-61680702D02*
X132000000Y-61800000D01*
X116500000Y-57500000D02*
X111000000Y-57900000D01*
X124000000Y-59700000D02*
X116500000Y-57500000D01*
X129500000Y-61340350D02*
X124000000Y-59700000D01*
X140000000Y-64050000D02*
X139550000Y-63600000D01*
X140000000Y-64950000D02*
X140000000Y-64050000D01*
X139550000Y-63600000D02*
X135300000Y-63600000D01*
X111000000Y-57900000D02*
X107800000Y-60266633D01*
X132600000Y-63900000D02*
X132500000Y-63800000D01*
X135300000Y-63600000D02*
X135000000Y-63900000D01*
X135000000Y-63900000D02*
X132600000Y-63900000D01*
X132500000Y-63800000D02*
X132500000Y-61600000D01*
X132240350Y-61340350D02*
X129500000Y-61340350D01*
X132500000Y-61600000D02*
X132240350Y-61340350D01*
X103697200Y-59141600D02*
X101553697Y-58058973D01*
X117928466Y-62368499D02*
X119000000Y-63800000D01*
X115584400Y-61376800D02*
X117928466Y-62368499D01*
X117870400Y-66355200D02*
X119000000Y-63800000D01*
X116956000Y-67015600D02*
X117870400Y-66355200D01*
X115800000Y-66900000D02*
X116956000Y-67015600D01*
X101200000Y-61400000D02*
X98900000Y-60000000D01*
X99500000Y-58100000D02*
X101553697Y-58058973D01*
X98800000Y-59600000D02*
X99500000Y-58100000D01*
X98900000Y-60000000D02*
X98800000Y-59600000D01*
X105000000Y-64000000D02*
X101200000Y-61400000D01*
X115800000Y-66900000D02*
X112400000Y-65700000D01*
X112400000Y-65700000D02*
X105000000Y-64000000D01*
X100835246Y-59599696D02*
X102551150Y-61315600D01*
X102551150Y-61315600D02*
X103600000Y-62364450D01*
X116151705Y-66157748D02*
X117210015Y-63909223D01*
X105500000Y-63622401D02*
X103600000Y-62364450D01*
X116151705Y-66157748D02*
X114974800Y-66250713D01*
X114974800Y-66250713D02*
X112500000Y-65400000D01*
X105500000Y-63622401D02*
X112500000Y-65400000D01*
X170191273Y-57991273D02*
X173177200Y-57991273D01*
X173177200Y-57991273D02*
X176014734Y-57991273D01*
X173242400Y-59141600D02*
X173177200Y-57991273D01*
X160538411Y-59861589D02*
X162234000Y-58166000D01*
X162234000Y-58166000D02*
X164000000Y-56400000D01*
X162777600Y-58684400D02*
X162234000Y-58166000D01*
X168600000Y-56400000D02*
X170191273Y-57991273D01*
X164000000Y-56400000D02*
X168600000Y-56400000D01*
X160538411Y-61402354D02*
X160538411Y-59861589D01*
X159639965Y-62300800D02*
X160538411Y-61402354D01*
X181500000Y-61000000D02*
X181737000Y-59909800D01*
X181737000Y-59909800D02*
X182000000Y-58700000D01*
X181218000Y-59802000D02*
X181325800Y-59909800D01*
X181325800Y-59909800D02*
X181737000Y-59909800D01*
X177700000Y-76100000D02*
X178054000Y-75834500D01*
X178054000Y-75834500D02*
X178900000Y-75200000D01*
X147200000Y-67200000D02*
X161188400Y-68795991D01*
X162661600Y-68695781D02*
X179700000Y-62500000D01*
X161188400Y-68795991D02*
X162661600Y-68695781D01*
X146800000Y-69800000D02*
X146800000Y-67600000D01*
X147400000Y-70500000D02*
X146800000Y-69800000D01*
X147500000Y-70500000D02*
X147400000Y-70500000D01*
X179700000Y-62500000D02*
X181500000Y-61000000D01*
X182200000Y-57500000D02*
X182016666Y-58600000D01*
X182000000Y-58700000D02*
X182016666Y-58600000D01*
X181600000Y-56400000D02*
X182200000Y-57500000D01*
X179639965Y-56300800D02*
X181600000Y-56400000D01*
X178300000Y-73400000D02*
X177700000Y-73100000D01*
X179000000Y-74100000D02*
X178300000Y-73400000D01*
X146800000Y-67600000D02*
X147200000Y-67200000D01*
X177700000Y-73100000D02*
X147500000Y-70500000D01*
X178900000Y-75200000D02*
X179000000Y-74100000D01*
X175741722Y-76070021D02*
X177700000Y-76100000D01*
X173228000Y-55777851D02*
X174623584Y-55777851D01*
X163903740Y-55777851D02*
X173228000Y-55777851D01*
X173228000Y-55777851D02*
X176290400Y-53147200D01*
X158921514Y-60760077D02*
X160550391Y-59131200D01*
X160550391Y-59131200D02*
X163903740Y-55777851D01*
X160136000Y-58786000D02*
X160550391Y-59131200D01*
X174623584Y-55777851D02*
X175296283Y-56450550D01*
X177800000Y-72500000D02*
X179019200Y-73250276D01*
X179019200Y-73250276D02*
X179100000Y-73300000D01*
X179440000Y-73670400D02*
X179019200Y-73250276D01*
X179440000Y-75651600D02*
X179440000Y-73670400D01*
X177872210Y-77012800D02*
X179440000Y-75651600D01*
X177872210Y-77012800D02*
X177700000Y-77182722D01*
X180506800Y-53858400D02*
X178921514Y-54760077D01*
X160934400Y-69165203D02*
X147400000Y-67600000D01*
X179800000Y-62900000D02*
X162966400Y-68986725D01*
X160934400Y-69165203D02*
X162966400Y-68986725D01*
X147400000Y-67600000D02*
X147200000Y-67800000D01*
X147200000Y-67800000D02*
X147200000Y-69700000D01*
X147200000Y-69700000D02*
X147600000Y-70200000D01*
X181800000Y-61200000D02*
X179800000Y-62900000D01*
X182400000Y-58700000D02*
X181800000Y-61200000D01*
X182700000Y-57100000D02*
X182400000Y-58700000D01*
X178921514Y-54760077D02*
X181600000Y-55200000D01*
X181600000Y-55200000D02*
X182700000Y-57100000D01*
X147600000Y-70200000D02*
X177800000Y-72500000D01*
X175593558Y-77763552D02*
X177700000Y-77182722D01*
X171756944Y-75721398D02*
X168097200Y-75662606D01*
X168097200Y-75662606D02*
X164200000Y-75600000D01*
X147000000Y-72600000D02*
X146200000Y-72150000D01*
X164200000Y-75600000D02*
X147000000Y-72600000D01*
X130500000Y-73450000D02*
X120200000Y-70711764D01*
X110350000Y-71291177D02*
X120200000Y-70711764D01*
X110114062Y-71550000D02*
X110350000Y-71291177D01*
X109100000Y-74500000D02*
X110114062Y-71550000D01*
X105748233Y-75729694D02*
X109100000Y-74500000D01*
X165700000Y-79700000D02*
X168656000Y-79341697D01*
X168656000Y-79341697D02*
X169000000Y-79300000D01*
X107253200Y-79969600D02*
X105896397Y-77423225D01*
X169000000Y-79300000D02*
X171608779Y-77414929D01*
X146250000Y-73050000D02*
X162472800Y-75806520D01*
X163336400Y-76870800D02*
X162472800Y-75806520D01*
X165700000Y-79700000D02*
X163590400Y-79410800D01*
X163590400Y-79410800D02*
X163336400Y-76870800D01*
X129700000Y-74400000D02*
X120100000Y-71086488D01*
X110700000Y-71594595D02*
X120100000Y-71086488D01*
X120100000Y-71086488D02*
X120200000Y-71081082D01*
X110554545Y-71750000D02*
X110700000Y-71594595D01*
X105896397Y-77423225D02*
X109600000Y-74900000D01*
X109600000Y-74900000D02*
X110554545Y-71750000D01*
X95874000Y-55992000D02*
X97928466Y-56368499D01*
X128900000Y-56800000D02*
X129800000Y-57235668D01*
X102300000Y-52596846D02*
X129550000Y-60600000D01*
X101216217Y-53200000D02*
X102300000Y-52596846D01*
X99650000Y-56250000D02*
X101216217Y-53200000D01*
X97928466Y-56368499D02*
X99650000Y-56250000D01*
X130800000Y-52650000D02*
X131100000Y-52650000D01*
X129300000Y-52650000D02*
X130800000Y-52650000D01*
X133025000Y-57400000D02*
X129800000Y-57235668D01*
X134750000Y-59950000D02*
X129550000Y-60600000D01*
X133025000Y-57400000D02*
X135160869Y-57475000D01*
X135385869Y-57700000D02*
X134750000Y-59950000D01*
X135160869Y-57475000D02*
X135385869Y-57700000D01*
X129148000Y-48880000D02*
X129300000Y-50950000D01*
X95162800Y-57160400D02*
X97210015Y-57909223D01*
X129450000Y-60975000D02*
X102300000Y-52967967D01*
X135750000Y-57550000D02*
X135300000Y-57100000D01*
X135050000Y-60100000D02*
X135000000Y-60250000D01*
X135750000Y-57550000D02*
X135050000Y-60100000D01*
X99350000Y-57550000D02*
X101489131Y-53450000D01*
X101489131Y-53450000D02*
X102300000Y-52967967D01*
X97210015Y-57909223D02*
X99350000Y-57550000D01*
X129300000Y-50950000D02*
X130950000Y-50950000D01*
X131700000Y-53850000D02*
X131400000Y-54100000D01*
X134100000Y-57000000D02*
X129900000Y-56600000D01*
X135000000Y-60250000D02*
X129600000Y-60950000D01*
X129600000Y-60950000D02*
X129450000Y-60975000D01*
X130950000Y-50950000D02*
X131700000Y-51700000D01*
X131700000Y-51700000D02*
X131700000Y-53850000D01*
X135300000Y-57100000D02*
X134100000Y-57000000D01*
X141213000Y-81392000D02*
X140451000Y-80630000D01*
X140451000Y-80630000D02*
X136006000Y-80630000D01*
X141213000Y-84186000D02*
X141213000Y-81392000D01*
X140705000Y-84694000D02*
X141213000Y-84186000D01*
X139689000Y-84694000D02*
X140705000Y-84694000D01*
X138837349Y-85545651D02*
X139689000Y-84694000D01*
X138837349Y-86247593D02*
X138837349Y-85545651D01*
X101763454Y-76078317D02*
X103521683Y-76078317D01*
X103521683Y-76078317D02*
X103700000Y-75900000D01*
X140537349Y-88062651D02*
X140300000Y-88300000D01*
X140300000Y-88300000D02*
X137500000Y-88300000D01*
X140537349Y-86247593D02*
X140537349Y-88062651D01*
X101911619Y-77771848D02*
X103628152Y-77771848D01*
X103628152Y-77771848D02*
X103900000Y-77500000D01*
X134250000Y-52650000D02*
X135338000Y-51562000D01*
X135338000Y-51562000D02*
X135900000Y-51000000D01*
X143050000Y-52650000D02*
X142087600Y-51687600D01*
X142087600Y-51687600D02*
X141400000Y-51000000D01*
X144300000Y-52650000D02*
X143050000Y-52650000D01*
X141400000Y-51000000D02*
X135900000Y-51000000D01*
X133300000Y-52650000D02*
X134250000Y-52650000D01*
X144300000Y-50950000D02*
X143778400Y-48270400D01*
X133872400Y-48626000D02*
X133300000Y-50950000D01*
X141950000Y-50950000D02*
X144300000Y-50950000D01*
X141600000Y-50600000D02*
X141950000Y-50950000D01*
X135600000Y-50600000D02*
X141600000Y-50600000D01*
X135250000Y-50950000D02*
X135600000Y-50600000D01*
X133300000Y-50950000D02*
X135250000Y-50950000D01*
X138837349Y-90247593D02*
X138837349Y-92202000D01*
X138837349Y-92202000D02*
X138837349Y-94742000D01*
X138837349Y-94742000D02*
X138837349Y-97247593D01*
X140537349Y-90247593D02*
X140537349Y-92964000D01*
X140537349Y-92964000D02*
X140537349Y-95504000D01*
X140537349Y-95504000D02*
X140537349Y-97247593D01*
X143600000Y-60800000D02*
X154330400Y-60800000D01*
X154330400Y-60800000D02*
X156600000Y-60800000D01*
X154344800Y-60462400D02*
X154330400Y-60800000D01*
X150280800Y-52232800D02*
X148300000Y-52650000D01*
X150839600Y-51166000D02*
X150280800Y-52232800D01*
X148300000Y-52650000D02*
X147047600Y-52650000D01*
X146600000Y-53097600D02*
X146600000Y-56600000D01*
X147047600Y-52650000D02*
X146600000Y-53097600D01*
X142400000Y-59600000D02*
X143600000Y-60800000D01*
X145800000Y-57400000D02*
X142600000Y-57400000D01*
X142600000Y-57400000D02*
X142400000Y-57600000D01*
X146600000Y-56600000D02*
X145800000Y-57400000D01*
X142400000Y-57600000D02*
X142400000Y-59600000D01*
X157400000Y-62606007D02*
X156014734Y-63991273D01*
X156600000Y-60800000D02*
X157400000Y-61600000D01*
X157400000Y-61600000D02*
X157400000Y-62606007D01*
X153950543Y-61104810D02*
X152298400Y-61104810D01*
X152298400Y-61104810D02*
X143304810Y-61104810D01*
X152312800Y-62392800D02*
X152298400Y-61104810D01*
X148299600Y-48321200D02*
X148300000Y-50950000D01*
X146200000Y-56000000D02*
X146200000Y-51797600D01*
X146200000Y-51797600D02*
X147047600Y-50950000D01*
X147047600Y-50950000D02*
X148300000Y-50950000D01*
X142095190Y-57304810D02*
X142400000Y-57000000D01*
X143304810Y-61104810D02*
X142095190Y-59895190D01*
X155296283Y-62450550D02*
X153950543Y-61104810D01*
X145200000Y-57000000D02*
X146200000Y-56000000D01*
X142400000Y-57000000D02*
X145200000Y-57000000D01*
X142095190Y-59895190D02*
X142095190Y-57304810D01*
D36*
G36*
X126076674Y-77793080D02*
X126310740Y-80133735D01*
X124066263Y-80313293D01*
X123876892Y-77993497D01*
X123829428Y-75715248D01*
X124685109Y-75633755D01*
X126076674Y-77793080D01*
X126076674Y-77793080D01*
G37*
X126076674Y-77793080D02*
X126310740Y-80133735D01*
X124066263Y-80313293D01*
X123876892Y-77993497D01*
X123829428Y-75715248D01*
X124685109Y-75633755D01*
X126076674Y-77793080D01*
G36*
X121041098Y-74765341D02*
X121075100Y-74802562D01*
X121145300Y-74826913D01*
X122382789Y-74872746D01*
X122413138Y-75236937D01*
X121136470Y-75373723D01*
X121088407Y-75388935D01*
X121060197Y-75410197D01*
X120745761Y-75724633D01*
X119277252Y-75770524D01*
X119145984Y-75507988D01*
X120069202Y-74077000D01*
X120628093Y-74077000D01*
X121041098Y-74765341D01*
X121041098Y-74765341D01*
G37*
X121041098Y-74765341D02*
X121075100Y-74802562D01*
X121145300Y-74826913D01*
X122382789Y-74872746D01*
X122413138Y-75236937D01*
X121136470Y-75373723D01*
X121088407Y-75388935D01*
X121060197Y-75410197D01*
X120745761Y-75724633D01*
X119277252Y-75770524D01*
X119145984Y-75507988D01*
X120069202Y-74077000D01*
X120628093Y-74077000D01*
X121041098Y-74765341D01*
G36*
X122623430Y-78060449D02*
X122813475Y-80436019D01*
X120461015Y-80671265D01*
X111377000Y-78153413D01*
X111377000Y-76792333D01*
X112061271Y-75879973D01*
X117393844Y-76126851D01*
X120293440Y-76276830D01*
X120335560Y-76271920D01*
X121524013Y-75925288D01*
X122434335Y-75838590D01*
X122623430Y-78060449D01*
X122623430Y-78060449D01*
G37*
X122623430Y-78060449D02*
X122813475Y-80436019D01*
X120461015Y-80671265D01*
X111377000Y-78153413D01*
X111377000Y-76792333D01*
X112061271Y-75879973D01*
X117393844Y-76126851D01*
X120293440Y-76276830D01*
X120335560Y-76271920D01*
X121524013Y-75925288D01*
X122434335Y-75838590D01*
X122623430Y-78060449D01*
M02*
