G04 #@! TF.FileFunction,Soldermask,Bot*
%FSLAX46Y46*%
G04 Gerber Fmt 4.6, Leading zero omitted, Abs format (unit mm)*
G04 Created by KiCad (PCBNEW 4.0.6) date 05/08/17 21:21:00*
%MOMM*%
%LPD*%
G01*
G04 APERTURE LIST*
%ADD10C,0.100000*%
%ADD11C,5.900000*%
%ADD12R,2.300000X2.400000*%
%ADD13C,2.300000*%
%ADD14C,2.127200*%
%ADD15C,2.432000*%
%ADD16C,2.400000*%
%ADD17O,1.900000X2.900000*%
G04 APERTURE END LIST*
D10*
G36*
X138285600Y-95170000D02*
X139285600Y-95170000D01*
X139785600Y-96570000D01*
X137785600Y-96570000D01*
X138285600Y-95170000D01*
X138285600Y-95170000D01*
G37*
G36*
X137785600Y-96470000D02*
X139785600Y-96470000D01*
X139285600Y-97870000D01*
X138285600Y-97870000D01*
X137785600Y-96470000D01*
X137785600Y-96470000D01*
G37*
G36*
X138692000Y-86534000D02*
X139692000Y-86534000D01*
X140192000Y-87934000D01*
X138192000Y-87934000D01*
X138692000Y-86534000D01*
X138692000Y-86534000D01*
G37*
G36*
X138192000Y-87834000D02*
X140192000Y-87834000D01*
X139692000Y-89234000D01*
X138692000Y-89234000D01*
X138192000Y-87834000D01*
X138192000Y-87834000D01*
G37*
G36*
X136152000Y-89216000D02*
X137152000Y-89216000D01*
X137652000Y-90616000D01*
X135652000Y-90616000D01*
X136152000Y-89216000D01*
X136152000Y-89216000D01*
G37*
G36*
X135652000Y-90516000D02*
X137652000Y-90516000D01*
X137152000Y-91916000D01*
X136152000Y-91916000D01*
X135652000Y-90516000D01*
X135652000Y-90516000D01*
G37*
G36*
X138946000Y-98218000D02*
X139946000Y-98218000D01*
X140446000Y-99618000D01*
X138446000Y-99618000D01*
X138946000Y-98218000D01*
X138946000Y-98218000D01*
G37*
G36*
X138446000Y-99518000D02*
X140446000Y-99518000D01*
X139946000Y-100918000D01*
X138946000Y-100918000D01*
X138446000Y-99518000D01*
X138446000Y-99518000D01*
G37*
D11*
X93420000Y-53500000D03*
D12*
X137510000Y-52400000D03*
D13*
X140050000Y-52400000D03*
D11*
X184215200Y-53500000D03*
D10*
G36*
X123944800Y-63213600D02*
X123944800Y-64213600D01*
X122544800Y-64713600D01*
X122544800Y-62713600D01*
X123944800Y-63213600D01*
X123944800Y-63213600D01*
G37*
G36*
X122644800Y-62713600D02*
X122644800Y-64713600D01*
X121244800Y-64213600D01*
X121244800Y-63213600D01*
X122644800Y-62713600D01*
X122644800Y-62713600D01*
G37*
G36*
X105424830Y-63237013D02*
X106152375Y-61238098D01*
X108437708Y-62069891D01*
X107710163Y-64068806D01*
X105424830Y-63237013D01*
X105424830Y-63237013D01*
G37*
D14*
X107656791Y-60214509D02*
X107943209Y-60318757D01*
X108525522Y-57827689D02*
X108811940Y-57931937D01*
D10*
G36*
X110241437Y-63926770D02*
X111073230Y-61641437D01*
X113358563Y-62473230D01*
X112526770Y-64758563D01*
X110241437Y-63926770D01*
X110241437Y-63926770D01*
G37*
D15*
X112668731Y-60813181D02*
X112668731Y-60813181D01*
D10*
G36*
X121902400Y-66007600D02*
X121902400Y-67007600D01*
X120502400Y-67507600D01*
X120502400Y-65507600D01*
X121902400Y-66007600D01*
X121902400Y-66007600D01*
G37*
G36*
X120602400Y-65507600D02*
X120602400Y-67507600D01*
X119202400Y-67007600D01*
X119202400Y-66007600D01*
X120602400Y-65507600D01*
X120602400Y-65507600D01*
G37*
G36*
X100410000Y-58377200D02*
X100410000Y-59377200D01*
X99010000Y-59877200D01*
X99010000Y-57877200D01*
X100410000Y-58377200D01*
X100410000Y-58377200D01*
G37*
G36*
X99110000Y-57877200D02*
X99110000Y-59877200D01*
X97710000Y-59377200D01*
X97710000Y-58377200D01*
X99110000Y-57877200D01*
X99110000Y-57877200D01*
G37*
G36*
X101284000Y-55532400D02*
X101284000Y-56532400D01*
X99884000Y-57032400D01*
X99884000Y-55032400D01*
X101284000Y-55532400D01*
X101284000Y-55532400D01*
G37*
G36*
X99984000Y-55032400D02*
X99984000Y-57032400D01*
X98584000Y-56532400D01*
X98584000Y-55532400D01*
X99984000Y-55032400D01*
X99984000Y-55032400D01*
G37*
G36*
X107735600Y-74531600D02*
X107735600Y-75531600D01*
X106335600Y-76031600D01*
X106335600Y-74031600D01*
X107735600Y-74531600D01*
X107735600Y-74531600D01*
G37*
G36*
X106435600Y-74031600D02*
X106435600Y-76031600D01*
X105035600Y-75531600D01*
X105035600Y-74531600D01*
X106435600Y-74031600D01*
X106435600Y-74031600D01*
G37*
G36*
X106506000Y-79002000D02*
X106506000Y-80002000D01*
X105106000Y-80502000D01*
X105106000Y-78502000D01*
X106506000Y-79002000D01*
X106506000Y-79002000D01*
G37*
G36*
X105206000Y-78502000D02*
X105206000Y-80502000D01*
X103806000Y-80002000D01*
X103806000Y-79002000D01*
X105206000Y-78502000D01*
X105206000Y-78502000D01*
G37*
D16*
X161300000Y-77200000D03*
X116300000Y-77200000D03*
X165050000Y-77200000D03*
X112550000Y-77200000D03*
D10*
G36*
X167147427Y-66217853D02*
X166248433Y-64289955D01*
X168452573Y-63262147D01*
X169351567Y-65190045D01*
X167147427Y-66217853D01*
X167147427Y-66217853D01*
G37*
D14*
X166588429Y-62502385D02*
X166864671Y-62373571D01*
X165514978Y-60200363D02*
X165791220Y-60071549D01*
X164441528Y-57898342D02*
X164717770Y-57769528D01*
D10*
G36*
X175035200Y-75852400D02*
X175035200Y-76852400D01*
X173635200Y-77352400D01*
X173635200Y-75352400D01*
X175035200Y-75852400D01*
X175035200Y-75852400D01*
G37*
G36*
X173735200Y-75352400D02*
X173735200Y-77352400D01*
X172335200Y-76852400D01*
X172335200Y-75852400D01*
X173735200Y-75352400D01*
X173735200Y-75352400D01*
G37*
G36*
X172952400Y-78697200D02*
X172952400Y-79697200D01*
X171552400Y-80197200D01*
X171552400Y-78197200D01*
X172952400Y-78697200D01*
X172952400Y-78697200D01*
G37*
G36*
X171652400Y-78197200D02*
X171652400Y-80197200D01*
X170252400Y-79697200D01*
X170252400Y-78697200D01*
X171652400Y-78197200D01*
X171652400Y-78197200D01*
G37*
G36*
X178024800Y-61053600D02*
X178024800Y-60053600D01*
X179424800Y-59553600D01*
X179424800Y-61553600D01*
X178024800Y-61053600D01*
X178024800Y-61053600D01*
G37*
G36*
X179324800Y-61553600D02*
X179324800Y-59553600D01*
X180724800Y-60053600D01*
X180724800Y-61053600D01*
X179324800Y-61553600D01*
X179324800Y-61553600D01*
G37*
G36*
X177516800Y-53738400D02*
X177516800Y-52738400D01*
X178916800Y-52238400D01*
X178916800Y-54238400D01*
X177516800Y-53738400D01*
X177516800Y-53738400D01*
G37*
G36*
X178816800Y-54238400D02*
X178816800Y-52238400D01*
X180216800Y-52738400D01*
X180216800Y-53738400D01*
X178816800Y-54238400D01*
X178816800Y-54238400D01*
G37*
G36*
X155114000Y-61460000D02*
X155114000Y-60460000D01*
X156514000Y-59960000D01*
X156514000Y-61960000D01*
X155114000Y-61460000D01*
X155114000Y-61460000D01*
G37*
G36*
X156414000Y-61960000D02*
X156414000Y-59960000D01*
X157814000Y-60460000D01*
X157814000Y-61460000D01*
X156414000Y-61960000D01*
X156414000Y-61960000D01*
G37*
G36*
X159127200Y-61714000D02*
X159127200Y-60714000D01*
X160527200Y-60214000D01*
X160527200Y-62214000D01*
X159127200Y-61714000D01*
X159127200Y-61714000D01*
G37*
G36*
X160427200Y-62214000D02*
X160427200Y-60214000D01*
X161827200Y-60714000D01*
X161827200Y-61714000D01*
X160427200Y-62214000D01*
X160427200Y-62214000D01*
G37*
G36*
X144649200Y-48760000D02*
X144649200Y-47760000D01*
X146049200Y-47260000D01*
X146049200Y-49260000D01*
X144649200Y-48760000D01*
X144649200Y-48760000D01*
G37*
G36*
X145949200Y-49260000D02*
X145949200Y-47260000D01*
X147349200Y-47760000D01*
X147349200Y-48760000D01*
X145949200Y-49260000D01*
X145949200Y-49260000D01*
G37*
G36*
X145167600Y-51604800D02*
X145167600Y-50604800D01*
X146567600Y-50104800D01*
X146567600Y-52104800D01*
X145167600Y-51604800D01*
X145167600Y-51604800D01*
G37*
G36*
X146467600Y-52104800D02*
X146467600Y-50104800D01*
X147867600Y-50604800D01*
X147867600Y-51604800D01*
X146467600Y-52104800D01*
X146467600Y-52104800D01*
G37*
G36*
X129968000Y-49166400D02*
X129968000Y-48166400D01*
X131368000Y-47666400D01*
X131368000Y-49666400D01*
X129968000Y-49166400D01*
X129968000Y-49166400D01*
G37*
G36*
X131268000Y-49666400D02*
X131268000Y-47666400D01*
X132668000Y-48166400D01*
X132668000Y-49166400D01*
X131268000Y-49666400D01*
X131268000Y-49666400D01*
G37*
G36*
X131390400Y-51757200D02*
X131390400Y-50757200D01*
X132790400Y-50257200D01*
X132790400Y-52257200D01*
X131390400Y-51757200D01*
X131390400Y-51757200D01*
G37*
G36*
X132690400Y-52257200D02*
X132690400Y-50257200D01*
X134090400Y-50757200D01*
X134090400Y-51757200D01*
X132690400Y-52257200D01*
X132690400Y-52257200D01*
G37*
D17*
X138800000Y-109500000D03*
X141340000Y-109500000D03*
X136260000Y-109500000D03*
M02*
