M48
;DRILL file {KiCad 4.0.6} date 05/08/17 21:21:02
;FORMAT={-:-/ absolute / inch / decimal}
FMAT,2
INCH,TZ
T1C0.013
T2C0.039
T3C0.040
T4C0.046
T5C0.197
%
G90
G05
M72
T1
X3.7466Y-2.2504
X3.7746Y-2.2044
X3.9291Y-2.0866
X3.9901Y-2.8585
X4.0374Y-2.414
X4.0826Y-2.3284
X4.0827Y-2.9882
X4.0906Y-3.0512
X4.1063Y-2.2618
X4.2226Y-3.1484
X4.252Y-2.9055
X4.2953Y-2.9331
X4.5315Y-2.6654
X4.5506Y-2.4164
X4.5729Y-2.6046
X4.5866Y-2.3543
X4.6181Y-2.8427
X4.7067Y-2.9705
X4.7362Y-2.9325
X4.7461Y-2.4291
X4.7461Y-2.9724
X4.8546Y-2.6032
X4.9326Y-2.5394
X5.0748Y-2.2362
X5.0846Y-1.9244
X5.1063Y-2.9291
X5.1142Y-2.2283
X5.1378Y-2.8917
X5.1614Y-2.0728
X5.1713Y-2.5335
X5.1732Y-2.1299
X5.189Y-2.626
X5.189Y-2.7441
X5.1909Y-2.5886
X5.2323Y-3.
X5.2343Y-2.561
X5.2706Y-1.9144
X5.3228Y-2.1417
X5.3283Y-2.03
X5.3504Y-2.6476
X5.3524Y-2.4016
X5.3524Y-2.8346
X5.3529Y-2.8003
X5.3543Y-2.6142
X5.3546Y-3.1744
X5.3622Y-3.0787
X5.3661Y-2.685
X5.3858Y-2.6378
X5.3957Y-2.4587
X5.3976Y-3.3071
X5.4016Y-3.7323
X5.4134Y-3.4764
X5.466Y-3.63
X5.466Y-3.73
X5.466Y-4.0615
X5.4688Y-2.3263
X5.4882Y-3.0787
X5.5039Y-3.3071
X5.5127Y-2.837
X5.513Y-2.3263
X5.533Y-3.66
X5.533Y-3.76
X5.533Y-4.06
X5.5591Y-2.7402
X5.5728Y-2.7835
X5.5748Y-2.6142
X5.5827Y-2.2126
X5.594Y-2.0349
X5.622Y-2.5079
X5.6606Y-1.9004
X5.6811Y-2.2087
X5.7126Y-2.5079
X5.7126Y-2.5472
X5.7283Y-2.6378
X5.7559Y-2.8406
X5.7579Y-2.876
X5.8386Y-1.9024
X5.9291Y-2.1102
X5.937Y-2.4488
X5.9386Y-2.0144
X5.9966Y-2.4564
X6.0079Y-2.3583
X6.0354Y-2.4921
X6.0433Y-2.5315
X6.0766Y-2.3804
X6.2402Y-2.5472
X6.3046Y-2.3144
X6.3524Y-3.1575
X6.3701Y-2.6772
X6.374Y-2.3504
X6.4086Y-2.3104
X6.5Y-2.9055
X6.618Y-2.9788
X6.64Y-3.1237
X6.8206Y-2.3284
X6.8898Y-2.4094
X6.9406Y-2.0924
X6.9921Y-2.4173
X7.0028Y-3.032
X7.0039Y-2.937
X7.01Y-2.9856
X7.0354Y-2.3071
X7.1066Y-2.1204
X7.1346Y-2.3544
T2
X5.3646Y-4.311
X5.4138Y-2.063
X5.4646Y-4.311
X5.5138Y-2.063
X5.5646Y-4.311
T3
X4.2099Y-2.4667
X4.2441Y-2.3727
X4.2783Y-2.2787
X4.4016Y-2.4882
X4.4358Y-2.3942
X6.4795Y-2.2769
X6.5218Y-2.3676
X6.564Y-2.4582
X6.6063Y-2.5488
T4
X4.4311Y-3.0394
X4.5787Y-3.0394
X6.3504Y-3.0394
X6.498Y-3.0394
T5
X3.678Y-2.1063
X7.2526Y-2.1063
T0
M30
