G04 #@! TF.FileFunction,Paste,Bot*
%FSLAX46Y46*%
G04 Gerber Fmt 4.6, Leading zero omitted, Abs format (unit mm)*
G04 Created by KiCad (PCBNEW 4.0.6) date 05/08/17 21:21:00*
%MOMM*%
%LPD*%
G01*
G04 APERTURE LIST*
%ADD10C,0.100000*%
G04 APERTURE END LIST*
D10*
G36*
X138485600Y-95370000D02*
X139085600Y-95370000D01*
X139585600Y-96370000D01*
X137985600Y-96370000D01*
X138485600Y-95370000D01*
X138485600Y-95370000D01*
G37*
G36*
X137985600Y-96670000D02*
X139585600Y-96670000D01*
X139085600Y-97670000D01*
X138485600Y-97670000D01*
X137985600Y-96670000D01*
X137985600Y-96670000D01*
G37*
G36*
X138892000Y-86734000D02*
X139492000Y-86734000D01*
X139992000Y-87734000D01*
X138392000Y-87734000D01*
X138892000Y-86734000D01*
X138892000Y-86734000D01*
G37*
G36*
X138392000Y-88034000D02*
X139992000Y-88034000D01*
X139492000Y-89034000D01*
X138892000Y-89034000D01*
X138392000Y-88034000D01*
X138392000Y-88034000D01*
G37*
G36*
X136352000Y-89416000D02*
X136952000Y-89416000D01*
X137452000Y-90416000D01*
X135852000Y-90416000D01*
X136352000Y-89416000D01*
X136352000Y-89416000D01*
G37*
G36*
X135852000Y-90716000D02*
X137452000Y-90716000D01*
X136952000Y-91716000D01*
X136352000Y-91716000D01*
X135852000Y-90716000D01*
X135852000Y-90716000D01*
G37*
G36*
X139146000Y-98418000D02*
X139746000Y-98418000D01*
X140246000Y-99418000D01*
X138646000Y-99418000D01*
X139146000Y-98418000D01*
X139146000Y-98418000D01*
G37*
G36*
X138646000Y-99718000D02*
X140246000Y-99718000D01*
X139746000Y-100718000D01*
X139146000Y-100718000D01*
X138646000Y-99718000D01*
X138646000Y-99718000D01*
G37*
G36*
X123744800Y-63413600D02*
X123744800Y-64013600D01*
X122744800Y-64513600D01*
X122744800Y-62913600D01*
X123744800Y-63413600D01*
X123744800Y-63413600D01*
G37*
G36*
X122444800Y-62913600D02*
X122444800Y-64513600D01*
X121444800Y-64013600D01*
X121444800Y-63413600D01*
X122444800Y-62913600D01*
X122444800Y-62913600D01*
G37*
G36*
X121702400Y-66207600D02*
X121702400Y-66807600D01*
X120702400Y-67307600D01*
X120702400Y-65707600D01*
X121702400Y-66207600D01*
X121702400Y-66207600D01*
G37*
G36*
X120402400Y-65707600D02*
X120402400Y-67307600D01*
X119402400Y-66807600D01*
X119402400Y-66207600D01*
X120402400Y-65707600D01*
X120402400Y-65707600D01*
G37*
G36*
X100210000Y-58577200D02*
X100210000Y-59177200D01*
X99210000Y-59677200D01*
X99210000Y-58077200D01*
X100210000Y-58577200D01*
X100210000Y-58577200D01*
G37*
G36*
X98910000Y-58077200D02*
X98910000Y-59677200D01*
X97910000Y-59177200D01*
X97910000Y-58577200D01*
X98910000Y-58077200D01*
X98910000Y-58077200D01*
G37*
G36*
X101084000Y-55732400D02*
X101084000Y-56332400D01*
X100084000Y-56832400D01*
X100084000Y-55232400D01*
X101084000Y-55732400D01*
X101084000Y-55732400D01*
G37*
G36*
X99784000Y-55232400D02*
X99784000Y-56832400D01*
X98784000Y-56332400D01*
X98784000Y-55732400D01*
X99784000Y-55232400D01*
X99784000Y-55232400D01*
G37*
G36*
X107535600Y-74731600D02*
X107535600Y-75331600D01*
X106535600Y-75831600D01*
X106535600Y-74231600D01*
X107535600Y-74731600D01*
X107535600Y-74731600D01*
G37*
G36*
X106235600Y-74231600D02*
X106235600Y-75831600D01*
X105235600Y-75331600D01*
X105235600Y-74731600D01*
X106235600Y-74231600D01*
X106235600Y-74231600D01*
G37*
G36*
X106306000Y-79202000D02*
X106306000Y-79802000D01*
X105306000Y-80302000D01*
X105306000Y-78702000D01*
X106306000Y-79202000D01*
X106306000Y-79202000D01*
G37*
G36*
X105006000Y-78702000D02*
X105006000Y-80302000D01*
X104006000Y-79802000D01*
X104006000Y-79202000D01*
X105006000Y-78702000D01*
X105006000Y-78702000D01*
G37*
G36*
X174835200Y-76052400D02*
X174835200Y-76652400D01*
X173835200Y-77152400D01*
X173835200Y-75552400D01*
X174835200Y-76052400D01*
X174835200Y-76052400D01*
G37*
G36*
X173535200Y-75552400D02*
X173535200Y-77152400D01*
X172535200Y-76652400D01*
X172535200Y-76052400D01*
X173535200Y-75552400D01*
X173535200Y-75552400D01*
G37*
G36*
X172752400Y-78897200D02*
X172752400Y-79497200D01*
X171752400Y-79997200D01*
X171752400Y-78397200D01*
X172752400Y-78897200D01*
X172752400Y-78897200D01*
G37*
G36*
X171452400Y-78397200D02*
X171452400Y-79997200D01*
X170452400Y-79497200D01*
X170452400Y-78897200D01*
X171452400Y-78397200D01*
X171452400Y-78397200D01*
G37*
G36*
X178224800Y-60853600D02*
X178224800Y-60253600D01*
X179224800Y-59753600D01*
X179224800Y-61353600D01*
X178224800Y-60853600D01*
X178224800Y-60853600D01*
G37*
G36*
X179524800Y-61353600D02*
X179524800Y-59753600D01*
X180524800Y-60253600D01*
X180524800Y-60853600D01*
X179524800Y-61353600D01*
X179524800Y-61353600D01*
G37*
G36*
X177716800Y-53538400D02*
X177716800Y-52938400D01*
X178716800Y-52438400D01*
X178716800Y-54038400D01*
X177716800Y-53538400D01*
X177716800Y-53538400D01*
G37*
G36*
X179016800Y-54038400D02*
X179016800Y-52438400D01*
X180016800Y-52938400D01*
X180016800Y-53538400D01*
X179016800Y-54038400D01*
X179016800Y-54038400D01*
G37*
G36*
X155314000Y-61260000D02*
X155314000Y-60660000D01*
X156314000Y-60160000D01*
X156314000Y-61760000D01*
X155314000Y-61260000D01*
X155314000Y-61260000D01*
G37*
G36*
X156614000Y-61760000D02*
X156614000Y-60160000D01*
X157614000Y-60660000D01*
X157614000Y-61260000D01*
X156614000Y-61760000D01*
X156614000Y-61760000D01*
G37*
G36*
X159327200Y-61514000D02*
X159327200Y-60914000D01*
X160327200Y-60414000D01*
X160327200Y-62014000D01*
X159327200Y-61514000D01*
X159327200Y-61514000D01*
G37*
G36*
X160627200Y-62014000D02*
X160627200Y-60414000D01*
X161627200Y-60914000D01*
X161627200Y-61514000D01*
X160627200Y-62014000D01*
X160627200Y-62014000D01*
G37*
G36*
X144849200Y-48560000D02*
X144849200Y-47960000D01*
X145849200Y-47460000D01*
X145849200Y-49060000D01*
X144849200Y-48560000D01*
X144849200Y-48560000D01*
G37*
G36*
X146149200Y-49060000D02*
X146149200Y-47460000D01*
X147149200Y-47960000D01*
X147149200Y-48560000D01*
X146149200Y-49060000D01*
X146149200Y-49060000D01*
G37*
G36*
X145367600Y-51404800D02*
X145367600Y-50804800D01*
X146367600Y-50304800D01*
X146367600Y-51904800D01*
X145367600Y-51404800D01*
X145367600Y-51404800D01*
G37*
G36*
X146667600Y-51904800D02*
X146667600Y-50304800D01*
X147667600Y-50804800D01*
X147667600Y-51404800D01*
X146667600Y-51904800D01*
X146667600Y-51904800D01*
G37*
G36*
X130168000Y-48966400D02*
X130168000Y-48366400D01*
X131168000Y-47866400D01*
X131168000Y-49466400D01*
X130168000Y-48966400D01*
X130168000Y-48966400D01*
G37*
G36*
X131468000Y-49466400D02*
X131468000Y-47866400D01*
X132468000Y-48366400D01*
X132468000Y-48966400D01*
X131468000Y-49466400D01*
X131468000Y-49466400D01*
G37*
G36*
X131590400Y-51557200D02*
X131590400Y-50957200D01*
X132590400Y-50457200D01*
X132590400Y-52057200D01*
X131590400Y-51557200D01*
X131590400Y-51557200D01*
G37*
G36*
X132890400Y-52057200D02*
X132890400Y-50457200D01*
X133890400Y-50957200D01*
X133890400Y-51557200D01*
X132890400Y-52057200D01*
X132890400Y-52057200D01*
G37*
M02*
