G04 #@! TF.FileFunction,Paste,Top*
%FSLAX46Y46*%
G04 Gerber Fmt 4.6, Leading zero omitted, Abs format (unit mm)*
G04 Created by KiCad (PCBNEW 4.0.6) date 05/08/17 21:21:00*
%MOMM*%
%LPD*%
G01*
G04 APERTURE LIST*
%ADD10C,0.100000*%
%ADD11R,1.600000X2.200000*%
%ADD12R,1.200000X2.200000*%
%ADD13R,2.200000X1.600000*%
%ADD14R,2.200000X1.200000*%
%ADD15R,1.800860X1.597660*%
%ADD16R,0.700000X1.300000*%
%ADD17R,1.250000X1.000000*%
%ADD18R,0.600000X1.200000*%
%ADD19R,1.200000X0.600000*%
%ADD20R,1.000000X1.250000*%
G04 APERTURE END LIST*
D10*
D11*
X140537349Y-97247593D03*
D12*
X138837349Y-97247593D03*
D11*
X137137349Y-97247593D03*
X137137349Y-101247593D03*
D12*
X138837349Y-101247593D03*
D11*
X140537349Y-101247593D03*
X140537349Y-86247593D03*
D12*
X138837349Y-86247593D03*
D11*
X137137349Y-86247593D03*
X137137349Y-90247593D03*
D12*
X138837349Y-90247593D03*
D11*
X140537349Y-90247593D03*
D10*
G36*
X113725722Y-64426698D02*
X114900338Y-64854223D01*
X114558318Y-65793916D01*
X113383702Y-65366391D01*
X113725722Y-64426698D01*
X113725722Y-64426698D01*
G37*
G36*
X113041682Y-66306084D02*
X114216298Y-66733609D01*
X113874278Y-67673302D01*
X112699662Y-67245777D01*
X113041682Y-66306084D01*
X113041682Y-66306084D01*
G37*
G36*
X114810829Y-74688402D02*
X113515776Y-74801704D01*
X113454767Y-74104368D01*
X114749820Y-73991066D01*
X114810829Y-74688402D01*
X114810829Y-74688402D01*
G37*
G36*
X114645233Y-72795632D02*
X113350180Y-72908934D01*
X113289171Y-72211598D01*
X114584224Y-72098296D01*
X114645233Y-72795632D01*
X114645233Y-72795632D01*
G37*
G36*
X107061936Y-78124309D02*
X104870307Y-78316052D01*
X104730858Y-76722141D01*
X106922487Y-76530398D01*
X107061936Y-78124309D01*
X107061936Y-78124309D01*
G37*
G36*
X106896341Y-76231540D02*
X104704712Y-76423282D01*
X104600125Y-75227848D01*
X106791754Y-75036106D01*
X106896341Y-76231540D01*
X106896341Y-76231540D01*
G37*
G36*
X106765607Y-74737247D02*
X104573978Y-74928990D01*
X104434529Y-73335079D01*
X106626158Y-73143336D01*
X106765607Y-74737247D01*
X106765607Y-74737247D01*
G37*
G36*
X102780828Y-75085870D02*
X100589199Y-75277613D01*
X100449750Y-73683702D01*
X102641379Y-73491959D01*
X102780828Y-75085870D01*
X102780828Y-75085870D01*
G37*
G36*
X102911562Y-76580163D02*
X100719933Y-76771905D01*
X100615346Y-75576471D01*
X102806975Y-75384729D01*
X102911562Y-76580163D01*
X102911562Y-76580163D01*
G37*
G36*
X103077158Y-78472932D02*
X100885529Y-78664675D01*
X100746080Y-77070764D01*
X102937709Y-76879021D01*
X103077158Y-78472932D01*
X103077158Y-78472932D01*
G37*
G36*
X101494090Y-60789622D02*
X99500213Y-59859862D01*
X100176402Y-58409770D01*
X102170279Y-59339530D01*
X101494090Y-60789622D01*
X101494090Y-60789622D01*
G37*
G36*
X102297065Y-59067638D02*
X100303187Y-58137878D01*
X100810329Y-57050308D01*
X102804207Y-57980068D01*
X102297065Y-59067638D01*
X102297065Y-59067638D01*
G37*
G36*
X102930992Y-57708175D02*
X100937115Y-56778415D01*
X101613304Y-55328323D01*
X103607181Y-56258083D01*
X102930992Y-57708175D01*
X102930992Y-57708175D01*
G37*
G36*
X99305761Y-56017702D02*
X97311884Y-55087942D01*
X97988073Y-53637850D01*
X99981950Y-54567610D01*
X99305761Y-56017702D01*
X99305761Y-56017702D01*
G37*
G36*
X98671834Y-57377164D02*
X96677956Y-56447404D01*
X97185098Y-55359834D01*
X99178976Y-56289594D01*
X98671834Y-57377164D01*
X98671834Y-57377164D01*
G37*
G36*
X97868859Y-59099149D02*
X95874982Y-58169389D01*
X96551171Y-56719297D01*
X98545048Y-57649057D01*
X97868859Y-59099149D01*
X97868859Y-59099149D01*
G37*
D13*
X129300000Y-50950000D03*
D14*
X129300000Y-52650000D03*
D13*
X129300000Y-54350000D03*
X133300000Y-54350000D03*
D14*
X133300000Y-52650000D03*
D13*
X133300000Y-50950000D03*
D15*
X140400000Y-57639720D03*
X140400000Y-54800000D03*
X137200000Y-54800000D03*
X137200000Y-57639720D03*
D13*
X144300000Y-50950000D03*
D14*
X144300000Y-52650000D03*
D13*
X144300000Y-54350000D03*
X148300000Y-54350000D03*
D14*
X148300000Y-52650000D03*
D13*
X148300000Y-50950000D03*
D10*
G36*
X119303356Y-74639820D02*
X118058112Y-74748765D01*
X117970956Y-73752570D01*
X119216200Y-73643625D01*
X119303356Y-74639820D01*
X119303356Y-74639820D01*
G37*
G36*
X119129044Y-72647430D02*
X117883800Y-72756375D01*
X117796644Y-71760180D01*
X119041888Y-71651235D01*
X119129044Y-72647430D01*
X119129044Y-72647430D01*
G37*
G36*
X117053356Y-74889820D02*
X115808112Y-74998765D01*
X115720956Y-74002570D01*
X116966200Y-73893625D01*
X117053356Y-74889820D01*
X117053356Y-74889820D01*
G37*
G36*
X116879044Y-72897430D02*
X115633800Y-73006375D01*
X115546644Y-72010180D01*
X116791888Y-71901235D01*
X116879044Y-72897430D01*
X116879044Y-72897430D01*
G37*
G36*
X121494090Y-66789622D02*
X119500213Y-65859862D01*
X120176402Y-64409770D01*
X122170279Y-65339530D01*
X121494090Y-66789622D01*
X121494090Y-66789622D01*
G37*
G36*
X122297065Y-65067638D02*
X120303187Y-64137878D01*
X120810329Y-63050308D01*
X122804207Y-63980068D01*
X122297065Y-65067638D01*
X122297065Y-65067638D01*
G37*
G36*
X122930992Y-63708175D02*
X120937115Y-62778415D01*
X121613304Y-61328323D01*
X123607181Y-62258083D01*
X122930992Y-63708175D01*
X122930992Y-63708175D01*
G37*
G36*
X119305761Y-62017702D02*
X117311884Y-61087942D01*
X117988073Y-59637850D01*
X119981950Y-60567610D01*
X119305761Y-62017702D01*
X119305761Y-62017702D01*
G37*
G36*
X118671834Y-63377164D02*
X116677956Y-62447404D01*
X117185098Y-61359834D01*
X119178976Y-62289594D01*
X118671834Y-63377164D01*
X118671834Y-63377164D01*
G37*
G36*
X117868859Y-65099149D02*
X115874982Y-64169389D01*
X116551171Y-62719297D01*
X118545048Y-63649057D01*
X117868859Y-65099149D01*
X117868859Y-65099149D01*
G37*
G36*
X120458286Y-80767795D02*
X120240397Y-78277308D01*
X122730884Y-78059419D01*
X122948773Y-80549906D01*
X120458286Y-80767795D01*
X120458286Y-80767795D01*
G37*
G36*
X123944968Y-80462749D02*
X123727079Y-77972262D01*
X126217566Y-77754373D01*
X126435455Y-80244860D01*
X123944968Y-80462749D01*
X123944968Y-80462749D01*
G37*
G36*
X124766196Y-75491642D02*
X124822847Y-76139169D01*
X123766880Y-76231554D01*
X123710229Y-75584027D01*
X124766196Y-75491642D01*
X124766196Y-75491642D01*
G37*
G36*
X124683398Y-74545257D02*
X124740049Y-75192784D01*
X123684082Y-75285169D01*
X123627431Y-74637642D01*
X124683398Y-74545257D01*
X124683398Y-74545257D01*
G37*
G36*
X124600600Y-73598872D02*
X124657251Y-74246399D01*
X123601284Y-74338784D01*
X123544633Y-73691257D01*
X124600600Y-73598872D01*
X124600600Y-73598872D01*
G37*
G36*
X122408972Y-73790614D02*
X122465623Y-74438141D01*
X121409656Y-74530526D01*
X121353005Y-73882999D01*
X122408972Y-73790614D01*
X122408972Y-73790614D01*
G37*
G36*
X122574568Y-75683384D02*
X122631219Y-76330911D01*
X121575252Y-76423296D01*
X121518601Y-75775769D01*
X122574568Y-75683384D01*
X122574568Y-75683384D01*
G37*
G36*
X122491770Y-74736999D02*
X122548421Y-75384526D01*
X121492454Y-75476911D01*
X121435803Y-74829384D01*
X122491770Y-74736999D01*
X122491770Y-74736999D01*
G37*
D16*
X131350000Y-62950000D03*
X133250000Y-62950000D03*
D17*
X139050000Y-62450000D03*
X139050000Y-60450000D03*
X141050000Y-62450000D03*
X141050000Y-60450000D03*
D18*
X136000000Y-73450000D03*
X136800000Y-73450000D03*
X137600000Y-73450000D03*
X138400000Y-73450000D03*
X139200000Y-73450000D03*
X140000000Y-73450000D03*
X140800000Y-73450000D03*
X141600000Y-73450000D03*
D19*
X143050000Y-72000000D03*
X143050000Y-71200000D03*
X143050000Y-70400000D03*
X143050000Y-69600000D03*
X143050000Y-68800000D03*
X143050000Y-68000000D03*
X143050000Y-67200000D03*
X143050000Y-66400000D03*
D18*
X141600000Y-64950000D03*
X140800000Y-64950000D03*
X140000000Y-64950000D03*
X139200000Y-64950000D03*
X138400000Y-64950000D03*
X137600000Y-64950000D03*
X136800000Y-64950000D03*
X136000000Y-64950000D03*
D19*
X134550000Y-66400000D03*
X134550000Y-67200000D03*
X134550000Y-68000000D03*
X134550000Y-68800000D03*
X134550000Y-69600000D03*
X134550000Y-70400000D03*
X134550000Y-71200000D03*
X134550000Y-72000000D03*
D16*
X159450000Y-81800000D03*
X161350000Y-81800000D03*
D10*
G36*
X160650596Y-73994914D02*
X160755086Y-72800596D01*
X161949404Y-72905086D01*
X161844914Y-74099404D01*
X160650596Y-73994914D01*
X160650596Y-73994914D01*
G37*
G36*
X162740652Y-74177770D02*
X162845142Y-72983452D01*
X164039460Y-73087942D01*
X163934970Y-74282260D01*
X162740652Y-74177770D01*
X162740652Y-74177770D01*
G37*
G36*
X153961250Y-62190384D02*
X155955127Y-61260624D01*
X156631316Y-62710716D01*
X154637439Y-63640476D01*
X153961250Y-62190384D01*
X153961250Y-62190384D01*
G37*
G36*
X154764224Y-63912368D02*
X156758102Y-62982608D01*
X157265244Y-64070178D01*
X155271366Y-64999938D01*
X154764224Y-63912368D01*
X154764224Y-63912368D01*
G37*
G36*
X155398152Y-65271830D02*
X157392029Y-64342070D01*
X158068218Y-65792162D01*
X156074341Y-66721922D01*
X155398152Y-65271830D01*
X155398152Y-65271830D01*
G37*
G36*
X159023383Y-63581357D02*
X161017260Y-62651597D01*
X161693449Y-64101689D01*
X159699572Y-65031449D01*
X159023383Y-63581357D01*
X159023383Y-63581357D01*
G37*
G36*
X158389455Y-62221895D02*
X160383333Y-61292135D01*
X160890475Y-62379705D01*
X158896597Y-63309465D01*
X158389455Y-62221895D01*
X158389455Y-62221895D01*
G37*
G36*
X157586481Y-60499911D02*
X159580358Y-59570151D01*
X160256547Y-61020243D01*
X158262670Y-61950003D01*
X157586481Y-60499911D01*
X157586481Y-60499911D01*
G37*
G36*
X158598089Y-72498574D02*
X158484787Y-73793627D01*
X157787451Y-73732618D01*
X157900753Y-72437565D01*
X158598089Y-72498574D01*
X158598089Y-72498574D01*
G37*
G36*
X156705319Y-72332978D02*
X156592017Y-73628031D01*
X155894681Y-73567022D01*
X156007983Y-72271969D01*
X156705319Y-72332978D01*
X156705319Y-72332978D01*
G37*
G36*
X162199662Y-65104223D02*
X163374278Y-64676698D01*
X163716298Y-65616391D01*
X162541682Y-66043916D01*
X162199662Y-65104223D01*
X162199662Y-65104223D01*
G37*
G36*
X162883702Y-66983609D02*
X164058318Y-66556084D01*
X164400338Y-67495777D01*
X163225722Y-67923302D01*
X162883702Y-66983609D01*
X162883702Y-66983609D01*
G37*
G36*
X171704675Y-63400369D02*
X171176402Y-62267485D01*
X172082709Y-61844867D01*
X172610982Y-62977751D01*
X171704675Y-63400369D01*
X171704675Y-63400369D01*
G37*
G36*
X173517291Y-62555133D02*
X172989018Y-61422249D01*
X173895325Y-60999631D01*
X174423598Y-62132515D01*
X173517291Y-62555133D01*
X173517291Y-62555133D01*
G37*
G36*
X176619648Y-78656379D02*
X174428019Y-78464636D01*
X174567468Y-76870725D01*
X176759097Y-77062468D01*
X176619648Y-78656379D01*
X176619648Y-78656379D01*
G37*
G36*
X176785243Y-76763609D02*
X174593614Y-76571867D01*
X174698201Y-75376433D01*
X176889830Y-75568175D01*
X176785243Y-76763609D01*
X176785243Y-76763609D01*
G37*
G36*
X176915977Y-75269317D02*
X174724348Y-75077574D01*
X174863797Y-73483663D01*
X177055426Y-73675406D01*
X176915977Y-75269317D01*
X176915977Y-75269317D01*
G37*
G36*
X172931198Y-74920694D02*
X170739569Y-74728951D01*
X170879018Y-73135040D01*
X173070647Y-73326783D01*
X172931198Y-74920694D01*
X172931198Y-74920694D01*
G37*
G36*
X172800465Y-76414986D02*
X170608836Y-76223244D01*
X170713423Y-75027810D01*
X172905052Y-75219552D01*
X172800465Y-76414986D01*
X172800465Y-76414986D01*
G37*
G36*
X172634869Y-78307756D02*
X170443240Y-78116013D01*
X170582689Y-76522102D01*
X172774318Y-76713845D01*
X172634869Y-78307756D01*
X172634869Y-78307756D01*
G37*
G36*
X173961250Y-56190384D02*
X175955127Y-55260624D01*
X176631316Y-56710716D01*
X174637439Y-57640476D01*
X173961250Y-56190384D01*
X173961250Y-56190384D01*
G37*
G36*
X174764224Y-57912368D02*
X176758102Y-56982608D01*
X177265244Y-58070178D01*
X175271366Y-58999938D01*
X174764224Y-57912368D01*
X174764224Y-57912368D01*
G37*
G36*
X175398152Y-59271830D02*
X177392029Y-58342070D01*
X178068218Y-59792162D01*
X176074341Y-60721922D01*
X175398152Y-59271830D01*
X175398152Y-59271830D01*
G37*
G36*
X179023383Y-57581357D02*
X181017260Y-56651597D01*
X181693449Y-58101689D01*
X179699572Y-59031449D01*
X179023383Y-57581357D01*
X179023383Y-57581357D01*
G37*
G36*
X178389455Y-56221895D02*
X180383333Y-55292135D01*
X180890475Y-56379705D01*
X178896597Y-57309465D01*
X178389455Y-56221895D01*
X178389455Y-56221895D01*
G37*
G36*
X177586481Y-54499911D02*
X179580358Y-53570151D01*
X180256547Y-55020243D01*
X178262670Y-55950003D01*
X177586481Y-54499911D01*
X177586481Y-54499911D01*
G37*
D20*
X137800000Y-82200000D03*
X139800000Y-82200000D03*
D10*
G36*
X155065281Y-77851252D02*
X155487900Y-76944944D01*
X158388085Y-78297322D01*
X157965466Y-79203630D01*
X155065281Y-77851252D01*
X155065281Y-77851252D01*
G37*
G36*
X148902388Y-74977447D02*
X149325007Y-74071139D01*
X152225192Y-75423517D01*
X151802573Y-76329825D01*
X148902388Y-74977447D01*
X148902388Y-74977447D01*
G37*
G36*
X147211915Y-78602678D02*
X147634534Y-77696370D01*
X150534719Y-79048748D01*
X150112100Y-79955056D01*
X147211915Y-78602678D01*
X147211915Y-78602678D01*
G37*
G36*
X153374808Y-81476483D02*
X153797427Y-80570175D01*
X156697612Y-81922553D01*
X156274993Y-82828861D01*
X153374808Y-81476483D01*
X153374808Y-81476483D01*
G37*
D17*
X134550000Y-76200000D03*
X134550000Y-78200000D03*
X137800000Y-76200000D03*
X137800000Y-78200000D03*
X141050000Y-76200000D03*
X141050000Y-78200000D03*
M02*
