M48
;DRILL file {KiCad 4.0.2-stable} date Thursday, February 23, 2017 'PMt' 11:52:08 PM
;FORMAT={-:-/ absolute / inch / decimal}
FMAT,2
INCH,TZ
T1C0.013
T2C0.039
T3C0.040
T4C0.046
T5C0.945
%
G90
G05
M72
T1
X2.6693Y-5.0315
X2.7323Y-5.0315
X2.874Y-4.5709
X3.0197Y-4.752
X3.1004Y-4.2087
X3.1299Y-3.7874
X3.1654Y-5.4606
X3.189Y-5.0236
X3.1969Y-3.9685
X3.2441Y-3.748
X3.2756Y-4.5039
X3.2953Y-4.6535
X3.315Y-4.5157
X3.3228Y-4.3976
X3.3307Y-4.3425
X3.3583Y-4.6496
X3.3819Y-4.3543
X3.4961Y-4.4961
X3.5079Y-4.3307
X3.5197Y-4.7205
X3.5551Y-4.3858
X3.5827Y-3.622
X3.6535Y-4.7087
X3.685Y-4.5984
X3.6969Y-5.2795
X3.7402Y-4.9606
X3.7559Y-4.1693
X3.8898Y-5.6575
T2
X3.259Y-5.0811
X3.2677Y-4.9815
X3.2764Y-4.8819
T3
X2.811Y-3.5079
X2.9106Y-3.5166
X3.2283Y-5.2047
X3.3283Y-5.2047
X3.3858Y-4.7638
X3.3945Y-4.8634
X3.4033Y-4.963
X3.412Y-5.0626
X3.4283Y-5.2047
X3.8496Y-3.4256
X3.8583Y-3.5252
T4
X2.874Y-5.5438
X3.0329Y-3.7277
X3.6616Y-3.7475
X3.8205Y-5.5636
T5
X3.3465Y-3.1496
T0
M30
