G04 #@! TF.FileFunction,Soldermask,Bot*
%FSLAX46Y46*%
G04 Gerber Fmt 4.6, Leading zero omitted, Abs format (unit mm)*
G04 Created by KiCad (PCBNEW 4.0.2-stable) date Thursday, February 23, 2017 'PMt' 11:52:06 PM*
%MOMM*%
G01*
G04 APERTURE LIST*
%ADD10C,0.100000*%
%ADD11C,1.901140*%
%ADD12C,2.400000*%
%ADD13C,2.432000*%
%ADD14C,2.127200*%
%ADD15R,2.127200X2.432000*%
%ADD16O,2.127200X2.432000*%
%ADD17C,25.400000*%
G04 APERTURE END LIST*
D10*
D11*
X83497211Y-126573835D02*
X82502789Y-126486835D01*
X83275835Y-129104170D02*
X82281413Y-129017170D01*
X83718587Y-124043500D02*
X82724165Y-123956500D01*
D12*
X93004133Y-95187141D03*
X97039880Y-141315937D03*
D10*
G36*
X70082646Y-90205391D02*
X70294609Y-87782646D01*
X72717354Y-87994609D01*
X72505391Y-90417354D01*
X70082646Y-90205391D01*
X70082646Y-90205391D01*
G37*
D13*
X73930335Y-89321376D02*
X73930335Y-89321376D01*
D10*
G36*
X87118674Y-119834466D02*
X87304072Y-121953571D01*
X84881326Y-122165534D01*
X84695928Y-120046429D01*
X87118674Y-119834466D01*
X87118674Y-119834466D01*
G37*
D14*
X86373196Y-123517052D02*
X86069556Y-123543618D01*
X86594571Y-126047386D02*
X86290931Y-126073952D01*
X86815947Y-128577721D02*
X86512307Y-128604287D01*
D10*
G36*
X96894609Y-90857354D02*
X96682646Y-88434609D01*
X99105391Y-88222646D01*
X99317354Y-90645391D01*
X96894609Y-90857354D01*
X96894609Y-90857354D01*
G37*
D13*
X97778624Y-87009665D02*
X97778624Y-87009665D01*
D15*
X87080000Y-132200000D03*
D16*
X84540000Y-132200000D03*
X82000000Y-132200000D03*
D12*
X73000000Y-140812859D03*
X77035747Y-94684063D03*
D17*
X85000000Y-80000000D03*
M02*
