G04 #@! TF.FileFunction,Copper,L2,Bot,Signal*
%FSLAX46Y46*%
G04 Gerber Fmt 4.6, Leading zero omitted, Abs format (unit mm)*
G04 Created by KiCad (PCBNEW 4.0.2-stable) date Thursday, February 23, 2017 'PMt' 11:52:06 PM*
%MOMM*%
G01*
G04 APERTURE LIST*
%ADD10C,0.100000*%
%ADD11C,1.501140*%
%ADD12C,2.000000*%
%ADD13C,2.032000*%
%ADD14C,1.727200*%
%ADD15R,1.727200X2.032000*%
%ADD16O,1.727200X2.032000*%
%ADD17C,25.000000*%
%ADD18C,0.680000*%
%ADD19C,0.304800*%
%ADD20C,1.016000*%
%ADD21C,0.400000*%
%ADD22C,0.152400*%
%ADD23C,0.793750*%
G04 APERTURE END LIST*
D10*
D11*
X83497211Y-126573835D02*
X82502789Y-126486835D01*
X83275835Y-129104170D02*
X82281413Y-129017170D01*
X83718587Y-124043500D02*
X82724165Y-123956500D01*
D12*
X93004133Y-95187141D03*
X97039880Y-141315937D03*
D10*
G36*
X70299316Y-90023584D02*
X70476416Y-87999316D01*
X72500684Y-88176416D01*
X72323584Y-90200684D01*
X70299316Y-90023584D01*
X70299316Y-90023584D01*
G37*
D13*
X73930335Y-89321376D02*
X73930335Y-89321376D01*
D10*
G36*
X86936866Y-120051136D02*
X87087402Y-121771764D01*
X85063134Y-121948864D01*
X84912598Y-120228236D01*
X86936866Y-120051136D01*
X86936866Y-120051136D01*
G37*
D14*
X86373196Y-123517052D02*
X86069556Y-123543618D01*
X86594571Y-126047386D02*
X86290931Y-126073952D01*
X86815947Y-128577721D02*
X86512307Y-128604287D01*
D10*
G36*
X97076416Y-90640684D02*
X96899316Y-88616416D01*
X98923584Y-88439316D01*
X99100684Y-90463584D01*
X97076416Y-90640684D01*
X97076416Y-90640684D01*
G37*
D13*
X97778624Y-87009665D02*
X97778624Y-87009665D01*
D15*
X87080000Y-132200000D03*
D16*
X84540000Y-132200000D03*
X82000000Y-132200000D03*
D12*
X73000000Y-140812859D03*
X77035747Y-94684063D03*
D17*
X85000000Y-80000000D03*
D18*
X98800000Y-143700000D03*
X93900000Y-134100000D03*
X73000000Y-116100000D03*
X85300000Y-118100000D03*
X81200000Y-100800000D03*
X93600000Y-116800000D03*
X92800000Y-119600000D03*
X89400000Y-119900000D03*
X78750000Y-106900000D03*
X79500000Y-96200000D03*
X80400000Y-138700000D03*
X82400000Y-95200000D03*
X91000000Y-92000000D03*
X84200000Y-114700000D03*
X88800000Y-114200000D03*
X90300000Y-111400000D03*
X95400000Y-105900000D03*
X85900000Y-110600000D03*
X83700000Y-118200000D03*
X95000000Y-126000000D03*
X89100000Y-110000000D03*
X83200000Y-114400000D03*
X76700000Y-120700000D03*
X69400000Y-127800000D03*
X84400000Y-111700000D03*
X67800000Y-127800000D03*
X84600000Y-110300000D03*
X81000000Y-127600000D03*
D19*
X82000000Y-132200000D02*
X82000000Y-133520800D01*
X82000000Y-133520800D02*
X82579200Y-134100000D01*
X82579200Y-134100000D02*
X93419168Y-134100000D01*
X93419168Y-134100000D02*
X93900000Y-134100000D01*
D20*
X93900000Y-135400000D02*
X98800000Y-140300000D01*
X98800000Y-140300000D02*
X98800000Y-143700000D01*
X93900000Y-134100000D02*
X93900000Y-135400000D01*
X93600000Y-116800000D02*
X93600000Y-118919406D01*
X93600000Y-118919406D02*
X93900000Y-119219406D01*
X93900000Y-119219406D02*
X93900000Y-134100000D01*
D19*
X85300000Y-118100000D02*
X85760001Y-118100000D01*
D20*
X83400000Y-106600000D02*
X93600000Y-116800000D01*
X81200000Y-104400000D02*
X83400000Y-106600000D01*
X83400000Y-106600000D02*
X82500000Y-106600000D01*
X82500000Y-106600000D02*
X73000000Y-116100000D01*
X81200000Y-100800000D02*
X81200000Y-104400000D01*
D19*
X85760001Y-118100000D02*
X87060001Y-116800000D01*
X87060001Y-116800000D02*
X93600000Y-116800000D01*
D20*
X85812860Y-96187140D02*
X81200000Y-100800000D01*
X93004133Y-95187141D02*
X92004134Y-96187140D01*
X92004134Y-96187140D02*
X85812860Y-96187140D01*
D21*
X86664127Y-128591004D02*
X93600000Y-121655131D01*
X93600000Y-121655131D02*
X93600000Y-116800000D01*
X83000000Y-126530335D02*
X84603458Y-126530335D01*
X84603458Y-126530335D02*
X86664127Y-128591004D01*
D19*
X93004133Y-95187141D02*
X93004133Y-91784156D01*
X93004133Y-91784156D02*
X97778624Y-87009665D01*
D20*
X71400000Y-89100000D02*
X71400000Y-92400000D01*
X71400000Y-92400000D02*
X73684063Y-94684063D01*
X73684063Y-94684063D02*
X77035747Y-94684063D01*
D22*
X86000000Y-121000000D02*
X91400000Y-121000000D01*
X91400000Y-121000000D02*
X92800000Y-119600000D01*
D20*
X83221376Y-120778624D02*
X84609274Y-119390726D01*
X84609274Y-119390726D02*
X88890726Y-119390726D01*
X88890726Y-119390726D02*
X89400000Y-119900000D01*
X83221376Y-124000000D02*
X83221376Y-120778624D01*
D23*
X73100000Y-103500000D02*
X76500000Y-106900000D01*
X76500000Y-106900000D02*
X78750000Y-106900000D01*
D20*
X73100000Y-102600000D02*
X69900000Y-105800000D01*
X79500000Y-96200000D02*
X73100000Y-102600000D01*
D23*
X73100000Y-102600000D02*
X73100000Y-103500000D01*
D20*
X79800000Y-126076451D02*
X79800000Y-130900000D01*
X66799599Y-129899599D02*
X67800000Y-130900000D01*
X79800000Y-130900000D02*
X79800000Y-138100000D01*
X67800000Y-130900000D02*
X79800000Y-130900000D01*
X69900000Y-123400000D02*
X66799599Y-126500401D01*
X66799599Y-126500401D02*
X66799599Y-129899599D01*
X69900000Y-105800000D02*
X69900000Y-123400000D01*
X79800000Y-138100000D02*
X80400000Y-138700000D01*
X83221376Y-124000000D02*
X81876451Y-124000000D01*
X81876451Y-124000000D02*
X79800000Y-126076451D01*
D19*
X83600000Y-94000000D02*
X82400000Y-95200000D01*
X89600000Y-94000000D02*
X83600000Y-94000000D01*
X90660001Y-92939999D02*
X89600000Y-94000000D01*
X91000000Y-92000000D02*
X90660001Y-92339999D01*
X90660001Y-92339999D02*
X90660001Y-92939999D01*
D21*
X88800000Y-114200000D02*
X88300000Y-114700000D01*
X88300000Y-114700000D02*
X84200000Y-114700000D01*
X95400000Y-105900000D02*
X90300000Y-111000000D01*
X90300000Y-111000000D02*
X90300000Y-111400000D01*
D22*
X89400000Y-115100000D02*
X89400000Y-113958470D01*
X89400000Y-113958470D02*
X86041530Y-110600000D01*
X86041530Y-110600000D02*
X85900000Y-110600000D01*
X89100000Y-115400000D02*
X89400000Y-115100000D01*
X86500000Y-115400000D02*
X89100000Y-115400000D01*
X83700000Y-118200000D02*
X86500000Y-115400000D01*
X95000000Y-116941530D02*
X95000000Y-126000000D01*
X89100000Y-110000000D02*
X89100000Y-111041530D01*
X89100000Y-111041530D02*
X95000000Y-116941530D01*
X76700000Y-120700000D02*
X83000000Y-114400000D01*
X83000000Y-114400000D02*
X83200000Y-114400000D01*
D19*
X84400000Y-111700000D02*
X69400000Y-126700000D01*
X69400000Y-126700000D02*
X69400000Y-127800000D01*
X84600000Y-110300000D02*
X67800000Y-127100000D01*
X67800000Y-127100000D02*
X67800000Y-127800000D01*
D22*
X81000000Y-127600000D02*
X81480832Y-127600000D01*
X83948400Y-127700000D02*
X87080000Y-130831600D01*
X81480832Y-127600000D02*
X81580832Y-127700000D01*
X81580832Y-127700000D02*
X83948400Y-127700000D01*
X87080000Y-130831600D02*
X87080000Y-132000000D01*
D20*
X73000000Y-140812859D02*
X96536802Y-140812859D01*
M02*
