G04 #@! TF.FileFunction,Legend,Top*
%FSLAX46Y46*%
G04 Gerber Fmt 4.6, Leading zero omitted, Abs format (unit mm)*
G04 Created by KiCad (PCBNEW 4.0.2-stable) date Thursday, February 16, 2017 'PMt' 10:10:23 PM*
%MOMM*%
G01*
G04 APERTURE LIST*
%ADD10C,0.100000*%
%ADD11C,0.300000*%
%ADD12C,0.150000*%
%ADD13C,0.200000*%
G04 APERTURE END LIST*
D10*
D11*
X181957143Y-65047143D02*
X181957143Y-66113810D01*
X181957143Y-65199524D02*
X182028571Y-65123333D01*
X182171429Y-65047143D01*
X182385714Y-65047143D01*
X182528571Y-65123333D01*
X182600000Y-65275714D01*
X182600000Y-66113810D01*
X184171429Y-66113810D02*
X183671429Y-65351905D01*
X183314286Y-66113810D02*
X183314286Y-64513810D01*
X183885714Y-64513810D01*
X184028572Y-64590000D01*
X184100000Y-64666190D01*
X184171429Y-64818571D01*
X184171429Y-65047143D01*
X184100000Y-65199524D01*
X184028572Y-65275714D01*
X183885714Y-65351905D01*
X183314286Y-65351905D01*
X184742857Y-66037619D02*
X184957143Y-66113810D01*
X185314286Y-66113810D01*
X185457143Y-66037619D01*
X185528572Y-65961429D01*
X185600000Y-65809048D01*
X185600000Y-65656667D01*
X185528572Y-65504286D01*
X185457143Y-65428095D01*
X185314286Y-65351905D01*
X185028572Y-65275714D01*
X184885714Y-65199524D01*
X184814286Y-65123333D01*
X184742857Y-64970952D01*
X184742857Y-64818571D01*
X184814286Y-64666190D01*
X184885714Y-64590000D01*
X185028572Y-64513810D01*
X185385714Y-64513810D01*
X185600000Y-64590000D01*
X186028571Y-64513810D02*
X186885714Y-64513810D01*
X186457143Y-66113810D02*
X186457143Y-64513810D01*
X181885714Y-68577619D02*
X182100000Y-68653810D01*
X182457143Y-68653810D01*
X182600000Y-68577619D01*
X182671429Y-68501429D01*
X182742857Y-68349048D01*
X182742857Y-68196667D01*
X182671429Y-68044286D01*
X182600000Y-67968095D01*
X182457143Y-67891905D01*
X182171429Y-67815714D01*
X182028571Y-67739524D01*
X181957143Y-67663333D01*
X181885714Y-67510952D01*
X181885714Y-67358571D01*
X181957143Y-67206190D01*
X182028571Y-67130000D01*
X182171429Y-67053810D01*
X182528571Y-67053810D01*
X182742857Y-67130000D01*
X183242857Y-67053810D02*
X183600000Y-68653810D01*
X183885714Y-67510952D01*
X184171428Y-68653810D01*
X184528571Y-67053810D01*
X185100000Y-68653810D02*
X185100000Y-67053810D01*
X185457143Y-67053810D01*
X185671428Y-67130000D01*
X185814286Y-67282381D01*
X185885714Y-67434762D01*
X185957143Y-67739524D01*
X185957143Y-67968095D01*
X185885714Y-68272857D01*
X185814286Y-68425238D01*
X185671428Y-68577619D01*
X185457143Y-68653810D01*
X185100000Y-68653810D01*
X187457143Y-68501429D02*
X187385714Y-68577619D01*
X187171428Y-68653810D01*
X187028571Y-68653810D01*
X186814286Y-68577619D01*
X186671428Y-68425238D01*
X186600000Y-68272857D01*
X186528571Y-67968095D01*
X186528571Y-67739524D01*
X186600000Y-67434762D01*
X186671428Y-67282381D01*
X186814286Y-67130000D01*
X187028571Y-67053810D01*
X187171428Y-67053810D01*
X187385714Y-67130000D01*
X187457143Y-67206190D01*
X188814286Y-68653810D02*
X188100000Y-68653810D01*
X188100000Y-67053810D01*
X189314286Y-68653810D02*
X189314286Y-67053810D01*
X190171429Y-68653810D02*
X189528572Y-67739524D01*
X190171429Y-67053810D02*
X189314286Y-67968095D01*
X181885714Y-71117619D02*
X182100000Y-71193810D01*
X182457143Y-71193810D01*
X182600000Y-71117619D01*
X182671429Y-71041429D01*
X182742857Y-70889048D01*
X182742857Y-70736667D01*
X182671429Y-70584286D01*
X182600000Y-70508095D01*
X182457143Y-70431905D01*
X182171429Y-70355714D01*
X182028571Y-70279524D01*
X181957143Y-70203333D01*
X181885714Y-70050952D01*
X181885714Y-69898571D01*
X181957143Y-69746190D01*
X182028571Y-69670000D01*
X182171429Y-69593810D01*
X182528571Y-69593810D01*
X182742857Y-69670000D01*
X183242857Y-69593810D02*
X183600000Y-71193810D01*
X183885714Y-70050952D01*
X184171428Y-71193810D01*
X184528571Y-69593810D01*
X185100000Y-71193810D02*
X185100000Y-69593810D01*
X185457143Y-69593810D01*
X185671428Y-69670000D01*
X185814286Y-69822381D01*
X185885714Y-69974762D01*
X185957143Y-70279524D01*
X185957143Y-70508095D01*
X185885714Y-70812857D01*
X185814286Y-70965238D01*
X185671428Y-71117619D01*
X185457143Y-71193810D01*
X185100000Y-71193810D01*
X186600000Y-71193810D02*
X186600000Y-69593810D01*
X187600000Y-69593810D02*
X187885714Y-69593810D01*
X188028572Y-69670000D01*
X188171429Y-69822381D01*
X188242857Y-70127143D01*
X188242857Y-70660476D01*
X188171429Y-70965238D01*
X188028572Y-71117619D01*
X187885714Y-71193810D01*
X187600000Y-71193810D01*
X187457143Y-71117619D01*
X187314286Y-70965238D01*
X187242857Y-70660476D01*
X187242857Y-70127143D01*
X187314286Y-69822381D01*
X187457143Y-69670000D01*
X187600000Y-69593810D01*
X182742857Y-72210000D02*
X182600000Y-72133810D01*
X182385714Y-72133810D01*
X182171429Y-72210000D01*
X182028571Y-72362381D01*
X181957143Y-72514762D01*
X181885714Y-72819524D01*
X181885714Y-73048095D01*
X181957143Y-73352857D01*
X182028571Y-73505238D01*
X182171429Y-73657619D01*
X182385714Y-73733810D01*
X182528571Y-73733810D01*
X182742857Y-73657619D01*
X182814286Y-73581429D01*
X182814286Y-73048095D01*
X182528571Y-73048095D01*
X183457143Y-73733810D02*
X183457143Y-72133810D01*
X184314286Y-73733810D01*
X184314286Y-72133810D01*
X185028572Y-73733810D02*
X185028572Y-72133810D01*
X185385715Y-72133810D01*
X185600000Y-72210000D01*
X185742858Y-72362381D01*
X185814286Y-72514762D01*
X185885715Y-72819524D01*
X185885715Y-73048095D01*
X185814286Y-73352857D01*
X185742858Y-73505238D01*
X185600000Y-73657619D01*
X185385715Y-73733810D01*
X185028572Y-73733810D01*
D12*
X180399000Y-83910000D02*
X180399000Y-85910000D01*
X178249000Y-85910000D02*
X178249000Y-83910000D01*
X160100000Y-67000000D02*
X161100000Y-67000000D01*
X161100000Y-65300000D02*
X160100000Y-65300000D01*
D13*
X154257000Y-88724000D02*
X154257000Y-80724000D01*
X148257000Y-88724000D02*
X148257000Y-80724000D01*
X148257000Y-88724000D02*
X154257000Y-88724000D01*
D12*
X152781000Y-80772000D02*
X152781000Y-79629000D01*
X149733000Y-80772000D02*
X149733000Y-79629000D01*
X145923000Y-79629000D02*
X145923000Y-75946000D01*
X145923000Y-75946000D02*
X156591000Y-75946000D01*
X156591000Y-75946000D02*
X156591000Y-79629000D01*
X145923000Y-80772000D02*
X145923000Y-79629000D01*
X145923000Y-79629000D02*
X156591000Y-79629000D01*
X156591000Y-79629000D02*
X156591000Y-80772000D01*
X151257000Y-80772000D02*
X156591000Y-80772000D01*
X151257000Y-80772000D02*
X145923000Y-80772000D01*
X154275000Y-63050000D02*
X154275000Y-65050000D01*
X152125000Y-65050000D02*
X152125000Y-63050000D01*
X183500000Y-75850000D02*
X184500000Y-75850000D01*
X184500000Y-74150000D02*
X183500000Y-74150000D01*
X148800000Y-101250000D02*
X149800000Y-101250000D01*
X149800000Y-99550000D02*
X148800000Y-99550000D01*
X158750000Y-74850000D02*
X159750000Y-74850000D01*
X159750000Y-73150000D02*
X158750000Y-73150000D01*
X160100000Y-69100000D02*
X161100000Y-69100000D01*
X161100000Y-67400000D02*
X160100000Y-67400000D01*
X158750000Y-72750000D02*
X159750000Y-72750000D01*
X159750000Y-71050000D02*
X158750000Y-71050000D01*
X183450000Y-99200000D02*
X183450000Y-98200000D01*
X181750000Y-98200000D02*
X181750000Y-99200000D01*
X178750000Y-103150000D02*
X178750000Y-104150000D01*
X180450000Y-104150000D02*
X180450000Y-103150000D01*
X161366000Y-85864000D02*
X158666000Y-85864000D01*
X161366000Y-87364000D02*
X158666000Y-87364000D01*
X159866000Y-86464000D02*
X159866000Y-86714000D01*
X159866000Y-86714000D02*
X160016000Y-86564000D01*
X160116000Y-86964000D02*
X160116000Y-86264000D01*
X159766000Y-86614000D02*
X159416000Y-86614000D01*
X160116000Y-86614000D02*
X159766000Y-86964000D01*
X159766000Y-86964000D02*
X159766000Y-86264000D01*
X159766000Y-86264000D02*
X160116000Y-86614000D01*
X184000000Y-95200000D02*
X184650000Y-95200000D01*
X184000000Y-95950000D02*
X184000000Y-95200000D01*
X184000000Y-100050000D02*
X184000000Y-97050000D01*
X187200000Y-97050000D02*
X187200000Y-100050000D01*
X153925000Y-85150000D02*
X153925000Y-86350000D01*
X152175000Y-86350000D02*
X152175000Y-85150000D01*
X159850000Y-77075000D02*
X158650000Y-77075000D01*
X158650000Y-75325000D02*
X159850000Y-75325000D01*
X160366000Y-84314000D02*
X159166000Y-84314000D01*
X159166000Y-82564000D02*
X160366000Y-82564000D01*
X147750000Y-67475000D02*
X146550000Y-67475000D01*
X146550000Y-65725000D02*
X147750000Y-65725000D01*
X147750000Y-65475000D02*
X146550000Y-65475000D01*
X146550000Y-63725000D02*
X147750000Y-63725000D01*
X167675000Y-83200000D02*
X167675000Y-84400000D01*
X165925000Y-84400000D02*
X165925000Y-83200000D01*
X180800000Y-93525000D02*
X182000000Y-93525000D01*
X182000000Y-95275000D02*
X180800000Y-95275000D01*
X164375000Y-68975000D02*
X164375000Y-69275000D01*
X171625000Y-68975000D02*
X171625000Y-69275000D01*
X171625000Y-76225000D02*
X171625000Y-75925000D01*
X164375000Y-76225000D02*
X164375000Y-75925000D01*
X164375000Y-68975000D02*
X164675000Y-68975000D01*
X164375000Y-76225000D02*
X164675000Y-76225000D01*
X171625000Y-76225000D02*
X171325000Y-76225000D01*
X171625000Y-68975000D02*
X171325000Y-68975000D01*
X164375000Y-69275000D02*
X163150000Y-69275000D01*
X184400000Y-103300000D02*
G75*
G03X184400000Y-103300000I-100000J0D01*
G01*
X184050000Y-103950000D02*
X184050000Y-103450000D01*
X181150000Y-103950000D02*
X184050000Y-103950000D01*
X181150000Y-103450000D02*
X181150000Y-103950000D01*
X184050000Y-103450000D02*
X181150000Y-103450000D01*
X162230000Y-91730000D02*
X157150000Y-91730000D01*
X157150000Y-91730000D02*
X157150000Y-94270000D01*
X157150000Y-94270000D02*
X162230000Y-94270000D01*
X165050000Y-94550000D02*
X163500000Y-94550000D01*
X162230000Y-94270000D02*
X162230000Y-91730000D01*
X163500000Y-91450000D02*
X165050000Y-91450000D01*
X165050000Y-91450000D02*
X165050000Y-94550000D01*
X176500000Y-73750000D02*
X175500000Y-73750000D01*
X175500000Y-75450000D02*
X176500000Y-75450000D01*
X176500000Y-75950000D02*
X175500000Y-75950000D01*
X175500000Y-77650000D02*
X176500000Y-77650000D01*
X180750000Y-82200000D02*
X180750000Y-82000000D01*
X180750000Y-76200000D02*
X180750000Y-76400000D01*
X187250000Y-76200000D02*
X187250000Y-76400000D01*
X187250000Y-82200000D02*
X187250000Y-82000000D01*
X187250000Y-80400000D02*
X187250000Y-78000000D01*
X180750000Y-80400000D02*
X180750000Y-78000000D01*
X180750000Y-82200000D02*
X187250000Y-82200000D01*
X187250000Y-76200000D02*
X180750000Y-76200000D01*
X185000000Y-79200000D02*
G75*
G03X185000000Y-79200000I-1000000J0D01*
G01*
X185500000Y-79200000D02*
G75*
G03X185500000Y-79200000I-1500000J0D01*
G01*
X168400000Y-103850000D02*
X168200000Y-103850000D01*
X162400000Y-103850000D02*
X162600000Y-103850000D01*
X162400000Y-97350000D02*
X162600000Y-97350000D01*
X168400000Y-97350000D02*
X168200000Y-97350000D01*
X166600000Y-97350000D02*
X164200000Y-97350000D01*
X166600000Y-103850000D02*
X164200000Y-103850000D01*
X168400000Y-103850000D02*
X168400000Y-97350000D01*
X162400000Y-97350000D02*
X162400000Y-103850000D01*
X166400000Y-100600000D02*
G75*
G03X166400000Y-100600000I-1000000J0D01*
G01*
X166900000Y-100600000D02*
G75*
G03X166900000Y-100600000I-1500000J0D01*
G01*
X151000000Y-96650000D02*
X150800000Y-96650000D01*
X145000000Y-96650000D02*
X145200000Y-96650000D01*
X145000000Y-90150000D02*
X145200000Y-90150000D01*
X151000000Y-90150000D02*
X150800000Y-90150000D01*
X149200000Y-90150000D02*
X146800000Y-90150000D01*
X149200000Y-96650000D02*
X146800000Y-96650000D01*
X151000000Y-96650000D02*
X151000000Y-90150000D01*
X145000000Y-90150000D02*
X145000000Y-96650000D01*
X149000000Y-93400000D02*
G75*
G03X149000000Y-93400000I-1000000J0D01*
G01*
X149500000Y-93400000D02*
G75*
G03X149500000Y-93400000I-1500000J0D01*
G01*
X148540000Y-58530000D02*
X148540000Y-61930000D01*
X145340000Y-58530000D02*
X148540000Y-58530000D01*
X145340000Y-61930000D02*
X145340000Y-58530000D01*
X148540000Y-61930000D02*
X145340000Y-61930000D01*
D13*
X148840000Y-62030000D02*
G75*
G03X148840000Y-62030000I-100000J0D01*
G01*
D12*
X173067775Y-58530000D02*
X173067775Y-61930000D01*
X169867775Y-58530000D02*
X173067775Y-58530000D01*
X169867775Y-61930000D02*
X169867775Y-58530000D01*
X173067775Y-61930000D02*
X169867775Y-61930000D01*
D13*
X173367775Y-62030000D02*
G75*
G03X173367775Y-62030000I-100000J0D01*
G01*
D12*
X153445555Y-58530000D02*
X153445555Y-61930000D01*
X150245555Y-58530000D02*
X153445555Y-58530000D01*
X150245555Y-61930000D02*
X150245555Y-58530000D01*
X153445555Y-61930000D02*
X150245555Y-61930000D01*
D13*
X153745555Y-62030000D02*
G75*
G03X153745555Y-62030000I-100000J0D01*
G01*
D12*
X177973330Y-58530000D02*
X177973330Y-61930000D01*
X174773330Y-58530000D02*
X177973330Y-58530000D01*
X174773330Y-61930000D02*
X174773330Y-58530000D01*
X177973330Y-61930000D02*
X174773330Y-61930000D01*
D13*
X178273330Y-62030000D02*
G75*
G03X178273330Y-62030000I-100000J0D01*
G01*
D12*
X158351110Y-58530000D02*
X158351110Y-61930000D01*
X155151110Y-58530000D02*
X158351110Y-58530000D01*
X155151110Y-61930000D02*
X155151110Y-58530000D01*
X158351110Y-61930000D02*
X155151110Y-61930000D01*
D13*
X158651110Y-62030000D02*
G75*
G03X158651110Y-62030000I-100000J0D01*
G01*
D12*
X182878885Y-58530000D02*
X182878885Y-61930000D01*
X179678885Y-58530000D02*
X182878885Y-58530000D01*
X179678885Y-61930000D02*
X179678885Y-58530000D01*
X182878885Y-61930000D02*
X179678885Y-61930000D01*
D13*
X183178885Y-62030000D02*
G75*
G03X183178885Y-62030000I-100000J0D01*
G01*
D12*
X163256665Y-58530000D02*
X163256665Y-61930000D01*
X160056665Y-58530000D02*
X163256665Y-58530000D01*
X160056665Y-61930000D02*
X160056665Y-58530000D01*
X163256665Y-61930000D02*
X160056665Y-61930000D01*
D13*
X163556665Y-62030000D02*
G75*
G03X163556665Y-62030000I-100000J0D01*
G01*
D12*
X187784440Y-58530000D02*
X187784440Y-61930000D01*
X184584440Y-58530000D02*
X187784440Y-58530000D01*
X184584440Y-61930000D02*
X184584440Y-58530000D01*
X187784440Y-61930000D02*
X184584440Y-61930000D01*
D13*
X188084440Y-62030000D02*
G75*
G03X188084440Y-62030000I-100000J0D01*
G01*
D12*
X168162220Y-58530000D02*
X168162220Y-61930000D01*
X164962220Y-58530000D02*
X168162220Y-58530000D01*
X164962220Y-61930000D02*
X164962220Y-58530000D01*
X168162220Y-61930000D02*
X164962220Y-61930000D01*
D13*
X168462220Y-62030000D02*
G75*
G03X168462220Y-62030000I-100000J0D01*
G01*
D12*
X192689995Y-58530000D02*
X192689995Y-61930000D01*
X189489995Y-58530000D02*
X192689995Y-58530000D01*
X189489995Y-61930000D02*
X189489995Y-58530000D01*
X192689995Y-61930000D02*
X189489995Y-61930000D01*
D13*
X192989995Y-62030000D02*
G75*
G03X192989995Y-62030000I-100000J0D01*
G01*
D12*
X190222000Y-65698000D02*
X189222000Y-65698000D01*
X189222000Y-67398000D02*
X190222000Y-67398000D01*
X152107000Y-70731000D02*
X152107000Y-69731000D01*
X150407000Y-69731000D02*
X150407000Y-70731000D01*
X172300000Y-64524000D02*
X172300000Y-63524000D01*
X170600000Y-63524000D02*
X170600000Y-64524000D01*
X159957143Y-70269047D02*
X160004762Y-70316666D01*
X160052381Y-70459523D01*
X160052381Y-70554761D01*
X160004762Y-70697619D01*
X159909524Y-70792857D01*
X159814286Y-70840476D01*
X159623810Y-70888095D01*
X159480952Y-70888095D01*
X159290476Y-70840476D01*
X159195238Y-70792857D01*
X159100000Y-70697619D01*
X159052381Y-70554761D01*
X159052381Y-70459523D01*
X159100000Y-70316666D01*
X159147619Y-70269047D01*
X160052381Y-69316666D02*
X160052381Y-69888095D01*
X160052381Y-69602381D02*
X159052381Y-69602381D01*
X159195238Y-69697619D01*
X159290476Y-69792857D01*
X159338095Y-69888095D01*
X159052381Y-68697619D02*
X159052381Y-68602380D01*
X159100000Y-68507142D01*
X159147619Y-68459523D01*
X159242857Y-68411904D01*
X159433333Y-68364285D01*
X159671429Y-68364285D01*
X159861905Y-68411904D01*
X159957143Y-68459523D01*
X160004762Y-68507142D01*
X160052381Y-68602380D01*
X160052381Y-68697619D01*
X160004762Y-68792857D01*
X159957143Y-68840476D01*
X159861905Y-68888095D01*
X159671429Y-68935714D01*
X159433333Y-68935714D01*
X159242857Y-68888095D01*
X159147619Y-68840476D01*
X159100000Y-68792857D01*
X159052381Y-68697619D01*
X159480952Y-67792857D02*
X159433333Y-67888095D01*
X159385714Y-67935714D01*
X159290476Y-67983333D01*
X159242857Y-67983333D01*
X159147619Y-67935714D01*
X159100000Y-67888095D01*
X159052381Y-67792857D01*
X159052381Y-67602380D01*
X159100000Y-67507142D01*
X159147619Y-67459523D01*
X159242857Y-67411904D01*
X159290476Y-67411904D01*
X159385714Y-67459523D01*
X159433333Y-67507142D01*
X159480952Y-67602380D01*
X159480952Y-67792857D01*
X159528571Y-67888095D01*
X159576190Y-67935714D01*
X159671429Y-67983333D01*
X159861905Y-67983333D01*
X159957143Y-67935714D01*
X160004762Y-67888095D01*
X160052381Y-67792857D01*
X160052381Y-67602380D01*
X160004762Y-67507142D01*
X159957143Y-67459523D01*
X159861905Y-67411904D01*
X159671429Y-67411904D01*
X159576190Y-67459523D01*
X159528571Y-67507142D01*
X159480952Y-67602380D01*
X149542714Y-82256381D02*
X149542714Y-83065905D01*
X149590333Y-83161143D01*
X149637952Y-83208762D01*
X149733190Y-83256381D01*
X149923667Y-83256381D01*
X150018905Y-83208762D01*
X150066524Y-83161143D01*
X150114143Y-83065905D01*
X150114143Y-82256381D01*
X151114143Y-83256381D02*
X150542714Y-83256381D01*
X150828428Y-83256381D02*
X150828428Y-82256381D01*
X150733190Y-82399238D01*
X150637952Y-82494476D01*
X150542714Y-82542095D01*
X151733190Y-82256381D02*
X151828429Y-82256381D01*
X151923667Y-82304000D01*
X151971286Y-82351619D01*
X152018905Y-82446857D01*
X152066524Y-82637333D01*
X152066524Y-82875429D01*
X152018905Y-83065905D01*
X151971286Y-83161143D01*
X151923667Y-83208762D01*
X151828429Y-83256381D01*
X151733190Y-83256381D01*
X151637952Y-83208762D01*
X151590333Y-83161143D01*
X151542714Y-83065905D01*
X151495095Y-82875429D01*
X151495095Y-82637333D01*
X151542714Y-82446857D01*
X151590333Y-82351619D01*
X151637952Y-82304000D01*
X151733190Y-82256381D01*
X152447476Y-82351619D02*
X152495095Y-82304000D01*
X152590333Y-82256381D01*
X152828429Y-82256381D01*
X152923667Y-82304000D01*
X152971286Y-82351619D01*
X153018905Y-82446857D01*
X153018905Y-82542095D01*
X152971286Y-82684952D01*
X152399857Y-83256381D01*
X153018905Y-83256381D01*
X186680953Y-75357143D02*
X186633334Y-75404762D01*
X186490477Y-75452381D01*
X186395239Y-75452381D01*
X186252381Y-75404762D01*
X186157143Y-75309524D01*
X186109524Y-75214286D01*
X186061905Y-75023810D01*
X186061905Y-74880952D01*
X186109524Y-74690476D01*
X186157143Y-74595238D01*
X186252381Y-74500000D01*
X186395239Y-74452381D01*
X186490477Y-74452381D01*
X186633334Y-74500000D01*
X186680953Y-74547619D01*
X187633334Y-75452381D02*
X187061905Y-75452381D01*
X187347619Y-75452381D02*
X187347619Y-74452381D01*
X187252381Y-74595238D01*
X187157143Y-74690476D01*
X187061905Y-74738095D01*
X188252381Y-74452381D02*
X188347620Y-74452381D01*
X188442858Y-74500000D01*
X188490477Y-74547619D01*
X188538096Y-74642857D01*
X188585715Y-74833333D01*
X188585715Y-75071429D01*
X188538096Y-75261905D01*
X188490477Y-75357143D01*
X188442858Y-75404762D01*
X188347620Y-75452381D01*
X188252381Y-75452381D01*
X188157143Y-75404762D01*
X188109524Y-75357143D01*
X188061905Y-75261905D01*
X188014286Y-75071429D01*
X188014286Y-74833333D01*
X188061905Y-74642857D01*
X188109524Y-74547619D01*
X188157143Y-74500000D01*
X188252381Y-74452381D01*
X189538096Y-75452381D02*
X188966667Y-75452381D01*
X189252381Y-75452381D02*
X189252381Y-74452381D01*
X189157143Y-74595238D01*
X189061905Y-74690476D01*
X188966667Y-74738095D01*
X148180953Y-102857143D02*
X148133334Y-102904762D01*
X147990477Y-102952381D01*
X147895239Y-102952381D01*
X147752381Y-102904762D01*
X147657143Y-102809524D01*
X147609524Y-102714286D01*
X147561905Y-102523810D01*
X147561905Y-102380952D01*
X147609524Y-102190476D01*
X147657143Y-102095238D01*
X147752381Y-102000000D01*
X147895239Y-101952381D01*
X147990477Y-101952381D01*
X148133334Y-102000000D01*
X148180953Y-102047619D01*
X149133334Y-102952381D02*
X148561905Y-102952381D01*
X148847619Y-102952381D02*
X148847619Y-101952381D01*
X148752381Y-102095238D01*
X148657143Y-102190476D01*
X148561905Y-102238095D01*
X149752381Y-101952381D02*
X149847620Y-101952381D01*
X149942858Y-102000000D01*
X149990477Y-102047619D01*
X150038096Y-102142857D01*
X150085715Y-102333333D01*
X150085715Y-102571429D01*
X150038096Y-102761905D01*
X149990477Y-102857143D01*
X149942858Y-102904762D01*
X149847620Y-102952381D01*
X149752381Y-102952381D01*
X149657143Y-102904762D01*
X149609524Y-102857143D01*
X149561905Y-102761905D01*
X149514286Y-102571429D01*
X149514286Y-102333333D01*
X149561905Y-102142857D01*
X149609524Y-102047619D01*
X149657143Y-102000000D01*
X149752381Y-101952381D01*
X150466667Y-102047619D02*
X150514286Y-102000000D01*
X150609524Y-101952381D01*
X150847620Y-101952381D01*
X150942858Y-102000000D01*
X150990477Y-102047619D01*
X151038096Y-102142857D01*
X151038096Y-102238095D01*
X150990477Y-102380952D01*
X150419048Y-102952381D01*
X151038096Y-102952381D01*
X154630953Y-74457143D02*
X154583334Y-74504762D01*
X154440477Y-74552381D01*
X154345239Y-74552381D01*
X154202381Y-74504762D01*
X154107143Y-74409524D01*
X154059524Y-74314286D01*
X154011905Y-74123810D01*
X154011905Y-73980952D01*
X154059524Y-73790476D01*
X154107143Y-73695238D01*
X154202381Y-73600000D01*
X154345239Y-73552381D01*
X154440477Y-73552381D01*
X154583334Y-73600000D01*
X154630953Y-73647619D01*
X155583334Y-74552381D02*
X155011905Y-74552381D01*
X155297619Y-74552381D02*
X155297619Y-73552381D01*
X155202381Y-73695238D01*
X155107143Y-73790476D01*
X155011905Y-73838095D01*
X156202381Y-73552381D02*
X156297620Y-73552381D01*
X156392858Y-73600000D01*
X156440477Y-73647619D01*
X156488096Y-73742857D01*
X156535715Y-73933333D01*
X156535715Y-74171429D01*
X156488096Y-74361905D01*
X156440477Y-74457143D01*
X156392858Y-74504762D01*
X156297620Y-74552381D01*
X156202381Y-74552381D01*
X156107143Y-74504762D01*
X156059524Y-74457143D01*
X156011905Y-74361905D01*
X155964286Y-74171429D01*
X155964286Y-73933333D01*
X156011905Y-73742857D01*
X156059524Y-73647619D01*
X156107143Y-73600000D01*
X156202381Y-73552381D01*
X156869048Y-73552381D02*
X157488096Y-73552381D01*
X157154762Y-73933333D01*
X157297620Y-73933333D01*
X157392858Y-73980952D01*
X157440477Y-74028571D01*
X157488096Y-74123810D01*
X157488096Y-74361905D01*
X157440477Y-74457143D01*
X157392858Y-74504762D01*
X157297620Y-74552381D01*
X157011905Y-74552381D01*
X156916667Y-74504762D01*
X156869048Y-74457143D01*
X158880953Y-66907143D02*
X158833334Y-66954762D01*
X158690477Y-67002381D01*
X158595239Y-67002381D01*
X158452381Y-66954762D01*
X158357143Y-66859524D01*
X158309524Y-66764286D01*
X158261905Y-66573810D01*
X158261905Y-66430952D01*
X158309524Y-66240476D01*
X158357143Y-66145238D01*
X158452381Y-66050000D01*
X158595239Y-66002381D01*
X158690477Y-66002381D01*
X158833334Y-66050000D01*
X158880953Y-66097619D01*
X159833334Y-67002381D02*
X159261905Y-67002381D01*
X159547619Y-67002381D02*
X159547619Y-66002381D01*
X159452381Y-66145238D01*
X159357143Y-66240476D01*
X159261905Y-66288095D01*
X160452381Y-66002381D02*
X160547620Y-66002381D01*
X160642858Y-66050000D01*
X160690477Y-66097619D01*
X160738096Y-66192857D01*
X160785715Y-66383333D01*
X160785715Y-66621429D01*
X160738096Y-66811905D01*
X160690477Y-66907143D01*
X160642858Y-66954762D01*
X160547620Y-67002381D01*
X160452381Y-67002381D01*
X160357143Y-66954762D01*
X160309524Y-66907143D01*
X160261905Y-66811905D01*
X160214286Y-66621429D01*
X160214286Y-66383333D01*
X160261905Y-66192857D01*
X160309524Y-66097619D01*
X160357143Y-66050000D01*
X160452381Y-66002381D01*
X161642858Y-66335714D02*
X161642858Y-67002381D01*
X161404762Y-65954762D02*
X161166667Y-66669048D01*
X161785715Y-66669048D01*
X157930953Y-70657143D02*
X157883334Y-70704762D01*
X157740477Y-70752381D01*
X157645239Y-70752381D01*
X157502381Y-70704762D01*
X157407143Y-70609524D01*
X157359524Y-70514286D01*
X157311905Y-70323810D01*
X157311905Y-70180952D01*
X157359524Y-69990476D01*
X157407143Y-69895238D01*
X157502381Y-69800000D01*
X157645239Y-69752381D01*
X157740477Y-69752381D01*
X157883334Y-69800000D01*
X157930953Y-69847619D01*
X158883334Y-70752381D02*
X158311905Y-70752381D01*
X158597619Y-70752381D02*
X158597619Y-69752381D01*
X158502381Y-69895238D01*
X158407143Y-69990476D01*
X158311905Y-70038095D01*
X159502381Y-69752381D02*
X159597620Y-69752381D01*
X159692858Y-69800000D01*
X159740477Y-69847619D01*
X159788096Y-69942857D01*
X159835715Y-70133333D01*
X159835715Y-70371429D01*
X159788096Y-70561905D01*
X159740477Y-70657143D01*
X159692858Y-70704762D01*
X159597620Y-70752381D01*
X159502381Y-70752381D01*
X159407143Y-70704762D01*
X159359524Y-70657143D01*
X159311905Y-70561905D01*
X159264286Y-70371429D01*
X159264286Y-70133333D01*
X159311905Y-69942857D01*
X159359524Y-69847619D01*
X159407143Y-69800000D01*
X159502381Y-69752381D01*
X160740477Y-69752381D02*
X160264286Y-69752381D01*
X160216667Y-70228571D01*
X160264286Y-70180952D01*
X160359524Y-70133333D01*
X160597620Y-70133333D01*
X160692858Y-70180952D01*
X160740477Y-70228571D01*
X160788096Y-70323810D01*
X160788096Y-70561905D01*
X160740477Y-70657143D01*
X160692858Y-70704762D01*
X160597620Y-70752381D01*
X160359524Y-70752381D01*
X160264286Y-70704762D01*
X160216667Y-70657143D01*
X181157143Y-98119047D02*
X181204762Y-98166666D01*
X181252381Y-98309523D01*
X181252381Y-98404761D01*
X181204762Y-98547619D01*
X181109524Y-98642857D01*
X181014286Y-98690476D01*
X180823810Y-98738095D01*
X180680952Y-98738095D01*
X180490476Y-98690476D01*
X180395238Y-98642857D01*
X180300000Y-98547619D01*
X180252381Y-98404761D01*
X180252381Y-98309523D01*
X180300000Y-98166666D01*
X180347619Y-98119047D01*
X180252381Y-97785714D02*
X180252381Y-97166666D01*
X180633333Y-97500000D01*
X180633333Y-97357142D01*
X180680952Y-97261904D01*
X180728571Y-97214285D01*
X180823810Y-97166666D01*
X181061905Y-97166666D01*
X181157143Y-97214285D01*
X181204762Y-97261904D01*
X181252381Y-97357142D01*
X181252381Y-97642857D01*
X181204762Y-97738095D01*
X181157143Y-97785714D01*
X180252381Y-96547619D02*
X180252381Y-96452380D01*
X180300000Y-96357142D01*
X180347619Y-96309523D01*
X180442857Y-96261904D01*
X180633333Y-96214285D01*
X180871429Y-96214285D01*
X181061905Y-96261904D01*
X181157143Y-96309523D01*
X181204762Y-96357142D01*
X181252381Y-96452380D01*
X181252381Y-96547619D01*
X181204762Y-96642857D01*
X181157143Y-96690476D01*
X181061905Y-96738095D01*
X180871429Y-96785714D01*
X180633333Y-96785714D01*
X180442857Y-96738095D01*
X180347619Y-96690476D01*
X180300000Y-96642857D01*
X180252381Y-96547619D01*
X181252381Y-95261904D02*
X181252381Y-95833333D01*
X181252381Y-95547619D02*
X180252381Y-95547619D01*
X180395238Y-95642857D01*
X180490476Y-95738095D01*
X180538095Y-95833333D01*
X177857143Y-104919047D02*
X177904762Y-104966666D01*
X177952381Y-105109523D01*
X177952381Y-105204761D01*
X177904762Y-105347619D01*
X177809524Y-105442857D01*
X177714286Y-105490476D01*
X177523810Y-105538095D01*
X177380952Y-105538095D01*
X177190476Y-105490476D01*
X177095238Y-105442857D01*
X177000000Y-105347619D01*
X176952381Y-105204761D01*
X176952381Y-105109523D01*
X177000000Y-104966666D01*
X177047619Y-104919047D01*
X176952381Y-104585714D02*
X176952381Y-103966666D01*
X177333333Y-104300000D01*
X177333333Y-104157142D01*
X177380952Y-104061904D01*
X177428571Y-104014285D01*
X177523810Y-103966666D01*
X177761905Y-103966666D01*
X177857143Y-104014285D01*
X177904762Y-104061904D01*
X177952381Y-104157142D01*
X177952381Y-104442857D01*
X177904762Y-104538095D01*
X177857143Y-104585714D01*
X176952381Y-103347619D02*
X176952381Y-103252380D01*
X177000000Y-103157142D01*
X177047619Y-103109523D01*
X177142857Y-103061904D01*
X177333333Y-103014285D01*
X177571429Y-103014285D01*
X177761905Y-103061904D01*
X177857143Y-103109523D01*
X177904762Y-103157142D01*
X177952381Y-103252380D01*
X177952381Y-103347619D01*
X177904762Y-103442857D01*
X177857143Y-103490476D01*
X177761905Y-103538095D01*
X177571429Y-103585714D01*
X177333333Y-103585714D01*
X177142857Y-103538095D01*
X177047619Y-103490476D01*
X177000000Y-103442857D01*
X176952381Y-103347619D01*
X177047619Y-102633333D02*
X177000000Y-102585714D01*
X176952381Y-102490476D01*
X176952381Y-102252380D01*
X177000000Y-102157142D01*
X177047619Y-102109523D01*
X177142857Y-102061904D01*
X177238095Y-102061904D01*
X177380952Y-102109523D01*
X177952381Y-102680952D01*
X177952381Y-102061904D01*
X154392524Y-87066381D02*
X154392524Y-86066381D01*
X154630619Y-86066381D01*
X154773477Y-86114000D01*
X154868715Y-86209238D01*
X154916334Y-86304476D01*
X154963953Y-86494952D01*
X154963953Y-86637810D01*
X154916334Y-86828286D01*
X154868715Y-86923524D01*
X154773477Y-87018762D01*
X154630619Y-87066381D01*
X154392524Y-87066381D01*
X155916334Y-87066381D02*
X155344905Y-87066381D01*
X155630619Y-87066381D02*
X155630619Y-86066381D01*
X155535381Y-86209238D01*
X155440143Y-86304476D01*
X155344905Y-86352095D01*
X156535381Y-86066381D02*
X156630620Y-86066381D01*
X156725858Y-86114000D01*
X156773477Y-86161619D01*
X156821096Y-86256857D01*
X156868715Y-86447333D01*
X156868715Y-86685429D01*
X156821096Y-86875905D01*
X156773477Y-86971143D01*
X156725858Y-87018762D01*
X156630620Y-87066381D01*
X156535381Y-87066381D01*
X156440143Y-87018762D01*
X156392524Y-86971143D01*
X156344905Y-86875905D01*
X156297286Y-86685429D01*
X156297286Y-86447333D01*
X156344905Y-86256857D01*
X156392524Y-86161619D01*
X156440143Y-86114000D01*
X156535381Y-86066381D01*
X157821096Y-87066381D02*
X157249667Y-87066381D01*
X157535381Y-87066381D02*
X157535381Y-86066381D01*
X157440143Y-86209238D01*
X157344905Y-86304476D01*
X157249667Y-86352095D01*
X165252381Y-90090476D02*
X164252381Y-90090476D01*
X164252381Y-89852381D01*
X164300000Y-89709523D01*
X164395238Y-89614285D01*
X164490476Y-89566666D01*
X164680952Y-89519047D01*
X164823810Y-89519047D01*
X165014286Y-89566666D01*
X165109524Y-89614285D01*
X165204762Y-89709523D01*
X165252381Y-89852381D01*
X165252381Y-90090476D01*
X165252381Y-88566666D02*
X165252381Y-89138095D01*
X165252381Y-88852381D02*
X164252381Y-88852381D01*
X164395238Y-88947619D01*
X164490476Y-89042857D01*
X164538095Y-89138095D01*
X164252381Y-87947619D02*
X164252381Y-87852380D01*
X164300000Y-87757142D01*
X164347619Y-87709523D01*
X164442857Y-87661904D01*
X164633333Y-87614285D01*
X164871429Y-87614285D01*
X165061905Y-87661904D01*
X165157143Y-87709523D01*
X165204762Y-87757142D01*
X165252381Y-87852380D01*
X165252381Y-87947619D01*
X165204762Y-88042857D01*
X165157143Y-88090476D01*
X165061905Y-88138095D01*
X164871429Y-88185714D01*
X164633333Y-88185714D01*
X164442857Y-88138095D01*
X164347619Y-88090476D01*
X164300000Y-88042857D01*
X164252381Y-87947619D01*
X164347619Y-87233333D02*
X164300000Y-87185714D01*
X164252381Y-87090476D01*
X164252381Y-86852380D01*
X164300000Y-86757142D01*
X164347619Y-86709523D01*
X164442857Y-86661904D01*
X164538095Y-86661904D01*
X164680952Y-86709523D01*
X165252381Y-87280952D01*
X165252381Y-86661904D01*
X163252381Y-90090476D02*
X162252381Y-90090476D01*
X162252381Y-89852381D01*
X162300000Y-89709523D01*
X162395238Y-89614285D01*
X162490476Y-89566666D01*
X162680952Y-89519047D01*
X162823810Y-89519047D01*
X163014286Y-89566666D01*
X163109524Y-89614285D01*
X163204762Y-89709523D01*
X163252381Y-89852381D01*
X163252381Y-90090476D01*
X163252381Y-88566666D02*
X163252381Y-89138095D01*
X163252381Y-88852381D02*
X162252381Y-88852381D01*
X162395238Y-88947619D01*
X162490476Y-89042857D01*
X162538095Y-89138095D01*
X162252381Y-87947619D02*
X162252381Y-87852380D01*
X162300000Y-87757142D01*
X162347619Y-87709523D01*
X162442857Y-87661904D01*
X162633333Y-87614285D01*
X162871429Y-87614285D01*
X163061905Y-87661904D01*
X163157143Y-87709523D01*
X163204762Y-87757142D01*
X163252381Y-87852380D01*
X163252381Y-87947619D01*
X163204762Y-88042857D01*
X163157143Y-88090476D01*
X163061905Y-88138095D01*
X162871429Y-88185714D01*
X162633333Y-88185714D01*
X162442857Y-88138095D01*
X162347619Y-88090476D01*
X162300000Y-88042857D01*
X162252381Y-87947619D01*
X162252381Y-87280952D02*
X162252381Y-86661904D01*
X162633333Y-86995238D01*
X162633333Y-86852380D01*
X162680952Y-86757142D01*
X162728571Y-86709523D01*
X162823810Y-86661904D01*
X163061905Y-86661904D01*
X163157143Y-86709523D01*
X163204762Y-86757142D01*
X163252381Y-86852380D01*
X163252381Y-87138095D01*
X163204762Y-87233333D01*
X163157143Y-87280952D01*
X186852381Y-94619047D02*
X186852381Y-95095238D01*
X185852381Y-95095238D01*
X185852381Y-94380952D02*
X185852381Y-93761904D01*
X186233333Y-94095238D01*
X186233333Y-93952380D01*
X186280952Y-93857142D01*
X186328571Y-93809523D01*
X186423810Y-93761904D01*
X186661905Y-93761904D01*
X186757143Y-93809523D01*
X186804762Y-93857142D01*
X186852381Y-93952380D01*
X186852381Y-94238095D01*
X186804762Y-94333333D01*
X186757143Y-94380952D01*
X185852381Y-93142857D02*
X185852381Y-93047618D01*
X185900000Y-92952380D01*
X185947619Y-92904761D01*
X186042857Y-92857142D01*
X186233333Y-92809523D01*
X186471429Y-92809523D01*
X186661905Y-92857142D01*
X186757143Y-92904761D01*
X186804762Y-92952380D01*
X186852381Y-93047618D01*
X186852381Y-93142857D01*
X186804762Y-93238095D01*
X186757143Y-93285714D01*
X186661905Y-93333333D01*
X186471429Y-93380952D01*
X186233333Y-93380952D01*
X186042857Y-93333333D01*
X185947619Y-93285714D01*
X185900000Y-93238095D01*
X185852381Y-93142857D01*
X186852381Y-91857142D02*
X186852381Y-92428571D01*
X186852381Y-92142857D02*
X185852381Y-92142857D01*
X185995238Y-92238095D01*
X186090476Y-92333333D01*
X186138095Y-92428571D01*
X150683334Y-85152381D02*
X150350000Y-84676190D01*
X150111905Y-85152381D02*
X150111905Y-84152381D01*
X150492858Y-84152381D01*
X150588096Y-84200000D01*
X150635715Y-84247619D01*
X150683334Y-84342857D01*
X150683334Y-84485714D01*
X150635715Y-84580952D01*
X150588096Y-84628571D01*
X150492858Y-84676190D01*
X150111905Y-84676190D01*
X151635715Y-85152381D02*
X151064286Y-85152381D01*
X151350000Y-85152381D02*
X151350000Y-84152381D01*
X151254762Y-84295238D01*
X151159524Y-84390476D01*
X151064286Y-84438095D01*
X154680953Y-77052381D02*
X154347619Y-76576190D01*
X154109524Y-77052381D02*
X154109524Y-76052381D01*
X154490477Y-76052381D01*
X154585715Y-76100000D01*
X154633334Y-76147619D01*
X154680953Y-76242857D01*
X154680953Y-76385714D01*
X154633334Y-76480952D01*
X154585715Y-76528571D01*
X154490477Y-76576190D01*
X154109524Y-76576190D01*
X155633334Y-77052381D02*
X155061905Y-77052381D01*
X155347619Y-77052381D02*
X155347619Y-76052381D01*
X155252381Y-76195238D01*
X155157143Y-76290476D01*
X155061905Y-76338095D01*
X156252381Y-76052381D02*
X156347620Y-76052381D01*
X156442858Y-76100000D01*
X156490477Y-76147619D01*
X156538096Y-76242857D01*
X156585715Y-76433333D01*
X156585715Y-76671429D01*
X156538096Y-76861905D01*
X156490477Y-76957143D01*
X156442858Y-77004762D01*
X156347620Y-77052381D01*
X156252381Y-77052381D01*
X156157143Y-77004762D01*
X156109524Y-76957143D01*
X156061905Y-76861905D01*
X156014286Y-76671429D01*
X156014286Y-76433333D01*
X156061905Y-76242857D01*
X156109524Y-76147619D01*
X156157143Y-76100000D01*
X156252381Y-76052381D01*
X156966667Y-76147619D02*
X157014286Y-76100000D01*
X157109524Y-76052381D01*
X157347620Y-76052381D01*
X157442858Y-76100000D01*
X157490477Y-76147619D01*
X157538096Y-76242857D01*
X157538096Y-76338095D01*
X157490477Y-76480952D01*
X156919048Y-77052381D01*
X157538096Y-77052381D01*
X155090953Y-84091381D02*
X154757619Y-83615190D01*
X154519524Y-84091381D02*
X154519524Y-83091381D01*
X154900477Y-83091381D01*
X154995715Y-83139000D01*
X155043334Y-83186619D01*
X155090953Y-83281857D01*
X155090953Y-83424714D01*
X155043334Y-83519952D01*
X154995715Y-83567571D01*
X154900477Y-83615190D01*
X154519524Y-83615190D01*
X156043334Y-84091381D02*
X155471905Y-84091381D01*
X155757619Y-84091381D02*
X155757619Y-83091381D01*
X155662381Y-83234238D01*
X155567143Y-83329476D01*
X155471905Y-83377095D01*
X156662381Y-83091381D02*
X156757620Y-83091381D01*
X156852858Y-83139000D01*
X156900477Y-83186619D01*
X156948096Y-83281857D01*
X156995715Y-83472333D01*
X156995715Y-83710429D01*
X156948096Y-83900905D01*
X156900477Y-83996143D01*
X156852858Y-84043762D01*
X156757620Y-84091381D01*
X156662381Y-84091381D01*
X156567143Y-84043762D01*
X156519524Y-83996143D01*
X156471905Y-83900905D01*
X156424286Y-83710429D01*
X156424286Y-83472333D01*
X156471905Y-83281857D01*
X156519524Y-83186619D01*
X156567143Y-83139000D01*
X156662381Y-83091381D01*
X157329048Y-83091381D02*
X157948096Y-83091381D01*
X157614762Y-83472333D01*
X157757620Y-83472333D01*
X157852858Y-83519952D01*
X157900477Y-83567571D01*
X157948096Y-83662810D01*
X157948096Y-83900905D01*
X157900477Y-83996143D01*
X157852858Y-84043762D01*
X157757620Y-84091381D01*
X157471905Y-84091381D01*
X157376667Y-84043762D01*
X157329048Y-83996143D01*
X150080953Y-67052381D02*
X149747619Y-66576190D01*
X149509524Y-67052381D02*
X149509524Y-66052381D01*
X149890477Y-66052381D01*
X149985715Y-66100000D01*
X150033334Y-66147619D01*
X150080953Y-66242857D01*
X150080953Y-66385714D01*
X150033334Y-66480952D01*
X149985715Y-66528571D01*
X149890477Y-66576190D01*
X149509524Y-66576190D01*
X151033334Y-67052381D02*
X150461905Y-67052381D01*
X150747619Y-67052381D02*
X150747619Y-66052381D01*
X150652381Y-66195238D01*
X150557143Y-66290476D01*
X150461905Y-66338095D01*
X151652381Y-66052381D02*
X151747620Y-66052381D01*
X151842858Y-66100000D01*
X151890477Y-66147619D01*
X151938096Y-66242857D01*
X151985715Y-66433333D01*
X151985715Y-66671429D01*
X151938096Y-66861905D01*
X151890477Y-66957143D01*
X151842858Y-67004762D01*
X151747620Y-67052381D01*
X151652381Y-67052381D01*
X151557143Y-67004762D01*
X151509524Y-66957143D01*
X151461905Y-66861905D01*
X151414286Y-66671429D01*
X151414286Y-66433333D01*
X151461905Y-66242857D01*
X151509524Y-66147619D01*
X151557143Y-66100000D01*
X151652381Y-66052381D01*
X152842858Y-66385714D02*
X152842858Y-67052381D01*
X152604762Y-66004762D02*
X152366667Y-66719048D01*
X152985715Y-66719048D01*
X150080953Y-65052381D02*
X149747619Y-64576190D01*
X149509524Y-65052381D02*
X149509524Y-64052381D01*
X149890477Y-64052381D01*
X149985715Y-64100000D01*
X150033334Y-64147619D01*
X150080953Y-64242857D01*
X150080953Y-64385714D01*
X150033334Y-64480952D01*
X149985715Y-64528571D01*
X149890477Y-64576190D01*
X149509524Y-64576190D01*
X151033334Y-65052381D02*
X150461905Y-65052381D01*
X150747619Y-65052381D02*
X150747619Y-64052381D01*
X150652381Y-64195238D01*
X150557143Y-64290476D01*
X150461905Y-64338095D01*
X151652381Y-64052381D02*
X151747620Y-64052381D01*
X151842858Y-64100000D01*
X151890477Y-64147619D01*
X151938096Y-64242857D01*
X151985715Y-64433333D01*
X151985715Y-64671429D01*
X151938096Y-64861905D01*
X151890477Y-64957143D01*
X151842858Y-65004762D01*
X151747620Y-65052381D01*
X151652381Y-65052381D01*
X151557143Y-65004762D01*
X151509524Y-64957143D01*
X151461905Y-64861905D01*
X151414286Y-64671429D01*
X151414286Y-64433333D01*
X151461905Y-64242857D01*
X151509524Y-64147619D01*
X151557143Y-64100000D01*
X151652381Y-64052381D01*
X152890477Y-64052381D02*
X152414286Y-64052381D01*
X152366667Y-64528571D01*
X152414286Y-64480952D01*
X152509524Y-64433333D01*
X152747620Y-64433333D01*
X152842858Y-64480952D01*
X152890477Y-64528571D01*
X152938096Y-64623810D01*
X152938096Y-64861905D01*
X152890477Y-64957143D01*
X152842858Y-65004762D01*
X152747620Y-65052381D01*
X152509524Y-65052381D01*
X152414286Y-65004762D01*
X152366667Y-64957143D01*
X165152381Y-84919047D02*
X164676190Y-85252381D01*
X165152381Y-85490476D02*
X164152381Y-85490476D01*
X164152381Y-85109523D01*
X164200000Y-85014285D01*
X164247619Y-84966666D01*
X164342857Y-84919047D01*
X164485714Y-84919047D01*
X164580952Y-84966666D01*
X164628571Y-85014285D01*
X164676190Y-85109523D01*
X164676190Y-85490476D01*
X165152381Y-83966666D02*
X165152381Y-84538095D01*
X165152381Y-84252381D02*
X164152381Y-84252381D01*
X164295238Y-84347619D01*
X164390476Y-84442857D01*
X164438095Y-84538095D01*
X164152381Y-83347619D02*
X164152381Y-83252380D01*
X164200000Y-83157142D01*
X164247619Y-83109523D01*
X164342857Y-83061904D01*
X164533333Y-83014285D01*
X164771429Y-83014285D01*
X164961905Y-83061904D01*
X165057143Y-83109523D01*
X165104762Y-83157142D01*
X165152381Y-83252380D01*
X165152381Y-83347619D01*
X165104762Y-83442857D01*
X165057143Y-83490476D01*
X164961905Y-83538095D01*
X164771429Y-83585714D01*
X164533333Y-83585714D01*
X164342857Y-83538095D01*
X164247619Y-83490476D01*
X164200000Y-83442857D01*
X164152381Y-83347619D01*
X164152381Y-82157142D02*
X164152381Y-82347619D01*
X164200000Y-82442857D01*
X164247619Y-82490476D01*
X164390476Y-82585714D01*
X164580952Y-82633333D01*
X164961905Y-82633333D01*
X165057143Y-82585714D01*
X165104762Y-82538095D01*
X165152381Y-82442857D01*
X165152381Y-82252380D01*
X165104762Y-82157142D01*
X165057143Y-82109523D01*
X164961905Y-82061904D01*
X164723810Y-82061904D01*
X164628571Y-82109523D01*
X164580952Y-82157142D01*
X164533333Y-82252380D01*
X164533333Y-82442857D01*
X164580952Y-82538095D01*
X164628571Y-82585714D01*
X164723810Y-82633333D01*
X178730953Y-96902381D02*
X178397619Y-96426190D01*
X178159524Y-96902381D02*
X178159524Y-95902381D01*
X178540477Y-95902381D01*
X178635715Y-95950000D01*
X178683334Y-95997619D01*
X178730953Y-96092857D01*
X178730953Y-96235714D01*
X178683334Y-96330952D01*
X178635715Y-96378571D01*
X178540477Y-96426190D01*
X178159524Y-96426190D01*
X179064286Y-95902381D02*
X179683334Y-95902381D01*
X179350000Y-96283333D01*
X179492858Y-96283333D01*
X179588096Y-96330952D01*
X179635715Y-96378571D01*
X179683334Y-96473810D01*
X179683334Y-96711905D01*
X179635715Y-96807143D01*
X179588096Y-96854762D01*
X179492858Y-96902381D01*
X179207143Y-96902381D01*
X179111905Y-96854762D01*
X179064286Y-96807143D01*
X180302381Y-95902381D02*
X180397620Y-95902381D01*
X180492858Y-95950000D01*
X180540477Y-95997619D01*
X180588096Y-96092857D01*
X180635715Y-96283333D01*
X180635715Y-96521429D01*
X180588096Y-96711905D01*
X180540477Y-96807143D01*
X180492858Y-96854762D01*
X180397620Y-96902381D01*
X180302381Y-96902381D01*
X180207143Y-96854762D01*
X180159524Y-96807143D01*
X180111905Y-96711905D01*
X180064286Y-96521429D01*
X180064286Y-96283333D01*
X180111905Y-96092857D01*
X180159524Y-95997619D01*
X180207143Y-95950000D01*
X180302381Y-95902381D01*
X181588096Y-96902381D02*
X181016667Y-96902381D01*
X181302381Y-96902381D02*
X181302381Y-95902381D01*
X181207143Y-96045238D01*
X181111905Y-96140476D01*
X181016667Y-96188095D01*
X166285714Y-66202381D02*
X166285714Y-67011905D01*
X166333333Y-67107143D01*
X166380952Y-67154762D01*
X166476190Y-67202381D01*
X166666667Y-67202381D01*
X166761905Y-67154762D01*
X166809524Y-67107143D01*
X166857143Y-67011905D01*
X166857143Y-66202381D01*
X167857143Y-67202381D02*
X167285714Y-67202381D01*
X167571428Y-67202381D02*
X167571428Y-66202381D01*
X167476190Y-66345238D01*
X167380952Y-66440476D01*
X167285714Y-66488095D01*
X168476190Y-66202381D02*
X168571429Y-66202381D01*
X168666667Y-66250000D01*
X168714286Y-66297619D01*
X168761905Y-66392857D01*
X168809524Y-66583333D01*
X168809524Y-66821429D01*
X168761905Y-67011905D01*
X168714286Y-67107143D01*
X168666667Y-67154762D01*
X168571429Y-67202381D01*
X168476190Y-67202381D01*
X168380952Y-67154762D01*
X168333333Y-67107143D01*
X168285714Y-67011905D01*
X168238095Y-66821429D01*
X168238095Y-66583333D01*
X168285714Y-66392857D01*
X168333333Y-66297619D01*
X168380952Y-66250000D01*
X168476190Y-66202381D01*
X169761905Y-67202381D02*
X169190476Y-67202381D01*
X169476190Y-67202381D02*
X169476190Y-66202381D01*
X169380952Y-66345238D01*
X169285714Y-66440476D01*
X169190476Y-66488095D01*
X183485714Y-106052381D02*
X183485714Y-106861905D01*
X183533333Y-106957143D01*
X183580952Y-107004762D01*
X183676190Y-107052381D01*
X183866667Y-107052381D01*
X183961905Y-107004762D01*
X184009524Y-106957143D01*
X184057143Y-106861905D01*
X184057143Y-106052381D01*
X184438095Y-106052381D02*
X185057143Y-106052381D01*
X184723809Y-106433333D01*
X184866667Y-106433333D01*
X184961905Y-106480952D01*
X185009524Y-106528571D01*
X185057143Y-106623810D01*
X185057143Y-106861905D01*
X185009524Y-106957143D01*
X184961905Y-107004762D01*
X184866667Y-107052381D01*
X184580952Y-107052381D01*
X184485714Y-107004762D01*
X184438095Y-106957143D01*
X185676190Y-106052381D02*
X185771429Y-106052381D01*
X185866667Y-106100000D01*
X185914286Y-106147619D01*
X185961905Y-106242857D01*
X186009524Y-106433333D01*
X186009524Y-106671429D01*
X185961905Y-106861905D01*
X185914286Y-106957143D01*
X185866667Y-107004762D01*
X185771429Y-107052381D01*
X185676190Y-107052381D01*
X185580952Y-107004762D01*
X185533333Y-106957143D01*
X185485714Y-106861905D01*
X185438095Y-106671429D01*
X185438095Y-106433333D01*
X185485714Y-106242857D01*
X185533333Y-106147619D01*
X185580952Y-106100000D01*
X185676190Y-106052381D01*
X186961905Y-107052381D02*
X186390476Y-107052381D01*
X186676190Y-107052381D02*
X186676190Y-106052381D01*
X186580952Y-106195238D01*
X186485714Y-106290476D01*
X186390476Y-106338095D01*
X159469524Y-95552381D02*
X159469524Y-94552381D01*
X159850477Y-94552381D01*
X159945715Y-94600000D01*
X159993334Y-94647619D01*
X160040953Y-94742857D01*
X160040953Y-94885714D01*
X159993334Y-94980952D01*
X159945715Y-95028571D01*
X159850477Y-95076190D01*
X159469524Y-95076190D01*
X160993334Y-95552381D02*
X160421905Y-95552381D01*
X160707619Y-95552381D02*
X160707619Y-94552381D01*
X160612381Y-94695238D01*
X160517143Y-94790476D01*
X160421905Y-94838095D01*
X161612381Y-94552381D02*
X161707620Y-94552381D01*
X161802858Y-94600000D01*
X161850477Y-94647619D01*
X161898096Y-94742857D01*
X161945715Y-94933333D01*
X161945715Y-95171429D01*
X161898096Y-95361905D01*
X161850477Y-95457143D01*
X161802858Y-95504762D01*
X161707620Y-95552381D01*
X161612381Y-95552381D01*
X161517143Y-95504762D01*
X161469524Y-95457143D01*
X161421905Y-95361905D01*
X161374286Y-95171429D01*
X161374286Y-94933333D01*
X161421905Y-94742857D01*
X161469524Y-94647619D01*
X161517143Y-94600000D01*
X161612381Y-94552381D01*
X162326667Y-94647619D02*
X162374286Y-94600000D01*
X162469524Y-94552381D01*
X162707620Y-94552381D01*
X162802858Y-94600000D01*
X162850477Y-94647619D01*
X162898096Y-94742857D01*
X162898096Y-94838095D01*
X162850477Y-94980952D01*
X162279048Y-95552381D01*
X162898096Y-95552381D01*
X174680953Y-73357143D02*
X174633334Y-73404762D01*
X174490477Y-73452381D01*
X174395239Y-73452381D01*
X174252381Y-73404762D01*
X174157143Y-73309524D01*
X174109524Y-73214286D01*
X174061905Y-73023810D01*
X174061905Y-72880952D01*
X174109524Y-72690476D01*
X174157143Y-72595238D01*
X174252381Y-72500000D01*
X174395239Y-72452381D01*
X174490477Y-72452381D01*
X174633334Y-72500000D01*
X174680953Y-72547619D01*
X175633334Y-73452381D02*
X175061905Y-73452381D01*
X175347619Y-73452381D02*
X175347619Y-72452381D01*
X175252381Y-72595238D01*
X175157143Y-72690476D01*
X175061905Y-72738095D01*
X176252381Y-72452381D02*
X176347620Y-72452381D01*
X176442858Y-72500000D01*
X176490477Y-72547619D01*
X176538096Y-72642857D01*
X176585715Y-72833333D01*
X176585715Y-73071429D01*
X176538096Y-73261905D01*
X176490477Y-73357143D01*
X176442858Y-73404762D01*
X176347620Y-73452381D01*
X176252381Y-73452381D01*
X176157143Y-73404762D01*
X176109524Y-73357143D01*
X176061905Y-73261905D01*
X176014286Y-73071429D01*
X176014286Y-72833333D01*
X176061905Y-72642857D01*
X176109524Y-72547619D01*
X176157143Y-72500000D01*
X176252381Y-72452381D01*
X177442858Y-72452381D02*
X177252381Y-72452381D01*
X177157143Y-72500000D01*
X177109524Y-72547619D01*
X177014286Y-72690476D01*
X176966667Y-72880952D01*
X176966667Y-73261905D01*
X177014286Y-73357143D01*
X177061905Y-73404762D01*
X177157143Y-73452381D01*
X177347620Y-73452381D01*
X177442858Y-73404762D01*
X177490477Y-73357143D01*
X177538096Y-73261905D01*
X177538096Y-73023810D01*
X177490477Y-72928571D01*
X177442858Y-72880952D01*
X177347620Y-72833333D01*
X177157143Y-72833333D01*
X177061905Y-72880952D01*
X177014286Y-72928571D01*
X176966667Y-73023810D01*
X174880953Y-78757143D02*
X174833334Y-78804762D01*
X174690477Y-78852381D01*
X174595239Y-78852381D01*
X174452381Y-78804762D01*
X174357143Y-78709524D01*
X174309524Y-78614286D01*
X174261905Y-78423810D01*
X174261905Y-78280952D01*
X174309524Y-78090476D01*
X174357143Y-77995238D01*
X174452381Y-77900000D01*
X174595239Y-77852381D01*
X174690477Y-77852381D01*
X174833334Y-77900000D01*
X174880953Y-77947619D01*
X175833334Y-78852381D02*
X175261905Y-78852381D01*
X175547619Y-78852381D02*
X175547619Y-77852381D01*
X175452381Y-77995238D01*
X175357143Y-78090476D01*
X175261905Y-78138095D01*
X176452381Y-77852381D02*
X176547620Y-77852381D01*
X176642858Y-77900000D01*
X176690477Y-77947619D01*
X176738096Y-78042857D01*
X176785715Y-78233333D01*
X176785715Y-78471429D01*
X176738096Y-78661905D01*
X176690477Y-78757143D01*
X176642858Y-78804762D01*
X176547620Y-78852381D01*
X176452381Y-78852381D01*
X176357143Y-78804762D01*
X176309524Y-78757143D01*
X176261905Y-78661905D01*
X176214286Y-78471429D01*
X176214286Y-78233333D01*
X176261905Y-78042857D01*
X176309524Y-77947619D01*
X176357143Y-77900000D01*
X176452381Y-77852381D01*
X177119048Y-77852381D02*
X177785715Y-77852381D01*
X177357143Y-78852381D01*
X183666667Y-83604762D02*
X183809524Y-83652381D01*
X184047620Y-83652381D01*
X184142858Y-83604762D01*
X184190477Y-83557143D01*
X184238096Y-83461905D01*
X184238096Y-83366667D01*
X184190477Y-83271429D01*
X184142858Y-83223810D01*
X184047620Y-83176190D01*
X183857143Y-83128571D01*
X183761905Y-83080952D01*
X183714286Y-83033333D01*
X183666667Y-82938095D01*
X183666667Y-82842857D01*
X183714286Y-82747619D01*
X183761905Y-82700000D01*
X183857143Y-82652381D01*
X184095239Y-82652381D01*
X184238096Y-82700000D01*
X184571429Y-82652381D02*
X184809524Y-83652381D01*
X185000001Y-82938095D01*
X185190477Y-83652381D01*
X185428572Y-82652381D01*
X186333334Y-83652381D02*
X185761905Y-83652381D01*
X186047619Y-83652381D02*
X186047619Y-82652381D01*
X185952381Y-82795238D01*
X185857143Y-82890476D01*
X185761905Y-82938095D01*
X169804762Y-100933333D02*
X169852381Y-100790476D01*
X169852381Y-100552380D01*
X169804762Y-100457142D01*
X169757143Y-100409523D01*
X169661905Y-100361904D01*
X169566667Y-100361904D01*
X169471429Y-100409523D01*
X169423810Y-100457142D01*
X169376190Y-100552380D01*
X169328571Y-100742857D01*
X169280952Y-100838095D01*
X169233333Y-100885714D01*
X169138095Y-100933333D01*
X169042857Y-100933333D01*
X168947619Y-100885714D01*
X168900000Y-100838095D01*
X168852381Y-100742857D01*
X168852381Y-100504761D01*
X168900000Y-100361904D01*
X168852381Y-100028571D02*
X169852381Y-99790476D01*
X169138095Y-99599999D01*
X169852381Y-99409523D01*
X168852381Y-99171428D01*
X168947619Y-98838095D02*
X168900000Y-98790476D01*
X168852381Y-98695238D01*
X168852381Y-98457142D01*
X168900000Y-98361904D01*
X168947619Y-98314285D01*
X169042857Y-98266666D01*
X169138095Y-98266666D01*
X169280952Y-98314285D01*
X169852381Y-98885714D01*
X169852381Y-98266666D01*
X152404762Y-94685714D02*
X152452381Y-94542857D01*
X152452381Y-94304761D01*
X152404762Y-94209523D01*
X152357143Y-94161904D01*
X152261905Y-94114285D01*
X152166667Y-94114285D01*
X152071429Y-94161904D01*
X152023810Y-94209523D01*
X151976190Y-94304761D01*
X151928571Y-94495238D01*
X151880952Y-94590476D01*
X151833333Y-94638095D01*
X151738095Y-94685714D01*
X151642857Y-94685714D01*
X151547619Y-94638095D01*
X151500000Y-94590476D01*
X151452381Y-94495238D01*
X151452381Y-94257142D01*
X151500000Y-94114285D01*
X151452381Y-93780952D02*
X152452381Y-93542857D01*
X151738095Y-93352380D01*
X152452381Y-93161904D01*
X151452381Y-92923809D01*
X152452381Y-92019047D02*
X152452381Y-92590476D01*
X152452381Y-92304762D02*
X151452381Y-92304762D01*
X151595238Y-92400000D01*
X151690476Y-92495238D01*
X151738095Y-92590476D01*
X151452381Y-91400000D02*
X151452381Y-91304761D01*
X151500000Y-91209523D01*
X151547619Y-91161904D01*
X151642857Y-91114285D01*
X151833333Y-91066666D01*
X152071429Y-91066666D01*
X152261905Y-91114285D01*
X152357143Y-91161904D01*
X152404762Y-91209523D01*
X152452381Y-91304761D01*
X152452381Y-91400000D01*
X152404762Y-91495238D01*
X152357143Y-91542857D01*
X152261905Y-91590476D01*
X152071429Y-91638095D01*
X151833333Y-91638095D01*
X151642857Y-91590476D01*
X151547619Y-91542857D01*
X151500000Y-91495238D01*
X151452381Y-91400000D01*
X151452381Y-90733333D02*
X151452381Y-90114285D01*
X151833333Y-90447619D01*
X151833333Y-90304761D01*
X151880952Y-90209523D01*
X151928571Y-90161904D01*
X152023810Y-90114285D01*
X152261905Y-90114285D01*
X152357143Y-90161904D01*
X152404762Y-90209523D01*
X152452381Y-90304761D01*
X152452381Y-90590476D01*
X152404762Y-90685714D01*
X152357143Y-90733333D01*
X144882857Y-62372857D02*
X144882857Y-63344286D01*
X144940000Y-63458571D01*
X144997143Y-63515714D01*
X145111429Y-63572857D01*
X145340000Y-63572857D01*
X145454286Y-63515714D01*
X145511429Y-63458571D01*
X145568572Y-63344286D01*
X145568572Y-62372857D01*
X146082857Y-62487143D02*
X146140000Y-62430000D01*
X146254286Y-62372857D01*
X146540000Y-62372857D01*
X146654286Y-62430000D01*
X146711429Y-62487143D01*
X146768572Y-62601429D01*
X146768572Y-62715714D01*
X146711429Y-62887143D01*
X146025715Y-63572857D01*
X146768572Y-63572857D01*
X147511429Y-62372857D02*
X147625714Y-62372857D01*
X147740000Y-62430000D01*
X147797143Y-62487143D01*
X147854286Y-62601429D01*
X147911429Y-62830000D01*
X147911429Y-63115714D01*
X147854286Y-63344286D01*
X147797143Y-63458571D01*
X147740000Y-63515714D01*
X147625714Y-63572857D01*
X147511429Y-63572857D01*
X147397143Y-63515714D01*
X147340000Y-63458571D01*
X147282857Y-63344286D01*
X147225714Y-63115714D01*
X147225714Y-62830000D01*
X147282857Y-62601429D01*
X147340000Y-62487143D01*
X147397143Y-62430000D01*
X147511429Y-62372857D01*
X149054286Y-63572857D02*
X148368571Y-63572857D01*
X148711429Y-63572857D02*
X148711429Y-62372857D01*
X148597143Y-62544286D01*
X148482857Y-62658571D01*
X148368571Y-62715714D01*
X169410632Y-62372857D02*
X169410632Y-63344286D01*
X169467775Y-63458571D01*
X169524918Y-63515714D01*
X169639204Y-63572857D01*
X169867775Y-63572857D01*
X169982061Y-63515714D01*
X170039204Y-63458571D01*
X170096347Y-63344286D01*
X170096347Y-62372857D01*
X170610632Y-62487143D02*
X170667775Y-62430000D01*
X170782061Y-62372857D01*
X171067775Y-62372857D01*
X171182061Y-62430000D01*
X171239204Y-62487143D01*
X171296347Y-62601429D01*
X171296347Y-62715714D01*
X171239204Y-62887143D01*
X170553490Y-63572857D01*
X171296347Y-63572857D01*
X172039204Y-62372857D02*
X172153489Y-62372857D01*
X172267775Y-62430000D01*
X172324918Y-62487143D01*
X172382061Y-62601429D01*
X172439204Y-62830000D01*
X172439204Y-63115714D01*
X172382061Y-63344286D01*
X172324918Y-63458571D01*
X172267775Y-63515714D01*
X172153489Y-63572857D01*
X172039204Y-63572857D01*
X171924918Y-63515714D01*
X171867775Y-63458571D01*
X171810632Y-63344286D01*
X171753489Y-63115714D01*
X171753489Y-62830000D01*
X171810632Y-62601429D01*
X171867775Y-62487143D01*
X171924918Y-62430000D01*
X172039204Y-62372857D01*
X172896346Y-62487143D02*
X172953489Y-62430000D01*
X173067775Y-62372857D01*
X173353489Y-62372857D01*
X173467775Y-62430000D01*
X173524918Y-62487143D01*
X173582061Y-62601429D01*
X173582061Y-62715714D01*
X173524918Y-62887143D01*
X172839204Y-63572857D01*
X173582061Y-63572857D01*
X149788412Y-62372857D02*
X149788412Y-63344286D01*
X149845555Y-63458571D01*
X149902698Y-63515714D01*
X150016984Y-63572857D01*
X150245555Y-63572857D01*
X150359841Y-63515714D01*
X150416984Y-63458571D01*
X150474127Y-63344286D01*
X150474127Y-62372857D01*
X150988412Y-62487143D02*
X151045555Y-62430000D01*
X151159841Y-62372857D01*
X151445555Y-62372857D01*
X151559841Y-62430000D01*
X151616984Y-62487143D01*
X151674127Y-62601429D01*
X151674127Y-62715714D01*
X151616984Y-62887143D01*
X150931270Y-63572857D01*
X151674127Y-63572857D01*
X152416984Y-62372857D02*
X152531269Y-62372857D01*
X152645555Y-62430000D01*
X152702698Y-62487143D01*
X152759841Y-62601429D01*
X152816984Y-62830000D01*
X152816984Y-63115714D01*
X152759841Y-63344286D01*
X152702698Y-63458571D01*
X152645555Y-63515714D01*
X152531269Y-63572857D01*
X152416984Y-63572857D01*
X152302698Y-63515714D01*
X152245555Y-63458571D01*
X152188412Y-63344286D01*
X152131269Y-63115714D01*
X152131269Y-62830000D01*
X152188412Y-62601429D01*
X152245555Y-62487143D01*
X152302698Y-62430000D01*
X152416984Y-62372857D01*
X153216984Y-62372857D02*
X153959841Y-62372857D01*
X153559841Y-62830000D01*
X153731269Y-62830000D01*
X153845555Y-62887143D01*
X153902698Y-62944286D01*
X153959841Y-63058571D01*
X153959841Y-63344286D01*
X153902698Y-63458571D01*
X153845555Y-63515714D01*
X153731269Y-63572857D01*
X153388412Y-63572857D01*
X153274126Y-63515714D01*
X153216984Y-63458571D01*
X174316187Y-62372857D02*
X174316187Y-63344286D01*
X174373330Y-63458571D01*
X174430473Y-63515714D01*
X174544759Y-63572857D01*
X174773330Y-63572857D01*
X174887616Y-63515714D01*
X174944759Y-63458571D01*
X175001902Y-63344286D01*
X175001902Y-62372857D01*
X175516187Y-62487143D02*
X175573330Y-62430000D01*
X175687616Y-62372857D01*
X175973330Y-62372857D01*
X176087616Y-62430000D01*
X176144759Y-62487143D01*
X176201902Y-62601429D01*
X176201902Y-62715714D01*
X176144759Y-62887143D01*
X175459045Y-63572857D01*
X176201902Y-63572857D01*
X176944759Y-62372857D02*
X177059044Y-62372857D01*
X177173330Y-62430000D01*
X177230473Y-62487143D01*
X177287616Y-62601429D01*
X177344759Y-62830000D01*
X177344759Y-63115714D01*
X177287616Y-63344286D01*
X177230473Y-63458571D01*
X177173330Y-63515714D01*
X177059044Y-63572857D01*
X176944759Y-63572857D01*
X176830473Y-63515714D01*
X176773330Y-63458571D01*
X176716187Y-63344286D01*
X176659044Y-63115714D01*
X176659044Y-62830000D01*
X176716187Y-62601429D01*
X176773330Y-62487143D01*
X176830473Y-62430000D01*
X176944759Y-62372857D01*
X178373330Y-62772857D02*
X178373330Y-63572857D01*
X178087616Y-62315714D02*
X177801901Y-63172857D01*
X178544759Y-63172857D01*
X154693967Y-62372857D02*
X154693967Y-63344286D01*
X154751110Y-63458571D01*
X154808253Y-63515714D01*
X154922539Y-63572857D01*
X155151110Y-63572857D01*
X155265396Y-63515714D01*
X155322539Y-63458571D01*
X155379682Y-63344286D01*
X155379682Y-62372857D01*
X155893967Y-62487143D02*
X155951110Y-62430000D01*
X156065396Y-62372857D01*
X156351110Y-62372857D01*
X156465396Y-62430000D01*
X156522539Y-62487143D01*
X156579682Y-62601429D01*
X156579682Y-62715714D01*
X156522539Y-62887143D01*
X155836825Y-63572857D01*
X156579682Y-63572857D01*
X157322539Y-62372857D02*
X157436824Y-62372857D01*
X157551110Y-62430000D01*
X157608253Y-62487143D01*
X157665396Y-62601429D01*
X157722539Y-62830000D01*
X157722539Y-63115714D01*
X157665396Y-63344286D01*
X157608253Y-63458571D01*
X157551110Y-63515714D01*
X157436824Y-63572857D01*
X157322539Y-63572857D01*
X157208253Y-63515714D01*
X157151110Y-63458571D01*
X157093967Y-63344286D01*
X157036824Y-63115714D01*
X157036824Y-62830000D01*
X157093967Y-62601429D01*
X157151110Y-62487143D01*
X157208253Y-62430000D01*
X157322539Y-62372857D01*
X158808253Y-62372857D02*
X158236824Y-62372857D01*
X158179681Y-62944286D01*
X158236824Y-62887143D01*
X158351110Y-62830000D01*
X158636824Y-62830000D01*
X158751110Y-62887143D01*
X158808253Y-62944286D01*
X158865396Y-63058571D01*
X158865396Y-63344286D01*
X158808253Y-63458571D01*
X158751110Y-63515714D01*
X158636824Y-63572857D01*
X158351110Y-63572857D01*
X158236824Y-63515714D01*
X158179681Y-63458571D01*
X179221742Y-62372857D02*
X179221742Y-63344286D01*
X179278885Y-63458571D01*
X179336028Y-63515714D01*
X179450314Y-63572857D01*
X179678885Y-63572857D01*
X179793171Y-63515714D01*
X179850314Y-63458571D01*
X179907457Y-63344286D01*
X179907457Y-62372857D01*
X180421742Y-62487143D02*
X180478885Y-62430000D01*
X180593171Y-62372857D01*
X180878885Y-62372857D01*
X180993171Y-62430000D01*
X181050314Y-62487143D01*
X181107457Y-62601429D01*
X181107457Y-62715714D01*
X181050314Y-62887143D01*
X180364600Y-63572857D01*
X181107457Y-63572857D01*
X181850314Y-62372857D02*
X181964599Y-62372857D01*
X182078885Y-62430000D01*
X182136028Y-62487143D01*
X182193171Y-62601429D01*
X182250314Y-62830000D01*
X182250314Y-63115714D01*
X182193171Y-63344286D01*
X182136028Y-63458571D01*
X182078885Y-63515714D01*
X181964599Y-63572857D01*
X181850314Y-63572857D01*
X181736028Y-63515714D01*
X181678885Y-63458571D01*
X181621742Y-63344286D01*
X181564599Y-63115714D01*
X181564599Y-62830000D01*
X181621742Y-62601429D01*
X181678885Y-62487143D01*
X181736028Y-62430000D01*
X181850314Y-62372857D01*
X183278885Y-62372857D02*
X183050314Y-62372857D01*
X182936028Y-62430000D01*
X182878885Y-62487143D01*
X182764599Y-62658571D01*
X182707456Y-62887143D01*
X182707456Y-63344286D01*
X182764599Y-63458571D01*
X182821742Y-63515714D01*
X182936028Y-63572857D01*
X183164599Y-63572857D01*
X183278885Y-63515714D01*
X183336028Y-63458571D01*
X183393171Y-63344286D01*
X183393171Y-63058571D01*
X183336028Y-62944286D01*
X183278885Y-62887143D01*
X183164599Y-62830000D01*
X182936028Y-62830000D01*
X182821742Y-62887143D01*
X182764599Y-62944286D01*
X182707456Y-63058571D01*
X159599522Y-62372857D02*
X159599522Y-63344286D01*
X159656665Y-63458571D01*
X159713808Y-63515714D01*
X159828094Y-63572857D01*
X160056665Y-63572857D01*
X160170951Y-63515714D01*
X160228094Y-63458571D01*
X160285237Y-63344286D01*
X160285237Y-62372857D01*
X160799522Y-62487143D02*
X160856665Y-62430000D01*
X160970951Y-62372857D01*
X161256665Y-62372857D01*
X161370951Y-62430000D01*
X161428094Y-62487143D01*
X161485237Y-62601429D01*
X161485237Y-62715714D01*
X161428094Y-62887143D01*
X160742380Y-63572857D01*
X161485237Y-63572857D01*
X162228094Y-62372857D02*
X162342379Y-62372857D01*
X162456665Y-62430000D01*
X162513808Y-62487143D01*
X162570951Y-62601429D01*
X162628094Y-62830000D01*
X162628094Y-63115714D01*
X162570951Y-63344286D01*
X162513808Y-63458571D01*
X162456665Y-63515714D01*
X162342379Y-63572857D01*
X162228094Y-63572857D01*
X162113808Y-63515714D01*
X162056665Y-63458571D01*
X161999522Y-63344286D01*
X161942379Y-63115714D01*
X161942379Y-62830000D01*
X161999522Y-62601429D01*
X162056665Y-62487143D01*
X162113808Y-62430000D01*
X162228094Y-62372857D01*
X163028094Y-62372857D02*
X163828094Y-62372857D01*
X163313808Y-63572857D01*
X184127297Y-62372857D02*
X184127297Y-63344286D01*
X184184440Y-63458571D01*
X184241583Y-63515714D01*
X184355869Y-63572857D01*
X184584440Y-63572857D01*
X184698726Y-63515714D01*
X184755869Y-63458571D01*
X184813012Y-63344286D01*
X184813012Y-62372857D01*
X185327297Y-62487143D02*
X185384440Y-62430000D01*
X185498726Y-62372857D01*
X185784440Y-62372857D01*
X185898726Y-62430000D01*
X185955869Y-62487143D01*
X186013012Y-62601429D01*
X186013012Y-62715714D01*
X185955869Y-62887143D01*
X185270155Y-63572857D01*
X186013012Y-63572857D01*
X186755869Y-62372857D02*
X186870154Y-62372857D01*
X186984440Y-62430000D01*
X187041583Y-62487143D01*
X187098726Y-62601429D01*
X187155869Y-62830000D01*
X187155869Y-63115714D01*
X187098726Y-63344286D01*
X187041583Y-63458571D01*
X186984440Y-63515714D01*
X186870154Y-63572857D01*
X186755869Y-63572857D01*
X186641583Y-63515714D01*
X186584440Y-63458571D01*
X186527297Y-63344286D01*
X186470154Y-63115714D01*
X186470154Y-62830000D01*
X186527297Y-62601429D01*
X186584440Y-62487143D01*
X186641583Y-62430000D01*
X186755869Y-62372857D01*
X187841583Y-62887143D02*
X187727297Y-62830000D01*
X187670154Y-62772857D01*
X187613011Y-62658571D01*
X187613011Y-62601429D01*
X187670154Y-62487143D01*
X187727297Y-62430000D01*
X187841583Y-62372857D01*
X188070154Y-62372857D01*
X188184440Y-62430000D01*
X188241583Y-62487143D01*
X188298726Y-62601429D01*
X188298726Y-62658571D01*
X188241583Y-62772857D01*
X188184440Y-62830000D01*
X188070154Y-62887143D01*
X187841583Y-62887143D01*
X187727297Y-62944286D01*
X187670154Y-63001429D01*
X187613011Y-63115714D01*
X187613011Y-63344286D01*
X187670154Y-63458571D01*
X187727297Y-63515714D01*
X187841583Y-63572857D01*
X188070154Y-63572857D01*
X188184440Y-63515714D01*
X188241583Y-63458571D01*
X188298726Y-63344286D01*
X188298726Y-63115714D01*
X188241583Y-63001429D01*
X188184440Y-62944286D01*
X188070154Y-62887143D01*
X164505077Y-62372857D02*
X164505077Y-63344286D01*
X164562220Y-63458571D01*
X164619363Y-63515714D01*
X164733649Y-63572857D01*
X164962220Y-63572857D01*
X165076506Y-63515714D01*
X165133649Y-63458571D01*
X165190792Y-63344286D01*
X165190792Y-62372857D01*
X165705077Y-62487143D02*
X165762220Y-62430000D01*
X165876506Y-62372857D01*
X166162220Y-62372857D01*
X166276506Y-62430000D01*
X166333649Y-62487143D01*
X166390792Y-62601429D01*
X166390792Y-62715714D01*
X166333649Y-62887143D01*
X165647935Y-63572857D01*
X166390792Y-63572857D01*
X167133649Y-62372857D02*
X167247934Y-62372857D01*
X167362220Y-62430000D01*
X167419363Y-62487143D01*
X167476506Y-62601429D01*
X167533649Y-62830000D01*
X167533649Y-63115714D01*
X167476506Y-63344286D01*
X167419363Y-63458571D01*
X167362220Y-63515714D01*
X167247934Y-63572857D01*
X167133649Y-63572857D01*
X167019363Y-63515714D01*
X166962220Y-63458571D01*
X166905077Y-63344286D01*
X166847934Y-63115714D01*
X166847934Y-62830000D01*
X166905077Y-62601429D01*
X166962220Y-62487143D01*
X167019363Y-62430000D01*
X167133649Y-62372857D01*
X168105077Y-63572857D02*
X168333649Y-63572857D01*
X168447934Y-63515714D01*
X168505077Y-63458571D01*
X168619363Y-63287143D01*
X168676506Y-63058571D01*
X168676506Y-62601429D01*
X168619363Y-62487143D01*
X168562220Y-62430000D01*
X168447934Y-62372857D01*
X168219363Y-62372857D01*
X168105077Y-62430000D01*
X168047934Y-62487143D01*
X167990791Y-62601429D01*
X167990791Y-62887143D01*
X168047934Y-63001429D01*
X168105077Y-63058571D01*
X168219363Y-63115714D01*
X168447934Y-63115714D01*
X168562220Y-63058571D01*
X168619363Y-63001429D01*
X168676506Y-62887143D01*
X189032852Y-62372857D02*
X189032852Y-63344286D01*
X189089995Y-63458571D01*
X189147138Y-63515714D01*
X189261424Y-63572857D01*
X189489995Y-63572857D01*
X189604281Y-63515714D01*
X189661424Y-63458571D01*
X189718567Y-63344286D01*
X189718567Y-62372857D01*
X190232852Y-62487143D02*
X190289995Y-62430000D01*
X190404281Y-62372857D01*
X190689995Y-62372857D01*
X190804281Y-62430000D01*
X190861424Y-62487143D01*
X190918567Y-62601429D01*
X190918567Y-62715714D01*
X190861424Y-62887143D01*
X190175710Y-63572857D01*
X190918567Y-63572857D01*
X192061424Y-63572857D02*
X191375709Y-63572857D01*
X191718567Y-63572857D02*
X191718567Y-62372857D01*
X191604281Y-62544286D01*
X191489995Y-62658571D01*
X191375709Y-62715714D01*
X192804281Y-62372857D02*
X192918566Y-62372857D01*
X193032852Y-62430000D01*
X193089995Y-62487143D01*
X193147138Y-62601429D01*
X193204281Y-62830000D01*
X193204281Y-63115714D01*
X193147138Y-63344286D01*
X193089995Y-63458571D01*
X193032852Y-63515714D01*
X192918566Y-63572857D01*
X192804281Y-63572857D01*
X192689995Y-63515714D01*
X192632852Y-63458571D01*
X192575709Y-63344286D01*
X192518566Y-63115714D01*
X192518566Y-62830000D01*
X192575709Y-62601429D01*
X192632852Y-62487143D01*
X192689995Y-62430000D01*
X192804281Y-62372857D01*
X188602953Y-64805143D02*
X188555334Y-64852762D01*
X188412477Y-64900381D01*
X188317239Y-64900381D01*
X188174381Y-64852762D01*
X188079143Y-64757524D01*
X188031524Y-64662286D01*
X187983905Y-64471810D01*
X187983905Y-64328952D01*
X188031524Y-64138476D01*
X188079143Y-64043238D01*
X188174381Y-63948000D01*
X188317239Y-63900381D01*
X188412477Y-63900381D01*
X188555334Y-63948000D01*
X188602953Y-63995619D01*
X188983905Y-63995619D02*
X189031524Y-63948000D01*
X189126762Y-63900381D01*
X189364858Y-63900381D01*
X189460096Y-63948000D01*
X189507715Y-63995619D01*
X189555334Y-64090857D01*
X189555334Y-64186095D01*
X189507715Y-64328952D01*
X188936286Y-64900381D01*
X189555334Y-64900381D01*
X190174381Y-63900381D02*
X190269620Y-63900381D01*
X190364858Y-63948000D01*
X190412477Y-63995619D01*
X190460096Y-64090857D01*
X190507715Y-64281333D01*
X190507715Y-64519429D01*
X190460096Y-64709905D01*
X190412477Y-64805143D01*
X190364858Y-64852762D01*
X190269620Y-64900381D01*
X190174381Y-64900381D01*
X190079143Y-64852762D01*
X190031524Y-64805143D01*
X189983905Y-64709905D01*
X189936286Y-64519429D01*
X189936286Y-64281333D01*
X189983905Y-64090857D01*
X190031524Y-63995619D01*
X190079143Y-63948000D01*
X190174381Y-63900381D01*
X191460096Y-64900381D02*
X190888667Y-64900381D01*
X191174381Y-64900381D02*
X191174381Y-63900381D01*
X191079143Y-64043238D01*
X190983905Y-64138476D01*
X190888667Y-64186095D01*
X153714143Y-71350047D02*
X153761762Y-71397666D01*
X153809381Y-71540523D01*
X153809381Y-71635761D01*
X153761762Y-71778619D01*
X153666524Y-71873857D01*
X153571286Y-71921476D01*
X153380810Y-71969095D01*
X153237952Y-71969095D01*
X153047476Y-71921476D01*
X152952238Y-71873857D01*
X152857000Y-71778619D01*
X152809381Y-71635761D01*
X152809381Y-71540523D01*
X152857000Y-71397666D01*
X152904619Y-71350047D01*
X152904619Y-70969095D02*
X152857000Y-70921476D01*
X152809381Y-70826238D01*
X152809381Y-70588142D01*
X152857000Y-70492904D01*
X152904619Y-70445285D01*
X152999857Y-70397666D01*
X153095095Y-70397666D01*
X153237952Y-70445285D01*
X153809381Y-71016714D01*
X153809381Y-70397666D01*
X152809381Y-69778619D02*
X152809381Y-69683380D01*
X152857000Y-69588142D01*
X152904619Y-69540523D01*
X152999857Y-69492904D01*
X153190333Y-69445285D01*
X153428429Y-69445285D01*
X153618905Y-69492904D01*
X153714143Y-69540523D01*
X153761762Y-69588142D01*
X153809381Y-69683380D01*
X153809381Y-69778619D01*
X153761762Y-69873857D01*
X153714143Y-69921476D01*
X153618905Y-69969095D01*
X153428429Y-70016714D01*
X153190333Y-70016714D01*
X152999857Y-69969095D01*
X152904619Y-69921476D01*
X152857000Y-69873857D01*
X152809381Y-69778619D01*
X152904619Y-69064333D02*
X152857000Y-69016714D01*
X152809381Y-68921476D01*
X152809381Y-68683380D01*
X152857000Y-68588142D01*
X152904619Y-68540523D01*
X152999857Y-68492904D01*
X153095095Y-68492904D01*
X153237952Y-68540523D01*
X153809381Y-69111952D01*
X153809381Y-68492904D01*
X173907143Y-65143047D02*
X173954762Y-65190666D01*
X174002381Y-65333523D01*
X174002381Y-65428761D01*
X173954762Y-65571619D01*
X173859524Y-65666857D01*
X173764286Y-65714476D01*
X173573810Y-65762095D01*
X173430952Y-65762095D01*
X173240476Y-65714476D01*
X173145238Y-65666857D01*
X173050000Y-65571619D01*
X173002381Y-65428761D01*
X173002381Y-65333523D01*
X173050000Y-65190666D01*
X173097619Y-65143047D01*
X173097619Y-64762095D02*
X173050000Y-64714476D01*
X173002381Y-64619238D01*
X173002381Y-64381142D01*
X173050000Y-64285904D01*
X173097619Y-64238285D01*
X173192857Y-64190666D01*
X173288095Y-64190666D01*
X173430952Y-64238285D01*
X174002381Y-64809714D01*
X174002381Y-64190666D01*
X173002381Y-63571619D02*
X173002381Y-63476380D01*
X173050000Y-63381142D01*
X173097619Y-63333523D01*
X173192857Y-63285904D01*
X173383333Y-63238285D01*
X173621429Y-63238285D01*
X173811905Y-63285904D01*
X173907143Y-63333523D01*
X173954762Y-63381142D01*
X174002381Y-63476380D01*
X174002381Y-63571619D01*
X173954762Y-63666857D01*
X173907143Y-63714476D01*
X173811905Y-63762095D01*
X173621429Y-63809714D01*
X173383333Y-63809714D01*
X173192857Y-63762095D01*
X173097619Y-63714476D01*
X173050000Y-63666857D01*
X173002381Y-63571619D01*
X173002381Y-62904952D02*
X173002381Y-62285904D01*
X173383333Y-62619238D01*
X173383333Y-62476380D01*
X173430952Y-62381142D01*
X173478571Y-62333523D01*
X173573810Y-62285904D01*
X173811905Y-62285904D01*
X173907143Y-62333523D01*
X173954762Y-62381142D01*
X174002381Y-62476380D01*
X174002381Y-62762095D01*
X173954762Y-62857333D01*
X173907143Y-62904952D01*
M02*
