G04 #@! TF.FileFunction,Copper,L1,Top,Signal*
%FSLAX46Y46*%
G04 Gerber Fmt 4.6, Leading zero omitted, Abs format (unit mm)*
G04 Created by KiCad (PCBNEW 4.0.2-stable) date Thursday, February 16, 2017 'PMt' 10:10:23 PM*
%MOMM*%
G01*
G04 APERTURE LIST*
%ADD10C,0.100000*%
%ADD11R,1.700000X0.900000*%
%ADD12R,1.000000X1.250000*%
%ADD13O,1.501140X2.499360*%
%ADD14C,2.000000*%
%ADD15R,1.250000X1.500000*%
%ADD16R,1.198880X1.198880*%
%ADD17R,1.000000X1.000000*%
%ADD18R,2.032000X2.032000*%
%ADD19O,2.032000X2.032000*%
%ADD20R,2.500000X2.500000*%
%ADD21R,2.032000X1.727200*%
%ADD22O,2.032000X1.727200*%
%ADD23R,1.300000X0.700000*%
%ADD24R,0.700000X1.300000*%
%ADD25R,1.200000X0.600000*%
%ADD26R,0.600000X1.200000*%
%ADD27R,0.650000X1.060000*%
%ADD28R,1.727200X2.032000*%
%ADD29O,1.727200X2.032000*%
%ADD30R,3.200000X1.000000*%
%ADD31R,1.000000X3.200000*%
%ADD32R,0.800000X0.500000*%
%ADD33R,0.800000X0.300000*%
%ADD34R,0.500000X1.000000*%
%ADD35R,0.500000X1.480000*%
%ADD36R,1.250000X1.000000*%
%ADD37C,1.016000*%
%ADD38C,0.400000*%
%ADD39C,0.793750*%
%ADD40C,0.152400*%
%ADD41C,0.700000*%
%ADD42C,1.300000*%
%ADD43C,0.304800*%
%ADD44C,0.254000*%
G04 APERTURE END LIST*
D10*
D11*
X179324000Y-86360000D03*
X179324000Y-83460000D03*
D12*
X161600000Y-66150000D03*
X159600000Y-66150000D03*
D13*
X151257000Y-77724000D03*
X153797000Y-77724000D03*
X148717000Y-77724000D03*
D11*
X153200000Y-65500000D03*
X153200000Y-62600000D03*
D14*
X146000000Y-101000000D03*
X192305000Y-101000000D03*
D12*
X185000000Y-75000000D03*
X183000000Y-75000000D03*
X150300000Y-100400000D03*
X148300000Y-100400000D03*
X160250000Y-74000000D03*
X158250000Y-74000000D03*
X161600000Y-68250000D03*
X159600000Y-68250000D03*
X160250000Y-71900000D03*
X158250000Y-71900000D03*
D15*
X182600000Y-97450000D03*
X182600000Y-99950000D03*
X179600000Y-104900000D03*
X179600000Y-102400000D03*
D16*
X158716980Y-86614000D03*
X160815020Y-86614000D03*
D17*
X164800000Y-85200000D03*
X164800000Y-82400000D03*
X162800000Y-82400000D03*
X162800000Y-85200000D03*
D18*
X192100000Y-92100000D03*
D19*
X189560000Y-92100000D03*
D20*
X185600000Y-96800000D03*
X185600000Y-100300000D03*
D21*
X180000000Y-65430000D03*
D22*
X180000000Y-67970000D03*
X180000000Y-70510000D03*
X180000000Y-73050000D03*
D18*
X184600000Y-85000000D03*
D19*
X187140000Y-85000000D03*
D23*
X153050000Y-86700000D03*
X153050000Y-84800000D03*
D24*
X158300000Y-76200000D03*
X160200000Y-76200000D03*
X158816000Y-83439000D03*
X160716000Y-83439000D03*
X146200000Y-66600000D03*
X148100000Y-66600000D03*
X146200000Y-64600000D03*
X148100000Y-64600000D03*
D23*
X166800000Y-84750000D03*
X166800000Y-82850000D03*
D24*
X182350000Y-94400000D03*
X180450000Y-94400000D03*
D25*
X163750000Y-69800000D03*
X163750000Y-70600000D03*
X163750000Y-71400000D03*
X163750000Y-72200000D03*
X163750000Y-73000000D03*
X163750000Y-73800000D03*
X163750000Y-74600000D03*
X163750000Y-75400000D03*
D26*
X165200000Y-76850000D03*
X166000000Y-76850000D03*
X166800000Y-76850000D03*
X167600000Y-76850000D03*
X168400000Y-76850000D03*
X169200000Y-76850000D03*
X170000000Y-76850000D03*
X170800000Y-76850000D03*
D25*
X172250000Y-75400000D03*
X172250000Y-74600000D03*
X172250000Y-73800000D03*
X172250000Y-73000000D03*
X172250000Y-72200000D03*
X172250000Y-71400000D03*
X172250000Y-70600000D03*
X172250000Y-69800000D03*
D26*
X170800000Y-68350000D03*
X170000000Y-68350000D03*
X169200000Y-68350000D03*
X168400000Y-68350000D03*
X167600000Y-68350000D03*
X166800000Y-68350000D03*
X166000000Y-68350000D03*
X165200000Y-68350000D03*
D27*
X183550000Y-102600000D03*
X182600000Y-102600000D03*
X181650000Y-102600000D03*
X181650000Y-104800000D03*
X183550000Y-104800000D03*
X182600000Y-104800000D03*
D28*
X163500000Y-93000000D03*
D29*
X160960000Y-93000000D03*
X158420000Y-93000000D03*
D12*
X175000000Y-74600000D03*
X177000000Y-74600000D03*
X175000000Y-76800000D03*
X177000000Y-76800000D03*
D30*
X180600000Y-81200000D03*
X187400000Y-81200000D03*
X187400000Y-77200000D03*
X180600000Y-77200000D03*
D31*
X167400000Y-104000000D03*
X167400000Y-97200000D03*
X163400000Y-97200000D03*
X163400000Y-104000000D03*
X150000000Y-96800000D03*
X150000000Y-90000000D03*
X146000000Y-90000000D03*
X146000000Y-96800000D03*
D32*
X146090000Y-61130000D03*
D33*
X146090000Y-60230000D03*
X147790000Y-60230000D03*
D32*
X146090000Y-59330000D03*
X147790000Y-59330000D03*
X147790000Y-61130000D03*
D34*
X146940000Y-61130000D03*
D35*
X146940000Y-59640000D03*
D32*
X170617775Y-61130000D03*
D33*
X170617775Y-60230000D03*
X172317775Y-60230000D03*
D32*
X170617775Y-59330000D03*
X172317775Y-59330000D03*
X172317775Y-61130000D03*
D34*
X171467775Y-61130000D03*
D35*
X171467775Y-59640000D03*
D32*
X150995555Y-61130000D03*
D33*
X150995555Y-60230000D03*
X152695555Y-60230000D03*
D32*
X150995555Y-59330000D03*
X152695555Y-59330000D03*
X152695555Y-61130000D03*
D34*
X151845555Y-61130000D03*
D35*
X151845555Y-59640000D03*
D32*
X175523330Y-61130000D03*
D33*
X175523330Y-60230000D03*
X177223330Y-60230000D03*
D32*
X175523330Y-59330000D03*
X177223330Y-59330000D03*
X177223330Y-61130000D03*
D34*
X176373330Y-61130000D03*
D35*
X176373330Y-59640000D03*
D32*
X155901110Y-61130000D03*
D33*
X155901110Y-60230000D03*
X157601110Y-60230000D03*
D32*
X155901110Y-59330000D03*
X157601110Y-59330000D03*
X157601110Y-61130000D03*
D34*
X156751110Y-61130000D03*
D35*
X156751110Y-59640000D03*
D32*
X180428885Y-61130000D03*
D33*
X180428885Y-60230000D03*
X182128885Y-60230000D03*
D32*
X180428885Y-59330000D03*
X182128885Y-59330000D03*
X182128885Y-61130000D03*
D34*
X181278885Y-61130000D03*
D35*
X181278885Y-59640000D03*
D32*
X160806665Y-61130000D03*
D33*
X160806665Y-60230000D03*
X162506665Y-60230000D03*
D32*
X160806665Y-59330000D03*
X162506665Y-59330000D03*
X162506665Y-61130000D03*
D34*
X161656665Y-61130000D03*
D35*
X161656665Y-59640000D03*
D32*
X185334440Y-61130000D03*
D33*
X185334440Y-60230000D03*
X187034440Y-60230000D03*
D32*
X185334440Y-59330000D03*
X187034440Y-59330000D03*
X187034440Y-61130000D03*
D34*
X186184440Y-61130000D03*
D35*
X186184440Y-59640000D03*
D32*
X165712220Y-61130000D03*
D33*
X165712220Y-60230000D03*
X167412220Y-60230000D03*
D32*
X165712220Y-59330000D03*
X167412220Y-59330000D03*
X167412220Y-61130000D03*
D34*
X166562220Y-61130000D03*
D35*
X166562220Y-59640000D03*
D32*
X190239995Y-61130000D03*
D33*
X190239995Y-60230000D03*
X191939995Y-60230000D03*
D32*
X190239995Y-59330000D03*
X191939995Y-59330000D03*
X191939995Y-61130000D03*
D34*
X191089995Y-61130000D03*
D35*
X191089995Y-59640000D03*
D12*
X188722000Y-66548000D03*
X190722000Y-66548000D03*
D36*
X151257000Y-69231000D03*
X151257000Y-71231000D03*
X171450000Y-63024000D03*
X171450000Y-65024000D03*
D14*
X173990000Y-64516000D03*
X148336000Y-103886000D03*
X179068000Y-99568000D03*
X192024000Y-69088000D03*
X169926000Y-84582000D03*
X146000000Y-103886000D03*
X156718000Y-67310000D03*
X153416000Y-71900000D03*
X146050000Y-86360000D03*
D37*
X146000000Y-103886000D02*
X147000000Y-103886000D01*
X147000000Y-103886000D02*
X148336000Y-103886000D01*
X146000000Y-101000000D02*
X146000000Y-102414213D01*
X146000000Y-102414213D02*
X147000000Y-103414213D01*
X147000000Y-103414213D02*
X147000000Y-103886000D01*
X193167000Y-58293000D02*
X191008000Y-58293000D01*
X191008000Y-58293000D02*
X186182000Y-58293000D01*
D38*
X191089995Y-59640000D02*
X191089995Y-58374995D01*
X191089995Y-58374995D02*
X191008000Y-58293000D01*
D37*
X186182000Y-58293000D02*
X183642000Y-58293000D01*
D38*
X186184440Y-58295440D02*
X186182000Y-58293000D01*
X186184440Y-59640000D02*
X186184440Y-58295440D01*
D37*
X183642000Y-58293000D02*
X181229000Y-58293000D01*
X181229000Y-58293000D02*
X176403000Y-58293000D01*
D38*
X181278885Y-59640000D02*
X181278885Y-58342885D01*
X181278885Y-58342885D02*
X181229000Y-58293000D01*
X176373330Y-58322670D02*
X176403000Y-58293000D01*
D37*
X176403000Y-58293000D02*
X171450000Y-58293000D01*
D38*
X176373330Y-59640000D02*
X176373330Y-58322670D01*
D37*
X171450000Y-58293000D02*
X168529000Y-58293000D01*
D38*
X171467775Y-59640000D02*
X171467775Y-58310775D01*
X171467775Y-58310775D02*
X171450000Y-58293000D01*
D37*
X168529000Y-58293000D02*
X166497000Y-58293000D01*
X166497000Y-58293000D02*
X161671000Y-58293000D01*
D38*
X166562220Y-59640000D02*
X166562220Y-58358220D01*
X166562220Y-58358220D02*
X166497000Y-58293000D01*
D37*
X161671000Y-58293000D02*
X156718000Y-58293000D01*
D38*
X161656665Y-59640000D02*
X161656665Y-58307335D01*
X161656665Y-58307335D02*
X161671000Y-58293000D01*
D37*
X156718000Y-58293000D02*
X151765000Y-58293000D01*
D38*
X156751110Y-59640000D02*
X156751110Y-58326110D01*
X156751110Y-58326110D02*
X156718000Y-58293000D01*
D37*
X151765000Y-58293000D02*
X146812000Y-58293000D01*
D38*
X151845555Y-59640000D02*
X151845555Y-58373555D01*
X151845555Y-58373555D02*
X151765000Y-58293000D01*
X146940000Y-59640000D02*
X146940000Y-58421000D01*
X146940000Y-58421000D02*
X146812000Y-58293000D01*
D37*
X193347996Y-58473996D02*
X193167000Y-58293000D01*
X193347996Y-58473996D02*
X193293599Y-58419599D01*
X192746000Y-63794000D02*
X193347996Y-63192004D01*
X193347996Y-63192004D02*
X193347996Y-58473996D01*
X192746000Y-66040000D02*
X192746000Y-63794000D01*
D38*
X171450000Y-65024000D02*
X173482000Y-65024000D01*
X173482000Y-65024000D02*
X173990000Y-64516000D01*
D37*
X146000000Y-101000000D02*
X146000000Y-101550000D01*
X146000000Y-101550000D02*
X148336000Y-103886000D01*
D38*
X165200000Y-105664000D02*
X165200000Y-95800000D01*
X147125787Y-106426000D02*
X164438000Y-106426000D01*
X164438000Y-106426000D02*
X165200000Y-105664000D01*
X146000000Y-103886000D02*
X146000000Y-105300213D01*
X146000000Y-105300213D02*
X147125787Y-106426000D01*
D37*
X179068000Y-99568000D02*
X178500000Y-99000000D01*
X179600000Y-102400000D02*
X179600000Y-100584000D01*
X179068000Y-99568000D02*
X179068000Y-100052000D01*
X179068000Y-100052000D02*
X179600000Y-100584000D01*
X182084000Y-89916000D02*
X182500000Y-89500000D01*
X182500000Y-89500000D02*
X185778000Y-89500000D01*
X185778000Y-89500000D02*
X187140000Y-88138000D01*
X187140000Y-88138000D02*
X187140000Y-85000000D01*
X192238000Y-66548000D02*
X192746000Y-66040000D01*
X192746000Y-66040000D02*
X192746000Y-68366000D01*
X192746000Y-68366000D02*
X192024000Y-69088000D01*
X190722000Y-66548000D02*
X192238000Y-66548000D01*
D38*
X169800000Y-84400000D02*
X169800000Y-84456000D01*
X169800000Y-84456000D02*
X169926000Y-84582000D01*
D37*
X146000000Y-101000000D02*
X146000000Y-103886000D01*
D39*
X159600000Y-67310000D02*
X159600000Y-68100000D01*
X159600000Y-66000000D02*
X159600000Y-67310000D01*
D38*
X159600000Y-67310000D02*
X156718000Y-67310000D01*
X150112680Y-80518000D02*
X147828000Y-80518000D01*
X146812000Y-75551000D02*
X146812000Y-79502000D01*
X146812000Y-79502000D02*
X147828000Y-80518000D01*
X151257000Y-71231000D02*
X151132000Y-71231000D01*
X151132000Y-71231000D02*
X146812000Y-75551000D01*
X153416000Y-71900000D02*
X151926000Y-71900000D01*
X151926000Y-71900000D02*
X151257000Y-71231000D01*
D37*
X153416000Y-71900000D02*
X158250000Y-71900000D01*
D38*
X153050000Y-84800000D02*
X147610000Y-84800000D01*
X146050000Y-86360000D02*
X147610000Y-84800000D01*
D37*
X146000000Y-90000000D02*
X146000000Y-86410000D01*
X146000000Y-86410000D02*
X146050000Y-86360000D01*
X178500000Y-93500000D02*
X182084000Y-89916000D01*
D38*
X179324000Y-86360000D02*
X179324000Y-87210000D01*
X179324000Y-87210000D02*
X182030000Y-89916000D01*
X182030000Y-89916000D02*
X182084000Y-89916000D01*
X179324000Y-83460000D02*
X179324000Y-82476000D01*
X179324000Y-82476000D02*
X180600000Y-81200000D01*
D40*
X186184440Y-59640000D02*
X186184440Y-59150000D01*
X186184440Y-59150000D02*
X186182000Y-59147560D01*
X156751110Y-59640000D02*
X156751110Y-59150000D01*
D38*
X160815020Y-86614000D02*
X166476320Y-86614000D01*
X166476320Y-86614000D02*
X166800000Y-86290320D01*
X151257000Y-77724000D02*
X151257000Y-79373680D01*
X151257000Y-79373680D02*
X150112680Y-80518000D01*
X165200000Y-68350000D02*
X165200000Y-67840678D01*
X165200000Y-67840678D02*
X162459322Y-65100000D01*
X162459322Y-65100000D02*
X159625000Y-65100000D01*
X159625000Y-65100000D02*
X159600000Y-65125000D01*
X159600000Y-65125000D02*
X159600000Y-66150000D01*
X159600000Y-66150000D02*
X159600000Y-66025000D01*
X167909680Y-86290320D02*
X169800000Y-84400000D01*
X169800000Y-84400000D02*
X170800000Y-83400000D01*
X164200000Y-94800000D02*
X160067600Y-94800000D01*
X160067600Y-94800000D02*
X158420000Y-93152400D01*
X158420000Y-93152400D02*
X158420000Y-93000000D01*
X165200000Y-95800000D02*
X164200000Y-94800000D01*
X177000000Y-76800000D02*
X177000000Y-76925000D01*
X177000000Y-76925000D02*
X180600000Y-80525000D01*
X180000000Y-73050000D02*
X181450000Y-73050000D01*
X181450000Y-73050000D02*
X183000000Y-74600000D01*
D37*
X178500000Y-99000000D02*
X178500000Y-93500000D01*
D38*
X177000000Y-74600000D02*
X179713600Y-74600000D01*
X179713600Y-74600000D02*
X180000000Y-74313600D01*
X180000000Y-74313600D02*
X180000000Y-73050000D01*
D39*
X159500000Y-68200000D02*
X159600000Y-68100000D01*
D38*
X166800000Y-86290320D02*
X167909680Y-86290320D01*
X166800000Y-84750000D02*
X166800000Y-86290320D01*
X170800000Y-83400000D02*
X170800000Y-76850000D01*
X158250000Y-71900000D02*
X158250000Y-74000000D01*
X159600000Y-65875000D02*
X159600000Y-66000000D01*
X177000000Y-74600000D02*
X177000000Y-76800000D01*
X165200000Y-68350000D02*
X166000000Y-68350000D01*
X159600000Y-67675000D02*
X159600000Y-68100000D01*
D41*
X146000000Y-96800000D02*
X146000000Y-90000000D01*
D38*
X148300000Y-100400000D02*
X146600000Y-100400000D01*
X146600000Y-100400000D02*
X146000000Y-101000000D01*
X180600000Y-80525000D02*
X180600000Y-81200000D01*
D37*
X192305000Y-101000000D02*
X192305000Y-92305000D01*
X192305000Y-92305000D02*
X192100000Y-92100000D01*
D38*
X185000000Y-67200000D02*
X183230000Y-65430000D01*
X183230000Y-65430000D02*
X180000000Y-65430000D01*
X185000000Y-74600000D02*
X185000000Y-67200000D01*
X185000000Y-74600000D02*
X185000000Y-74800000D01*
X185000000Y-74800000D02*
X187400000Y-77200000D01*
X168400000Y-72200000D02*
X175170000Y-65430000D01*
X175170000Y-65430000D02*
X180000000Y-65430000D01*
X163750000Y-72200000D02*
X168400000Y-72200000D01*
X150000000Y-90000000D02*
X150000000Y-96800000D01*
X153035000Y-75946000D02*
X157296000Y-75946000D01*
X157296000Y-75946000D02*
X157550000Y-76200000D01*
X157550000Y-76200000D02*
X158300000Y-76200000D01*
X152527000Y-76454000D02*
X153035000Y-75946000D01*
X152527000Y-79502000D02*
X152527000Y-76454000D01*
X154020180Y-80995180D02*
X152527000Y-79502000D01*
X154300000Y-80995180D02*
X154020180Y-80995180D01*
X158300000Y-76200000D02*
X159050000Y-76200000D01*
X159050000Y-76200000D02*
X159400000Y-76550000D01*
X159400000Y-76550000D02*
X159400000Y-77350000D01*
X160552410Y-77447590D02*
X161400000Y-76600000D01*
X159400000Y-77350000D02*
X159497590Y-77447590D01*
X159497590Y-77447590D02*
X160552410Y-77447590D01*
X161400000Y-76600000D02*
X161400000Y-74450000D01*
X162050000Y-73800000D02*
X163750000Y-73800000D01*
X161400000Y-74450000D02*
X162050000Y-73800000D01*
X150000000Y-90000000D02*
X150000000Y-87250000D01*
X150000000Y-87250000D02*
X151450000Y-85800000D01*
X154300000Y-85350000D02*
X154300000Y-80995180D01*
X151450000Y-85800000D02*
X153850000Y-85800000D01*
X153850000Y-85800000D02*
X154300000Y-85350000D01*
X150000000Y-90000000D02*
X150000000Y-88900000D01*
X158300000Y-76200000D02*
X158300000Y-76500000D01*
X150000000Y-100100000D02*
X150300000Y-100400000D01*
X150000000Y-96800000D02*
X150000000Y-100100000D01*
X182626000Y-85000000D02*
X181864000Y-85000000D01*
X184600000Y-85000000D02*
X182626000Y-85000000D01*
X182626000Y-85000000D02*
X181368000Y-85000000D01*
D42*
X179900000Y-84950000D02*
X176568000Y-84950000D01*
X181864000Y-84504000D02*
X182626000Y-83742000D01*
X182626000Y-83742000D02*
X184000000Y-82368000D01*
X179814000Y-84950000D02*
X181350000Y-84950000D01*
D37*
X181368000Y-85000000D02*
X182626000Y-83742000D01*
D42*
X184000000Y-82368000D02*
X184000000Y-81000000D01*
X184000000Y-81000000D02*
X186000000Y-79000000D01*
X188442441Y-72618441D02*
X188442441Y-65786000D01*
X186000000Y-79000000D02*
X189600000Y-79000000D01*
X189600000Y-79000000D02*
X191000000Y-77600000D01*
X191000000Y-75176000D02*
X188442441Y-72618441D01*
X191000000Y-77600000D02*
X191000000Y-75176000D01*
D37*
X167400000Y-104000000D02*
X176390000Y-104000000D01*
X176390000Y-104000000D02*
X176500000Y-104110000D01*
D42*
X177290000Y-104900000D02*
X176500000Y-104110000D01*
X176500000Y-104110000D02*
X176500000Y-85000000D01*
X177290000Y-104900000D02*
X179600000Y-104900000D01*
X188442441Y-65786000D02*
X188442441Y-62625559D01*
D38*
X188722000Y-66548000D02*
X188722000Y-66065559D01*
X188722000Y-66065559D02*
X188442441Y-65786000D01*
D37*
X188442441Y-62625559D02*
X188468000Y-62600000D01*
D39*
X188468000Y-62600000D02*
X191000000Y-62600000D01*
X186200000Y-62600000D02*
X188468000Y-62600000D01*
X151257000Y-69231000D02*
X152675750Y-69231000D01*
X152675750Y-69231000D02*
X153200000Y-68706750D01*
X153200000Y-68706750D02*
X153200000Y-68400000D01*
D38*
X160200000Y-76200000D02*
X160200000Y-75057000D01*
X148717000Y-77724000D02*
X148717000Y-76074320D01*
X160200000Y-75057000D02*
X160200000Y-74050000D01*
X148717000Y-76074320D02*
X149734320Y-75057000D01*
X149734320Y-75057000D02*
X160200000Y-75057000D01*
X153200000Y-62550000D02*
X151450000Y-62550000D01*
D42*
X176500000Y-85000000D02*
X176500000Y-81500000D01*
D39*
X154600000Y-69800000D02*
X160200000Y-69800000D01*
X160200000Y-69800000D02*
X161318750Y-69800000D01*
X160250000Y-71900000D02*
X160250000Y-69850000D01*
X160250000Y-69850000D02*
X160200000Y-69800000D01*
X153200000Y-65450000D02*
X153200000Y-68400000D01*
X153200000Y-68400000D02*
X154600000Y-69800000D01*
X161600000Y-69518750D02*
X161600000Y-68100000D01*
X161318750Y-69800000D02*
X161600000Y-69518750D01*
D37*
X175000000Y-74600000D02*
X175000000Y-76800000D01*
D42*
X176500000Y-81500000D02*
X175000000Y-80000000D01*
X175000000Y-80000000D02*
X175000000Y-76800000D01*
D38*
X160200000Y-74050000D02*
X160250000Y-74000000D01*
X161800000Y-67200000D02*
X161600000Y-67000000D01*
X161800000Y-67200000D02*
X162600000Y-67200000D01*
X161600000Y-66000000D02*
X161600000Y-67000000D01*
X161600000Y-67000000D02*
X161600000Y-68100000D01*
X175000000Y-74600000D02*
X175000000Y-75400000D01*
X175000000Y-75400000D02*
X175000000Y-76800000D01*
X172250000Y-75400000D02*
X175000000Y-75400000D01*
X162600000Y-67200000D02*
X163750000Y-68350000D01*
X163750000Y-68350000D02*
X163750000Y-69800000D01*
X161600000Y-68100000D02*
X161600000Y-67800000D01*
X160250000Y-73000000D02*
X160250000Y-74000000D01*
X160250000Y-71900000D02*
X160250000Y-73000000D01*
X160250000Y-73000000D02*
X163750000Y-73000000D01*
D39*
X151800000Y-62600000D02*
X151400000Y-62600000D01*
X151400000Y-62600000D02*
X147000000Y-62600000D01*
D38*
X151450000Y-62550000D02*
X151400000Y-62600000D01*
D39*
X156600000Y-62600000D02*
X151800000Y-62600000D01*
D38*
X151845555Y-62554445D02*
X151800000Y-62600000D01*
D39*
X156600000Y-62600000D02*
X161800000Y-62600000D01*
D38*
X156751110Y-62448890D02*
X156600000Y-62600000D01*
X161656665Y-62456665D02*
X161800000Y-62600000D01*
X146940000Y-62540000D02*
X146940000Y-61130000D01*
X147000000Y-62600000D02*
X146940000Y-62540000D01*
D39*
X171400000Y-62600000D02*
X176400000Y-62600000D01*
X166400000Y-62600000D02*
X171400000Y-62600000D01*
D38*
X171467775Y-61130000D02*
X171467775Y-62532225D01*
X171467775Y-62532225D02*
X171400000Y-62600000D01*
D39*
X176400000Y-62600000D02*
X181400000Y-62600000D01*
D38*
X176373330Y-62573330D02*
X176400000Y-62600000D01*
X181278885Y-62478885D02*
X181400000Y-62600000D01*
D39*
X161800000Y-62600000D02*
X166400000Y-62600000D01*
D38*
X166562220Y-62437780D02*
X166400000Y-62600000D01*
D39*
X181400000Y-62600000D02*
X186200000Y-62600000D01*
D38*
X151845555Y-61130000D02*
X151845555Y-62554445D01*
X176373330Y-61130000D02*
X176373330Y-62573330D01*
X156751110Y-61130000D02*
X156751110Y-62448890D01*
X181278885Y-61130000D02*
X181278885Y-62478885D01*
X161656665Y-61130000D02*
X161656665Y-62456665D01*
X186184440Y-61130000D02*
X186184440Y-62584440D01*
X186184440Y-62584440D02*
X186200000Y-62600000D01*
X166562220Y-61130000D02*
X166562220Y-62437780D01*
X191089995Y-61130000D02*
X191089995Y-62510005D01*
X191089995Y-62510005D02*
X191000000Y-62600000D01*
D37*
X189560000Y-92100000D02*
X189560000Y-92840000D01*
X189560000Y-92840000D02*
X185600000Y-96800000D01*
D38*
X158816000Y-83439000D02*
X158816000Y-86514980D01*
X158816000Y-86514980D02*
X158716980Y-86614000D01*
X162800000Y-85200000D02*
X164800000Y-85200000D01*
X164800000Y-82400000D02*
X164800000Y-81500000D01*
X164800000Y-81500000D02*
X168400000Y-77900000D01*
X168400000Y-77900000D02*
X168400000Y-76850000D01*
X166600000Y-83800000D02*
X163300000Y-83800000D01*
X163300000Y-83800000D02*
X162800000Y-83300000D01*
X166800000Y-82850000D02*
X166800000Y-83600000D01*
X166800000Y-83600000D02*
X166600000Y-83800000D01*
X162800000Y-82400000D02*
X162800000Y-83300000D01*
X172250000Y-69800000D02*
X178170000Y-69800000D01*
X178584000Y-69233600D02*
X179847600Y-67970000D01*
X178170000Y-69800000D02*
X178584000Y-69386000D01*
X178584000Y-69386000D02*
X178584000Y-69233600D01*
X179847600Y-67970000D02*
X180000000Y-67970000D01*
X172250000Y-70600000D02*
X179910000Y-70600000D01*
X179910000Y-70600000D02*
X180000000Y-70510000D01*
X163576000Y-81280000D02*
X166800000Y-78056000D01*
X166800000Y-78056000D02*
X166800000Y-76850000D01*
X161825000Y-81280000D02*
X163576000Y-81280000D01*
X160716000Y-83439000D02*
X160716000Y-82389000D01*
X160716000Y-82389000D02*
X161825000Y-81280000D01*
X146200000Y-66600000D02*
X146200000Y-66300000D01*
X146200000Y-66300000D02*
X144250000Y-64350000D01*
X144250000Y-64350000D02*
X144250000Y-60370000D01*
X144250000Y-60370000D02*
X145290000Y-59330000D01*
X145290000Y-59330000D02*
X146090000Y-59330000D01*
X151400000Y-64400000D02*
X149200000Y-66600000D01*
X149200000Y-66600000D02*
X148100000Y-66600000D01*
X165184322Y-64400000D02*
X151400000Y-64400000D01*
X168400000Y-68350000D02*
X168400000Y-67615678D01*
X168400000Y-67615678D02*
X165184322Y-64400000D01*
X146090000Y-60230000D02*
X145550000Y-60230000D01*
X145050000Y-62400000D02*
X145050000Y-60730000D01*
X145050000Y-60730000D02*
X145550000Y-60230000D01*
X146200000Y-64600000D02*
X146200000Y-63550000D01*
X146200000Y-63550000D02*
X145050000Y-62400000D01*
X148100000Y-64600000D02*
X148850000Y-64600000D01*
X166250000Y-63600000D02*
X170000000Y-67350000D01*
X148850000Y-64600000D02*
X149850000Y-63600000D01*
X149850000Y-63600000D02*
X166250000Y-63600000D01*
X170000000Y-67350000D02*
X170000000Y-68350000D01*
D43*
X183250000Y-98650000D02*
X182450000Y-98650000D01*
X182450000Y-98650000D02*
X181550000Y-98650000D01*
X180450000Y-97550000D02*
X181550000Y-98650000D01*
X181550000Y-98650000D02*
X182450000Y-98650000D01*
X187050000Y-98600000D02*
X183300000Y-98600000D01*
X183300000Y-98600000D02*
X183250000Y-98650000D01*
X181650000Y-104800000D02*
X181650000Y-103965200D01*
X181650000Y-103965200D02*
X181915200Y-103700000D01*
X186351358Y-102748642D02*
X187300000Y-101800000D01*
X181915200Y-103700000D02*
X184850000Y-103700000D01*
X184850000Y-103700000D02*
X185801358Y-102748642D01*
X187300000Y-101800000D02*
X187300000Y-98850000D01*
X185801358Y-102748642D02*
X186351358Y-102748642D01*
X187300000Y-98850000D02*
X187050000Y-98600000D01*
X180450000Y-97550000D02*
X180450000Y-94400000D01*
D38*
X153797000Y-77724000D02*
X154947570Y-77724000D01*
X154947570Y-77724000D02*
X155709570Y-78486000D01*
X155709570Y-78486000D02*
X160401000Y-78486000D01*
X160401000Y-78486000D02*
X162306000Y-76581000D01*
X162306000Y-76581000D02*
X162306000Y-74676000D01*
X162306000Y-74676000D02*
X162382000Y-74600000D01*
X162382000Y-74600000D02*
X163750000Y-74600000D01*
X150995555Y-60230000D02*
X148800002Y-60230000D01*
X148800002Y-60230000D02*
X148750001Y-60179999D01*
X148750001Y-60179999D02*
X147790000Y-60179999D01*
X147790000Y-59330000D02*
X150995555Y-59330000D01*
X170617775Y-60230000D02*
X169817775Y-60230000D01*
X169817775Y-60230000D02*
X169767774Y-60179999D01*
X169767774Y-60179999D02*
X167412220Y-60179999D01*
X175523330Y-60230000D02*
X173327777Y-60230000D01*
X173327777Y-60230000D02*
X173277776Y-60179999D01*
X173277776Y-60179999D02*
X172317775Y-60179999D01*
X167412220Y-59330000D02*
X170617775Y-59330000D01*
X172317775Y-59330000D02*
X175523330Y-59330000D01*
X155901110Y-60230000D02*
X153705557Y-60230000D01*
X153705557Y-60230000D02*
X153655556Y-60179999D01*
X153655556Y-60179999D02*
X152695555Y-60179999D01*
X152695555Y-59330000D02*
X155901110Y-59330000D01*
X178183331Y-60179999D02*
X177223330Y-60179999D01*
X180428885Y-60230000D02*
X178233332Y-60230000D01*
X178233332Y-60230000D02*
X178183331Y-60179999D01*
X177223330Y-59330000D02*
X180428885Y-59330000D01*
X160806665Y-60230000D02*
X158611112Y-60230000D01*
X158611112Y-60230000D02*
X158561111Y-60179999D01*
X158561111Y-60179999D02*
X157601110Y-60179999D01*
X157601110Y-59330000D02*
X160806665Y-59330000D01*
X185334440Y-60230000D02*
X183138887Y-60230000D01*
X183138887Y-60230000D02*
X183088886Y-60179999D01*
X183088886Y-60179999D02*
X182128885Y-60179999D01*
X182128885Y-59330000D02*
X185334440Y-59330000D01*
X165712220Y-60230000D02*
X163516667Y-60230000D01*
X163516667Y-60230000D02*
X163466666Y-60179999D01*
X163466666Y-60179999D02*
X162506665Y-60179999D01*
X162506665Y-59330000D02*
X165712220Y-59330000D01*
X190239995Y-60230000D02*
X188044442Y-60230000D01*
X188044442Y-60230000D02*
X187994441Y-60179999D01*
X187994441Y-60179999D02*
X187034440Y-60179999D01*
X187034440Y-59330000D02*
X190239995Y-59330000D01*
X156000000Y-100500000D02*
X153050000Y-97550000D01*
X153050000Y-86700000D02*
X153050000Y-97550000D01*
X163400000Y-100500000D02*
X156000000Y-100500000D01*
X163400000Y-97200000D02*
X163400000Y-100500000D01*
X163400000Y-100500000D02*
X163400000Y-104000000D01*
X155000000Y-87950000D02*
X155000000Y-81550000D01*
X156750000Y-79800000D02*
X155000000Y-81550000D01*
X160050000Y-79800000D02*
X156750000Y-79800000D01*
X158370184Y-91320184D02*
X155000000Y-87950000D01*
X160696184Y-91320184D02*
X158370184Y-91320184D01*
X160960000Y-93000000D02*
X160960000Y-91584000D01*
X160960000Y-91584000D02*
X160696184Y-91320184D01*
X163750000Y-76100000D02*
X163750000Y-75400000D01*
X160050000Y-79800000D02*
X163750000Y-76100000D01*
X163500000Y-93000000D02*
X163500000Y-92847600D01*
X163500000Y-92847600D02*
X160352400Y-89700000D01*
X162550000Y-80500000D02*
X165200000Y-77850000D01*
X160352400Y-89700000D02*
X158250000Y-89700000D01*
X157400000Y-80500000D02*
X162550000Y-80500000D01*
X158250000Y-89700000D02*
X156100000Y-87550000D01*
X156100000Y-87550000D02*
X156100000Y-81800000D01*
X156100000Y-81800000D02*
X157400000Y-80500000D01*
X165200000Y-76850000D02*
X165200000Y-77850000D01*
D44*
G36*
X183387941Y-95259765D02*
X183420022Y-95298653D01*
X183449972Y-95316731D01*
X184149972Y-95616731D01*
X184200000Y-95627000D01*
X189373000Y-95627000D01*
X189373000Y-103947394D01*
X187747394Y-105573000D01*
X183327000Y-105573000D01*
X183327000Y-104327000D01*
X185100000Y-104327000D01*
X185149410Y-104316994D01*
X185175594Y-104302052D01*
X187875594Y-102302052D01*
X187909342Y-102264601D01*
X187926956Y-102196659D01*
X187826956Y-98396659D01*
X187815654Y-98347529D01*
X187786128Y-98306667D01*
X187756796Y-98286408D01*
X187156796Y-97986408D01*
X187097510Y-97973024D01*
X182127000Y-98070485D01*
X182127000Y-93827000D01*
X182623800Y-93827000D01*
X183387941Y-95259765D01*
X183387941Y-95259765D01*
G37*
X183387941Y-95259765D02*
X183420022Y-95298653D01*
X183449972Y-95316731D01*
X184149972Y-95616731D01*
X184200000Y-95627000D01*
X189373000Y-95627000D01*
X189373000Y-103947394D01*
X187747394Y-105573000D01*
X183327000Y-105573000D01*
X183327000Y-104327000D01*
X185100000Y-104327000D01*
X185149410Y-104316994D01*
X185175594Y-104302052D01*
X187875594Y-102302052D01*
X187909342Y-102264601D01*
X187926956Y-102196659D01*
X187826956Y-98396659D01*
X187815654Y-98347529D01*
X187786128Y-98306667D01*
X187756796Y-98286408D01*
X187156796Y-97986408D01*
X187097510Y-97973024D01*
X182127000Y-98070485D01*
X182127000Y-93827000D01*
X182623800Y-93827000D01*
X183387941Y-95259765D01*
G36*
X183173000Y-100775541D02*
X182782083Y-101752833D01*
X182773374Y-101790260D01*
X182682394Y-102973000D01*
X182427000Y-102973000D01*
X182427000Y-101900000D01*
X182416994Y-101850590D01*
X182389803Y-101810197D01*
X182089803Y-101510197D01*
X182047789Y-101482334D01*
X182000000Y-101473000D01*
X181100000Y-101473000D01*
X181050590Y-101483006D01*
X181008965Y-101511447D01*
X180991098Y-101534659D01*
X180128093Y-102973000D01*
X179127000Y-102973000D01*
X179127000Y-101756706D01*
X181948595Y-99227000D01*
X183173000Y-99227000D01*
X183173000Y-100775541D01*
X183173000Y-100775541D01*
G37*
X183173000Y-100775541D02*
X182782083Y-101752833D01*
X182773374Y-101790260D01*
X182682394Y-102973000D01*
X182427000Y-102973000D01*
X182427000Y-101900000D01*
X182416994Y-101850590D01*
X182389803Y-101810197D01*
X182089803Y-101510197D01*
X182047789Y-101482334D01*
X182000000Y-101473000D01*
X181100000Y-101473000D01*
X181050590Y-101483006D01*
X181008965Y-101511447D01*
X180991098Y-101534659D01*
X180128093Y-102973000D01*
X179127000Y-102973000D01*
X179127000Y-101756706D01*
X181948595Y-99227000D01*
X183173000Y-99227000D01*
X183173000Y-100775541D01*
G36*
X186673000Y-101619119D02*
X183771826Y-102973000D01*
X183327000Y-102973000D01*
X183327000Y-101924051D01*
X184386556Y-99227000D01*
X186673000Y-99227000D01*
X186673000Y-101619119D01*
X186673000Y-101619119D01*
G37*
X186673000Y-101619119D02*
X183771826Y-102973000D01*
X183327000Y-102973000D01*
X183327000Y-101924051D01*
X184386556Y-99227000D01*
X186673000Y-99227000D01*
X186673000Y-101619119D01*
G36*
X180073000Y-105800000D02*
X180083006Y-105849410D01*
X180111447Y-105891035D01*
X180143204Y-105913592D01*
X180543204Y-106113592D01*
X180600000Y-106127000D01*
X182000000Y-106127000D01*
X182049410Y-106116994D01*
X182089803Y-106089803D01*
X182289803Y-105889803D01*
X182324534Y-105824907D01*
X182424534Y-105324907D01*
X182427000Y-105300000D01*
X182427000Y-104427000D01*
X182773000Y-104427000D01*
X182773000Y-106552282D01*
X182142372Y-107273000D01*
X180245335Y-107273000D01*
X179212999Y-106428362D01*
X179027000Y-105684366D01*
X179027000Y-104327000D01*
X180073000Y-104327000D01*
X180073000Y-105800000D01*
X180073000Y-105800000D01*
G37*
X180073000Y-105800000D02*
X180083006Y-105849410D01*
X180111447Y-105891035D01*
X180143204Y-105913592D01*
X180543204Y-106113592D01*
X180600000Y-106127000D01*
X182000000Y-106127000D01*
X182049410Y-106116994D01*
X182089803Y-106089803D01*
X182289803Y-105889803D01*
X182324534Y-105824907D01*
X182424534Y-105324907D01*
X182427000Y-105300000D01*
X182427000Y-104427000D01*
X182773000Y-104427000D01*
X182773000Y-106552282D01*
X182142372Y-107273000D01*
X180245335Y-107273000D01*
X179212999Y-106428362D01*
X179027000Y-105684366D01*
X179027000Y-104327000D01*
X180073000Y-104327000D01*
X180073000Y-105800000D01*
M02*
