G04 #@! TF.FileFunction,Copper,L2,Bot,Signal*
%FSLAX46Y46*%
G04 Gerber Fmt 4.6, Leading zero omitted, Abs format (unit mm)*
G04 Created by KiCad (PCBNEW 4.0.2-stable) date Thursday, February 16, 2017 'PMt' 10:10:23 PM*
%MOMM*%
G01*
G04 APERTURE LIST*
%ADD10C,0.100000*%
%ADD11O,1.501140X2.499360*%
%ADD12C,2.000000*%
%ADD13R,2.032000X2.032000*%
%ADD14O,2.032000X2.032000*%
%ADD15R,2.032000X1.727200*%
%ADD16O,2.032000X1.727200*%
%ADD17R,1.727200X2.032000*%
%ADD18O,1.727200X2.032000*%
G04 APERTURE END LIST*
D10*
D11*
X151257000Y-77724000D03*
X153797000Y-77724000D03*
X148717000Y-77724000D03*
D12*
X146000000Y-101000000D03*
X192305000Y-101000000D03*
D13*
X192100000Y-92100000D03*
D14*
X189560000Y-92100000D03*
D15*
X180000000Y-65430000D03*
D16*
X180000000Y-67970000D03*
X180000000Y-70510000D03*
X180000000Y-73050000D03*
D13*
X184600000Y-85000000D03*
D14*
X187140000Y-85000000D03*
D17*
X163500000Y-93000000D03*
D18*
X160960000Y-93000000D03*
X158420000Y-93000000D03*
D12*
X173990000Y-64516000D03*
X148336000Y-103886000D03*
X179068000Y-99568000D03*
X192024000Y-69088000D03*
X169926000Y-84582000D03*
X146000000Y-103886000D03*
X156718000Y-67310000D03*
X153416000Y-71900000D03*
X146050000Y-86360000D03*
D10*
G36*
X192900000Y-90013430D02*
X191084000Y-90013430D01*
X190694893Y-90086645D01*
X190460375Y-90237554D01*
X190391099Y-90191265D01*
X189600475Y-90034000D01*
X189519525Y-90034000D01*
X188728901Y-90191265D01*
X188058642Y-90639117D01*
X187610790Y-91309376D01*
X187453525Y-92100000D01*
X187610790Y-92890624D01*
X188058642Y-93560883D01*
X188728901Y-94008735D01*
X189519525Y-94166000D01*
X189600475Y-94166000D01*
X190391099Y-94008735D01*
X190461660Y-93961588D01*
X190667488Y-94102224D01*
X191084000Y-94186570D01*
X192900000Y-94186570D01*
X192900000Y-99027359D01*
X192714559Y-98950357D01*
X191899019Y-98949645D01*
X191145285Y-99261081D01*
X190568108Y-99837252D01*
X190255357Y-100590441D01*
X190254645Y-101405981D01*
X190566081Y-102159715D01*
X191142252Y-102736892D01*
X191895441Y-103049643D01*
X192710981Y-103050355D01*
X192900000Y-102972254D01*
X192900000Y-106900000D01*
X145100000Y-106900000D01*
X145100000Y-92807125D01*
X159046400Y-92807125D01*
X159046400Y-93192875D01*
X159192064Y-93925178D01*
X159606880Y-94545995D01*
X160227697Y-94960811D01*
X160960000Y-95106475D01*
X161692303Y-94960811D01*
X161928398Y-94803057D01*
X162219888Y-95002224D01*
X162636400Y-95086570D01*
X164363600Y-95086570D01*
X164752707Y-95013355D01*
X165110077Y-94783393D01*
X165349824Y-94432512D01*
X165434170Y-94016000D01*
X165434170Y-91984000D01*
X165360955Y-91594893D01*
X165130993Y-91237523D01*
X164780112Y-90997776D01*
X164363600Y-90913430D01*
X162636400Y-90913430D01*
X162247293Y-90986645D01*
X161924515Y-91194348D01*
X161692303Y-91039189D01*
X160960000Y-90893525D01*
X160227697Y-91039189D01*
X159606880Y-91454005D01*
X159192064Y-92074822D01*
X159046400Y-92807125D01*
X145100000Y-92807125D01*
X145100000Y-83984000D01*
X182513430Y-83984000D01*
X182513430Y-86016000D01*
X182586645Y-86405107D01*
X182816607Y-86762477D01*
X183167488Y-87002224D01*
X183584000Y-87086570D01*
X185616000Y-87086570D01*
X186005107Y-87013355D01*
X186362477Y-86783393D01*
X186602224Y-86432512D01*
X186686570Y-86016000D01*
X186686570Y-83984000D01*
X186613355Y-83594893D01*
X186383393Y-83237523D01*
X186032512Y-82997776D01*
X185616000Y-82913430D01*
X183584000Y-82913430D01*
X183194893Y-82986645D01*
X182837523Y-83216607D01*
X182597776Y-83567488D01*
X182513430Y-83984000D01*
X145100000Y-83984000D01*
X145100000Y-77179837D01*
X146916430Y-77179837D01*
X146916430Y-78268163D01*
X147053490Y-78957211D01*
X147443805Y-79541358D01*
X148027952Y-79931673D01*
X148717000Y-80068733D01*
X149406048Y-79931673D01*
X149990195Y-79541358D01*
X150380510Y-78957211D01*
X150517570Y-78268163D01*
X150517570Y-77179837D01*
X151996430Y-77179837D01*
X151996430Y-78268163D01*
X152133490Y-78957211D01*
X152523805Y-79541358D01*
X153107952Y-79931673D01*
X153797000Y-80068733D01*
X154486048Y-79931673D01*
X155070195Y-79541358D01*
X155460510Y-78957211D01*
X155597570Y-78268163D01*
X155597570Y-77179837D01*
X155460510Y-76490789D01*
X155070195Y-75906642D01*
X154486048Y-75516327D01*
X153797000Y-75379267D01*
X153107952Y-75516327D01*
X152523805Y-75906642D01*
X152133490Y-76490789D01*
X151996430Y-77179837D01*
X150517570Y-77179837D01*
X150380510Y-76490789D01*
X149990195Y-75906642D01*
X149406048Y-75516327D01*
X148717000Y-75379267D01*
X148027952Y-75516327D01*
X147443805Y-75906642D01*
X147053490Y-76490789D01*
X146916430Y-77179837D01*
X145100000Y-77179837D01*
X145100000Y-67970000D01*
X177893525Y-67970000D01*
X178039189Y-68702303D01*
X178398466Y-69240000D01*
X178039189Y-69777697D01*
X177893525Y-70510000D01*
X178039189Y-71242303D01*
X178454005Y-71863120D01*
X179074822Y-72277936D01*
X179807125Y-72423600D01*
X180192875Y-72423600D01*
X180925178Y-72277936D01*
X181545995Y-71863120D01*
X181960811Y-71242303D01*
X182106475Y-70510000D01*
X181960811Y-69777697D01*
X181601534Y-69240000D01*
X181960811Y-68702303D01*
X182106475Y-67970000D01*
X181960811Y-67237697D01*
X181803057Y-67001602D01*
X182002224Y-66710112D01*
X182086570Y-66293600D01*
X182086570Y-64566400D01*
X182013355Y-64177293D01*
X181783393Y-63819923D01*
X181432512Y-63580176D01*
X181016000Y-63495830D01*
X178984000Y-63495830D01*
X178594893Y-63569045D01*
X178237523Y-63799007D01*
X177997776Y-64149888D01*
X177913430Y-64566400D01*
X177913430Y-66293600D01*
X177986645Y-66682707D01*
X178194348Y-67005485D01*
X178039189Y-67237697D01*
X177893525Y-67970000D01*
X145100000Y-67970000D01*
X145100000Y-59100000D01*
X192900000Y-59100000D01*
X192900000Y-90013430D01*
X192900000Y-90013430D01*
G37*
X192900000Y-90013430D02*
X191084000Y-90013430D01*
X190694893Y-90086645D01*
X190460375Y-90237554D01*
X190391099Y-90191265D01*
X189600475Y-90034000D01*
X189519525Y-90034000D01*
X188728901Y-90191265D01*
X188058642Y-90639117D01*
X187610790Y-91309376D01*
X187453525Y-92100000D01*
X187610790Y-92890624D01*
X188058642Y-93560883D01*
X188728901Y-94008735D01*
X189519525Y-94166000D01*
X189600475Y-94166000D01*
X190391099Y-94008735D01*
X190461660Y-93961588D01*
X190667488Y-94102224D01*
X191084000Y-94186570D01*
X192900000Y-94186570D01*
X192900000Y-99027359D01*
X192714559Y-98950357D01*
X191899019Y-98949645D01*
X191145285Y-99261081D01*
X190568108Y-99837252D01*
X190255357Y-100590441D01*
X190254645Y-101405981D01*
X190566081Y-102159715D01*
X191142252Y-102736892D01*
X191895441Y-103049643D01*
X192710981Y-103050355D01*
X192900000Y-102972254D01*
X192900000Y-106900000D01*
X145100000Y-106900000D01*
X145100000Y-92807125D01*
X159046400Y-92807125D01*
X159046400Y-93192875D01*
X159192064Y-93925178D01*
X159606880Y-94545995D01*
X160227697Y-94960811D01*
X160960000Y-95106475D01*
X161692303Y-94960811D01*
X161928398Y-94803057D01*
X162219888Y-95002224D01*
X162636400Y-95086570D01*
X164363600Y-95086570D01*
X164752707Y-95013355D01*
X165110077Y-94783393D01*
X165349824Y-94432512D01*
X165434170Y-94016000D01*
X165434170Y-91984000D01*
X165360955Y-91594893D01*
X165130993Y-91237523D01*
X164780112Y-90997776D01*
X164363600Y-90913430D01*
X162636400Y-90913430D01*
X162247293Y-90986645D01*
X161924515Y-91194348D01*
X161692303Y-91039189D01*
X160960000Y-90893525D01*
X160227697Y-91039189D01*
X159606880Y-91454005D01*
X159192064Y-92074822D01*
X159046400Y-92807125D01*
X145100000Y-92807125D01*
X145100000Y-83984000D01*
X182513430Y-83984000D01*
X182513430Y-86016000D01*
X182586645Y-86405107D01*
X182816607Y-86762477D01*
X183167488Y-87002224D01*
X183584000Y-87086570D01*
X185616000Y-87086570D01*
X186005107Y-87013355D01*
X186362477Y-86783393D01*
X186602224Y-86432512D01*
X186686570Y-86016000D01*
X186686570Y-83984000D01*
X186613355Y-83594893D01*
X186383393Y-83237523D01*
X186032512Y-82997776D01*
X185616000Y-82913430D01*
X183584000Y-82913430D01*
X183194893Y-82986645D01*
X182837523Y-83216607D01*
X182597776Y-83567488D01*
X182513430Y-83984000D01*
X145100000Y-83984000D01*
X145100000Y-77179837D01*
X146916430Y-77179837D01*
X146916430Y-78268163D01*
X147053490Y-78957211D01*
X147443805Y-79541358D01*
X148027952Y-79931673D01*
X148717000Y-80068733D01*
X149406048Y-79931673D01*
X149990195Y-79541358D01*
X150380510Y-78957211D01*
X150517570Y-78268163D01*
X150517570Y-77179837D01*
X151996430Y-77179837D01*
X151996430Y-78268163D01*
X152133490Y-78957211D01*
X152523805Y-79541358D01*
X153107952Y-79931673D01*
X153797000Y-80068733D01*
X154486048Y-79931673D01*
X155070195Y-79541358D01*
X155460510Y-78957211D01*
X155597570Y-78268163D01*
X155597570Y-77179837D01*
X155460510Y-76490789D01*
X155070195Y-75906642D01*
X154486048Y-75516327D01*
X153797000Y-75379267D01*
X153107952Y-75516327D01*
X152523805Y-75906642D01*
X152133490Y-76490789D01*
X151996430Y-77179837D01*
X150517570Y-77179837D01*
X150380510Y-76490789D01*
X149990195Y-75906642D01*
X149406048Y-75516327D01*
X148717000Y-75379267D01*
X148027952Y-75516327D01*
X147443805Y-75906642D01*
X147053490Y-76490789D01*
X146916430Y-77179837D01*
X145100000Y-77179837D01*
X145100000Y-67970000D01*
X177893525Y-67970000D01*
X178039189Y-68702303D01*
X178398466Y-69240000D01*
X178039189Y-69777697D01*
X177893525Y-70510000D01*
X178039189Y-71242303D01*
X178454005Y-71863120D01*
X179074822Y-72277936D01*
X179807125Y-72423600D01*
X180192875Y-72423600D01*
X180925178Y-72277936D01*
X181545995Y-71863120D01*
X181960811Y-71242303D01*
X182106475Y-70510000D01*
X181960811Y-69777697D01*
X181601534Y-69240000D01*
X181960811Y-68702303D01*
X182106475Y-67970000D01*
X181960811Y-67237697D01*
X181803057Y-67001602D01*
X182002224Y-66710112D01*
X182086570Y-66293600D01*
X182086570Y-64566400D01*
X182013355Y-64177293D01*
X181783393Y-63819923D01*
X181432512Y-63580176D01*
X181016000Y-63495830D01*
X178984000Y-63495830D01*
X178594893Y-63569045D01*
X178237523Y-63799007D01*
X177997776Y-64149888D01*
X177913430Y-64566400D01*
X177913430Y-66293600D01*
X177986645Y-66682707D01*
X178194348Y-67005485D01*
X178039189Y-67237697D01*
X177893525Y-67970000D01*
X145100000Y-67970000D01*
X145100000Y-59100000D01*
X192900000Y-59100000D01*
X192900000Y-90013430D01*
M02*
