M48
;DRILL file {KiCad 4.0.2-stable} date Thursday, February 16, 2017 'PMt' 10:10:27 PM
;FORMAT={-:-/ absolute / inch / decimal}
FMAT,2
INCH,TZ
T1C0.039
T2C0.039
T3C0.040
T4C0.046
%
G90
G05
M72
T1
X5.748Y-4.09
X5.75Y-3.4
X5.84Y-4.09
X6.04Y-2.8307
X6.17Y-2.65
X6.69Y-3.33
X6.85Y-2.54
X7.0499Y-3.92
X7.56Y-2.72
T2
X5.855Y-3.06
X5.955Y-3.06
X6.055Y-3.06
T3
X6.237Y-3.6614
X6.337Y-3.6614
X6.437Y-3.6614
X7.0866Y-2.576
X7.0866Y-2.676
X7.0866Y-2.776
X7.0866Y-2.876
X7.2677Y-3.3465
X7.3677Y-3.3465
X7.463Y-3.626
X7.563Y-3.626
T4
X5.748Y-3.9764
X7.5711Y-3.9764
T0
M30
