%
M48
METRIC,000.000
T01C0.33
T02C0.99
T03C1.02
T04C1.17
T05C24.00
%
T01
X049800Y029199
X051400Y029199
X054999Y040899
X058700Y036299
X060750Y050099
X061499Y060800
X062401Y018300
X063000Y029400
X063201Y056200
X064400Y061800
X065200Y042600
X065700Y038801
X066201Y042301
X066399Y045300
X066599Y046700
X067300Y038900
X067900Y046400
X070800Y042799
X071100Y047000
X071400Y037099
X072299Y045600
X073000Y065001
X074798Y037399
X075598Y040200
X075901Y022900
X077001Y031000
X077399Y051099
X080800Y013299
X046199Y070800
X044599Y070800
X041000Y059100
X037299Y063700
X035249Y049900
X034500Y039199
X033598Y081699
X032999Y070599
X032798Y043799
X031599Y038199
X030799Y057399
X030299Y061198
X029799Y057698
X029600Y054699
X029400Y053299
X028699Y061099
X028099Y053599
X025199Y057200
X024899Y052999
X024599Y062900
X023700Y054399
X022999Y034998
X021201Y062600
X020401Y059799
X020098Y077099
X018998Y068999
X018600Y048900
X015199Y086700
T02
X064778Y027940
X064998Y030469
X065220Y032999
X031221Y072059
X031000Y069530
X030779Y067000
T03
X053399Y067899
X055929Y067678
X063998Y024800
X066538Y024800
X067999Y035999
X068220Y033469
X068443Y030939
X068664Y028409
X069078Y024800
X079779Y069989
X080000Y067459
X042600Y032100
X040070Y032320
X032000Y075199
X029461Y075199
X028000Y064000
X027779Y066530
X027556Y069060
X027335Y071590
X026921Y075199
X016219Y030010
X015999Y032540
T04
X054999Y016187
X059035Y062316
X075004Y061813
X079040Y015684
X041000Y083812
X036964Y037683
X020995Y038186
X016959Y084315
T05
X067001Y077000
X028998Y022999
M30