%MOIN*%
%OFA0B0*%
%FSLAX46Y46*%
%IPPOS*%
%LPD*%
%ADD10C,0.0039370078740157488*%
%ADD11C,0.011811023622047244*%
%ADD12C,0.005905511811023622*%
%ADD23C,0.0039370078740157488*%
%ADD24C,0.011811023622047244*%
%ADD25C,0.005905511811023622*%
G01*
D10*
D11*
X0002486614Y0000876265D02*
X0002483614Y0000881889D01*
X0002483614Y0000890326D01*
X0002486614Y0000898762D01*
X0002492613Y0000904386D01*
X0002498612Y0000907199D01*
X0002510611Y0000910011D01*
X0002519610Y0000910011D01*
X0002531608Y0000907199D01*
X0002537607Y0000904386D01*
X0002543607Y0000898762D01*
X0002546606Y0000890326D01*
X0002546606Y0000884701D01*
X0002543607Y0000876265D01*
X0002540607Y0000873453D01*
X0002519610Y0000873453D01*
X0002519610Y0000884701D01*
X0002546606Y0000848143D02*
X0002483614Y0000848143D01*
X0002546606Y0000814398D01*
X0002483614Y0000814398D01*
X0002546606Y0000786276D02*
X0002483614Y0000786276D01*
X0002483614Y0000772215D01*
X0002486614Y0000763779D01*
X0002492613Y0000758155D01*
X0002498612Y0000755343D01*
X0002510611Y0000752530D01*
X0002519610Y0000752530D01*
X0002531608Y0000755343D01*
X0002537607Y0000758155D01*
X0002543607Y0000763779D01*
X0002546606Y0000772215D01*
X0002546606Y0000786276D01*
X0002583614Y0000915635D02*
X0002583614Y0000881889D01*
X0002646606Y0000898762D02*
X0002583614Y0000898762D01*
X0002583614Y0000867828D02*
X0002646606Y0000828458D01*
X0002583614Y0000828458D02*
X0002646606Y0000867828D01*
X0002746606Y0000873453D02*
X0002716610Y0000893138D01*
X0002746606Y0000907199D02*
X0002683614Y0000907199D01*
X0002683614Y0000884701D01*
X0002686614Y0000879077D01*
X0002689613Y0000876265D01*
X0002695613Y0000873453D01*
X0002704611Y0000873453D01*
X0002710611Y0000876265D01*
X0002713610Y0000879077D01*
X0002716610Y0000884701D01*
X0002716610Y0000907199D01*
X0002683614Y0000853768D02*
X0002746606Y0000814398D01*
X0002683614Y0000814398D02*
X0002746606Y0000853768D01*
X0002229655Y0002478334D02*
X0002234802Y0002537165D01*
X0002212390Y0002539125D01*
X0002206542Y0002536814D01*
X0002203496Y0002534258D01*
X0002200204Y0002528900D01*
X0002199469Y0002520496D01*
X0002201780Y0002514647D01*
X0002204337Y0002511601D01*
X0002209694Y0002508309D01*
X0002232106Y0002506349D01*
X0002181574Y0002541821D02*
X0002162420Y0002484216D01*
X0002154891Y0002527218D01*
X0002140009Y0002486177D01*
X0002131148Y0002546233D01*
X0002069972Y0002492305D02*
X0002092033Y0002518603D01*
X0002103590Y0002489363D02*
X0002108737Y0002548194D01*
X0002086325Y0002550155D01*
X0002080477Y0002547843D01*
X0002077431Y0002545287D01*
X0002074139Y0002539929D01*
X0002073404Y0002531525D01*
X0002075715Y0002525677D01*
X0002078271Y0002522630D01*
X0002083629Y0002519339D01*
X0002106041Y0002517378D01*
X0003000459Y0002647649D02*
X0003004368Y0002652574D01*
X0003012014Y0002656140D01*
X0003020848Y0002657157D01*
X0003028323Y0002654436D01*
X0003033248Y0002650527D01*
X0003040551Y0002641521D01*
X0003044116Y0002633875D01*
X0003046322Y0002622492D01*
X0003046150Y0002616206D01*
X0003043429Y0002608732D01*
X0003036972Y0002602618D01*
X0003031874Y0002600241D01*
X0003023040Y0002599224D01*
X0003019303Y0002600584D01*
X0003010984Y0002618425D01*
X0003021178Y0002623179D01*
X0002998742Y0002584791D02*
X0002973784Y0002638313D01*
X0002968158Y0002570529D01*
X0002943200Y0002624051D01*
X0002942671Y0002558644D02*
X0002917713Y0002612167D01*
X0002904970Y0002606224D01*
X0002898512Y0002600110D01*
X0002895792Y0002592636D01*
X0002895620Y0002586350D01*
X0002897825Y0002574967D01*
X0002901391Y0002567321D01*
X0002908693Y0002558315D01*
X0002913619Y0002554406D01*
X0002921093Y0002551685D01*
X0002929928Y0002552702D01*
X0002942671Y0002558644D01*
X0003062141Y0002575258D02*
X0003029008Y0002559808D01*
X0003056357Y0002547738D01*
X0003048711Y0002544173D01*
X0003044802Y0002539247D01*
X0003043442Y0002535510D01*
X0003043270Y0002529224D01*
X0003049212Y0002516481D01*
X0003054138Y0002512572D01*
X0003057875Y0002511212D01*
X0003064161Y0002511040D01*
X0003079453Y0002518171D01*
X0003083362Y0002523096D01*
X0003084722Y0002526833D01*
X0003019487Y0002533648D02*
X0003023382Y0002492024D01*
X0002994000Y0002521764D01*
X0002970389Y0002532473D02*
X0002937256Y0002517023D01*
X0002964605Y0002504953D01*
X0002956959Y0002501388D01*
X0002953050Y0002496462D01*
X0002951690Y0002492725D01*
X0002951518Y0002486439D01*
X0002957460Y0002473696D01*
X0002962386Y0002469787D01*
X0002966123Y0002468427D01*
X0002972409Y0002468255D01*
X0002987701Y0002475386D01*
X0002991610Y0002480312D01*
X0002992970Y0002484049D01*
D12*
X0003395252Y0000539725D02*
X0003216823Y0002579179D01*
X0003216823Y0002579179D02*
X0002667739Y0002531140D01*
X0002667739Y0002531140D02*
X0002846168Y0000491686D01*
X0002846168Y0000491686D02*
X0003395252Y0000539725D01*
X0002046889Y0002739338D02*
X0002107680Y0002734019D01*
X0002256149Y0002709964D02*
X0002156529Y0002718680D01*
X0002156529Y0002718680D02*
X0002147814Y0002619060D01*
X0002097043Y0002612436D02*
X0002036252Y0002617755D01*
X0002036252Y0002617755D02*
X0002046889Y0002739338D01*
X0002147814Y0002619060D02*
X0002247433Y0002610345D01*
X0002247433Y0002610345D02*
X0002256149Y0002709964D01*
X0002731332Y0001371870D02*
X0002757479Y0001073012D01*
X0002631713Y0001363155D02*
X0002657860Y0001064296D01*
X0002611055Y0001472795D02*
X0002616373Y0001412004D01*
X0002757479Y0001073012D02*
X0002657860Y0001064296D01*
X0002631713Y0001363155D02*
X0002731332Y0001371870D01*
X0002737956Y0001422641D02*
X0002732638Y0001483432D01*
X0002732638Y0001483432D02*
X0002611055Y0001472795D01*
X0003195058Y0002710073D02*
X0003186342Y0002809692D01*
X0003215716Y0002600432D02*
X0003210397Y0002661224D01*
X0003195058Y0002710073D02*
X0003095438Y0002701357D01*
X0003088814Y0002650586D02*
X0003094133Y0002589795D01*
X0003094133Y0002589795D02*
X0003215716Y0002600432D01*
X0003095438Y0002701357D02*
X0003086723Y0002800976D01*
X0003086723Y0002800976D02*
X0003186342Y0002809692D01*
X0002669685Y0000926377D02*
X0002469685Y0000926377D01*
X0002469685Y0000926377D02*
X0002469685Y0001026377D01*
X0002469685Y0001026377D02*
X0002669685Y0001026377D01*
X0002780708Y0001037401D02*
X0002719685Y0001037401D01*
X0002669685Y0001026377D02*
X0002669685Y0000926377D01*
X0002719685Y0000915354D02*
X0002780708Y0000915354D01*
X0002780708Y0000915354D02*
X0002780708Y0001037401D01*
X0002058604Y0002579179D02*
X0001880175Y0000539725D01*
X0001880175Y0000539725D02*
X0002429259Y0000491686D01*
X0002429259Y0000491686D02*
X0002607688Y0002531140D01*
X0002607688Y0002531140D02*
X0002058604Y0002579179D01*
X0002884268Y0000540186D02*
X0002881911Y0000545626D01*
X0002879880Y0000547330D01*
X0002875981Y0000548871D01*
X0002870378Y0000548380D01*
X0002866806Y0000546186D01*
X0002865102Y0000544155D01*
X0002863561Y0000540256D01*
X0002864868Y0000525315D01*
X0002904089Y0000528747D01*
X0002902945Y0000541820D01*
X0002900750Y0000545392D01*
X0002898719Y0000547096D01*
X0002894821Y0000548637D01*
X0002891085Y0000548310D01*
X0002887514Y0000546116D01*
X0002885809Y0000544085D01*
X0002884268Y0000540186D01*
X0002885412Y0000527113D01*
X0002900984Y0000564232D02*
X0002898860Y0000588511D01*
X0002885063Y0000574130D01*
X0002884572Y0000579733D01*
X0002882378Y0000583305D01*
X0002880347Y0000585009D01*
X0002876448Y0000586550D01*
X0002867110Y0000585733D01*
X0002863538Y0000583539D01*
X0002861834Y0000581508D01*
X0002860293Y0000577609D01*
X0002861274Y0000566403D01*
X0002863468Y0000562831D01*
X0002865499Y0000561127D01*
X0002896736Y0000612790D02*
X0002896409Y0000616525D01*
X0002894215Y0000620097D01*
X0002892183Y0000621801D01*
X0002888285Y0000623342D01*
X0002880651Y0000624556D01*
X0002871313Y0000623739D01*
X0002864006Y0000621218D01*
X0002860434Y0000619024D01*
X0002858729Y0000616993D01*
X0002857189Y0000613094D01*
X0002857515Y0000609359D01*
X0002859710Y0000605787D01*
X0002861741Y0000604082D01*
X0002865640Y0000602542D01*
X0002873273Y0000601328D01*
X0002882612Y0000602145D01*
X0002889919Y0000604666D01*
X0002893491Y0000606860D01*
X0002895195Y0000608891D01*
X0002896736Y0000612790D01*
X0002853104Y0000659785D02*
X0002855065Y0000637373D01*
X0002854084Y0000648579D02*
X0002893304Y0000652010D01*
X0002888028Y0000647785D01*
X0002884620Y0000643723D01*
X0002883079Y0000639824D01*
D11*
X0003051902Y0002412126D02*
X0003046674Y0002471890D01*
X0003244134Y0000623611D02*
X0003184369Y0000618383D01*
X0003216866Y0000591115D02*
X0003211637Y0000650879D01*
D12*
X0002736851Y0001498725D02*
X0002733420Y0001537945D01*
X0002718479Y0001536638D01*
X0002714907Y0001534443D01*
X0002713203Y0001532412D01*
X0002711662Y0001528514D01*
X0002712152Y0001522911D01*
X0002714347Y0001519339D01*
X0002716378Y0001517635D01*
X0002720276Y0001516094D01*
X0002735217Y0001517401D01*
X0002677087Y0001493496D02*
X0002699499Y0001495457D01*
X0002688293Y0001494476D02*
X0002684862Y0001533697D01*
X0002689087Y0001528420D01*
X0002693149Y0001525012D01*
X0002697048Y0001523471D01*
X0002649377Y0001530592D02*
X0002645641Y0001530265D01*
X0002642070Y0001528071D01*
X0002640365Y0001526040D01*
X0002638825Y0001522141D01*
X0002637610Y0001514507D01*
X0002638427Y0001505169D01*
X0002640949Y0001497862D01*
X0002643143Y0001494290D01*
X0002645174Y0001492586D01*
X0002649073Y0001491045D01*
X0002652808Y0001491372D01*
X0002656380Y0001493566D01*
X0002658084Y0001495597D01*
X0002659625Y0001499496D01*
X0002660839Y0001507130D01*
X0002660022Y0001516468D01*
X0002657501Y0001523775D01*
X0002655306Y0001527347D01*
X0002653275Y0001529051D01*
X0002649377Y0001530592D01*
X0002602382Y0001486960D02*
X0002624794Y0001488921D01*
X0002613588Y0001487940D02*
X0002610156Y0001527161D01*
X0002614382Y0001521885D01*
X0002618444Y0001518476D01*
X0002622343Y0001516935D01*
X0002694113Y0001041244D02*
X0002694113Y0001080614D01*
X0002679115Y0001080614D01*
X0002675365Y0001078740D01*
X0002673490Y0001076865D01*
X0002671616Y0001073115D01*
X0002671616Y0001067491D01*
X0002673490Y0001063742D01*
X0002675365Y0001061867D01*
X0002679115Y0001059992D01*
X0002694113Y0001059992D01*
X0002634120Y0001041244D02*
X0002656617Y0001041244D01*
X0002645369Y0001041244D02*
X0002645369Y0001080614D01*
X0002649118Y0001074990D01*
X0002652868Y0001071241D01*
X0002656617Y0001069366D01*
X0002609748Y0001080614D02*
X0002605999Y0001080614D01*
X0002602249Y0001078740D01*
X0002600374Y0001076865D01*
X0002598500Y0001073115D01*
X0002596625Y0001065616D01*
X0002596625Y0001056242D01*
X0002598500Y0001048743D01*
X0002600374Y0001044994D01*
X0002602249Y0001043119D01*
X0002605999Y0001041244D01*
X0002609748Y0001041244D01*
X0002613498Y0001043119D01*
X0002615373Y0001044994D01*
X0002617247Y0001048743D01*
X0002619122Y0001056242D01*
X0002619122Y0001065616D01*
X0002617247Y0001073115D01*
X0002615373Y0001076865D01*
X0002613498Y0001078740D01*
X0002609748Y0001080614D01*
X0002581627Y0001076865D02*
X0002579752Y0001078740D01*
X0002576002Y0001080614D01*
X0002566629Y0001080614D01*
X0002562879Y0001078740D01*
X0002561004Y0001076865D01*
X0002559130Y0001073115D01*
X0002559130Y0001069366D01*
X0002561004Y0001063742D01*
X0002583502Y0001041244D01*
X0002559130Y0001041244D01*
X0002561744Y0002489993D02*
X0002563122Y0002484227D01*
X0002564826Y0002482196D01*
X0002568398Y0002480002D01*
X0002574001Y0002479511D01*
X0002577900Y0002481052D01*
X0002579931Y0002482757D01*
X0002582125Y0002486328D01*
X0002583432Y0002501269D01*
X0002544212Y0002504701D01*
X0002543068Y0002491627D01*
X0002544609Y0002487729D01*
X0002546313Y0002485698D01*
X0002549885Y0002483503D01*
X0002553620Y0002483176D01*
X0002557519Y0002484717D01*
X0002559550Y0002486422D01*
X0002561744Y0002489993D01*
X0002562888Y0002503067D01*
X0002541107Y0002469216D02*
X0002538983Y0002444937D01*
X0002555068Y0002456703D01*
X0002554578Y0002451100D01*
X0002556119Y0002447201D01*
X0002557823Y0002445170D01*
X0002561395Y0002442976D01*
X0002570733Y0002442159D01*
X0002574632Y0002443700D01*
X0002576663Y0002445404D01*
X0002578857Y0002448976D01*
X0002579837Y0002460182D01*
X0002578297Y0002464080D01*
X0002576592Y0002466111D01*
X0002536859Y0002420657D02*
X0002536532Y0002416922D01*
X0002538073Y0002413023D01*
X0002539777Y0002410992D01*
X0002543349Y0002408798D01*
X0002550656Y0002406277D01*
X0002559994Y0002405460D01*
X0002567628Y0002406674D01*
X0002571527Y0002408215D01*
X0002573558Y0002409919D01*
X0002575752Y0002413491D01*
X0002576079Y0002417226D01*
X0002574538Y0002421125D01*
X0002572834Y0002423156D01*
X0002569262Y0002425350D01*
X0002561955Y0002427871D01*
X0002552617Y0002428688D01*
X0002544983Y0002427474D01*
X0002541085Y0002425933D01*
X0002539053Y0002424229D01*
X0002536859Y0002420657D01*
X0002538143Y0002392316D02*
X0002536112Y0002390612D01*
X0002533918Y0002387040D01*
X0002533101Y0002377702D01*
X0002534642Y0002373803D01*
X0002536346Y0002371772D01*
X0002539918Y0002369578D01*
X0002543653Y0002369251D01*
X0002549419Y0002370628D01*
X0002573792Y0002391079D01*
X0002571668Y0002366800D01*
D11*
X0002071598Y0000675602D02*
X0002066370Y0000615838D01*
X0002251644Y0002453891D02*
X0002191879Y0002459120D01*
X0002219147Y0002426623D02*
X0002224376Y0002486387D01*
G04 next file*
G04 #@! TF.FileFunction,Legend,Bot*
G04 Gerber Fmt 4.6, Leading zero omitted, Abs format (unit mm)*
G04 Created by KiCad (PCBNEW 4.0.2-stable) date Friday, February 24, 2017 'AMt' 12:00:47 AM*
G01*
G04 APERTURE LIST*
G04 APERTURE END LIST*
D23*
D24*
X0001292913Y0003060742D02*
X0001295912Y0003055118D01*
X0001295912Y0003046681D01*
X0001292913Y0003038245D01*
X0001286914Y0003032620D01*
X0001280914Y0003029808D01*
X0001268916Y0003026996D01*
X0001259917Y0003026996D01*
X0001247919Y0003029808D01*
X0001241919Y0003032620D01*
X0001235920Y0003038245D01*
X0001232920Y0003046681D01*
X0001232920Y0003052305D01*
X0001235920Y0003060742D01*
X0001238920Y0003063554D01*
X0001259917Y0003063554D01*
X0001259917Y0003052305D01*
X0001232920Y0003088863D02*
X0001295912Y0003088863D01*
X0001232920Y0003122609D01*
X0001295912Y0003122609D01*
X0001232920Y0003150731D02*
X0001295912Y0003150731D01*
X0001295912Y0003164791D01*
X0001292913Y0003173228D01*
X0001286914Y0003178852D01*
X0001280914Y0003181664D01*
X0001268916Y0003184476D01*
X0001259917Y0003184476D01*
X0001247919Y0003181664D01*
X0001241919Y0003178852D01*
X0001235920Y0003173228D01*
X0001232920Y0003164791D01*
X0001232920Y0003150731D01*
X0001195912Y0003021372D02*
X0001195912Y0003055118D01*
X0001132920Y0003038245D02*
X0001195912Y0003038245D01*
X0001195912Y0003069178D02*
X0001132920Y0003108548D01*
X0001195912Y0003108548D02*
X0001132920Y0003069178D01*
X0001032920Y0003063554D02*
X0001062917Y0003043869D01*
X0001032920Y0003029808D02*
X0001095912Y0003029808D01*
X0001095912Y0003052305D01*
X0001092913Y0003057930D01*
X0001089913Y0003060742D01*
X0001083914Y0003063554D01*
X0001074915Y0003063554D01*
X0001068916Y0003060742D01*
X0001065916Y0003057930D01*
X0001062917Y0003052305D01*
X0001062917Y0003029808D01*
X0001095912Y0003083239D02*
X0001032920Y0003122609D01*
X0001095912Y0003122609D02*
X0001032920Y0003083239D01*
X0001549872Y0001458673D02*
X0001544725Y0001399842D01*
X0001567136Y0001397882D01*
X0001572984Y0001400193D01*
X0001576031Y0001402749D01*
X0001579322Y0001408107D01*
X0001580058Y0001416511D01*
X0001577746Y0001422359D01*
X0001575190Y0001425406D01*
X0001569832Y0001428698D01*
X0001547421Y0001430658D01*
X0001597952Y0001395186D02*
X0001617106Y0001452790D01*
X0001624636Y0001409788D01*
X0001639518Y0001450830D01*
X0001648378Y0001390774D01*
X0001709554Y0001444702D02*
X0001687493Y0001418404D01*
X0001675937Y0001447643D02*
X0001670790Y0001388813D01*
X0001693201Y0001386852D01*
X0001699049Y0001389164D01*
X0001702096Y0001391720D01*
X0001705388Y0001397078D01*
X0001706123Y0001405482D01*
X0001703812Y0001411330D01*
X0001701255Y0001414377D01*
X0001695897Y0001417668D01*
X0001673486Y0001419629D01*
X0000779067Y0001289358D02*
X0000775159Y0001284432D01*
X0000767513Y0001280867D01*
X0000758678Y0001279850D01*
X0000751204Y0001282571D01*
X0000746278Y0001286480D01*
X0000738976Y0001295486D01*
X0000735410Y0001303132D01*
X0000733205Y0001314515D01*
X0000733377Y0001320801D01*
X0000736097Y0001328275D01*
X0000742555Y0001334389D01*
X0000747652Y0001336766D01*
X0000756487Y0001337783D01*
X0000760224Y0001336423D01*
X0000768543Y0001318582D01*
X0000758348Y0001313828D01*
X0000780785Y0001352216D02*
X0000805743Y0001298694D01*
X0000811369Y0001366478D01*
X0000836327Y0001312956D01*
X0000836856Y0001378362D02*
X0000861813Y0001324840D01*
X0000874557Y0001330783D01*
X0000881014Y0001336897D01*
X0000883735Y0001344371D01*
X0000883907Y0001350657D01*
X0000881701Y0001362040D01*
X0000878136Y0001369686D01*
X0000870833Y0001378692D01*
X0000865908Y0001382601D01*
X0000858433Y0001385321D01*
X0000849599Y0001384305D01*
X0000836856Y0001378362D01*
X0000717385Y0001361749D02*
X0000750518Y0001377199D01*
X0000723170Y0001389269D01*
X0000730816Y0001392834D01*
X0000734725Y0001397760D01*
X0000736085Y0001401497D01*
X0000736257Y0001407783D01*
X0000730314Y0001420526D01*
X0000725389Y0001424435D01*
X0000721652Y0001425795D01*
X0000715366Y0001425967D01*
X0000700074Y0001418836D01*
X0000696165Y0001413911D01*
X0000694805Y0001410173D01*
X0000760040Y0001403359D02*
X0000756144Y0001444982D01*
X0000785526Y0001415243D01*
X0000809138Y0001404533D02*
X0000842270Y0001419983D01*
X0000814922Y0001432054D01*
X0000822568Y0001435619D01*
X0000826477Y0001440545D01*
X0000827837Y0001444282D01*
X0000828009Y0001450567D01*
X0000822066Y0001463311D01*
X0000817141Y0001467220D01*
X0000813404Y0001468580D01*
X0000807118Y0001468752D01*
X0000791826Y0001461621D01*
X0000787917Y0001456695D01*
X0000786557Y0001452958D01*
D25*
X0000384275Y0003397282D02*
X0000562704Y0001357828D01*
X0000562704Y0001357828D02*
X0001111787Y0001405867D01*
X0001111787Y0001405867D02*
X0000933358Y0003445320D01*
X0000933358Y0003445320D02*
X0000384275Y0003397282D01*
X0001732638Y0001197669D02*
X0001671846Y0001202988D01*
X0001523378Y0001227043D02*
X0001622997Y0001218327D01*
X0001622997Y0001218327D02*
X0001631713Y0001317947D01*
X0001682483Y0001324570D02*
X0001743275Y0001319252D01*
X0001743275Y0001319252D02*
X0001732638Y0001197669D01*
X0001631713Y0001317947D02*
X0001532093Y0001326662D01*
X0001532093Y0001326662D02*
X0001523378Y0001227043D01*
X0001048194Y0002565136D02*
X0001022047Y0002863995D01*
X0001147814Y0002573852D02*
X0001121667Y0002872710D01*
X0001168472Y0002464212D02*
X0001163153Y0002525003D01*
X0001022047Y0002863995D02*
X0001121667Y0002872710D01*
X0001147814Y0002573852D02*
X0001048194Y0002565136D01*
X0001041570Y0002514366D02*
X0001046889Y0002453575D01*
X0001046889Y0002453575D02*
X0001168472Y0002464212D01*
X0000584469Y0001226934D02*
X0000593184Y0001127315D01*
X0000563811Y0001336575D02*
X0000569129Y0001275783D01*
X0000584469Y0001226934D02*
X0000684088Y0001235650D01*
X0000690712Y0001286420D02*
X0000685394Y0001347212D01*
X0000685394Y0001347212D02*
X0000563811Y0001336575D01*
X0000684088Y0001235650D02*
X0000692804Y0001136030D01*
X0000692804Y0001136030D02*
X0000593184Y0001127315D01*
X0001109842Y0003010629D02*
X0001309842Y0003010629D01*
X0001309842Y0003010629D02*
X0001309842Y0002910629D01*
X0001309842Y0002910629D02*
X0001109842Y0002910629D01*
X0000998818Y0002899606D02*
X0001059842Y0002899606D01*
X0001109842Y0002910629D02*
X0001109842Y0003010629D01*
X0001059842Y0003021653D02*
X0000998818Y0003021653D01*
X0000998818Y0003021653D02*
X0000998818Y0002899606D01*
X0001720923Y0001357828D02*
X0001899352Y0003397282D01*
X0001899352Y0003397282D02*
X0001350268Y0003445320D01*
X0001350268Y0003445320D02*
X0001171839Y0001405867D01*
X0001171839Y0001405867D02*
X0001720923Y0001357828D01*
X0000895258Y0003396821D02*
X0000897616Y0003391381D01*
X0000899647Y0003389677D01*
X0000903546Y0003388136D01*
X0000909149Y0003388626D01*
X0000912720Y0003390821D01*
X0000914425Y0003392852D01*
X0000915965Y0003396751D01*
X0000914658Y0003411692D01*
X0000875438Y0003408260D01*
X0000876582Y0003395187D01*
X0000878776Y0003391615D01*
X0000880807Y0003389911D01*
X0000884706Y0003388370D01*
X0000888441Y0003388697D01*
X0000892013Y0003390891D01*
X0000893717Y0003392922D01*
X0000895258Y0003396821D01*
X0000894114Y0003409894D01*
X0000878543Y0003372775D02*
X0000880667Y0003348496D01*
X0000894464Y0003362877D01*
X0000894954Y0003357274D01*
X0000897149Y0003353702D01*
X0000899180Y0003351998D01*
X0000903078Y0003350457D01*
X0000912416Y0003351274D01*
X0000915988Y0003353468D01*
X0000917693Y0003355499D01*
X0000919233Y0003359398D01*
X0000918253Y0003370604D01*
X0000916059Y0003374176D01*
X0000914028Y0003375880D01*
X0000882791Y0003324217D02*
X0000883118Y0003320482D01*
X0000885312Y0003316910D01*
X0000887343Y0003315206D01*
X0000891242Y0003313665D01*
X0000898876Y0003312451D01*
X0000908214Y0003313268D01*
X0000915521Y0003315789D01*
X0000919093Y0003317983D01*
X0000920797Y0003320014D01*
X0000922338Y0003323913D01*
X0000922011Y0003327648D01*
X0000919817Y0003331220D01*
X0000917786Y0003332924D01*
X0000913887Y0003334465D01*
X0000906253Y0003335679D01*
X0000896915Y0003334862D01*
X0000889608Y0003332341D01*
X0000886036Y0003330147D01*
X0000884332Y0003328116D01*
X0000882791Y0003324217D01*
X0000926423Y0003277222D02*
X0000924462Y0003299634D01*
X0000925442Y0003288428D02*
X0000886222Y0003284997D01*
X0000891498Y0003289222D01*
X0000894907Y0003293284D01*
X0000896448Y0003297183D01*
D24*
X0000727624Y0001524881D02*
X0000732853Y0001465117D01*
X0000535393Y0003313396D02*
X0000595157Y0003318624D01*
X0000562661Y0003345892D02*
X0000567889Y0003286128D01*
D25*
X0001042675Y0002438282D02*
X0001046106Y0002399062D01*
X0001061047Y0002400369D01*
X0001064619Y0002402564D01*
X0001066324Y0002404595D01*
X0001067864Y0002408493D01*
X0001067374Y0002414096D01*
X0001065180Y0002417668D01*
X0001063149Y0002419372D01*
X0001059250Y0002420913D01*
X0001044309Y0002419606D01*
X0001102439Y0002443511D02*
X0001080028Y0002441550D01*
X0001091234Y0002442531D02*
X0001094665Y0002403310D01*
X0001090439Y0002408586D01*
X0001086377Y0002411995D01*
X0001082479Y0002413536D01*
X0001130150Y0002406415D02*
X0001133885Y0002406742D01*
X0001137457Y0002408936D01*
X0001139161Y0002410967D01*
X0001140702Y0002414866D01*
X0001141916Y0002422500D01*
X0001141099Y0002431838D01*
X0001138578Y0002439145D01*
X0001136383Y0002442717D01*
X0001134352Y0002444421D01*
X0001130454Y0002445962D01*
X0001126719Y0002445635D01*
X0001123147Y0002443441D01*
X0001121442Y0002441410D01*
X0001119902Y0002437511D01*
X0001118688Y0002429877D01*
X0001119505Y0002420539D01*
X0001122026Y0002413232D01*
X0001124220Y0002409660D01*
X0001126251Y0002407956D01*
X0001130150Y0002406415D01*
X0001177145Y0002450047D02*
X0001154733Y0002448086D01*
X0001165939Y0002449066D02*
X0001169370Y0002409846D01*
X0001165145Y0002415122D01*
X0001161083Y0002418531D01*
X0001157184Y0002420072D01*
X0001085414Y0002895763D02*
X0001085414Y0002856392D01*
X0001100412Y0002856392D01*
X0001104162Y0002858267D01*
X0001106036Y0002860142D01*
X0001107911Y0002863891D01*
X0001107911Y0002869516D01*
X0001106036Y0002873265D01*
X0001104162Y0002875140D01*
X0001100412Y0002877015D01*
X0001085414Y0002877015D01*
X0001145406Y0002895763D02*
X0001122909Y0002895763D01*
X0001134158Y0002895763D02*
X0001134158Y0002856392D01*
X0001130408Y0002862017D01*
X0001126659Y0002865766D01*
X0001122909Y0002867641D01*
X0001169778Y0002856392D02*
X0001173528Y0002856392D01*
X0001177277Y0002858267D01*
X0001179152Y0002860142D01*
X0001181027Y0002863891D01*
X0001182902Y0002871391D01*
X0001182902Y0002880764D01*
X0001181027Y0002888263D01*
X0001179152Y0002892013D01*
X0001177277Y0002893888D01*
X0001173528Y0002895763D01*
X0001169778Y0002895763D01*
X0001166029Y0002893888D01*
X0001164154Y0002892013D01*
X0001162279Y0002888263D01*
X0001160404Y0002880764D01*
X0001160404Y0002871391D01*
X0001162279Y0002863891D01*
X0001164154Y0002860142D01*
X0001166029Y0002858267D01*
X0001169778Y0002856392D01*
X0001197900Y0002860142D02*
X0001199775Y0002858267D01*
X0001203524Y0002856392D01*
X0001212898Y0002856392D01*
X0001216647Y0002858267D01*
X0001218522Y0002860142D01*
X0001220397Y0002863891D01*
X0001220397Y0002867641D01*
X0001218522Y0002873265D01*
X0001196025Y0002895763D01*
X0001220397Y0002895763D01*
X0001217782Y0001447014D02*
X0001216405Y0001452780D01*
X0001214700Y0001454811D01*
X0001211129Y0001457005D01*
X0001205526Y0001457495D01*
X0001201627Y0001455955D01*
X0001199596Y0001454250D01*
X0001197402Y0001450679D01*
X0001196094Y0001435737D01*
X0001235315Y0001432306D01*
X0001236458Y0001445380D01*
X0001234918Y0001449278D01*
X0001233213Y0001451309D01*
X0001229642Y0001453504D01*
X0001225906Y0001453830D01*
X0001222008Y0001452290D01*
X0001219977Y0001450585D01*
X0001217782Y0001447014D01*
X0001216638Y0001433940D01*
X0001238419Y0001467791D02*
X0001240543Y0001492070D01*
X0001224459Y0001480304D01*
X0001224949Y0001485907D01*
X0001223408Y0001489806D01*
X0001221704Y0001491837D01*
X0001218132Y0001494031D01*
X0001208794Y0001494848D01*
X0001204895Y0001493307D01*
X0001202864Y0001491603D01*
X0001200670Y0001488031D01*
X0001199689Y0001476825D01*
X0001201230Y0001472927D01*
X0001202934Y0001470896D01*
X0001242668Y0001516350D02*
X0001242994Y0001520085D01*
X0001241453Y0001523983D01*
X0001239749Y0001526015D01*
X0001236177Y0001528209D01*
X0001228870Y0001530730D01*
X0001219532Y0001531547D01*
X0001211898Y0001530333D01*
X0001208000Y0001528792D01*
X0001205968Y0001527088D01*
X0001203774Y0001523516D01*
X0001203447Y0001519781D01*
X0001204988Y0001515882D01*
X0001206692Y0001513851D01*
X0001210264Y0001511657D01*
X0001217571Y0001509136D01*
X0001226910Y0001508319D01*
X0001234543Y0001509533D01*
X0001238442Y0001511073D01*
X0001240473Y0001512778D01*
X0001242668Y0001516350D01*
X0001241383Y0001544691D02*
X0001243414Y0001546395D01*
X0001245609Y0001549967D01*
X0001246426Y0001559305D01*
X0001244885Y0001563204D01*
X0001243181Y0001565235D01*
X0001239609Y0001567429D01*
X0001235873Y0001567756D01*
X0001230107Y0001566379D01*
X0001205735Y0001545928D01*
X0001207859Y0001570207D01*
D24*
X0001707928Y0003261405D02*
X0001713157Y0003321169D01*
X0001527883Y0001483116D02*
X0001587647Y0001477887D01*
X0001560379Y0001510384D02*
X0001555151Y0001450619D01*
M02*