%
M48
METRIC,000.000
T01C0.50
%
T01
X047294Y023545
X047211Y022548
X047128Y021551
X047045Y020555
X046962Y019558
X046879Y018562
X043740Y019093
X043964Y020068
X044124Y021055
X044219Y022050
X044254Y023049
X049702Y052444
X049619Y051448
X049536Y050451
X049453Y049455
X049370Y048458
X049287Y047462
X046331Y047963
X046414Y048959
X046497Y049956
X046580Y050952
X046663Y051949
X051933Y079350
X051811Y078357
X051755Y077359
X051695Y076361
X048656Y075866
X048739Y076862
X048822Y077859
X048905Y078855
X048988Y079852
X049071Y080849
M30