%MOIN*%
%OFA0B0*%
%FSLAX46Y46*%
%IPPOS*%
%LPD*%
%ADD10C,0.0039370078740157488*%
%ADD11C,0.0591*%
%ADD12C,0.07874015748031496*%
%ADD13C,0.08*%
%ADD14C,0.068*%
%ADD15R,0.068X0.08*%
%ADD16O,0.068X0.08*%
%ADD17C,0.984251968503937*%
%ADD18C,0.02677165354330709*%
%ADD19C,0.012000000000000002*%
%ADD20C,0.04*%
%ADD21C,0.015748031496062995*%
%ADD22C,0.006000000000000001*%
%ADD23C,0.03125*%
%ADD34C,0.0039370078740157488*%
%ADD35C,0.0591*%
%ADD36C,0.07874015748031496*%
%ADD37C,0.08*%
%ADD38C,0.068*%
%ADD39R,0.068X0.08*%
%ADD40O,0.068X0.08*%
%ADD41C,0.984251968503937*%
%ADD42C,0.02677165354330709*%
%ADD43C,0.012000000000000002*%
%ADD44C,0.04*%
%ADD45C,0.015748031496062995*%
%ADD46C,0.006000000000000001*%
%ADD47C,0.03125*%
G01*
D10*
D11*
X0002578630Y0001197880D02*
X0002539479Y0001201305D01*
X0002569914Y0001098260D02*
X0002530764Y0001101686D01*
X0002587345Y0001297500D02*
X0002548195Y0001300925D01*
D12*
X0002952918Y0002433577D03*
X0003111806Y0000617482D03*
D10*
G36*
X0002059028Y0002636866D02*
X0002066000Y0002716562D01*
X0002145696Y0002709589D01*
X0002138723Y0002629894D01*
X0002059028Y0002636866D01*
X0002059028Y0002636866D01*
G37*
D13*
X0002201981Y0002664512D02*
X0002201981Y0002664512D01*
D10*
G36*
X0002714049Y0001454679D02*
X0002719976Y0001386938D01*
X0002640280Y0001379965D01*
X0002634354Y0001447707D01*
X0002714049Y0001454679D01*
X0002714049Y0001454679D01*
G37*
D14*
X0002691858Y0001318226D02*
X0002679903Y0001317180D01*
X0002700573Y0001218606D02*
X0002688619Y0001217560D01*
X0002709289Y0001118987D02*
X0002697334Y0001117941D01*
D10*
G36*
X0003113244Y0002612571D02*
X0003106272Y0002692267D01*
X0003185967Y0002699239D01*
X0003192940Y0002619543D01*
X0003113244Y0002612571D01*
X0003113244Y0002612571D01*
G37*
D13*
X0003140890Y0002755525D02*
X0003140890Y0002755525D01*
D15*
X0002719685Y0000976377D03*
D16*
X0002619685Y0000976377D03*
X0002519685Y0000976377D03*
D12*
X0002165354Y0000637288D03*
X0002324242Y0002453383D03*
D17*
X0002637795Y0003031496D03*
D18*
X0003181102Y0000523622D03*
X0002988188Y0000901574D03*
X0002165354Y0001610236D03*
X0002649606Y0001531496D03*
X0002488188Y0002212598D03*
X0002976377Y0001582677D03*
X0002944881Y0001472440D03*
X0002811023Y0001460629D03*
X0002391732Y0001972440D03*
X0002421259Y0002393700D03*
X0002456692Y0000720472D03*
X0002535433Y0002433070D03*
X0002874015Y0002559055D03*
X0002606299Y0001665354D03*
X0002787401Y0001685039D03*
X0002846456Y0001795275D03*
X0003047244Y0002011810D03*
X0002673228Y0001826771D03*
X0002586614Y0001527559D03*
X0003031496Y0001220472D03*
X0002799212Y0001850393D03*
X0002566929Y0001677165D03*
X0002311023Y0001429133D03*
X0002023622Y0001149606D03*
X0002614173Y0001783464D03*
X0001960629Y0001149606D03*
X0002622047Y0001838582D03*
X0002480314Y0001157480D03*
D19*
X0002519685Y0000976377D02*
X0002519685Y0000924377D01*
X0002519685Y0000924377D02*
X0002542488Y0000901574D01*
X0002542488Y0000901574D02*
X0002969258Y0000901574D01*
X0002969258Y0000901574D02*
X0002988188Y0000901574D01*
D20*
X0002988188Y0000850393D02*
X0003181102Y0000657480D01*
X0003181102Y0000657480D02*
X0003181102Y0000523622D01*
X0002988188Y0000901574D02*
X0002988188Y0000850393D01*
X0002976377Y0001582677D02*
X0002976377Y0001499235D01*
X0002976377Y0001499235D02*
X0002988188Y0001487424D01*
X0002988188Y0001487424D02*
X0002988188Y0000901574D01*
D19*
X0002649606Y0001531496D02*
X0002667716Y0001531496D01*
D20*
X0002574803Y0001984251D02*
X0002976377Y0001582677D01*
X0002488188Y0002070866D02*
X0002574803Y0001984251D01*
X0002574803Y0001984251D02*
X0002539370Y0001984251D01*
X0002539370Y0001984251D02*
X0002165354Y0001610236D01*
X0002488188Y0002212598D02*
X0002488188Y0002070866D01*
D19*
X0002667716Y0001531496D02*
X0002718897Y0001582677D01*
X0002718897Y0001582677D02*
X0002976377Y0001582677D01*
D20*
X0002669797Y0002394207D02*
X0002488188Y0002212598D01*
X0002952918Y0002433577D02*
X0002913548Y0002394207D01*
X0002913548Y0002394207D02*
X0002669797Y0002394207D01*
D21*
X0002703312Y0001118464D02*
X0002976377Y0001391530D01*
X0002976377Y0001391530D02*
X0002976377Y0001582677D01*
X0002559055Y0001199593D02*
X0002622183Y0001199593D01*
X0002622183Y0001199593D02*
X0002703312Y0001118464D01*
D19*
X0002952918Y0002433577D02*
X0002952918Y0002567552D01*
X0002952918Y0002567552D02*
X0003140890Y0002755525D01*
D20*
X0002102362Y0002673228D02*
X0002102362Y0002543307D01*
X0002102362Y0002543307D02*
X0002192285Y0002453383D01*
X0002192285Y0002453383D02*
X0002324242Y0002453383D01*
D22*
X0002677165Y0001417322D02*
X0002889763Y0001417322D01*
X0002889763Y0001417322D02*
X0002944881Y0001472440D01*
D20*
X0002567770Y0001426038D02*
X0002622412Y0001480680D01*
X0002622412Y0001480680D02*
X0002790973Y0001480680D01*
X0002790973Y0001480680D02*
X0002811023Y0001460629D01*
X0002567770Y0001299212D02*
X0002567770Y0001426038D01*
D23*
X0002169291Y0002106299D02*
X0002303149Y0001972440D01*
X0002303149Y0001972440D02*
X0002391732Y0001972440D01*
D20*
X0002169291Y0002141732D02*
X0002043307Y0002015748D01*
X0002421259Y0002393700D02*
X0002169291Y0002141732D01*
D23*
X0002169291Y0002141732D02*
X0002169291Y0002106299D01*
D20*
X0002433070Y0001217462D02*
X0002433070Y0001027559D01*
X0001921244Y0001066944D02*
X0001960629Y0001027559D01*
X0002433070Y0001027559D02*
X0002433070Y0000744094D01*
X0001960629Y0001027559D02*
X0002433070Y0001027559D01*
X0002043307Y0001322834D02*
X0001921244Y0001200771D01*
X0001921244Y0001200771D02*
X0001921244Y0001066944D01*
X0002043307Y0002015748D02*
X0002043307Y0001322834D01*
X0002433070Y0000744094D02*
X0002456692Y0000720472D01*
X0002567770Y0001299212D02*
X0002514820Y0001299212D01*
X0002514820Y0001299212D02*
X0002433070Y0001217462D01*
D19*
X0002582677Y0002480314D02*
X0002535433Y0002433070D01*
X0002818897Y0002480314D02*
X0002582677Y0002480314D01*
X0002860629Y0002522047D02*
X0002818897Y0002480314D01*
X0002874015Y0002559055D02*
X0002860629Y0002545669D01*
X0002860629Y0002545669D02*
X0002860629Y0002522047D01*
D21*
X0002787401Y0001685039D02*
X0002767716Y0001665354D01*
X0002767716Y0001665354D02*
X0002606299Y0001665354D01*
X0003047244Y0002011810D02*
X0002846456Y0001811023D01*
X0002846456Y0001811023D02*
X0002846456Y0001795275D01*
D22*
X0002811023Y0001649606D02*
X0002811023Y0001694548D01*
X0002811023Y0001694548D02*
X0002678800Y0001826771D01*
X0002678800Y0001826771D02*
X0002673228Y0001826771D01*
X0002799212Y0001637795D02*
X0002811023Y0001649606D01*
X0002696850Y0001637795D02*
X0002799212Y0001637795D01*
X0002586614Y0001527559D02*
X0002696850Y0001637795D01*
X0003031496Y0001577105D02*
X0003031496Y0001220472D01*
X0002799212Y0001850393D02*
X0002799212Y0001809388D01*
X0002799212Y0001809388D02*
X0003031496Y0001577105D01*
X0002311023Y0001429133D02*
X0002559055Y0001677165D01*
X0002559055Y0001677165D02*
X0002566929Y0001677165D01*
D19*
X0002614173Y0001783464D02*
X0002023622Y0001192913D01*
X0002023622Y0001192913D02*
X0002023622Y0001149606D01*
X0002622047Y0001838582D02*
X0001960629Y0001177165D01*
X0001960629Y0001177165D02*
X0001960629Y0001149606D01*
D22*
X0002480314Y0001157480D02*
X0002499245Y0001157480D01*
X0002596393Y0001153543D02*
X0002719685Y0001030251D01*
X0002499245Y0001157480D02*
X0002503182Y0001153543D01*
X0002503182Y0001153543D02*
X0002596393Y0001153543D01*
X0002719685Y0001030251D02*
X0002719685Y0000984251D01*
D20*
X0002165354Y0000637288D02*
X0003092000Y0000637288D01*
G04 next file*
G04 #@! TF.FileFunction,Copper,L2,Bot,Signal*
G04 Gerber Fmt 4.6, Leading zero omitted, Abs format (unit mm)*
G04 Created by KiCad (PCBNEW 4.0.2-stable) date Friday, February 24, 2017 'AMt' 12:00:47 AM*
G01*
G04 APERTURE LIST*
G04 APERTURE END LIST*
D34*
D35*
X0001200897Y0002739127D02*
X0001240047Y0002735702D01*
X0001209612Y0002838746D02*
X0001248763Y0002835321D01*
X0001192181Y0002639507D02*
X0001231332Y0002636082D01*
D36*
X0000826608Y0001503430D03*
X0000667721Y0003319525D03*
D34*
G36*
X0001720499Y0001300141D02*
X0001713526Y0001220445D01*
X0001633831Y0001227417D01*
X0001640803Y0001307113D01*
X0001720499Y0001300141D01*
X0001720499Y0001300141D01*
G37*
D37*
X0001577545Y0001272495D02*
X0001577545Y0001272495D01*
D34*
G36*
X0001065477Y0002482328D02*
X0001059551Y0002550069D01*
X0001139246Y0002557041D01*
X0001145173Y0002489300D01*
X0001065477Y0002482328D01*
X0001065477Y0002482328D01*
G37*
D38*
X0001087669Y0002618781D02*
X0001099623Y0002619827D01*
X0001078953Y0002718401D02*
X0001090908Y0002719446D01*
X0001070238Y0002818020D02*
X0001082192Y0002819066D01*
D34*
G36*
X0000666282Y0001324436D02*
X0000673255Y0001244740D01*
X0000593559Y0001237768D01*
X0000586587Y0001317463D01*
X0000666282Y0001324436D01*
X0000666282Y0001324436D01*
G37*
D37*
X0000638636Y0001181482D02*
X0000638636Y0001181482D01*
D39*
X0001059842Y0002960629D03*
D40*
X0001159842Y0002960629D03*
X0001259842Y0002960629D03*
D36*
X0001614173Y0003299718D03*
X0001455285Y0001483624D03*
D41*
X0001141732Y0000905511D03*
D42*
X0000598425Y0003413385D03*
X0000791338Y0003035433D03*
X0001614173Y0002326771D03*
X0001129921Y0002405511D03*
X0001291338Y0001724409D03*
X0000803149Y0002354330D03*
X0000834645Y0002464566D03*
X0000968503Y0002476377D03*
X0001387795Y0001964566D03*
X0001358267Y0001543307D03*
X0001322834Y0003216535D03*
X0001244094Y0001503937D03*
X0000905511Y0001377952D03*
X0001173228Y0002271653D03*
X0000992125Y0002251968D03*
X0000933070Y0002141732D03*
X0000732283Y0001925196D03*
X0001106299Y0002110236D03*
X0001192913Y0002409448D03*
X0000748031Y0002716535D03*
X0000980314Y0002086614D03*
X0001212598Y0002259842D03*
X0001468503Y0002507874D03*
X0001755905Y0002787401D03*
X0001165354Y0002153543D03*
X0001818897Y0002787401D03*
X0001157480Y0002098425D03*
X0001299212Y0002779527D03*
D43*
X0001259842Y0002960629D02*
X0001259842Y0003012629D01*
X0001259842Y0003012629D02*
X0001237039Y0003035433D01*
X0001237039Y0003035433D02*
X0000810268Y0003035433D01*
X0000810268Y0003035433D02*
X0000791338Y0003035433D01*
D44*
X0000791338Y0003086614D02*
X0000598425Y0003279527D01*
X0000598425Y0003279527D02*
X0000598425Y0003413385D01*
X0000791338Y0003035433D02*
X0000791338Y0003086614D01*
X0000803149Y0002354330D02*
X0000803149Y0002437771D01*
X0000803149Y0002437771D02*
X0000791338Y0002449582D01*
X0000791338Y0002449582D02*
X0000791338Y0003035433D01*
D43*
X0001129921Y0002405511D02*
X0001111810Y0002405511D01*
D44*
X0001204724Y0001952755D02*
X0000803149Y0002354330D01*
X0001291338Y0001866141D02*
X0001204724Y0001952755D01*
X0001204724Y0001952755D02*
X0001240157Y0001952755D01*
X0001240157Y0001952755D02*
X0001614173Y0002326771D01*
X0001291338Y0001724409D02*
X0001291338Y0001866141D01*
D43*
X0001111810Y0002405511D02*
X0001060629Y0002354330D01*
X0001060629Y0002354330D02*
X0000803149Y0002354330D01*
D44*
X0001109729Y0001542800D02*
X0001291338Y0001724409D01*
X0000826608Y0001503430D02*
X0000865978Y0001542800D01*
X0000865978Y0001542800D02*
X0001109729Y0001542800D01*
D45*
X0001076215Y0002818543D02*
X0000803149Y0002545477D01*
X0000803149Y0002545477D02*
X0000803149Y0002354330D01*
X0001220472Y0002737414D02*
X0001157344Y0002737414D01*
X0001157344Y0002737414D02*
X0001076215Y0002818543D01*
D43*
X0000826608Y0001503430D02*
X0000826608Y0001369454D01*
X0000826608Y0001369454D02*
X0000638636Y0001181482D01*
D44*
X0001677165Y0001263779D02*
X0001677165Y0001393700D01*
X0001677165Y0001393700D02*
X0001587241Y0001483624D01*
X0001587241Y0001483624D02*
X0001455285Y0001483624D01*
D46*
X0001102362Y0002519685D02*
X0000889763Y0002519685D01*
X0000889763Y0002519685D02*
X0000834645Y0002464566D01*
D44*
X0001211756Y0002510969D02*
X0001157115Y0002456327D01*
X0001157115Y0002456327D02*
X0000988554Y0002456327D01*
X0000988554Y0002456327D02*
X0000968503Y0002476377D01*
X0001211756Y0002637795D02*
X0001211756Y0002510969D01*
D47*
X0001610236Y0001830708D02*
X0001476377Y0001964566D01*
X0001476377Y0001964566D02*
X0001387795Y0001964566D01*
D44*
X0001610236Y0001795275D02*
X0001736220Y0001921259D01*
X0001358267Y0001543307D02*
X0001610236Y0001795275D01*
D47*
X0001610236Y0001795275D02*
X0001610236Y0001830708D01*
D44*
X0001346456Y0002719545D02*
X0001346456Y0002909448D01*
X0001858283Y0002870062D02*
X0001818897Y0002909448D01*
X0001346456Y0002909448D02*
X0001346456Y0003192913D01*
X0001818897Y0002909448D02*
X0001346456Y0002909448D01*
X0001736220Y0002614173D02*
X0001858283Y0002736236D01*
X0001858283Y0002736236D02*
X0001858283Y0002870062D01*
X0001736220Y0001921259D02*
X0001736220Y0002614173D01*
X0001346456Y0003192913D02*
X0001322834Y0003216535D01*
X0001211756Y0002637795D02*
X0001264706Y0002637795D01*
X0001264706Y0002637795D02*
X0001346456Y0002719545D01*
D43*
X0001196850Y0001456692D02*
X0001244094Y0001503937D01*
X0000960629Y0001456692D02*
X0001196850Y0001456692D01*
X0000918897Y0001414960D02*
X0000960629Y0001456692D01*
X0000905511Y0001377952D02*
X0000918897Y0001391338D01*
X0000918897Y0001391338D02*
X0000918897Y0001414960D01*
D45*
X0000992125Y0002251968D02*
X0001011811Y0002271653D01*
X0001011811Y0002271653D02*
X0001173228Y0002271653D01*
X0000732283Y0001925196D02*
X0000933070Y0002125984D01*
X0000933070Y0002125984D02*
X0000933070Y0002141732D01*
D46*
X0000968503Y0002287401D02*
X0000968503Y0002242459D01*
X0000968503Y0002242459D02*
X0001100727Y0002110236D01*
X0001100727Y0002110236D02*
X0001106299Y0002110236D01*
X0000980314Y0002299212D02*
X0000968503Y0002287401D01*
X0001082677Y0002299212D02*
X0000980314Y0002299212D01*
X0001192913Y0002409448D02*
X0001082677Y0002299212D01*
X0000748031Y0002359902D02*
X0000748031Y0002716535D01*
X0000980314Y0002086614D02*
X0000980314Y0002127619D01*
X0000980314Y0002127619D02*
X0000748031Y0002359902D01*
X0001468503Y0002507874D02*
X0001220472Y0002259842D01*
X0001220472Y0002259842D02*
X0001212598Y0002259842D01*
D43*
X0001165354Y0002153543D02*
X0001755905Y0002744094D01*
X0001755905Y0002744094D02*
X0001755905Y0002787401D01*
X0001157480Y0002098425D02*
X0001818897Y0002759842D01*
X0001818897Y0002759842D02*
X0001818897Y0002787401D01*
D46*
X0001299212Y0002779527D02*
X0001280282Y0002779527D01*
X0001183133Y0002783464D02*
X0001059842Y0002906755D01*
X0001280282Y0002779527D02*
X0001276345Y0002783464D01*
X0001276345Y0002783464D02*
X0001183133Y0002783464D01*
X0001059842Y0002906755D02*
X0001059842Y0002952755D01*
D44*
X0001614173Y0003299718D02*
X0000687527Y0003299718D01*
M02*